<svg width="256" height="256" viewBox="0 0 256 256" fill="none" xmlns="http://www.w3.org/2000/svg">
<g filter="url(#filter0_d_346:811)">
<path opacity="0.95" d="M133.74 133.548C130.662 136.729 125.593 136.829 122.427 133.765C119.255 130.7 119.184 125.64 122.262 122.452C125.34 119.271 130.409 119.171 133.575 122.235C136.741 125.3 136.818 130.366 133.74 133.548Z" fill="url(#paint0_linear_346:811)"/>
<path opacity="0.34" d="M121.092 127.565C121.092 127.565 120.364 127.395 120.417 126.145C120.47 124.894 121.874 120.392 127.648 120.169C127.648 120.169 129.933 120.051 131.53 121.014C131.53 121.014 126.866 119.488 123.8 122.482C123.054 123.21 122.637 123.849 122.185 125.241C121.756 126.591 121.868 127.648 121.092 127.565Z" fill="url(#paint1_linear_346:811)"/>
<path opacity="0.64" d="M132.601 122.358C134.339 123.902 134.709 126.332 133.417 127.782C132.131 129.232 129.675 129.15 127.937 127.606C126.198 126.062 125.828 123.632 127.12 122.182C128.407 120.732 130.862 120.814 132.601 122.358Z" fill="url(#paint2_linear_346:811)"/>
<path opacity="0.19" d="M134.791 128.351C134.791 128.351 135.519 128.521 135.466 129.772C135.413 131.022 134.009 135.525 128.235 135.748C128.235 135.748 125.95 135.865 124.353 134.903C124.353 134.903 129.017 136.429 132.083 133.435C132.829 132.707 133.246 132.067 133.698 130.676C134.127 129.326 134.015 128.263 134.791 128.351Z" fill="url(#paint3_linear_346:811)"/>
</g>
<defs>
<filter id="filter0_d_346:811" x="0" y="0" width="256" height="256" filterUnits="userSpaceOnUse" color-interpolation-filters="sRGB">
<feFlood flood-opacity="0" result="BackgroundImageFix"/>
<feColorMatrix in="SourceAlpha" type="matrix" values="0 0 0 0 0 0 0 0 0 0 0 0 0 0 0 0 0 0 127 0" result="hardAlpha"/>
<feOffset/>
<feGaussianBlur stdDeviation="60"/>
<feComposite in2="hardAlpha" operator="out"/>
<feColorMatrix type="matrix" values="0 0 0 0 0 0 0 0 0 0 0 0 0 0 0 0 0 0 0.33 0"/>
<feBlend mode="normal" in2="BackgroundImageFix" result="effect1_dropShadow_346:811"/>
<feBlend mode="normal" in="SourceGraphic" in2="effect1_dropShadow_346:811" result="shape"/>
</filter>
<linearGradient id="paint0_linear_346:811" x1="134.359" y1="124.572" x2="112.04" y2="136.719" gradientUnits="userSpaceOnUse">
<stop stop-color="#F45E64"/>
<stop offset="0.201" stop-color="#E84542"/>
<stop offset="0.554" stop-color="#B80F0C"/>
<stop offset="1" stop-color="#8161ED" stop-opacity="0"/>
</linearGradient>
<linearGradient id="paint1_linear_346:811" x1="131.383" y1="124.195" x2="120.561" y2="123.637" gradientUnits="userSpaceOnUse">
<stop offset="0.1034" stop-color="white" stop-opacity="0"/>
<stop offset="0.363" stop-color="white" stop-opacity="0.6"/>
<stop offset="1" stop-color="white" stop-opacity="0"/>
</linearGradient>
<linearGradient id="paint2_linear_346:811" x1="127.938" y1="127.646" x2="132.599" y2="122.4" gradientUnits="userSpaceOnUse">
<stop offset="0.103" stop-color="white" stop-opacity="0"/>
<stop offset="0.363" stop-color="white" stop-opacity="0.1"/>
<stop offset="1" stop-color="white" stop-opacity="0.965"/>
</linearGradient>
<linearGradient id="paint3_linear_346:811" x1="124.497" y1="131.72" x2="135.32" y2="132.278" gradientUnits="userSpaceOnUse">
<stop offset="0.1034" stop-color="white" stop-opacity="0"/>
<stop offset="0.363" stop-color="white" stop-opacity="0.6"/>
<stop offset="1" stop-color="white" stop-opacity="0"/>
</linearGradient>
</defs>
</svg>
