<?xml version="1.0" encoding="utf-8"?>
<!-- Generator: Adobe Illustrator 24.3.0, SVG Export Plug-In . SVG Version: 6.00 Build 0)  -->
<svg version="1.1" id="Слой_1" xmlns="http://www.w3.org/2000/svg" xmlns:xlink="http://www.w3.org/1999/xlink" x="0px" y="0px"
	 viewBox="0 0 120 120" style="enable-background:new 0 0 120 120;" xml:space="preserve">
<style type="text/css">
	.st0{opacity:0.95;fill:url(#SVGID_1_);enable-background:new    ;}
	.st1{opacity:0.34;fill:url(#SVGID_2_);enable-background:new    ;}
	.st2{opacity:0.64;fill:url(#SVGID_3_);enable-background:new    ;}
	.st3{opacity:0.19;fill:url(#SVGID_4_);enable-background:new    ;}
</style>
<g>
	
		<linearGradient id="SVGID_1_" gradientUnits="userSpaceOnUse" x1="106.1967" y1="85.8955" x2="-53.0334" y2="-0.7646" gradientTransform="matrix(1 0 0 -1 0 122)">
		<stop  offset="0" style="stop-color:#F45E64"/>
		<stop  offset="0.201" style="stop-color:#E84542"/>
		<stop  offset="0.554" style="stop-color:#B80F0C"/>
		<stop  offset="1" style="stop-color:#8161ED;stop-opacity:0"/>
	</linearGradient>
	<path class="st0" d="M101.9,100.3c-22,22.7-58.1,23.4-80.7,1.5C-1.5,80-2,43.9,20,21.2c22-22.7,58.1-23.4,80.7-1.5
		C123.3,41.5,123.8,77.6,101.9,100.3z"/>
	
		<linearGradient id="SVGID_2_" gradientUnits="userSpaceOnUse" x1="85.0546" y1="88.2658" x2="7.8633" y2="92.2459" gradientTransform="matrix(1 0 0 -1 0 122)">
		<stop  offset="0.1034" style="stop-color:#FFFFFF;stop-opacity:0"/>
		<stop  offset="0.363" style="stop-color:#FFFFFF;stop-opacity:0.6"/>
		<stop  offset="1" style="stop-color:#FFFFFF;stop-opacity:0"/>
	</linearGradient>
	<path class="st1" d="M11.6,57.6c0,0-5.2-1.2-4.8-10.1c0.4-8.9,10.4-41,51.6-42.6c0,0,16.3-0.8,27.7,6c0,0-33.3-10.9-55.1,10.5
		c-5.3,5.2-8.3,9.8-11.5,19.7C16.4,50.7,17.2,58.2,11.6,57.6z"/>
	
		<linearGradient id="SVGID_3_" gradientUnits="userSpaceOnUse" x1="60.3391" y1="63.9159" x2="93.6085" y2="101.361" gradientTransform="matrix(1 0 0 -1 0 122)">
		<stop  offset="0.103" style="stop-color:#FFFFFF;stop-opacity:0"/>
		<stop  offset="0.363" style="stop-color:#FFFFFF;stop-opacity:0.1"/>
		<stop  offset="1" style="stop-color:#FFFFFF;stop-opacity:0.965"/>
	</linearGradient>
	<path class="st2" d="M93.8,20.5c12.4,11,15,28.4,5.8,38.7c-9.2,10.3-26.7,9.8-39.1-1.3c-12.4-11-15-28.4-5.8-38.7
		C63.8,8.9,81.3,9.5,93.8,20.5z"/>
	
		<linearGradient id="SVGID_4_" gradientUnits="userSpaceOnUse" x1="35.9421" y1="34.8555" x2="113.1336" y2="30.8757" gradientTransform="matrix(1 0 0 -1 0 122)">
		<stop  offset="0.1034" style="stop-color:#FFFFFF;stop-opacity:0"/>
		<stop  offset="0.363" style="stop-color:#FFFFFF;stop-opacity:0.6"/>
		<stop  offset="1" style="stop-color:#FFFFFF;stop-opacity:0"/>
	</linearGradient>
	<path class="st3" d="M109.4,63.2c0,0,5.2,1.2,4.8,10.1c-0.4,8.9-10.4,41-51.6,42.6c0,0-16.3,0.8-27.7-6c0,0,33.3,10.9,55.1-10.5
		c5.3-5.2,8.3-9.8,11.5-19.7C104.6,70.2,103.8,62.6,109.4,63.2z"/>
</g>
</svg>
