<?xml version="1.0" encoding="utf-8"?>
<!-- Generator: Adobe Illustrator 24.3.0, SVG Export Plug-In . SVG Version: 6.00 Build 0)  -->
<svg version="1.1" id="Слой_1" xmlns="http://www.w3.org/2000/svg" xmlns:xlink="http://www.w3.org/1999/xlink" x="0px" y="0px"
	 viewBox="0 0 183 183" style="enable-background:new 0 0 183 183;" xml:space="preserve">
<style type="text/css">
	.st0{opacity:0.95;fill:url(#SVGID_1_);enable-background:new    ;}
	.st1{opacity:0.34;fill:url(#SVGID_2_);enable-background:new    ;}
	.st2{opacity:0.64;fill:url(#SVGID_3_);enable-background:new    ;}
	.st3{opacity:0.19;fill:url(#SVGID_4_);enable-background:new    ;}
</style>
<g>
	
		<linearGradient id="SVGID_1_" gradientUnits="userSpaceOnUse" x1="3.02" y1="92.5123" x2="180" y2="92.5123" gradientTransform="matrix(1 0 0 -1 0 184)">
		<stop  offset="0" style="stop-color:#CE302D"/>
		<stop  offset="1" style="stop-color:#EB6D00"/>
	</linearGradient>
	<path class="st0" d="M155,152.9c-34,35.2-90.1,36.3-125.1,2.4C-5.2,121.4-6,65.4,28,30.1c34-35.2,90.1-36.3,125.1-2.4
		C188.2,61.6,189,117.7,155,152.9z"/>
	
		<linearGradient id="SVGID_2_" gradientUnits="userSpaceOnUse" x1="128.9248" y1="134.375" x2="9.246" y2="140.5447" gradientTransform="matrix(1 0 0 -1 0 184)">
		<stop  offset="0.1034" style="stop-color:#FFFFFF;stop-opacity:0"/>
		<stop  offset="0.363" style="stop-color:#FFFFFF;stop-opacity:0.6"/>
		<stop  offset="1" style="stop-color:#FFFFFF;stop-opacity:0"/>
	</linearGradient>
	<path class="st1" d="M15.1,86.7c0,0-8.1-1.9-7.5-15.7c0.6-13.8,16.1-63.6,80-66.1c0,0,25.3-1.3,42.9,9.3c0,0-51.6-16.9-85.5,16.2
		c-8.2,8-12.9,15.1-17.9,30.5C22.5,75.9,23.7,87.6,15.1,86.7z"/>
	
		<linearGradient id="SVGID_3_" gradientUnits="userSpaceOnUse" x1="90.5976" y1="96.6231" x2="142.1768" y2="154.6766" gradientTransform="matrix(1 0 0 -1 0 184)">
		<stop  offset="0.103" style="stop-color:#FFFFFF;stop-opacity:0"/>
		<stop  offset="0.363" style="stop-color:#FFFFFF;stop-opacity:0.1"/>
		<stop  offset="1" style="stop-color:#FFFFFF;stop-opacity:0.965"/>
	</linearGradient>
	<path class="st2" d="M142.4,29.1c19.2,17.1,23.3,44,9,60c-14.2,16-41.4,15.1-60.6-1.9c-19.2-17.1-23.3-44-9-60
		C96,11.1,123.2,12,142.4,29.1z"/>
	
		<linearGradient id="SVGID_4_" gradientUnits="userSpaceOnUse" x1="52.7853" y1="51.5541" x2="172.4642" y2="45.3843" gradientTransform="matrix(1 0 0 -1 0 184)">
		<stop  offset="0.1034" style="stop-color:#FFFFFF;stop-opacity:0"/>
		<stop  offset="0.363" style="stop-color:#FFFFFF;stop-opacity:0.6"/>
		<stop  offset="1" style="stop-color:#FFFFFF;stop-opacity:0"/>
	</linearGradient>
	<path class="st3" d="M166.6,95.4c0,0,8.1,1.9,7.5,15.7s-16.1,63.6-80,66.1c0,0-25.3,1.3-42.9-9.3c0,0,51.6,16.9,85.5-16.2
		c8.2-8.1,12.9-15.1,17.9-30.5C159.3,106.2,158.1,94.4,166.6,95.4z"/>
</g>
</svg>
