<?xml version="1.0" encoding="utf-8"?>
<!-- Generator: Adobe Illustrator 24.3.0, SVG Export Plug-In . SVG Version: 6.00 Build 0)  -->
<svg version="1.1" id="Слой_1" xmlns="http://www.w3.org/2000/svg" xmlns:xlink="http://www.w3.org/1999/xlink" x="0px" y="0px"
	 viewBox="0 0 66 66" style="enable-background:new 0 0 66 66;" xml:space="preserve">
<style type="text/css">
	.st0{fill:#CEE1F2;}
	.st1{fill:#3A3535;}
	.st2{fill:url(#SVGID_1_);}
</style>
<path class="st0" d="M37,47.3c-1.3,0.4-2.6,0.5-4,0.5c-8.2,0-14.8-6.6-14.8-14.8S24.8,18.2,33,18.2c1.4,0,2.7,0.2,4,0.5
	c-6.2,1.7-10.8,7.5-10.8,14.3S30.7,45.5,37,47.3z M10.3,33c0-15.5,11.6-28.3,26.6-30.2c-1.3-0.2-2.6-0.2-3.9-0.2
	C16.2,2.6,2.6,16.2,2.6,33S16.2,63.4,33,63.4c1.3,0,2.6-0.1,3.9-0.2C21.9,61.3,10.3,48.5,10.3,33z"/>
<path class="st1" d="M33,66c-8.8,0-17.1-3.4-23.3-9.7C3.4,50.1,0,41.8,0,33S3.4,15.9,9.7,9.7C15.9,3.4,24.2,0,33,0
	c10.6,0,20.6,5.1,26.8,13.7c0.8,1.2,0.6,2.8-0.6,3.6c-1.2,0.8-2.8,0.6-3.6-0.6C50.4,9.5,42,5.2,33,5.2C17.6,5.2,5.2,17.6,5.2,33
	S17.6,60.8,33,60.8c9,0,17.4-4.3,22.7-11.6c0.8-1.2,2.4-1.4,3.6-0.6c1.2,0.8,1.4,2.4,0.6,3.6C53.6,60.9,43.6,66,33,66z M45.4,45.1
	c1-1,1-2.7-0.1-3.6c-1-1-2.7-1-3.6,0.1c-2.3,2.4-5.4,3.7-8.7,3.7c-6.8,0-12.2-5.5-12.2-12.2S26.2,20.8,33,20.8
	c3.3,0,6.4,1.3,8.7,3.7c1,1,2.6,1,3.6,0.1c1-1,1-2.6,0.1-3.6c-3.3-3.4-7.7-5.3-12.4-5.3c-9.6,0-17.4,7.8-17.4,17.4
	S23.4,50.4,33,50.4C37.7,50.4,42.1,48.5,45.4,45.1z"/>
<linearGradient id="SVGID_1_" gradientUnits="userSpaceOnUse" x1="48.211" y1="44.0552" x2="48.211" y2="23.9458" gradientTransform="matrix(1 0 0 -1 0 67)">
	<stop  offset="0" style="stop-color:#FF4E50"/>
	<stop  offset="1" style="stop-color:#F9D423"/>
</linearGradient>
<path class="st2" d="M62.2,35.6c-0.7-0.7-1.1-1.6-1.1-2.6c0-1,0.4-1.9,1.1-2.6l3-3c1-1,1-2.6,0-3.6c-1-1-2.6-1-3.6,0l-3,3
	c-1.1,1.1-1.8,2.3-2.2,3.7H33c-1.4,0-2.6,1.2-2.6,2.6c0,1.4,1.2,2.6,2.6,2.6h23.3c0.4,1.4,1.2,2.7,2.2,3.7l3,3
	c0.5,0.5,1.2,0.7,1.8,0.7c0.7,0,1.3-0.3,1.8-0.8c1-1,1-2.6,0-3.6L62.2,35.6z"/>
</svg>
