<?xml version="1.0" encoding="utf-8"?>
<!-- Generator: Adobe Illustrator 24.3.0, SVG Export Plug-In . SVG Version: 6.00 Build 0)  -->
<svg version="1.1" id="Слой_1" xmlns="http://www.w3.org/2000/svg" xmlns:xlink="http://www.w3.org/1999/xlink" x="0px" y="0px"
	 viewBox="0 0 66 66" style="enable-background:new 0 0 66 66;" xml:space="preserve">
<style type="text/css">
	.st0{fill:#E7E7E7;}
	.st1{fill:#3A3535;}
	.st2{fill:url(#SVGID_1_);}
</style>
<path class="st0" d="M36.9,54.5h-4c-3.8,0-7-3.1-7-7V18.3c0-3.8,3.1-7,7-7c1.4,0,2.7,0.4,3.8,1.1c-1.9,1.2-3.2,3.4-3.2,5.8v29.3
	c0,2.6,1.4,4.8,3.4,6C36.9,53.9,36.9,54.2,36.9,54.5z M10.2,26V9.5c0-2.4,1.3-4.6,3.2-5.8C12.2,3,10.9,2.6,9.5,2.6c-3.8,0-7,3.1-7,7
	V26c0,3.8,3.1,7,7,7H17l0,0C13.2,32.9,10.2,29.8,10.2,26z"/>
<path class="st1" d="M33,57.1c-5.3,0-9.5-4.3-9.5-9.5V18.4c0-5.3,4.3-9.5,9.5-9.5s9.5,4.3,9.5,9.5v29.1C42.5,52.8,38.3,57.1,33,57.1
	z M33,14.1c-2.4,0-4.4,2-4.4,4.4v29.1c0,2.4,2,4.4,4.4,4.4s4.4-2,4.4-4.4V18.4C37.4,16,35.4,14.1,33,14.1z M66,56.5V40
	c0-5.3-4.3-9.5-9.5-9.5h-6.8c-1.4,0-2.6,1.2-2.6,2.6c0,1.4,1.2,2.6,2.6,2.6h6.8c2.4,0,4.4,2,4.4,4.4v16.5c0,2.4-2,4.4-4.4,4.4
	c-2.4,0-4.4-2-4.4-4.4V43.3c0-1.4-1.2-2.6-2.6-2.6s-2.6,1.2-2.6,2.6v13.1c0,5.3,4.3,9.5,9.5,9.5S66,61.7,66,56.5z M19.6,33
	c0-1.4-1.2-2.6-2.6-2.6H9.5c-2.4,0-4.4-2-4.4-4.4V9.5c0-2.4,2-4.4,4.4-4.4c2.4,0,4.4,2,4.4,4.4v13.3c0,1.4,1.2,2.6,2.6,2.6
	s2.6-1.2,2.6-2.6V9.5c0-5.3-4.3-9.5-9.5-9.5C4.3,0,0,4.3,0,9.5V26c0,5.3,4.3,9.5,9.5,9.5H17C18.4,35.6,19.6,34.4,19.6,33z"/>
<linearGradient id="SVGID_1_" gradientUnits="userSpaceOnUse" x1="33" y1="66.7874" x2="33" y2="4.7835" gradientTransform="matrix(1 0 0 -1 0 66.7875)">
	<stop  offset="0" style="stop-color:#FF4E50"/>
	<stop  offset="1" style="stop-color:#F9D423"/>
</linearGradient>
<path class="st2" d="M19.3,59.4c0,1.4-1.2,2.6-2.6,2.6H2.6C1.2,62,0,60.8,0,59.4s1.2-2.6,2.6-2.6h14.2C18.2,56.8,19.3,58,19.3,59.4z
	 M63.4,7.2h-4.6V2.6c0-1.4-1.2-2.6-2.6-2.6c-1.4,0-2.6,1.2-2.6,2.6v4.6h-4.4c-1.4,0-2.6,1.2-2.6,2.6c0,1.4,1.2,2.6,2.6,2.6h4.4v4.4
	c0,1.4,1.2,2.6,2.6,2.6c1.4,0,2.6-1.2,2.6-2.6v-4.4h4.6c1.4,0,2.6-1.2,2.6-2.6C66,8.4,64.8,7.2,63.4,7.2z"/>
</svg>
