<svg width="771" height="1208" viewBox="0 0 771 1208" fill="none" xmlns="http://www.w3.org/2000/svg">
<g filter="url(#filter0_f_504_556)">
<path d="M386 1198L86 898H386V1198Z" fill="url(#paint0_linear_504_556)"/>
</g>
<g filter="url(#filter1_f_504_556)">
<path d="M761 386L461 86V386H761Z" fill="url(#paint1_linear_504_556)"/>
</g>
<g filter="url(#filter2_dd_504_556)">
<path d="M427 70H120C92.3858 70 70 92.3858 70 120V864C70 891.614 92.3858 914 120 914H427C454.614 914 477 891.614 477 864V120C477 92.3858 454.614 70 427 70Z" fill="url(#paint2_linear_504_556)"/>
</g>
<mask id="mask0_504_556" style="mask-type:alpha" maskUnits="userSpaceOnUse" x="86" y="86" width="375" height="812">
<path d="M425 86H122C102.118 86 86 102.118 86 122V862C86 881.882 102.118 898 122 898H425C444.882 898 461 881.882 461 862V122C461 102.118 444.882 86 425 86Z" fill="white"/>
</mask>
<g mask="url(#mask0_504_556)">
<path d="M459 86H88C86.8954 86 86 86.8954 86 88V896C86 897.105 86.8954 898 88 898H459C460.105 898 461 897.105 461 896V88C461 86.8954 460.105 86 459 86Z" fill="url(#paint3_linear_504_556)"/>
</g>
<mask id="mask1_504_556" style="mask-type:alpha" maskUnits="userSpaceOnUse" x="146" y="353" width="255" height="277">
<path d="M399 353H148C146.895 353 146 353.895 146 355V628C146 629.105 146.895 630 148 630H399C400.105 630 401 629.105 401 628V355C401 353.895 400.105 353 399 353Z" fill="white"/>
</mask>
<g mask="url(#mask1_504_556)">
<path d="M399 353H148C146.895 353 146 353.895 146 355V628C146 629.105 146.895 630 148 630H399C400.105 630 401 629.105 401 628V355C401 353.895 400.105 353 399 353Z" stroke="white" stroke-width="6"/>
<path d="M377.45 402.939L377.476 376.356L350.893 376.383" stroke="white" stroke-width="3"/>
<path d="M169.305 580L169.279 606.583L195.862 606.556" stroke="white" stroke-width="3"/>
</g>
<defs>
<filter id="filter0_f_504_556" x="76" y="888" width="320" height="320" filterUnits="userSpaceOnUse" color-interpolation-filters="sRGB">
<feFlood flood-opacity="0" result="BackgroundImageFix"/>
<feBlend mode="normal" in="SourceGraphic" in2="BackgroundImageFix" result="shape"/>
<feGaussianBlur stdDeviation="5" result="effect1_foregroundBlur_504_556"/>
</filter>
<filter id="filter1_f_504_556" x="451" y="76" width="320" height="320" filterUnits="userSpaceOnUse" color-interpolation-filters="sRGB">
<feFlood flood-opacity="0" result="BackgroundImageFix"/>
<feBlend mode="normal" in="SourceGraphic" in2="BackgroundImageFix" result="shape"/>
<feGaussianBlur stdDeviation="5" result="effect1_foregroundBlur_504_556"/>
</filter>
<filter id="filter2_dd_504_556" x="0" y="0" width="707" height="1144" filterUnits="userSpaceOnUse" color-interpolation-filters="sRGB">
<feFlood flood-opacity="0" result="BackgroundImageFix"/>
<feColorMatrix in="SourceAlpha" type="matrix" values="0 0 0 0 0 0 0 0 0 0 0 0 0 0 0 0 0 0 127 0" result="hardAlpha"/>
<feOffset dx="80" dy="80"/>
<feGaussianBlur stdDeviation="75"/>
<feColorMatrix type="matrix" values="0 0 0 0 0 0 0 0 0 0 0 0 0 0 0 0 0 0 0.25 0"/>
<feBlend mode="normal" in2="BackgroundImageFix" result="effect1_dropShadow_504_556"/>
<feColorMatrix in="SourceAlpha" type="matrix" values="0 0 0 0 0 0 0 0 0 0 0 0 0 0 0 0 0 0 127 0" result="hardAlpha"/>
<feOffset dx="20" dy="20"/>
<feGaussianBlur stdDeviation="25"/>
<feColorMatrix type="matrix" values="0 0 0 0 0 0 0 0 0 0 0 0 0 0 0 0 0 0 0.35 0"/>
<feBlend mode="normal" in2="effect1_dropShadow_504_556" result="effect2_dropShadow_504_556"/>
<feBlend mode="normal" in="SourceGraphic" in2="effect2_dropShadow_504_556" result="shape"/>
</filter>
<linearGradient id="paint0_linear_504_556" x1="98.7747" y1="848.58" x2="256.604" y2="1036.86" gradientUnits="userSpaceOnUse">
<stop stop-opacity="0.35"/>
<stop offset="1" stop-opacity="0"/>
</linearGradient>
<linearGradient id="paint1_linear_504_556" x1="466.369" y1="93.4479" x2="626.298" y2="253.871" gradientUnits="userSpaceOnUse">
<stop stop-opacity="0.35"/>
<stop offset="0.796875" stop-opacity="0"/>
</linearGradient>
<linearGradient id="paint2_linear_504_556" x1="119.683" y1="70" x2="450.01" y2="267.618" gradientUnits="userSpaceOnUse">
<stop stop-color="#3E3E3E"/>
<stop offset="1"/>
</linearGradient>
<linearGradient id="paint3_linear_504_556" x1="86" y1="492" x2="461" y2="492" gradientUnits="userSpaceOnUse">
<stop stop-color="#CE302D"/>
<stop offset="1" stop-color="#EB6D00"/>
</linearGradient>
</defs>
</svg>
