<svg width="603" height="623" viewBox="0 0 603 623" fill="none" xmlns="http://www.w3.org/2000/svg">
<g filter="url(#filter0_d_346:358)">
<path opacity="0.95" d="M377.15 374.951C341.946 411.342 283.968 412.483 247.756 377.434C211.478 342.385 210.671 284.508 245.875 248.049C281.078 211.658 339.057 210.517 375.268 245.566C411.48 280.615 412.354 338.559 377.15 374.951Z" fill="url(#paint0_linear_346:358)"/>
<path opacity="0.34" d="M232.497 306.533C232.497 306.533 224.166 304.586 224.771 290.285C225.376 275.983 241.434 224.483 307.474 221.932C307.474 221.932 333.608 220.589 351.882 231.601C351.882 231.601 298.539 214.144 263.469 248.387C254.937 256.713 250.167 264.031 244.994 279.944C240.09 295.387 241.365 307.473 232.497 306.533Z" fill="url(#paint1_linear_346:358)"/>
<path opacity="0.64" d="M364.118 246.973C384.004 264.631 388.237 292.429 373.456 309.013C358.743 325.598 330.66 324.658 310.774 306.999C290.888 289.34 286.657 261.543 301.437 244.958C316.15 228.374 344.232 229.314 364.118 246.973Z" fill="url(#paint2_linear_346:358)"/>
<path opacity="0.19" d="M389.175 315.529C389.175 315.529 397.506 317.476 396.901 331.777C396.297 346.079 380.24 397.578 314.199 400.13C314.199 400.13 288.064 401.472 269.791 390.461C269.791 390.461 323.135 407.918 358.204 373.675C366.736 365.349 371.506 358.03 376.679 342.117C381.584 326.674 380.307 314.522 389.175 315.529Z" fill="url(#paint3_linear_346:358)"/>
<path d="M332.496 308.389C331.308 308.726 330.054 308.906 328.758 308.906C321.211 308.906 315.094 302.789 315.094 295.242C315.094 287.696 321.211 281.578 328.758 281.578C330.054 281.578 331.308 281.759 332.496 282.096C326.767 283.722 322.57 288.992 322.57 295.242C322.57 301.492 326.767 306.763 332.496 308.389ZM289.312 329.531V307.746C289.312 300.627 295.084 294.855 302.203 294.855H294.469C287.349 294.855 281.578 300.627 281.578 307.746V329.531C281.578 336.65 287.349 342.422 294.469 342.422H302.203C295.084 342.422 289.312 336.65 289.312 329.531Z" fill="#EEEEEE"/>
<path d="M329.531 345H294.469C285.939 345 279 338.061 279 329.531V307.746C279 299.217 285.939 292.277 294.469 292.277H304.781C306.205 292.277 307.359 293.432 307.359 294.855C307.359 296.279 306.205 297.434 304.781 297.434H294.469C288.782 297.434 284.156 302.06 284.156 307.746V329.531C284.156 335.218 288.782 339.844 294.469 339.844H329.531C335.218 339.844 339.844 335.218 339.844 329.531V314.707C339.844 313.283 340.998 312.129 342.422 312.129C343.846 312.129 345 313.283 345 314.707V329.531C345 338.061 338.061 345 329.531 345ZM345 295.242C345 286.286 337.714 279 328.758 279C319.802 279 312.516 286.286 312.516 295.242C312.516 304.198 319.802 311.484 328.758 311.484C337.714 311.484 345 304.198 345 295.242ZM339.844 295.242C339.844 301.355 334.871 306.328 328.758 306.328C322.645 306.328 317.672 301.355 317.672 295.242C317.672 289.129 322.645 284.156 328.758 284.156C334.871 284.156 339.844 289.129 339.844 295.242Z" fill="#3A3535"/>
<path d="M311.999 326.943C308.69 326.943 305.38 325.89 302.619 323.784L290.33 314.439C289.197 313.577 288.977 311.96 289.839 310.826C290.701 309.693 292.318 309.473 293.451 310.335L305.743 319.682C309.428 322.493 314.572 322.492 318.254 319.684L322.551 316.398C323.682 315.533 325.3 315.748 326.165 316.879C327.03 318.01 326.815 319.628 325.684 320.493L321.384 323.782C318.62 325.89 315.31 326.943 311.999 326.943ZM331.336 299.238V291.246C331.336 289.822 330.182 288.668 328.758 288.668H326.18C324.756 288.668 323.602 289.822 323.602 291.246C323.602 292.67 324.756 293.824 326.18 293.824V299.238C326.18 300.662 327.334 301.816 328.758 301.816C330.182 301.816 331.336 300.662 331.336 299.238Z" fill="url(#paint4_linear_346:358)"/>
</g>
<defs>
<filter id="filter0_d_346:358" x="0" y="0" width="623" height="623" filterUnits="userSpaceOnUse" color-interpolation-filters="sRGB">
<feFlood flood-opacity="0" result="BackgroundImageFix"/>
<feColorMatrix in="SourceAlpha" type="matrix" values="0 0 0 0 0 0 0 0 0 0 0 0 0 0 0 0 0 0 127 0" result="hardAlpha"/>
<feOffset/>
<feGaussianBlur stdDeviation="110"/>
<feComposite in2="hardAlpha" operator="out"/>
<feColorMatrix type="matrix" values="0 0 0 0 0.775 0 0 0 0 0.775 0 0 0 0 0.775 0 0 0 0.88 0"/>
<feBlend mode="normal" in2="BackgroundImageFix" result="effect1_dropShadow_346:358"/>
<feBlend mode="normal" in="SourceGraphic" in2="effect1_dropShadow_346:358" result="shape"/>
</filter>
<linearGradient id="paint0_linear_346:358" x1="384.228" y1="272.289" x2="128.961" y2="411.229" gradientUnits="userSpaceOnUse">
<stop stop-color="#EBD5D5"/>
<stop offset="0.201" stop-color="#EFEBEB"/>
<stop offset="0.554" stop-color="#D7C1C2"/>
<stop offset="1" stop-color="#BBB8C6" stop-opacity="0"/>
</linearGradient>
<linearGradient id="paint1_linear_346:358" x1="350.202" y1="267.979" x2="226.42" y2="261.597" gradientUnits="userSpaceOnUse">
<stop offset="0.1034" stop-color="white" stop-opacity="0"/>
<stop offset="0.363" stop-color="white" stop-opacity="0.6"/>
<stop offset="1" stop-color="white" stop-opacity="0"/>
</linearGradient>
<linearGradient id="paint2_linear_346:358" x1="310.794" y1="307.461" x2="364.104" y2="247.455" gradientUnits="userSpaceOnUse">
<stop offset="0.103" stop-color="#E6C5C5" stop-opacity="0"/>
<stop offset="0.363" stop-color="#D2BCBC" stop-opacity="0.1"/>
<stop offset="1" stop-color="#F3E0E0" stop-opacity="0.965"/>
</linearGradient>
<linearGradient id="paint3_linear_346:358" x1="271.443" y1="354.055" x2="395.226" y2="360.437" gradientUnits="userSpaceOnUse">
<stop offset="0.1034" stop-color="white" stop-opacity="0"/>
<stop offset="0.363" stop-color="white" stop-opacity="0.6"/>
<stop offset="1" stop-color="white" stop-opacity="0"/>
</linearGradient>
<linearGradient id="paint4_linear_346:358" x1="289.313" y1="307.806" x2="331.336" y2="307.806" gradientUnits="userSpaceOnUse">
<stop stop-color="#CE302D"/>
<stop offset="1" stop-color="#EB6D00"/>
</linearGradient>
</defs>
</svg>
