<svg width="524" height="397" viewBox="0 0 524 397" fill="none" xmlns="http://www.w3.org/2000/svg">
<g filter="url(#filter0_f_504_480)">
<path d="M151 392L31 272H151V392Z" fill="url(#paint0_linear_504_480)"/>
</g>
<g filter="url(#filter1_f_504_480)">
<path d="M519 162L399 42V162H519Z" fill="url(#paint1_linear_504_480)"/>
</g>
<g filter="url(#filter2_dd_504_480)">
<path d="M31 35C31 32.7909 32.7909 31 35 31H395C397.209 31 399 32.7909 399 35V272H31V35Z" fill="#F9F9F9"/>
<path d="M399 272.5H399.5V272V35C399.5 32.5147 397.485 30.5 395 30.5H35C32.5147 30.5 30.5 32.5147 30.5 35V272V272.5H31H399Z" stroke="url(#paint2_linear_504_480)"/>
</g>
<path d="M399 43.5H399.5V43V35C399.5 32.5147 397.485 30.5 395 30.5H35C32.5147 30.5 30.5 32.5147 30.5 35V43V43.5H31H399Z" fill="#3A3535" stroke="url(#paint3_linear_504_480)"/>
<path d="M122 58H47C45.8954 58 45 58.8954 45 60V62C45 63.1046 45.8954 64 47 64H122C123.105 64 124 63.1046 124 62V60C124 58.8954 123.105 58 122 58Z" fill="#ECE8E8"/>
<path d="M118 68H47C45.8954 68 45 68.8954 45 70V72C45 73.1046 45.8954 74 47 74H118C119.105 74 120 73.1046 120 72V70C120 68.8954 119.105 68 118 68Z" fill="#ECE8E8"/>
<path d="M110 78H47C45.8954 78 45 78.8954 45 80V82C45 83.1046 45.8954 84 47 84H110C111.105 84 112 83.1046 112 82V80C112 78.8954 111.105 78 110 78Z" fill="#ECE8E8"/>
<path d="M120 88H47C45.8954 88 45 88.8954 45 90V92C45 93.1046 45.8954 94 47 94H120C121.105 94 122 93.1046 122 92V90C122 88.8954 121.105 88 120 88Z" fill="#ECE8E8"/>
<path d="M122 98H47C45.8954 98 45 98.8954 45 100V102C45 103.105 45.8954 104 47 104H122C123.105 104 124 103.105 124 102V100C124 98.8954 123.105 98 122 98Z" fill="#ECE8E8"/>
<path d="M118 108H47C45.8954 108 45 108.895 45 110V112C45 113.105 45.8954 114 47 114H118C119.105 114 120 113.105 120 112V110C120 108.895 119.105 108 118 108Z" fill="#ECE8E8"/>
<path d="M120 118H47C45.8954 118 45 118.895 45 120V122C45 123.105 45.8954 124 47 124H120C121.105 124 122 123.105 122 122V120C122 118.895 121.105 118 120 118Z" fill="#ECE8E8"/>
<path d="M383 58H314C312.895 58 312 58.8954 312 60V62C312 63.1046 312.895 64 314 64H383C384.105 64 385 63.1046 385 62V60C385 58.8954 384.105 58 383 58Z" fill="#ECE8E8"/>
<path d="M379.304 68H314C312.895 68 312 68.8954 312 70V72C312 73.1046 312.895 74 314 74H379.304C380.408 74 381.304 73.1046 381.304 72V70C381.304 68.8954 380.408 68 379.304 68Z" fill="#ECE8E8"/>
<path d="M371.911 78H314C312.895 78 312 78.8954 312 80V82C312 83.1046 312.895 84 314 84H371.911C373.016 84 373.911 83.1046 373.911 82V80C373.911 78.8954 373.016 78 371.911 78Z" fill="#ECE8E8"/>
<path d="M381.152 88H314C312.895 88 312 88.8954 312 90V92C312 93.1046 312.895 94 314 94H381.152C382.256 94 383.152 93.1046 383.152 92V90C383.152 88.8954 382.256 88 381.152 88Z" fill="#ECE8E8"/>
<path d="M383 98H314C312.895 98 312 98.8954 312 100V102C312 103.105 312.895 104 314 104H383C384.105 104 385 103.105 385 102V100C385 98.8954 384.105 98 383 98Z" fill="#ECE8E8"/>
<path d="M379.304 108H314C312.895 108 312 108.895 312 110V112C312 113.105 312.895 114 314 114H379.304C380.408 114 381.304 113.105 381.304 112V110C381.304 108.895 380.408 108 379.304 108Z" fill="#ECE8E8"/>
<path d="M381.152 118H314C312.895 118 312 118.895 312 120V122C312 123.105 312.895 124 314 124H381.152C382.256 124 383.152 123.105 383.152 122V120C383.152 118.895 382.256 118 381.152 118Z" fill="#ECE8E8"/>
<path d="M389 218H314C312.895 218 312 218.895 312 220V222C312 223.105 312.895 224 314 224H389C390.105 224 391 223.105 391 222V220C391 218.895 390.105 218 389 218Z" fill="#ECE8E8"/>
<path d="M381 228H314C312.895 228 312 228.895 312 230V232C312 233.105 312.895 234 314 234H381C382.105 234 383 233.105 383 232V230C383 228.895 382.105 228 381 228Z" fill="#ECE8E8"/>
<path d="M379 238H314C312.895 238 312 238.895 312 240V242C312 243.105 312.895 244 314 244H379C380.105 244 381 243.105 381 242V240C381 238.895 380.105 238 379 238Z" fill="#ECE8E8"/>
<path d="M385 248H314C312.895 248 312 248.895 312 250V252C312 253.105 312.895 254 314 254H385C386.105 254 387 253.105 387 252V250C387 248.895 386.105 248 385 248Z" fill="#ECE8E8"/>
<path d="M211 58H136C134.895 58 134 58.8954 134 60V102C134 103.105 134.895 104 136 104H211C212.105 104 213 103.105 213 102V60C213 58.8954 212.105 58 211 58Z" fill="#DFDFDF"/>
<path d="M211 108H136C134.895 108 134 108.895 134 110V112C134 113.105 134.895 114 136 114H211C212.105 114 213 113.105 213 112V110C213 108.895 212.105 108 211 108Z" fill="#ECE8E8"/>
<path d="M206.73 118H136C134.895 118 134 118.895 134 120V122C134 123.105 134.895 124 136 124H206.73C207.834 124 208.73 123.105 208.73 122V120C208.73 118.895 207.834 118 206.73 118Z" fill="#ECE8E8"/>
<path d="M300 58H225C223.895 58 223 58.8954 223 60V102C223 103.105 223.895 104 225 104H300C301.105 104 302 103.105 302 102V60C302 58.8954 301.105 58 300 58Z" fill="#DFDFDF"/>
<path d="M300 108H225C223.895 108 223 108.895 223 110V112C223 113.105 223.895 114 225 114H300C301.105 114 302 113.105 302 112V110C302 108.895 301.105 108 300 108Z" fill="#ECE8E8"/>
<path d="M295.73 118H225C223.895 118 223 118.895 223 120V122C223 123.105 223.895 124 225 124H295.73C296.834 124 297.73 123.105 297.73 122V120C297.73 118.895 296.834 118 295.73 118Z" fill="#ECE8E8"/>
<path d="M300 134H225C223.895 134 223 134.895 223 136V185C223 186.105 223.895 187 225 187H300C301.105 187 302 186.105 302 185V136C302 134.895 301.105 134 300 134Z" fill="#DFDFDF"/>
<path d="M300 192H225C223.895 192 223 192.895 223 194V196C223 197.105 223.895 198 225 198H300C301.105 198 302 197.105 302 196V194C302 192.895 301.105 192 300 192Z" fill="#ECE8E8"/>
<path d="M295.73 202H225C223.895 202 223 202.895 223 204V206C223 207.105 223.895 208 225 208H295.73C296.834 208 297.73 207.105 297.73 206V204C297.73 202.895 296.834 202 295.73 202Z" fill="#ECE8E8"/>
<path d="M389 134H314C312.895 134 312 134.895 312 136V185C312 186.105 312.895 187 314 187H389C390.105 187 391 186.105 391 185V136C391 134.895 390.105 134 389 134Z" fill="#DFDFDF"/>
<path d="M389 192H314C312.895 192 312 192.895 312 194V196C312 197.105 312.895 198 314 198H389C390.105 198 391 197.105 391 196V194C391 192.895 390.105 192 389 192Z" fill="#ECE8E8"/>
<path d="M384.73 202H314C312.895 202 312 202.895 312 204V206C312 207.105 312.895 208 314 208H384.73C385.834 208 386.73 207.105 386.73 206V204C386.73 202.895 385.834 202 384.73 202Z" fill="#ECE8E8"/>
<path d="M300 218H47C45.8954 218 45 218.895 45 220V252C45 253.105 45.8954 254 47 254H300C301.105 254 302 253.105 302 252V220C302 218.895 301.105 218 300 218Z" fill="#DFDFDF"/>
<path d="M211 134H47C45.8954 134 45 134.895 45 136V206C45 207.105 45.8954 208 47 208H211C212.105 208 213 207.105 213 206V136C213 134.895 212.105 134 211 134Z" fill="url(#paint4_linear_504_480)"/>
<path d="M134.5 170.634C135.167 171.019 135.167 171.981 134.5 172.366L127.75 176.263C127.083 176.648 126.25 176.167 126.25 175.397V167.603C126.25 166.833 127.083 166.352 127.75 166.737L134.5 170.634Z" fill="white"/>
<path d="M37 38C38.1046 38 39 37.1046 39 36C39 34.8954 38.1046 34 37 34C35.8954 34 35 34.8954 35 36C35 37.1046 35.8954 38 37 38Z" fill="#C4C4C4"/>
<path d="M42 38C43.1046 38 44 37.1046 44 36C44 34.8954 43.1046 34 42 34C40.8954 34 40 34.8954 40 36C40 37.1046 40.8954 38 42 38Z" fill="#C4C4C4"/>
<path d="M47 38C48.1046 38 49 37.1046 49 36C49 34.8954 48.1046 34 47 34C45.8954 34 45 34.8954 45 36C45 37.1046 45.8954 38 47 38Z" fill="#C4C4C4"/>
<defs>
<filter id="filter0_f_504_480" x="26" y="267" width="130" height="130" filterUnits="userSpaceOnUse" color-interpolation-filters="sRGB">
<feFlood flood-opacity="0" result="BackgroundImageFix"/>
<feBlend mode="normal" in="SourceGraphic" in2="BackgroundImageFix" result="shape"/>
<feGaussianBlur stdDeviation="2.5" result="effect1_foregroundBlur_504_480"/>
</filter>
<filter id="filter1_f_504_480" x="394" y="37" width="130" height="130" filterUnits="userSpaceOnUse" color-interpolation-filters="sRGB">
<feFlood flood-opacity="0" result="BackgroundImageFix"/>
<feBlend mode="normal" in="SourceGraphic" in2="BackgroundImageFix" result="shape"/>
<feGaussianBlur stdDeviation="2.5" result="effect1_foregroundBlur_504_480"/>
</filter>
<filter id="filter2_dd_504_480" x="0" y="0" width="470" height="343" filterUnits="userSpaceOnUse" color-interpolation-filters="sRGB">
<feFlood flood-opacity="0" result="BackgroundImageFix"/>
<feColorMatrix in="SourceAlpha" type="matrix" values="0 0 0 0 0 0 0 0 0 0 0 0 0 0 0 0 0 0 127 0" result="hardAlpha"/>
<feOffset dx="20" dy="20"/>
<feGaussianBlur stdDeviation="25"/>
<feColorMatrix type="matrix" values="0 0 0 0 0 0 0 0 0 0 0 0 0 0 0 0 0 0 0.25 0"/>
<feBlend mode="normal" in2="BackgroundImageFix" result="effect1_dropShadow_504_480"/>
<feColorMatrix in="SourceAlpha" type="matrix" values="0 0 0 0 0 0 0 0 0 0 0 0 0 0 0 0 0 0 127 0" result="hardAlpha"/>
<feOffset dx="10" dy="10"/>
<feGaussianBlur stdDeviation="6"/>
<feColorMatrix type="matrix" values="0 0 0 0 0 0 0 0 0 0 0 0 0 0 0 0 0 0 0.21 0"/>
<feBlend mode="normal" in2="effect1_dropShadow_504_480" result="effect2_dropShadow_504_480"/>
<feBlend mode="normal" in="SourceGraphic" in2="effect2_dropShadow_504_480" result="shape"/>
</filter>
<linearGradient id="paint0_linear_504_480" x1="36.1099" y1="252.232" x2="99.2415" y2="327.542" gradientUnits="userSpaceOnUse">
<stop stop-opacity="0.35"/>
<stop offset="1" stop-opacity="0"/>
</linearGradient>
<linearGradient id="paint1_linear_504_480" x1="401.148" y1="44.9791" x2="465.119" y2="109.149" gradientUnits="userSpaceOnUse">
<stop stop-opacity="0.35"/>
<stop offset="0.796875" stop-opacity="0"/>
</linearGradient>
<linearGradient id="paint2_linear_504_480" x1="31" y1="31" x2="96.9399" y2="38.1256" gradientUnits="userSpaceOnUse">
<stop stop-color="white" stop-opacity="0.13"/>
<stop offset="1" stop-color="white" stop-opacity="0"/>
</linearGradient>
<linearGradient id="paint3_linear_504_480" x1="31" y1="31" x2="42.6831" y2="56.3552" gradientUnits="userSpaceOnUse">
<stop stop-color="white" stop-opacity="0.13"/>
<stop offset="1" stop-color="white" stop-opacity="0"/>
</linearGradient>
<linearGradient id="paint4_linear_504_480" x1="45" y1="171" x2="213" y2="171" gradientUnits="userSpaceOnUse">
<stop stop-color="#CE302D"/>
<stop offset="1" stop-color="#EB6D00"/>
</linearGradient>
</defs>
</svg>
