<?xml version="1.0" encoding="utf-8"?>
<!-- Generator: Adobe Illustrator 24.3.0, SVG Export Plug-In . SVG Version: 6.00 Build 0)  -->
<svg version="1.1" id="Слой_1" xmlns="http://www.w3.org/2000/svg" xmlns:xlink="http://www.w3.org/1999/xlink" x="0px" y="0px"
	 viewBox="0 0 56 66" style="enable-background:new 0 0 56 66;" xml:space="preserve">
<style type="text/css">
	.st0{fill:#E7E7E7;}
	.st1{fill:#3A3535;}
	.st2{fill:url(#SVGID_1_);}
</style>
<path class="st0" d="M11.4,50.5V15.5c0-7.1,5.5-12.9,12.6-12.9h-7.6C9.3,2.6,3.6,8.3,3.6,15.5v35.1c0,7.1,5.8,12.9,12.9,12.9H24
	C16.9,63.4,11.4,57.7,11.4,50.5z"/>
<path class="st1" d="M39.5,66H16.5C7.9,66,1,59.1,1,50.5V15.5C1,6.9,7.9,0,16.5,0h23.1C48.1,0,55,6.9,55,15.5v35.1
	C55,59.1,48.1,66,39.5,66z M16.5,5.2c-5.7,0-10.3,4.6-10.3,10.3v35.1c0,5.7,4.6,10.3,10.3,10.3h23.1c5.7,0,10.3-4.6,10.3-10.3V15.5
	c0-5.7-4.6-10.3-10.3-10.3H16.5z M35.5,38.5V24.6c0-1.4-1.2-2.6-2.6-2.6c-1.4,0-2.6,1.2-2.6,2.6v13.9c0,1.4,1.2,2.6,2.6,2.6
	C34.4,41.1,35.5,40,35.5,38.5z M44.8,38.5v-6.2c0-1.4-1.2-2.6-2.6-2.6c-1.4,0-2.6,1.2-2.6,2.6v6.2c0,1.4,1.2,2.6,2.6,2.6
	C43.7,41.1,44.8,40,44.8,38.5z M16.6,38.7V28.6c0-1.4-1.2-2.6-2.6-2.6s-2.6,1.2-2.6,2.6v10.1c0,1.4,1.2,2.6,2.6,2.6
	S16.6,40.1,16.6,38.7z"/>
<linearGradient id="SVGID_1_" gradientUnits="userSpaceOnUse" x1="26.1953" y1="52.3499" x2="26.1953" y2="11.7444" gradientTransform="matrix(1 0 0 -1 0 66.7875)">
	<stop  offset="0" style="stop-color:#FF4E50"/>
	<stop  offset="1" style="stop-color:#F9D423"/>
</linearGradient>
<path class="st2" d="M31.4,51.8c0,1.8-1.4,3.2-3.2,3.2c-1.8,0-3.2-1.4-3.2-3.2s1.4-3.2,3.2-3.2C30,48.6,31.4,50,31.4,51.8z
	 M26.1,38.7V17c0-1.4-1.2-2.6-2.6-2.6S21,15.6,21,17v21.7c0,1.4,1.2,2.6,2.6,2.6S26.1,40.1,26.1,38.7z"/>
</svg>
