<svg width="771" height="1208" viewBox="0 0 771 1208" fill="none" xmlns="http://www.w3.org/2000/svg">
<g filter="url(#filter0_f_504_641)">
<path d="M386 1198L86 898H386V1198Z" fill="url(#paint0_linear_504_641)"/>
</g>
<g filter="url(#filter1_f_504_641)">
<path d="M761 386L461 86V386H761Z" fill="url(#paint1_linear_504_641)"/>
</g>
<g filter="url(#filter2_dd_504_641)">
<path d="M427 70H120C92.3858 70 70 92.3858 70 120V864C70 891.614 92.3858 914 120 914H427C454.614 914 477 891.614 477 864V120C477 92.3858 454.614 70 427 70Z" fill="url(#paint2_linear_504_641)"/>
</g>
<mask id="mask0_504_641" style="mask-type:alpha" maskUnits="userSpaceOnUse" x="86" y="86" width="375" height="812">
<path d="M425 86H122C102.118 86 86 102.118 86 122V862C86 881.882 102.118 898 122 898H425C444.882 898 461 881.882 461 862V122C461 102.118 444.882 86 425 86Z" fill="white"/>
</mask>
<g mask="url(#mask0_504_641)">
<path d="M459 86H88C86.8954 86 86 86.8954 86 88V896C86 897.105 86.8954 898 88 898H459C460.105 898 461 897.105 461 896V88C461 86.8954 460.105 86 459 86Z" fill="url(#paint3_linear_504_641)"/>
</g>
<path d="M318.425 509.042C310.962 502.601 300.46 497.877 288.855 495.742L287.88 501.041C309.843 505.082 325.184 518.233 325.184 533.02C325.184 541.685 320.005 549.909 310.602 556.177C300.864 562.67 287.865 566.245 274 566.245C260.135 566.245 247.136 562.67 237.397 556.178C227.995 549.91 222.816 541.685 222.816 533.021C222.816 517.141 240.375 503.456 264.122 500.421V507.76C256.111 509.045 248.83 511.897 243.423 515.908C237.083 520.611 233.592 526.688 233.592 533.02C233.592 540.225 237.968 546.901 245.914 551.82C253.457 556.489 263.432 559.061 274 559.061C284.568 559.061 294.542 556.489 302.086 551.82C310.032 546.901 314.408 540.225 314.408 533.02C314.408 526.689 310.917 520.611 304.577 515.908C299.17 511.897 291.889 509.044 283.878 507.76V473.107C296.886 468.923 306.327 456.707 306.327 442.326C306.327 424.502 291.825 410 274 410C256.175 410 241.673 424.502 241.673 442.327C241.673 456.708 251.114 468.924 264.122 473.108V494.991C251.75 496.471 240.405 500.736 231.96 507.118C222.589 514.199 217.429 523.398 217.429 533.021V547.388C217.429 557.912 223.459 567.728 234.409 575.027C245.022 582.103 259.083 586 274 586C288.917 586 302.978 582.103 313.592 575.027C324.541 567.728 330.571 557.912 330.571 547.388V533.02C330.571 524.193 326.371 515.901 318.425 509.042ZM247.061 442.327C247.061 427.472 259.146 415.388 274 415.388C288.854 415.388 300.939 427.473 300.939 442.327C300.939 457.18 288.854 469.265 274 469.265C259.146 469.265 247.061 457.181 247.061 442.327ZM278.49 474.34V525.837C278.49 528.313 276.476 530.327 274 530.327C271.524 530.327 269.51 528.313 269.51 525.837V474.34C270.978 474.545 272.476 474.653 274 474.653C275.523 474.653 277.022 474.545 278.49 474.34ZM274 535.714C279.446 535.714 283.878 531.283 283.878 525.837V513.217C290.702 514.422 296.83 516.869 301.367 520.235C306.302 523.896 309.021 528.437 309.021 533.02C309.021 538.289 305.551 543.339 299.25 547.239C292.547 551.388 283.58 553.673 274 553.673C264.421 553.673 255.453 551.388 248.75 547.239C242.45 543.339 238.98 538.289 238.98 533.02C238.98 528.437 241.698 523.897 246.633 520.235C251.171 516.869 257.299 514.422 264.123 513.217V525.837C264.122 531.283 268.553 535.714 274 535.714ZM310.603 570.545C300.864 577.037 287.865 580.612 274 580.612C260.135 580.612 247.136 577.037 237.397 570.545C228.863 564.855 223.81 557.555 222.949 549.777C225.764 553.786 229.615 557.464 234.409 560.66C245.023 567.736 259.083 571.633 274 571.633C288.917 571.633 302.977 567.736 313.591 560.66C318.385 557.464 322.237 553.786 325.052 549.777C324.19 557.555 319.137 564.855 310.603 570.545Z" fill="white"/>
<path d="M338.5 883H209.5C208.119 883 207 884.119 207 885.5C207 886.881 208.119 888 209.5 888H338.5C339.881 888 341 886.881 341 885.5C341 884.119 339.881 883 338.5 883Z" fill="white"/>
<path opacity="0.5" d="M477 251H478.5C479.328 251 480 251.672 480 252.5V345.5C480 346.328 479.328 347 478.5 347H477V251Z" fill="black"/>
<path opacity="0.5" d="M70 309H68.5C67.6716 309 67 309.672 67 310.5V365.5C67 366.328 67.6716 367 68.5 367H70V309Z" fill="black"/>
<path opacity="0.5" d="M70 232H68.5C67.6716 232 67 232.672 67 233.5V288.5C67 289.328 67.6716 290 68.5 290H70V232Z" fill="black"/>
<path opacity="0.5" d="M70 171H68.5C67.6716 171 67 171.672 67 172.5V198.5C67 199.328 67.6716 200 68.5 200H70V171Z" fill="black"/>
<path fill-rule="evenodd" clip-rule="evenodd" d="M195 86C197.5 86 200 88.5 200 91V89.75V86H195ZM200 86H348H353C350.155 86 348.019 88.1242 348 90.9627V92.5974C348 100.552 341.552 107 333.598 107H214.403C206.448 107 200 100.552 200 92.5974V86Z" fill="url(#paint4_linear_504_641)"/>
<g opacity="0.75">
<path opacity="0.75" d="M291.5 88H255.5C253.567 88 252 89.567 252 91.5C252 93.433 253.567 95 255.5 95H291.5C293.433 95 295 93.433 295 91.5C295 89.567 293.433 88 291.5 88Z" fill="black"/>
<path opacity="0.75" d="M291.5 88H255.5C253.567 88 252 89.567 252 91.5C252 93.433 253.567 95 255.5 95H291.5C293.433 95 295 93.433 295 91.5C295 89.567 293.433 88 291.5 88Z" fill="black"/>
</g>
<path d="M303.5 97C306.538 97 309 94.5376 309 91.5C309 88.4624 306.538 86 303.5 86C300.462 86 298 88.4624 298 91.5C298 94.5376 300.462 97 303.5 97Z" fill="black"/>
<path d="M303.5 97C306.538 97 309 94.5376 309 91.5C309 88.4624 306.538 86 303.5 86C300.462 86 298 88.4624 298 91.5C298 94.5376 300.462 97 303.5 97Z" fill="black"/>
<path d="M303.5 97C306.538 97 309 94.5376 309 91.5C309 88.4624 306.538 86 303.5 86C300.462 86 298 88.4624 298 91.5C298 94.5376 300.462 97 303.5 97Z" fill="black"/>
<path d="M303.5 97C306.538 97 309 94.5376 309 91.5C309 88.4624 306.538 86 303.5 86C300.462 86 298 88.4624 298 91.5C298 94.5376 300.462 97 303.5 97Z" fill="black"/>
<path opacity="0.15" d="M303.5 95C305.433 95 307 93.433 307 91.5C307 89.567 305.433 88 303.5 88C301.567 88 300 89.567 300 91.5C300 93.433 301.567 95 303.5 95Z" fill="white"/>
<defs>
<filter id="filter0_f_504_641" x="76" y="888" width="320" height="320" filterUnits="userSpaceOnUse" color-interpolation-filters="sRGB">
<feFlood flood-opacity="0" result="BackgroundImageFix"/>
<feBlend mode="normal" in="SourceGraphic" in2="BackgroundImageFix" result="shape"/>
<feGaussianBlur stdDeviation="5" result="effect1_foregroundBlur_504_641"/>
</filter>
<filter id="filter1_f_504_641" x="451" y="76" width="320" height="320" filterUnits="userSpaceOnUse" color-interpolation-filters="sRGB">
<feFlood flood-opacity="0" result="BackgroundImageFix"/>
<feBlend mode="normal" in="SourceGraphic" in2="BackgroundImageFix" result="shape"/>
<feGaussianBlur stdDeviation="5" result="effect1_foregroundBlur_504_641"/>
</filter>
<filter id="filter2_dd_504_641" x="0" y="0" width="707" height="1144" filterUnits="userSpaceOnUse" color-interpolation-filters="sRGB">
<feFlood flood-opacity="0" result="BackgroundImageFix"/>
<feColorMatrix in="SourceAlpha" type="matrix" values="0 0 0 0 0 0 0 0 0 0 0 0 0 0 0 0 0 0 127 0" result="hardAlpha"/>
<feOffset dx="80" dy="80"/>
<feGaussianBlur stdDeviation="75"/>
<feColorMatrix type="matrix" values="0 0 0 0 0 0 0 0 0 0 0 0 0 0 0 0 0 0 0.25 0"/>
<feBlend mode="normal" in2="BackgroundImageFix" result="effect1_dropShadow_504_641"/>
<feColorMatrix in="SourceAlpha" type="matrix" values="0 0 0 0 0 0 0 0 0 0 0 0 0 0 0 0 0 0 127 0" result="hardAlpha"/>
<feOffset dx="20" dy="20"/>
<feGaussianBlur stdDeviation="25"/>
<feColorMatrix type="matrix" values="0 0 0 0 0 0 0 0 0 0 0 0 0 0 0 0 0 0 0.35 0"/>
<feBlend mode="normal" in2="effect1_dropShadow_504_641" result="effect2_dropShadow_504_641"/>
<feBlend mode="normal" in="SourceGraphic" in2="effect2_dropShadow_504_641" result="shape"/>
</filter>
<linearGradient id="paint0_linear_504_641" x1="98.7747" y1="848.58" x2="256.604" y2="1036.86" gradientUnits="userSpaceOnUse">
<stop stop-opacity="0.35"/>
<stop offset="1" stop-opacity="0"/>
</linearGradient>
<linearGradient id="paint1_linear_504_641" x1="466.369" y1="93.4479" x2="626.298" y2="253.871" gradientUnits="userSpaceOnUse">
<stop stop-opacity="0.35"/>
<stop offset="0.796875" stop-opacity="0"/>
</linearGradient>
<linearGradient id="paint2_linear_504_641" x1="119.683" y1="70" x2="450.01" y2="267.618" gradientUnits="userSpaceOnUse">
<stop stop-color="#3E3E3E"/>
<stop offset="1"/>
</linearGradient>
<linearGradient id="paint3_linear_504_641" x1="86" y1="492" x2="461" y2="492" gradientUnits="userSpaceOnUse">
<stop stop-color="#CE302D"/>
<stop offset="1" stop-color="#EB6D00"/>
</linearGradient>
<linearGradient id="paint4_linear_504_641" x1="195" y1="86" x2="352" y2="86" gradientUnits="userSpaceOnUse">
<stop stop-color="#323232"/>
<stop offset="1" stop-color="#1D1D1D"/>
</linearGradient>
</defs>
</svg>
