<svg width="66" height="66" viewBox="0 0 66 66" fill="none" xmlns="http://www.w3.org/2000/svg">
<path d="M10.3125 50.5312V15.4688C10.3125 8.34939 16.0838 2.57812 23.2031 2.57812H15.4688C8.34939 2.57812 2.57812 8.34939 2.57812 15.4688V50.5312C2.57812 57.6505 8.34939 63.4219 15.4688 63.4219L22.1794 63.3814C15.5387 62.8596 10.3125 57.3059 10.3125 50.5312Z" fill="#E7E7E7"/>
<path d="M46.9219 56.2025C46.2606 56.2025 45.5994 55.9497 45.0958 55.4443C44.0907 54.4357 44.0935 52.8034 45.102 51.7983L49.7799 47.1362C50.2643 46.6534 50.5312 46.0113 50.5312 45.329C50.5312 44.6498 50.2669 44.0108 49.7867 43.5284L45.1202 38.9682C44.1018 37.9731 44.0828 36.3407 45.078 35.3225C46.0732 34.304 47.7055 34.2852 48.7237 35.2804L53.4016 39.8515C53.4078 39.8576 53.414 39.8636 53.4202 39.8698C54.8824 41.3276 55.6876 43.2665 55.6876 45.3291C55.6875 47.3917 54.8824 49.3305 53.42 50.7883L48.7419 55.4506C48.2387 55.9519 47.5801 56.2025 46.9219 56.2025ZM45.5039 45.1165C45.5039 43.6926 44.3497 42.5384 42.9258 42.5384H34.8047C33.3808 42.5384 32.2266 43.6926 32.2266 45.1165C32.2266 46.5404 33.3808 47.6947 34.8047 47.6947H42.9258C44.3497 47.6947 45.5039 46.5404 45.5039 45.1165Z" fill="url(#paint0_linear_346:649)"/>
<path d="M18.9922 46.2032C19.6535 46.2032 20.3146 45.9504 20.8183 45.445C21.8234 44.4364 21.8205 42.8041 20.8121 41.799L16.1342 37.137C15.6498 36.6541 15.3828 36.012 15.3828 35.3297C15.3828 34.6505 15.6472 34.0115 16.1274 33.5292L20.7939 28.969C21.8123 27.9738 21.8312 26.3415 20.8361 25.3232C19.8409 24.3048 18.2086 24.2859 17.1903 25.2811L12.5125 29.8522C12.5063 29.8583 12.5001 29.8644 12.4939 29.8705C11.0317 31.3283 10.2264 33.2672 10.2264 35.3298C10.2266 37.3925 11.0317 39.3312 12.494 40.789L17.1722 45.4513C17.6754 45.9526 18.334 46.2032 18.9922 46.2032ZM20.4102 35.1173C20.4102 33.6934 21.5644 32.5392 22.9883 32.5392H31.1094C32.5333 32.5392 33.6875 33.6934 33.6875 35.1173C33.6875 36.5412 32.5333 37.6954 31.1094 37.6954H22.9883C21.5644 37.6954 20.4102 36.5412 20.4102 35.1173Z" fill="url(#paint1_linear_346:649)"/>
<path d="M50.5312 66H15.4688C6.93928 66 0 59.0607 0 50.5312V15.4688C0 6.93928 6.93928 0 15.4688 0H50.5312C59.0607 0 66 6.93928 66 15.4688V50.5312C66 59.0607 59.0607 66 50.5312 66ZM15.4688 5.15625C9.78244 5.15625 5.15625 9.78244 5.15625 15.4688V50.5312C5.15625 56.2176 9.78244 60.8438 15.4688 60.8438H50.5312C56.2176 60.8438 60.8438 56.2176 60.8438 50.5312V15.4688C60.8438 9.78244 56.2176 5.15625 50.5312 5.15625H15.4688ZM55.6875 16.6289C55.6875 15.205 54.5333 14.0508 53.1094 14.0508H12.8906C11.4667 14.0508 10.3125 15.205 10.3125 16.6289C10.3125 18.0528 11.4667 19.207 12.8906 19.207H53.1094C54.5333 19.207 55.6875 18.0528 55.6875 16.6289Z" fill="#3A3535"/>
<defs>
<linearGradient id="paint0_linear_346:649" x1="32.2266" y1="34.5461" x2="32.2266" y2="56.2025" gradientUnits="userSpaceOnUse">
<stop stop-color="#FF4E50"/>
<stop offset="1" stop-color="#F9D423"/>
</linearGradient>
<linearGradient id="paint1_linear_346:649" x1="33.6875" y1="24.5469" x2="33.6875" y2="46.2032" gradientUnits="userSpaceOnUse">
<stop stop-color="#FF4E50"/>
<stop offset="1" stop-color="#F9D423"/>
</linearGradient>
</defs>
</svg>
