<svg width="524" height="397" viewBox="0 0 524 397" fill="none" xmlns="http://www.w3.org/2000/svg">
<g filter="url(#filter0_f_504_352)">
<path d="M151 392L31 272H151V392Z" fill="url(#paint0_linear_504_352)"/>
</g>
<g filter="url(#filter1_f_504_352)">
<path d="M519 162L399 42V162H519Z" fill="url(#paint1_linear_504_352)"/>
</g>
<g filter="url(#filter2_dd_504_352)">
<path d="M31 35C31 32.7909 32.7909 31 35 31H395C397.209 31 399 32.7909 399 35V272H31V35Z" fill="#F9F9F9"/>
<path d="M399 272.5H399.5V272V35C399.5 32.5147 397.485 30.5 395 30.5H35C32.5147 30.5 30.5 32.5147 30.5 35V272V272.5H31H399Z" stroke="url(#paint2_linear_504_352)"/>
</g>
<path d="M399 43.5H399.5V43V35C399.5 32.5147 397.485 30.5 395 30.5H35C32.5147 30.5 30.5 32.5147 30.5 35V43V43.5H31H399Z" fill="#3A3535" stroke="url(#paint3_linear_504_352)"/>
<path d="M45 61C45 59.8954 45.8954 59 47 59H122C123.105 59 124 59.8954 124 61V63C124 64.1046 123.105 65 122 65H47C45.8954 65 45 64.1046 45 63V61Z" fill="#ECE8E8"/>
<path d="M45 71C45 69.8954 45.8954 69 47 69H118C119.105 69 120 69.8954 120 71V73C120 74.1046 119.105 75 118 75H47C45.8954 75 45 74.1046 45 73V71Z" fill="#ECE8E8"/>
<path d="M45 81C45 79.8954 45.8954 79 47 79H110C111.105 79 112 79.8954 112 81V83C112 84.1046 111.105 85 110 85H47C45.8954 85 45 84.1046 45 83V81Z" fill="#ECE8E8"/>
<path d="M45 91C45 89.8954 45.8954 89 47 89H120C121.105 89 122 89.8954 122 91V93C122 94.1046 121.105 95 120 95H47C45.8954 95 45 94.1046 45 93V91Z" fill="#ECE8E8"/>
<path d="M45 101C45 99.8954 45.8954 99 47 99H122C123.105 99 124 99.8954 124 101V103C124 104.105 123.105 105 122 105H47C45.8954 105 45 104.105 45 103V101Z" fill="#ECE8E8"/>
<path d="M45 111C45 109.895 45.8954 109 47 109H118C119.105 109 120 109.895 120 111V113C120 114.105 119.105 115 118 115H47C45.8954 115 45 114.105 45 113V111Z" fill="#ECE8E8"/>
<path d="M45 121C45 119.895 45.8954 119 47 119H120C121.105 119 122 119.895 122 121V123C122 124.105 121.105 125 120 125H47C45.8954 125 45 124.105 45 123V121Z" fill="#ECE8E8"/>
<path d="M45 131C45 129.895 45.8954 129 47 129H110C111.105 129 112 129.895 112 131V133C112 134.105 111.105 135 110 135H47C45.8954 135 45 134.105 45 133V131Z" fill="#ECE8E8"/>
<path d="M45 141C45 139.895 45.8954 139 47 139H122C123.105 139 124 139.895 124 141V143C124 144.105 123.105 145 122 145H47C45.8954 145 45 144.105 45 143V141Z" fill="#ECE8E8"/>
<path d="M45 151C45 149.895 45.8954 149 47 149H118C119.105 149 120 149.895 120 151V153C120 154.105 119.105 155 118 155H47C45.8954 155 45 154.105 45 153V151Z" fill="#ECE8E8"/>
<path d="M45 161C45 159.895 45.8954 159 47 159H110C111.105 159 112 159.895 112 161V163C112 164.105 111.105 165 110 165H47C45.8954 165 45 164.105 45 163V161Z" fill="#ECE8E8"/>
<path d="M45 171C45 169.895 45.8954 169 47 169H120C121.105 169 122 169.895 122 171V173C122 174.105 121.105 175 120 175H47C45.8954 175 45 174.105 45 173V171Z" fill="#ECE8E8"/>
<path d="M45 181C45 179.895 45.8954 179 47 179H122C123.105 179 124 179.895 124 181V183C124 184.105 123.105 185 122 185H47C45.8954 185 45 184.105 45 183V181Z" fill="#ECE8E8"/>
<path d="M45 191C45 189.895 45.8954 189 47 189H118C119.105 189 120 189.895 120 191V193C120 194.105 119.105 195 118 195H47C45.8954 195 45 194.105 45 193V191Z" fill="#ECE8E8"/>
<path d="M45 221C45 219.895 45.8954 219 47 219H122C123.105 219 124 219.895 124 221V223C124 224.105 123.105 225 122 225H47C45.8954 225 45 224.105 45 223V221Z" fill="#ECE8E8"/>
<path d="M45 231C45 229.895 45.8954 229 47 229H118C119.105 229 120 229.895 120 231V233C120 234.105 119.105 235 118 235H47C45.8954 235 45 234.105 45 233V231Z" fill="#ECE8E8"/>
<path d="M45 241C45 239.895 45.8954 239 47 239H110C111.105 239 112 239.895 112 241V243C112 244.105 111.105 245 110 245H47C45.8954 245 45 244.105 45 243V241Z" fill="#ECE8E8"/>
<path d="M45 251C45 249.895 45.8954 249 47 249H120C121.105 249 122 249.895 122 251V253C122 254.105 121.105 255 120 255H47C45.8954 255 45 254.105 45 253V251Z" fill="#ECE8E8"/>
<path d="M45 201C45 199.895 45.8954 199 47 199H120C121.105 199 122 199.895 122 201V203C122 204.105 121.105 205 120 205H47C45.8954 205 45 204.105 45 203V201Z" fill="#ECE8E8"/>
<path d="M45 211C45 209.895 45.8954 209 47 209H110C111.105 209 112 209.895 112 211V213C112 214.105 111.105 215 110 215H47C45.8954 215 45 214.105 45 213V211Z" fill="#ECE8E8"/>
<path d="M134 61C134 59.8954 134.895 59 136 59H211C212.105 59 213 59.8954 213 61V103C213 104.105 212.105 105 211 105H136C134.895 105 134 104.105 134 103V61Z" fill="#DFDFDF"/>
<path d="M134 111C134 109.895 134.895 109 136 109H211C212.105 109 213 109.895 213 111V113C213 114.105 212.105 115 211 115H136C134.895 115 134 114.105 134 113V111Z" fill="#ECE8E8"/>
<path d="M134 121C134 119.895 134.895 119 136 119H206.73C207.834 119 208.73 119.895 208.73 121V123C208.73 124.105 207.834 125 206.73 125H136C134.895 125 134 124.105 134 123V121Z" fill="#ECE8E8"/>
<path d="M223 61C223 59.8954 223.895 59 225 59H300C301.105 59 302 59.8954 302 61V103C302 104.105 301.105 105 300 105H225C223.895 105 223 104.105 223 103V61Z" fill="#DFDFDF"/>
<path d="M223 111C223 109.895 223.895 109 225 109H300C301.105 109 302 109.895 302 111V113C302 114.105 301.105 115 300 115H225C223.895 115 223 114.105 223 113V111Z" fill="#ECE8E8"/>
<path d="M223 121C223 119.895 223.895 119 225 119H295.73C296.834 119 297.73 119.895 297.73 121V123C297.73 124.105 296.834 125 295.73 125H225C223.895 125 223 124.105 223 123V121Z" fill="#ECE8E8"/>
<path d="M134 141C134 139.895 134.895 139 136 139H211C212.105 139 213 139.895 213 141V183C213 184.105 212.105 185 211 185H136C134.895 185 134 184.105 134 183V141Z" fill="#DFDFDF"/>
<path d="M134 191C134 189.895 134.895 189 136 189H211C212.105 189 213 189.895 213 191V193C213 194.105 212.105 195 211 195H136C134.895 195 134 194.105 134 193V191Z" fill="#ECE8E8"/>
<path d="M134 201C134 199.895 134.895 199 136 199H206.73C207.834 199 208.73 199.895 208.73 201V203C208.73 204.105 207.834 205 206.73 205H136C134.895 205 134 204.105 134 203V201Z" fill="#ECE8E8"/>
<path d="M223 141C223 139.895 223.895 139 225 139H300C301.105 139 302 139.895 302 141V183C302 184.105 301.105 185 300 185H225C223.895 185 223 184.105 223 183V141Z" fill="#DFDFDF"/>
<path d="M223 191C223 189.895 223.895 189 225 189H300C301.105 189 302 189.895 302 191V193C302 194.105 301.105 195 300 195H225C223.895 195 223 194.105 223 193V191Z" fill="#ECE8E8"/>
<path d="M223 201C223 199.895 223.895 199 225 199H295.73C296.834 199 297.73 199.895 297.73 201V203C297.73 204.105 296.834 205 295.73 205H225C223.895 205 223 204.105 223 203V201Z" fill="#ECE8E8"/>
<path d="M134 221C134 219.895 134.895 219 136 219H300C301.105 219 302 219.895 302 221V253C302 254.105 301.105 255 300 255H136C134.895 255 134 254.105 134 253V221Z" fill="#DFDFDF"/>
<path d="M312 61C312 59.8954 312.895 59 314 59H384C385.105 59 386 59.8954 386 61V87C386 88.1046 385.105 89 384 89H314C312.895 89 312 88.1046 312 87V61Z" fill="#DFDFDF"/>
<path d="M312 221C312 219.895 312.895 219 314 219H384C385.105 219 386 219.895 386 221V253C386 254.105 385.105 255 384 255H314C312.895 255 312 254.105 312 253V221Z" fill="#DFDFDF"/>
<path d="M312 101C312 99.8954 312.895 99 314 99H384C385.105 99 386 99.8954 386 101V207C386 208.105 385.105 209 384 209H314C312.895 209 312 208.105 312 207V101Z" fill="url(#paint4_linear_504_352)"/>
<path d="M39 37C39 38.1046 38.1046 39 37 39C35.8954 39 35 38.1046 35 37C35 35.8954 35.8954 35 37 35C38.1046 35 39 35.8954 39 37Z" fill="#C4C4C4"/>
<path d="M44 37C44 38.1046 43.1046 39 42 39C40.8954 39 40 38.1046 40 37C40 35.8954 40.8954 35 42 35C43.1046 35 44 35.8954 44 37Z" fill="#C4C4C4"/>
<path d="M49 37C49 38.1046 48.1046 39 47 39C45.8954 39 45 38.1046 45 37C45 35.8954 45.8954 35 47 35C48.1046 35 49 35.8954 49 37Z" fill="#C4C4C4"/>
<defs>
<filter id="filter0_f_504_352" x="26" y="267" width="130" height="130" filterUnits="userSpaceOnUse" color-interpolation-filters="sRGB">
<feFlood flood-opacity="0" result="BackgroundImageFix"/>
<feBlend mode="normal" in="SourceGraphic" in2="BackgroundImageFix" result="shape"/>
<feGaussianBlur stdDeviation="2.5" result="effect1_foregroundBlur_504_352"/>
</filter>
<filter id="filter1_f_504_352" x="394" y="37" width="130" height="130" filterUnits="userSpaceOnUse" color-interpolation-filters="sRGB">
<feFlood flood-opacity="0" result="BackgroundImageFix"/>
<feBlend mode="normal" in="SourceGraphic" in2="BackgroundImageFix" result="shape"/>
<feGaussianBlur stdDeviation="2.5" result="effect1_foregroundBlur_504_352"/>
</filter>
<filter id="filter2_dd_504_352" x="0" y="0" width="470" height="343" filterUnits="userSpaceOnUse" color-interpolation-filters="sRGB">
<feFlood flood-opacity="0" result="BackgroundImageFix"/>
<feColorMatrix in="SourceAlpha" type="matrix" values="0 0 0 0 0 0 0 0 0 0 0 0 0 0 0 0 0 0 127 0" result="hardAlpha"/>
<feOffset dx="20" dy="20"/>
<feGaussianBlur stdDeviation="25"/>
<feColorMatrix type="matrix" values="0 0 0 0 0 0 0 0 0 0 0 0 0 0 0 0 0 0 0.25 0"/>
<feBlend mode="normal" in2="BackgroundImageFix" result="effect1_dropShadow_504_352"/>
<feColorMatrix in="SourceAlpha" type="matrix" values="0 0 0 0 0 0 0 0 0 0 0 0 0 0 0 0 0 0 127 0" result="hardAlpha"/>
<feOffset dx="10" dy="10"/>
<feGaussianBlur stdDeviation="6"/>
<feColorMatrix type="matrix" values="0 0 0 0 0 0 0 0 0 0 0 0 0 0 0 0 0 0 0.21 0"/>
<feBlend mode="normal" in2="effect1_dropShadow_504_352" result="effect2_dropShadow_504_352"/>
<feBlend mode="normal" in="SourceGraphic" in2="effect2_dropShadow_504_352" result="shape"/>
</filter>
<linearGradient id="paint0_linear_504_352" x1="36.1099" y1="252.232" x2="99.2415" y2="327.542" gradientUnits="userSpaceOnUse">
<stop stop-opacity="0.35"/>
<stop offset="1" stop-opacity="0"/>
</linearGradient>
<linearGradient id="paint1_linear_504_352" x1="401.148" y1="44.9791" x2="465.119" y2="109.149" gradientUnits="userSpaceOnUse">
<stop stop-opacity="0.35"/>
<stop offset="0.796875" stop-opacity="0"/>
</linearGradient>
<linearGradient id="paint2_linear_504_352" x1="31" y1="31" x2="96.9399" y2="38.1256" gradientUnits="userSpaceOnUse">
<stop stop-color="white" stop-opacity="0.13"/>
<stop offset="1" stop-color="white" stop-opacity="0"/>
</linearGradient>
<linearGradient id="paint3_linear_504_352" x1="31" y1="31" x2="42.6831" y2="56.3552" gradientUnits="userSpaceOnUse">
<stop stop-color="white" stop-opacity="0.13"/>
<stop offset="1" stop-color="white" stop-opacity="0"/>
</linearGradient>
<linearGradient id="paint4_linear_504_352" x1="312" y1="154" x2="386" y2="154" gradientUnits="userSpaceOnUse">
<stop stop-color="#CE302D"/>
<stop offset="1" stop-color="#EB6D00"/>
</linearGradient>
</defs>
</svg>
