<?xml version="1.0" encoding="utf-8"?>
<!-- Generator: Adobe Illustrator 24.3.0, SVG Export Plug-In . SVG Version: 6.00 Build 0)  -->
<svg version="1.1" id="Слой_1" xmlns="http://www.w3.org/2000/svg" xmlns:xlink="http://www.w3.org/1999/xlink" x="0px" y="0px"
	 viewBox="0 0 66 66" style="enable-background:new 0 0 66 66;" xml:space="preserve">
<style type="text/css">
	.st0{fill:#E7E7E7;}
	.st1{fill:url(#SVGID_1_);}
	.st2{fill:url(#SVGID_2_);}
	.st3{fill:#3A3535;}
</style>
<path class="st0" d="M10.3,50.5V15.5c0-7.1,5.8-12.9,12.9-12.9h-7.7C8.3,2.6,2.6,8.3,2.6,15.5v35.1c0,7.1,5.8,12.9,12.9,12.9l6.7,0
	C15.5,62.9,10.3,57.3,10.3,50.5z"/>
<linearGradient id="SVGID_1_" gradientUnits="userSpaceOnUse" x1="43.9571" y1="32.2413" x2="43.9571" y2="10.5849" gradientTransform="matrix(1 0 0 -1 0 66.7875)">
	<stop  offset="0" style="stop-color:#FF4E50"/>
	<stop  offset="1" style="stop-color:#F9D423"/>
</linearGradient>
<path class="st1" d="M46.9,56.2c-0.7,0-1.3-0.3-1.8-0.8c-1-1-1-2.6,0-3.6l4.7-4.7c0.5-0.5,0.8-1.1,0.8-1.8c0-0.7-0.3-1.3-0.7-1.8
	L45.1,39c-1-1-1-2.6,0-3.6c1-1,2.6-1,3.6,0l4.7,4.6c0,0,0,0,0,0c1.5,1.5,2.3,3.4,2.3,5.5c0,2.1-0.8,4-2.3,5.5l-4.7,4.7
	C48.2,56,47.6,56.2,46.9,56.2z M45.5,45.1c0-1.4-1.2-2.6-2.6-2.6h-8.1c-1.4,0-2.6,1.2-2.6,2.6s1.2,2.6,2.6,2.6h8.1
	C44.3,47.7,45.5,46.5,45.5,45.1z"/>
<linearGradient id="SVGID_2_" gradientUnits="userSpaceOnUse" x1="21.9569" y1="42.2405" x2="21.9569" y2="20.5842" gradientTransform="matrix(1 0 0 -1 0 66.7875)">
	<stop  offset="0" style="stop-color:#FF4E50"/>
	<stop  offset="1" style="stop-color:#F9D423"/>
</linearGradient>
<path class="st2" d="M19,46.2c0.7,0,1.3-0.3,1.8-0.8c1-1,1-2.6,0-3.6l-4.7-4.7c-0.5-0.5-0.8-1.1-0.8-1.8c0-0.7,0.3-1.3,0.7-1.8
	l4.7-4.6c1-1,1-2.6,0-3.6c-1-1-2.6-1-3.6,0l-4.7,4.6c0,0,0,0,0,0c-1.5,1.5-2.3,3.4-2.3,5.5c0,2.1,0.8,4,2.3,5.5l4.7,4.7
	C17.7,46,18.3,46.2,19,46.2z M20.4,35.1c0-1.4,1.2-2.6,2.6-2.6h8.1c1.4,0,2.6,1.2,2.6,2.6c0,1.4-1.2,2.6-2.6,2.6H23
	C21.6,37.7,20.4,36.5,20.4,35.1z"/>
<path class="st3" d="M50.5,66H15.5C6.9,66,0,59.1,0,50.5V15.5C0,6.9,6.9,0,15.5,0h35.1C59.1,0,66,6.9,66,15.5v35.1
	C66,59.1,59.1,66,50.5,66z M15.5,5.2C9.8,5.2,5.2,9.8,5.2,15.5v35.1c0,5.7,4.6,10.3,10.3,10.3h35.1c5.7,0,10.3-4.6,10.3-10.3V15.5
	c0-5.7-4.6-10.3-10.3-10.3H15.5z M55.7,16.6c0-1.4-1.2-2.6-2.6-2.6H12.9c-1.4,0-2.6,1.2-2.6,2.6c0,1.4,1.2,2.6,2.6,2.6h40.2
	C54.5,19.2,55.7,18.1,55.7,16.6z"/>
</svg>
