<?xml version="1.0" standalone="no"?>
<!DOCTYPE svg PUBLIC "-//W3C//DTD SVG 1.1//EN" "http://www.w3.org/Graphics/SVG/1.1/DTD/svg11.dtd" >
<svg xmlns="http://www.w3.org/2000/svg" xmlns:xlink="http://www.w3.org/1999/xlink" version="1.1">
<metadata>
Created by FontForge 20201107 at Sat Mar 21 20:29:18 2020
 By Jimmy Wärting
Copyright \(c\) 2019 by Artegra. All rights reserved.
</metadata>
<defs>
<font id="ArtegraSoft-Bold" horiz-adv-x="1289" >
  <font-face 
    font-family="Artegra Soft"
    font-weight="700"
    font-stretch="normal"
    units-per-em="2048"
    panose-1="0 0 0 0 0 0 0 0 0 0"
    ascent="1516"
    descent="-532"
    x-height="1030"
    cap-height="1434"
    bbox="-230.75 -532 3167 1987"
    underline-thickness="102"
    underline-position="-205"
    stemh="295"
    stemv="243"
    unicode-range="U+0020-FE65"
  />
<missing-glyph horiz-adv-x="1523" 
d="M140 1270c0 106 58 164 165 164h913c107 0 165 -58 165 -164v-1105c0 -107 -58 -165 -165 -165h-913c-107 0 -165 58 -165 165v1105zM860 717l315 -425v850zM348 292l315 425l-315 425v-850zM1048 1239h-574l288 -387zM762 583l-288 -388h574z" />
    <glyph glyph-name="f_f" unicode="ff" horiz-adv-x="1633" 
d="M182 795c-75 0 -122 42 -122 118c0 75 48 117 122 117h73v12c0 264 92 460 402 460c34 0 64 -3 90 -6c112 -9 157 -66 140 -143c-18 -76 -78 -93 -144 -89c-10 1 -22 3 -33 3c-125 0 -152 -64 -152 -225v-12h385v28c0 288 92 484 402 484c34 0 64 -3 90 -6
c112 -9 157 -66 140 -143c-18 -76 -78 -93 -144 -89c-10 1 -22 3 -33 3c-125 0 -152 -64 -152 -249v-28h164c75 0 122 -42 122 -117c0 -76 -47 -118 -122 -118h-164v-631c0 -107 -53 -164 -151 -164c-99 0 -152 57 -152 164v631h-385v-631c0 -107 -53 -164 -151 -164
c-99 0 -152 57 -152 164v631h-73z" />
    <glyph glyph-name="fi" unicode="fi" horiz-adv-x="1368" 
d="M60 913c0 75 48 117 122 117h74v29c0 280 142 483 518 483c126 0 223 -27 294 -56c110 -39 118 -121 81 -176c-25 -37 -62 -52 -104 -52c-26 0 -55 6 -83 17c-41 17 -95 32 -156 32c-185 0 -247 -77 -247 -247v-30h523c107 0 165 -58 165 -165v-701
c0 -107 -53 -164 -151 -164c-99 0 -152 57 -152 164v631h-385v-631c0 -107 -53 -164 -151 -164c-99 0 -152 57 -152 164v631h-74c-75 0 -122 42 -122 118z" />
    <glyph glyph-name="fl" unicode="fl" horiz-adv-x="1463" 
d="M60 913c0 75 48 117 122 117h74v28c0 280 141 484 518 484c166 0 288 -43 370 -87c77 -39 103 -106 103 -194v-948c0 -54 4 -79 44 -79c52 0 91 -29 91 -105s-67 -129 -174 -129c-228 0 -264 167 -264 328v467h-385v-631c0 -107 -53 -164 -151 -164
c-99 0 -152 57 -152 164v631h-74c-75 0 -122 42 -122 118zM559 1030h385v247c-29 14 -77 30 -138 30c-185 0 -247 -77 -247 -247v-30z" />
    <glyph glyph-name="f_f_i" unicode="ffi" horiz-adv-x="2054" 
d="M182 795c-75 0 -122 42 -122 118c0 75 48 117 122 117h73v12c0 264 92 460 402 460c34 0 64 -3 90 -6c112 -9 157 -66 140 -143c-18 -76 -78 -93 -144 -89c-10 2 -22 3 -33 3c-125 0 -152 -64 -152 -225v-12h385v29c0 280 142 483 518 483c126 0 223 -28 294 -57
c110 -38 122 -119 81 -175c-27 -37 -64 -53 -105 -53c-26 0 -54 7 -82 17c-41 18 -95 33 -156 33c-185 0 -247 -78 -247 -247v-30h523c107 0 165 -58 165 -165v-701c0 -107 -53 -164 -151 -164c-99 0 -152 57 -152 164v631h-385v-631c0 -107 -53 -164 -151 -164
c-99 0 -152 57 -152 164v631h-385v-631c0 -107 -53 -164 -151 -164c-99 0 -152 57 -152 164v631h-73z" />
    <glyph glyph-name="f_f_l" unicode="ffl" horiz-adv-x="2149" 
d="M182 795c-75 0 -122 42 -122 118c0 75 48 117 122 117h73v12c0 264 92 460 402 460c34 0 64 -3 90 -6c112 -9 157 -66 140 -143c-18 -76 -78 -93 -144 -89c-10 2 -22 3 -33 3c-125 0 -152 -64 -152 -225v-12h385v28c0 280 141 484 518 484c166 0 288 -44 370 -87
c77 -39 103 -106 103 -194v-948c0 -54 4 -79 44 -79c52 0 91 -29 91 -105s-67 -129 -174 -129c-228 0 -264 167 -264 328v467h-385v-631c0 -107 -53 -164 -151 -164c-99 0 -152 57 -152 164v631h-385v-631c0 -107 -53 -164 -151 -164c-99 0 -152 57 -152 164v631h-73z
M1246 1060v-30h385v247c-29 14 -77 30 -138 30c-185 0 -247 -78 -247 -247z" />
    <glyph glyph-name=".notdef" horiz-adv-x="1523" 
d="M140 1270c0 106 58 164 165 164h913c107 0 165 -58 165 -164v-1105c0 -107 -58 -165 -165 -165h-913c-107 0 -165 58 -165 165v1105zM860 717l315 -425v850zM348 292l315 425l-315 425v-850zM1048 1239h-574l288 -387zM762 583l-288 -388h574z" />
    <glyph glyph-name="uni0000" horiz-adv-x="0" 
 />
    <glyph glyph-name="uni0000" horiz-adv-x="0" 
 />
    <glyph glyph-name="CR" horiz-adv-x="682" 
 />
    <glyph glyph-name="space" unicode=" " horiz-adv-x="541" 
 />
    <glyph glyph-name="exclam" unicode="!" horiz-adv-x="654" 
d="M170 1267c-3 108 53 167 158 167c104 0 160 -59 157 -167l-13 -691c-2 -107 -53 -163 -144 -163s-143 56 -145 163zM160 151c0 92 75 167 167 167s167 -75 167 -167s-75 -167 -167 -167s-167 75 -167 167z" />
    <glyph glyph-name="quotedbl" unicode="&#x22;" horiz-adv-x="871" 
d="M100 1265c-4 109 48 169 145 169h3c96 0 147 -61 143 -168l-6 -149c-4 -106 -52 -162 -139 -162s-135 56 -140 161zM480 1265c-4 109 48 169 145 169h5c95 0 145 -61 141 -168l-6 -149c-3 -105 -52 -162 -139 -162s-136 56 -140 161z" />
    <glyph glyph-name="numbersign" unicode="#" horiz-adv-x="1608" 
d="M100 440c0 86 58 134 165 134h92l45 287h-53c-104 1 -160 48 -160 135c0 86 58 134 165 134h92l26 166c11 68 56 139 175 139c118 0 147 -77 136 -144l-25 -161h225l27 166c11 68 55 139 174 139c118 0 147 -77 137 -144l-26 -161h54c104 -1 159 -49 159 -134
c0 -87 -58 -135 -165 -135h-91l-46 -287h54c103 -2 159 -49 159 -134c0 -87 -58 -135 -165 -135h-91l-27 -167c-11 -68 -55 -138 -174 -138c-118 0 -147 76 -137 144l26 161h-226l-26 -167c-11 -68 -55 -138 -174 -138c-118 0 -147 76 -137 144l26 161h-54
c-104 1 -160 49 -160 135zM714 861l-46 -287h226l46 287h-226z" />
    <glyph glyph-name="dollar" unicode="$" horiz-adv-x="1321" 
d="M184 58c-101 43 -128 130 -83 203c28 44 64 61 109 61c32 0 68 -8 108 -22c76 -27 206 -63 322 -63c181 0 280 47 280 166c0 104 -92 151 -291 194c-363 79 -532 223 -532 448c0 215 138 383 439 415v88c0 67 37 113 114 113c76 0 113 -46 113 -113v-86
c121 -9 220 -32 292 -57c107 -34 147 -115 105 -192c-28 -51 -73 -69 -127 -69c-29 0 -60 5 -93 13c-67 18 -181 40 -285 40c-134 0 -236 -44 -236 -152c0 -101 95 -140 271 -180c353 -77 552 -191 552 -462c0 -273 -192 -405 -479 -429v-87c0 -68 -37 -114 -113 -114
c-77 0 -114 46 -114 114v87c-147 12 -269 47 -352 84z" />
    <glyph glyph-name="ampersand" unicode="&#x26;" horiz-adv-x="1434" 
d="M120 353c0 195 113 310 272 412c-57 80 -107 174 -107 312c0 237 183 389 441 389c250 0 426 -126 426 -350c0 -209 -148 -321 -326 -430c52 -65 121 -140 189 -203c32 45 61 87 91 129c27 24 57 38 89 38c22 0 45 -6 69 -20c65 -38 83 -96 66 -158
c-18 -72 -51 -138 -90 -192c37 -31 77 -63 116 -98c53 -53 68 -114 13 -166c-28 -26 -61 -36 -96 -36c-81 0 -169 58 -232 105c-98 -83 -237 -117 -411 -117c-288 0 -510 111 -510 385zM559 544c-69 -45 -121 -92 -121 -170c0 -94 79 -137 182 -137c74 0 140 20 178 53
c-91 85 -158 157 -239 254zM726 1197c-75 0 -122 -55 -122 -136c0 -63 28 -123 61 -169c111 69 168 120 168 201c0 60 -32 104 -107 104z" />
    <glyph glyph-name="quotesingle" unicode="'" horiz-adv-x="492" 
d="M100 1265c-4 109 48 169 145 169h3c96 0 147 -61 143 -168l-6 -149c-4 -106 -52 -162 -139 -162s-135 56 -139 161z" />
    <glyph glyph-name="parenleft" unicode="(" horiz-adv-x="872" 
d="M559 -286c-169 101 -439 340 -439 870c0 529 270 768 439 869c33 21 66 30 96 30c54 0 100 -31 124 -87c37 -91 -9 -154 -84 -219c-101 -79 -247 -243 -247 -593s146 -515 247 -593c75 -66 121 -129 84 -220c-24 -56 -70 -87 -124 -87c-30 0 -63 9 -96 30z" />
    <glyph glyph-name="parenright" unicode=")" horiz-adv-x="872" 
d="M178 1177c-75 65 -121 128 -84 219c24 56 70 87 124 87c30 0 63 -9 96 -30c169 -101 439 -340 439 -869c0 -530 -270 -769 -439 -870c-33 -21 -66 -30 -96 -30c-54 0 -100 31 -124 87c-37 91 9 154 84 220c101 78 247 243 247 593s-146 514 -247 593z" />
    <glyph glyph-name="asterisk" unicode="*" horiz-adv-x="1004" 
d="M196 953c-90 26 -134 87 -109 176c20 68 60 103 122 103c19 0 41 -3 65 -10c16 -5 71 -24 88 -30c-1 20 -3 76 -4 94c0 95 51 148 144 148c94 0 143 -58 141 -157c-1 -16 -3 -69 -4 -87c18 6 69 24 84 29c26 8 50 12 71 12c63 0 104 -34 123 -102
c26 -90 -21 -150 -112 -177c-18 -5 -74 -22 -92 -27c11 -13 46 -54 57 -68c68 -79 63 -151 -13 -208c-29 -22 -57 -32 -85 -32c-45 0 -87 27 -120 73c-10 14 -41 59 -51 72c-9 -14 -41 -58 -50 -73c-34 -46 -75 -72 -119 -72c-28 0 -57 10 -86 32c-74 56 -81 128 -14 207
c10 12 47 56 58 69c-18 5 -75 22 -94 28z" />
    <glyph glyph-name="plus" unicode="+" horiz-adv-x="1231" 
d="M100 688c0 87 52 135 147 135h223v207c0 99 52 155 146 155c93 0 145 -56 145 -155v-207h223c96 0 147 -48 147 -135c0 -88 -51 -136 -147 -136h-223v-207c0 -99 -52 -155 -145 -155c-94 0 -146 56 -146 155v207h-223c-95 0 -147 48 -147 136z" />
    <glyph glyph-name="comma" unicode="," horiz-adv-x="591" 
d="M185 -247c-94 4 -131 67 -86 183l72 187c34 89 94 130 188 130h4c110 0 161 -69 104 -181l-100 -205c-38 -76 -92 -117 -182 -114z" />
    <glyph glyph-name="hyphen" unicode="-" horiz-adv-x="960" 
d="M100 566c0 72 52 111 159 111h443c107 0 158 -39 158 -111c0 -73 -51 -112 -158 -112h-443c-107 0 -159 39 -159 112z" />
    <glyph glyph-name="period" unicode="." horiz-adv-x="534" 
d="M100 151c0 92 75 167 167 167s167 -75 167 -167s-75 -167 -167 -167s-167 75 -167 167z" />
    <glyph glyph-name="slash" unicode="/" horiz-adv-x="1054" 
d="M227 1c-114 6 -158 85 -104 203l508 1107c39 85 99 131 196 123c114 -6 157 -85 103 -203l-508 -1106c-39 -86 -98 -132 -195 -124z" />
    <glyph glyph-name="zero" unicode="0" horiz-adv-x="1478" 
d="M100 717c0 451 234 743 640 743c405 0 639 -292 639 -743s-234 -743 -639 -743c-406 0 -640 292 -640 743zM419 717c0 -299 110 -480 321 -480c210 0 320 181 320 480s-110 480 -320 480c-211 0 -321 -181 -321 -480z" />
    <glyph glyph-name="one" unicode="1" horiz-adv-x="818" 
d="M88 946c-64 67 -45 156 36 228l176 159c82 72 147 101 222 101c100 0 156 -55 156 -164v-1105c0 -107 -56 -165 -159 -165s-160 58 -160 165v836l-62 -56c-30 -25 -70 -43 -111 -43c-34 0 -69 13 -98 44z" />
    <glyph glyph-name="two" unicode="2" horiz-adv-x="1319" 
d="M211 1047c-63 35 -93 115 -24 204c76 102 231 209 467 209c312 0 526 -143 526 -426c0 -179 -99 -298 -238 -430l-338 -335h430c107 0 165 -48 165 -134c0 -87 -58 -135 -165 -135h-759c-104 0 -155 55 -155 126c0 59 26 113 88 169l500 484c96 92 153 168 153 255
c0 103 -66 157 -207 157c-99 0 -181 -57 -230 -106c-40 -33 -89 -57 -139 -57c-25 0 -50 5 -74 19z" />
    <glyph glyph-name="three" unicode="3" horiz-adv-x="1274" 
d="M198 82c-93 52 -127 144 -58 217c29 30 62 40 95 40c50 0 101 -23 140 -39c41 -24 125 -57 217 -57c176 0 269 60 269 177c0 119 -96 163 -262 175c-109 10 -169 52 -169 138c0 87 58 126 164 138c134 13 222 57 222 169c0 102 -80 151 -200 151c-91 0 -155 -27 -193 -52
c-54 -24 -112 -54 -169 -54c-26 0 -51 6 -76 22c-73 46 -81 141 2 211c76 69 204 142 412 142c299 0 543 -126 543 -406c0 -168 -108 -263 -223 -310c126 -35 262 -134 262 -336c0 -287 -232 -439 -582 -434c-199 2 -316 57 -394 108z" />
    <glyph glyph-name="four" unicode="4" horiz-adv-x="1431" 
d="M291 301c-111 0 -171 66 -171 148c0 63 22 116 95 205l518 651c74 91 143 129 234 129c109 0 167 -57 167 -164v-702h54c91 0 143 -52 143 -133s-52 -134 -144 -134h-53v-136c0 -107 -56 -165 -159 -165s-160 58 -160 165v136h-524zM815 996l-338 -427h338v427z" />
    <glyph glyph-name="five" unicode="5" horiz-adv-x="1365" 
d="M266 49c-112 41 -153 126 -104 208c27 45 66 59 111 59c37 0 78 -10 119 -20c57 -23 160 -53 261 -53c189 0 261 87 261 211c0 122 -60 214 -249 214c-126 0 -247 -25 -336 -48c-20 -4 -38 -6 -55 -6c-82 0 -128 49 -122 149l29 511c6 105 65 160 170 160h649
c107 0 165 -47 165 -134s-58 -135 -165 -135h-501l-14 -254c43 13 109 26 180 26c389 0 580 -174 580 -483c0 -298 -191 -480 -592 -480c-163 0 -305 38 -387 75z" />
    <glyph glyph-name="six" unicode="6" horiz-adv-x="1403" 
d="M120 640c0 582 310 820 711 820c48 0 97 -5 147 -13c114 -17 158 -93 126 -173c-24 -61 -77 -78 -134 -80c-43 -1 -87 2 -129 2c-201 3 -339 -94 -368 -305c44 52 131 88 232 88c383 0 578 -208 578 -499c0 -298 -195 -500 -578 -500c-435 0 -585 274 -585 660zM705 249
c167 0 259 88 259 231c0 142 -92 230 -259 230s-259 -88 -259 -230c0 -143 91 -231 259 -231z" />
    <glyph glyph-name="seven" unicode="7" horiz-adv-x="1232" 
d="M100 1300c0 86 58 134 165 134h689c133 0 178 -66 178 -149c0 -62 -27 -133 -56 -195l-457 -967c-35 -77 -90 -126 -169 -126c-13 0 -26 1 -40 4c-92 18 -131 103 -78 214l451 950h-518c-107 0 -165 47 -165 135z" />
    <glyph glyph-name="eight" unicode="8" horiz-adv-x="1367" 
d="M100 415c0 176 104 281 226 331c-110 46 -191 150 -191 296c0 252 197 424 549 424c351 0 548 -172 548 -424c0 -146 -82 -250 -192 -296c123 -50 226 -155 226 -331c0 -303 -250 -447 -582 -447c-333 0 -584 144 -584 447zM684 617c-168 0 -265 -63 -265 -190
s97 -190 265 -190c167 0 263 63 263 190s-96 190 -263 190zM454 1030c0 -114 88 -167 230 -167c141 0 229 53 229 167s-88 167 -229 167c-142 0 -230 -53 -230 -167z" />
    <glyph glyph-name="nine" unicode="9" horiz-adv-x="1403" 
d="M120 961c0 297 195 499 577 499c436 0 586 -274 586 -660c0 -582 -311 -820 -711 -820c-48 0 -97 5 -147 13c-114 17 -158 93 -126 173c25 61 77 78 134 80c43 1 87 -1 129 -2c200 -2 339 94 367 305c-43 -52 -131 -88 -232 -88c-382 0 -577 208 -577 500zM697 1191
c-166 0 -258 -88 -258 -230c0 -143 92 -231 258 -231c168 0 259 88 259 231c0 142 -91 230 -259 230z" />
    <glyph glyph-name="colon" unicode=":" horiz-adv-x="534" 
d="M100 879c0 92 75 167 167 167s167 -75 167 -167s-75 -167 -167 -167s-167 75 -167 167zM100 151c0 92 75 167 167 167s167 -75 167 -167s-75 -167 -167 -167s-167 75 -167 167z" />
    <glyph glyph-name="semicolon" unicode=";" horiz-adv-x="570" 
d="M105 -246c-93 3 -131 67 -86 182l72 187c35 90 94 130 188 130h4c110 0 161 -68 104 -180l-100 -206c-38 -75 -92 -117 -182 -113zM303 712c-92 0 -167 75 -167 167s75 167 167 167s167 -75 167 -167s-75 -167 -167 -167z" />
    <glyph glyph-name="less" unicode="&#x3c;" horiz-adv-x="1156" 
d="M100 655c0 63 37 111 118 154l617 320c38 20 73 30 102 30c61 0 99 -41 99 -116c0 -89 -42 -146 -123 -185l-411 -203l411 -203c81 -39 123 -96 123 -185c0 -75 -38 -116 -99 -116c-29 0 -64 10 -102 30l-617 320c-81 43 -118 91 -118 154z" />
    <glyph glyph-name="equal" unicode="=" horiz-adv-x="1075" 
d="M100 881c0 87 58 135 165 135h545c107 0 165 -48 165 -135c0 -88 -58 -136 -165 -136h-545c-107 0 -165 48 -165 136zM265 359c-107 0 -165 48 -165 136c0 87 58 135 165 135h545c107 0 165 -48 165 -135c0 -88 -58 -136 -165 -136h-545z" />
    <glyph glyph-name="greater" unicode="&#x3e;" horiz-adv-x="1156" 
d="M243 858c-83 40 -128 100 -121 195c4 69 40 106 96 106c29 0 64 -10 103 -30l618 -320c80 -43 117 -91 117 -154s-37 -111 -117 -154l-618 -320c-39 -20 -74 -30 -103 -30c-56 0 -92 37 -96 106c-7 95 38 155 121 195l412 203z" />
    <glyph glyph-name="question" unicode="?" horiz-adv-x="1194" 
d="M131 1106c-68 54 -72 146 21 216c82 68 214 144 414 144c367 0 547 -194 547 -422c0 -192 -119 -347 -412 -396v-109c0 -82 -57 -126 -159 -126c-103 0 -160 50 -160 142v123c0 92 58 134 162 152c148 23 250 82 250 202c0 100 -79 165 -228 165c-94 0 -156 -37 -208 -73
c-47 -26 -96 -47 -143 -47c-30 0 -58 9 -84 29zM374 151c0 92 75 167 167 167c93 0 168 -75 168 -167s-75 -167 -168 -167c-92 0 -167 75 -167 167z" />
    <glyph glyph-name="at" unicode="@" horiz-adv-x="1735" 
d="M100 517c0 474 342 743 767 743c426 0 768 -269 768 -743c0 -234 -136 -338 -315 -338c-151 0 -219 95 -232 184c-29 -149 -119 -247 -279 -247c-229 0 -338 152 -338 349c0 265 164 451 440 451c78 0 160 -15 232 -55c40 -22 45 -54 44 -99c-3 -101 -4 -139 -8 -240
c-5 -119 41 -169 111 -169c75 0 124 48 124 164c0 341 -209 551 -547 551c-313 0 -546 -210 -546 -551c0 -363 233 -550 546 -550c168 0 299 49 374 80c22 8 42 12 59 12c38 0 65 -18 82 -49c31 -63 -14 -113 -70 -139c-83 -41 -215 -97 -445 -97c-425 0 -767 271 -767 743z
M661 471c0 -103 45 -181 151 -181c102 0 166 67 181 233c6 68 13 150 18 205c-25 11 -58 20 -118 20c-160 0 -232 -124 -232 -277z" />
    <glyph glyph-name="A" unicode="A" horiz-adv-x="1495" 
d="M85 210l445 1072c46 112 125 153 218 153s171 -41 217 -153l445 -1072c47 -114 1 -197 -105 -210c-93 -11 -155 27 -196 131l-76 183h-571l-76 -183c-42 -104 -103 -142 -196 -131c-107 13 -152 96 -105 210zM748 1029l-187 -464h374z" />
    <glyph glyph-name="B" unicode="B" horiz-adv-x="1494" 
d="M305 0c-107 0 -165 58 -165 165v1104c0 107 58 165 165 165h502c431 0 535 -204 535 -387c0 -147 -85 -254 -213 -293c199 -60 265 -194 265 -335c0 -197 -135 -419 -570 -419h-519zM459 608v-340h365c180 0 245 69 245 171c0 103 -67 169 -212 169h-398zM459 858h389
c121 0 171 65 171 152c0 86 -40 155 -212 155h-348v-307z" />
    <glyph glyph-name="C" unicode="C" horiz-adv-x="1488" 
d="M855 -26c-506 0 -755 331 -755 743s249 743 755 743c194 0 330 -41 422 -85c99 -47 114 -134 68 -201c-27 -41 -63 -56 -106 -56c-33 0 -71 9 -112 24c-65 24 -158 49 -272 49c-302 0 -432 -222 -432 -474s130 -474 432 -474c114 0 207 25 272 49c41 15 79 24 112 24
c43 0 79 -15 106 -56c46 -67 31 -154 -68 -201c-92 -44 -228 -85 -422 -85z" />
    <glyph glyph-name="D" unicode="D" horiz-adv-x="1529" 
d="M140 1269c0 107 58 165 165 165h394c528 0 730 -310 730 -717s-202 -717 -730 -717h-394c-107 0 -165 58 -165 165v1104zM699 1165h-240v-896h240c294 0 409 175 409 448s-115 448 -409 448z" />
    <glyph glyph-name="E" unicode="E" horiz-adv-x="1336" 
d="M140 165v1104c0 107 58 165 165 165h736c107 0 165 -48 165 -134c0 -87 -58 -135 -165 -135h-582v-305h535c107 0 164 -46 164 -131s-57 -132 -164 -132h-535v-328h592c107 0 165 -48 165 -134c0 -87 -58 -135 -165 -135h-746c-107 0 -165 58 -165 165z" />
    <glyph glyph-name="F" unicode="F" horiz-adv-x="1326" 
d="M140 164v1105c0 107 58 165 165 165h736c107 0 165 -48 165 -134c0 -87 -58 -135 -165 -135h-582v-338h535c107 0 164 -46 164 -131s-57 -132 -164 -132h-535v-400c0 -107 -56 -164 -159 -164s-160 57 -160 164z" />
    <glyph glyph-name="G" unicode="G" horiz-adv-x="1581" 
d="M100 717c0 412 249 743 754 743c197 0 336 -42 428 -84c103 -43 138 -121 93 -197c-26 -44 -64 -61 -112 -61c-31 0 -65 7 -102 18c-75 27 -180 55 -307 55c-301 0 -431 -222 -431 -474s130 -474 431 -474c161 0 260 48 300 68v288h-141c-107 0 -159 44 -159 123
s52 122 159 122h262c107 0 165 -58 165 -164v-409c0 -89 -33 -142 -114 -188c-110 -62 -272 -109 -472 -109c-505 0 -754 331 -754 743z" />
    <glyph glyph-name="H" unicode="H" horiz-adv-x="1555" 
d="M140 165v1105c0 107 57 164 160 164s159 -57 159 -164v-404h637v404c0 107 57 164 160 164s159 -57 159 -164v-1105c0 -107 -56 -165 -159 -165s-160 58 -160 165v432h-637v-432c0 -107 -56 -165 -159 -165s-160 58 -160 165z" />
    <glyph glyph-name="I" unicode="I" horiz-adv-x="619" 
d="M150 165v1104c0 107 57 165 160 165s159 -58 159 -165v-1104c0 -107 -56 -165 -159 -165s-160 58 -160 165z" />
    <glyph glyph-name="J" unicode="J" horiz-adv-x="1188" 
d="M164 89c-113 87 -102 207 -12 260c24 14 47 20 69 20c55 0 104 -36 143 -66c32 -30 83 -66 157 -66c151 0 209 94 209 240v792c0 107 57 165 160 165s159 -58 159 -165v-792c0 -359 -205 -509 -516 -509c-177 0 -295 56 -369 121z" />
    <glyph glyph-name="K" unicode="K" horiz-adv-x="1439" 
d="M140 165v1104c0 107 57 165 160 165s159 -58 159 -165v-397l594 519c36 30 78 45 118 45s77 -15 103 -45c56 -65 45 -158 -33 -223l-407 -355l448 -578c56 -74 55 -157 -17 -211c-29 -22 -62 -32 -94 -32c-46 0 -91 21 -122 62l-440 569l-150 -134v-324
c0 -107 -56 -165 -159 -165s-160 58 -160 165z" />
    <glyph glyph-name="L" unicode="L" horiz-adv-x="1260" 
d="M140 1269c0 107 57 165 160 165s159 -58 159 -165v-1000h541c107 0 164 -48 164 -134c0 -87 -57 -135 -164 -135h-695c-107 0 -165 58 -165 165v1104z" />
    <glyph glyph-name="M" unicode="M" horiz-adv-x="1911" 
d="M300 0c-103 0 -160 58 -160 165v1024c0 135 72 245 237 245c127 0 217 -70 278 -228l301 -750l301 750c61 158 151 228 278 228c165 0 237 -110 237 -245v-1024c0 -107 -57 -165 -160 -165s-159 58 -159 165v784l-321 -798c-37 -95 -79 -151 -176 -151s-139 56 -176 151
l-321 798v-784c0 -107 -56 -165 -159 -165z" />
    <glyph glyph-name="N" unicode="N" horiz-adv-x="1569" 
d="M300 0c-103 0 -160 58 -160 165v1031c0 115 36 238 212 238c102 0 186 -52 273 -199l486 -775v809c0 107 56 165 159 165s160 -58 160 -165v-1031c0 -115 -36 -238 -212 -238c-102 0 -186 52 -273 199l-486 775v-809c0 -107 -56 -165 -159 -165z" />
    <glyph glyph-name="O" unicode="O" horiz-adv-x="1708" 
d="M854 -26c-477 0 -754 321 -754 743c0 421 277 743 754 743s754 -322 754 -743c0 -422 -277 -743 -754 -743zM422 717c0 -284 151 -474 432 -474s432 190 432 474s-151 474 -432 474s-432 -190 -432 -474z" />
    <glyph glyph-name="P" unicode="P" horiz-adv-x="1444" 
d="M300 0c-103 0 -160 58 -160 165v1104c0 107 58 165 165 165h466c361 0 567 -185 567 -501s-206 -501 -567 -501h-312v-267c0 -107 -56 -165 -159 -165zM771 1165h-312v-464h312c169 0 245 93 245 232s-76 232 -245 232z" />
    <glyph glyph-name="Q" unicode="Q" horiz-adv-x="1709" 
d="M855 -26c-478 0 -755 322 -755 743c0 420 277 743 755 743c477 0 754 -323 754 -743c0 -237 -88 -443 -250 -577l25 -28c58 -63 50 -138 -7 -178c-22 -15 -45 -23 -69 -23c-41 0 -82 22 -119 64l-41 47c-86 -31 -185 -48 -293 -48zM423 717c0 -284 151 -474 432 -474
c32 0 62 5 88 13l-29 35c-44 52 -38 120 18 160c24 16 46 23 67 23c37 0 70 -21 100 -54l58 -62c86 82 129 208 129 359c0 284 -151 474 -431 474c-281 0 -432 -190 -432 -474z" />
    <glyph glyph-name="R" unicode="R" horiz-adv-x="1436" 
d="M305 1434h465c333 0 566 -149 566 -472c0 -230 -141 -368 -281 -407l194 -336c51 -90 25 -179 -58 -214c-23 -10 -46 -14 -68 -14c-57 0 -110 32 -146 96l-240 420h-278v-342c0 -107 -56 -165 -159 -165s-160 58 -160 165v1104c0 107 58 165 165 165zM770 1165h-311v-407
h311c168 0 244 73 244 204c0 129 -76 203 -244 203z" />
    <glyph glyph-name="S" unicode="S" horiz-adv-x="1377" 
d="M211 62c-101 43 -126 131 -83 202c27 45 65 63 112 63c32 0 67 -8 106 -21c76 -28 206 -63 322 -63c181 0 280 41 280 160c0 104 -92 150 -291 194c-363 78 -532 218 -532 443c0 239 175 420 546 420c171 0 314 -28 412 -61c107 -35 144 -115 105 -192
c-27 -51 -72 -69 -127 -69c-28 0 -60 5 -93 13c-67 18 -181 40 -285 40c-134 0 -236 -41 -236 -149c0 -99 95 -137 271 -177c353 -77 552 -191 552 -462c0 -309 -253 -429 -590 -429c-192 0 -361 42 -469 88z" />
    <glyph glyph-name="T" unicode="T" horiz-adv-x="1413" 
d="M66 1300c0 86 57 134 164 134h953c107 0 164 -48 164 -134c0 -87 -57 -135 -164 -135h-317v-1000c0 -107 -56 -165 -159 -165s-160 58 -160 165v1000h-317c-107 0 -164 48 -164 135z" />
    <glyph glyph-name="U" unicode="U" horiz-adv-x="1558" 
d="M779 -26c-447 0 -639 250 -639 668v627c0 107 57 165 160 165s159 -58 159 -165v-627c0 -259 85 -399 320 -399s320 140 320 399v627c0 107 57 165 160 165s159 -58 159 -165v-627c0 -418 -192 -668 -639 -668z" />
    <glyph glyph-name="V" unicode="V" horiz-adv-x="1459" 
d="M99 1189c-44 112 -29 216 83 245c17 5 33 7 49 7c74 0 124 -53 155 -137l344 -898l343 898c31 84 81 137 156 137c15 0 31 -2 48 -7c112 -29 127 -133 83 -245l-413 -1031c-47 -117 -124 -158 -217 -158c-94 0 -171 41 -217 158z" />
    <glyph glyph-name="W" unicode="W" horiz-adv-x="2014" 
d="M93 1205c-39 113 -11 202 93 228c17 4 33 6 48 6c75 0 127 -50 154 -139l238 -773l217 764c26 94 79 143 164 143s137 -49 164 -143l216 -764l239 773c27 89 79 139 153 139c15 0 31 -2 48 -6c105 -26 132 -115 94 -228l-360 -1071c-31 -91 -86 -134 -170 -134
c-83 0 -136 45 -163 139l-221 784l-222 -784c-27 -94 -80 -139 -163 -139s-138 43 -169 134z" />
    <glyph glyph-name="X" unicode="X" horiz-adv-x="1444" 
d="M174 23c-62 41 -95 126 -22 223l365 492l-343 438c-76 95 -69 177 4 231c29 21 57 31 85 31c54 0 105 -35 143 -85l316 -401l316 401c38 50 88 85 142 85c28 0 57 -10 85 -31c74 -54 80 -136 5 -231l-344 -438l366 -492c72 -97 39 -182 -22 -223c-25 -17 -52 -25 -80 -25
c-49 0 -101 27 -144 84l-324 433l-324 -433c-44 -57 -95 -84 -144 -84c-28 0 -55 8 -80 25z" />
    <glyph glyph-name="Y" unicode="Y" horiz-adv-x="1458" 
d="M135 1178c-77 106 -55 193 28 238c23 13 46 19 67 19c57 0 109 -41 157 -106l342 -483l341 483c48 65 100 106 156 106c22 0 45 -6 68 -19c83 -45 105 -132 28 -238l-434 -622v-391c0 -107 -57 -165 -159 -165c-103 0 -160 58 -160 165v391z" />
    <glyph glyph-name="Z" unicode="Z" horiz-adv-x="1420" 
d="M120 112c0 43 21 95 60 148l662 905h-548c-107 0 -165 48 -165 135c0 86 58 134 165 134h841c105 0 154 -46 154 -112c0 -43 -20 -95 -59 -148l-663 -905h568c107 0 165 -48 165 -134c0 -87 -58 -135 -165 -135h-860c-106 0 -155 46 -155 112z" />
    <glyph glyph-name="bracketleft" unicode="[" horiz-adv-x="842" 
d="M150 -219v1488c0 107 58 165 165 165h252c107 0 165 -48 165 -134c0 -87 -58 -135 -165 -135h-98v-1280h98c107 0 165 -48 165 -135c0 -86 -58 -134 -165 -134h-252c-107 0 -165 58 -165 165z" />
    <glyph glyph-name="backslash" unicode="\" horiz-adv-x="1074" 
d="M133 1231c-53 118 -10 197 104 203c97 8 156 -38 195 -123l509 -1107c53 -118 10 -197 -104 -203c-97 -8 -157 38 -196 124z" />
    <glyph glyph-name="bracketright" unicode="]" horiz-adv-x="842" 
d="M110 1300c0 86 58 134 165 134h252c107 0 165 -58 165 -165v-1488c0 -107 -58 -165 -165 -165h-252c-107 0 -165 48 -165 134c0 87 58 135 165 135h98v1280h-98c-107 0 -165 48 -165 135z" />
    <glyph glyph-name="asciicircum" unicode="^" horiz-adv-x="1029" 
d="M172 826c-78 16 -99 87 -23 199l193 303c50 74 102 106 173 106c70 0 122 -32 172 -106l193 -303c76 -112 56 -183 -23 -199c-13 -3 -25 -4 -36 -4c-66 0 -113 43 -158 103l-148 211l-149 -211c-45 -60 -92 -103 -158 -103c-11 0 -23 1 -36 4z" />
    <glyph glyph-name="underscore" unicode="_" horiz-adv-x="1262" 
d="M100 -225c0 72 52 112 159 112h744c107 0 159 -40 159 -112s-52 -111 -159 -111h-744c-107 0 -159 39 -159 111z" />
    <glyph glyph-name="a" unicode="a" horiz-adv-x="1216" 
d="M80 317c0 276 292 355 570 355c49 0 98 -3 142 -7c-1 108 -23 168 -209 168c-82 0 -182 -24 -231 -38c-29 -6 -54 -9 -75 -9c-54 0 -87 19 -106 63c-27 63 5 126 112 157c73 23 196 50 323 50c370 0 490 -138 490 -446v-444c0 -108 -53 -166 -151 -166
c-97 0 -138 42 -152 104l-1 42c-41 -75 -134 -168 -324 -168c-236 0 -388 122 -388 339zM385 330c0 -82 57 -129 162 -129c176 0 245 116 245 211v73c-30 2 -62 3 -96 3c-149 0 -311 -29 -311 -158z" />
    <glyph glyph-name="b" unicode="b" horiz-adv-x="1378" 
d="M120 1351c0 107 53 165 152 165c98 0 151 -58 151 -165v-477c53 78 164 182 340 182c343 0 535 -225 535 -541s-192 -541 -535 -541c-176 0 -294 106 -346 190c-1 -10 -5 -55 -12 -79c-16 -49 -52 -85 -133 -85c-99 0 -152 58 -152 165v1186zM423 515
c0 -172 104 -306 285 -306c180 0 284 134 284 306s-104 306 -284 306c-181 0 -285 -134 -285 -306z" />
    <glyph glyph-name="c" unicode="c" horiz-adv-x="1144" 
d="M680 -26c-367 0 -600 210 -600 541s233 541 600 541c123 0 214 -28 283 -58c102 -41 114 -119 76 -178c-23 -36 -56 -49 -97 -49c-32 0 -69 8 -111 20c-39 15 -92 30 -151 30c-183 0 -294 -122 -294 -306s111 -306 294 -306c59 0 112 15 151 30c42 12 79 20 111 20
c41 0 74 -13 97 -49c38 -59 26 -137 -76 -178c-69 -30 -160 -58 -283 -58z" />
    <glyph glyph-name="d" unicode="d" horiz-adv-x="1378" 
d="M80 515c0 316 192 541 535 541c176 0 287 -104 340 -182v477c0 107 53 165 151 165c99 0 152 -58 152 -165v-1186c0 -107 -53 -165 -152 -165c-81 0 -117 36 -133 85c-7 24 -11 69 -12 79c-52 -84 -170 -190 -346 -190c-343 0 -535 225 -535 541zM386 515
c0 -172 104 -306 285 -306c180 0 284 134 284 306s-104 306 -284 306c-181 0 -285 -134 -285 -306z" />
    <glyph glyph-name="e" unicode="e" horiz-adv-x="1232" 
d="M80 515c0 295 191 541 547 541c294 0 514 -182 525 -485c1 -111 -52 -171 -160 -171h-605c3 -101 91 -197 269 -197c95 0 181 23 230 43c32 9 60 15 85 15c39 0 69 -14 88 -51c36 -66 6 -134 -86 -171c-90 -39 -202 -65 -346 -65c-373 0 -547 252 -547 541zM627 827
c-155 0 -233 -107 -240 -222h480c-7 116 -85 222 -240 222z" />
    <glyph glyph-name="f" unicode="f" horiz-adv-x="945" 
d="M60 913c0 75 48 117 122 117h73v28c1 288 92 484 402 484c34 0 64 -3 90 -6c112 -10 157 -66 140 -143c-18 -76 -78 -93 -144 -89c-11 2 -22 3 -33 3c-125 -1 -152 -64 -152 -249v-28h164c75 0 122 -42 122 -117c0 -76 -47 -118 -122 -118h-164v-631
c0 -107 -53 -164 -151 -164c-99 0 -152 57 -152 164v631h-73c-75 0 -122 42 -122 118z" />
    <glyph glyph-name="g" unicode="g" horiz-adv-x="1378" 
d="M80 515c0 316 192 541 535 541c176 0 287 -104 340 -182c4 22 11 65 18 82c23 51 71 74 133 74c99 0 152 -58 152 -165v-865c0 -414 -288 -532 -598 -532c-140 0 -257 27 -345 57c-106 32 -137 100 -105 173c19 44 55 59 100 59c31 0 67 -7 104 -17
c59 -19 138 -37 222 -37c189 0 319 90 319 297v155c-51 -73 -167 -181 -340 -181c-343 0 -535 225 -535 541zM386 515c0 -172 104 -306 285 -306c180 0 284 134 284 306s-104 306 -284 306c-181 0 -285 -134 -285 -306z" />
    <glyph glyph-name="h" unicode="h" 
d="M272 0c-99 0 -152 57 -152 164v1187c0 107 53 165 152 165c98 0 151 -58 151 -165v-455c33 63 126 160 287 160c304 0 459 -189 459 -485v-407c0 -107 -53 -164 -151 -164c-99 0 -152 57 -152 164v407c0 153 -64 250 -222 250c-156 0 -221 -97 -221 -250v-407
c0 -107 -53 -164 -151 -164z" />
    <glyph glyph-name="i" unicode="i" horiz-adv-x="564" 
d="M130 165v700c0 107 53 165 152 165c98 0 151 -58 151 -165v-700c0 -107 -53 -165 -151 -165c-99 0 -152 58 -152 165zM123 1321c0 87 71 158 158 158s160 -71 160 -158c0 -88 -73 -159 -160 -159s-158 71 -158 159z" />
    <glyph glyph-name="j" unicode="j" horiz-adv-x="562" 
d="M-33 -526c-109 12 -177 76 -150 163c25 79 97 73 158 69c16 -1 32 -2 49 0c101 14 104 142 104 267v892c0 107 53 165 152 165c98 0 151 -58 151 -165v-892c0 -303 -84 -505 -381 -505c-31 0 -59 3 -83 6zM120 1321c0 87 72 158 159 158s159 -71 159 -158
c0 -88 -72 -159 -159 -159s-159 71 -159 159z" />
    <glyph glyph-name="k" unicode="k" horiz-adv-x="1167" 
d="M120 165v1186c0 107 53 165 152 165c98 0 151 -58 151 -165v-675l409 319c33 25 69 37 103 37c37 0 71 -14 94 -43c46 -56 38 -140 -42 -201l-249 -194l280 -351c71 -87 64 -177 1 -221c-24 -16 -50 -25 -77 -25c-47 0 -95 25 -134 73l-286 361l-99 -78v-188
c0 -107 -53 -165 -151 -165c-99 0 -152 58 -152 165z" />
    <glyph glyph-name="l" unicode="l" horiz-adv-x="639" 
d="M384 0c-228 0 -264 168 -264 329v1022c0 107 53 165 152 165c98 0 151 -58 151 -165v-1038c0 -53 4 -78 44 -78c52 0 91 -29 91 -105s-67 -130 -174 -130z" />
    <glyph glyph-name="m" unicode="m" horiz-adv-x="1890" 
d="M120 865c0 107 53 165 152 165c61 0 104 -28 124 -71c6 -13 11 -41 15 -55c32 58 117 152 271 152c177 0 284 -77 342 -177c42 62 143 177 331 177c273 0 414 -187 414 -486v-406c0 -107 -53 -164 -151 -164c-99 0 -152 57 -152 164v424c0 126 -48 233 -184 233
c-138 0 -186 -107 -186 -233v-424c0 -107 -53 -164 -151 -164c-99 0 -152 57 -152 164v424c0 126 -48 233 -185 233s-185 -107 -185 -233v-424c0 -107 -53 -164 -151 -164c-99 0 -152 57 -152 164v701z" />
    <glyph glyph-name="n" unicode="n" 
d="M120 865c0 107 53 165 152 165c66 0 110 -28 130 -80c5 -22 10 -40 13 -64c37 73 135 170 295 170c304 0 459 -189 459 -485v-407c0 -107 -53 -164 -151 -164c-99 0 -152 57 -152 164v407c0 153 -64 250 -222 250c-156 0 -221 -97 -221 -250v-407
c0 -107 -53 -164 -151 -164c-99 0 -152 57 -152 164v701z" />
    <glyph glyph-name="o" unicode="o" horiz-adv-x="1359" 
d="M80 515c0 331 245 541 600 541c354 0 599 -210 599 -541s-245 -541 -599 -541c-355 0 -600 210 -600 541zM386 515c0 -180 105 -306 294 -306c182 0 293 126 293 306s-111 306 -293 306c-189 0 -294 -126 -294 -306z" />
    <glyph glyph-name="p" unicode="p" horiz-adv-x="1378" 
d="M120 865c0 107 53 165 152 165c72 0 119 -32 137 -92c3 -15 6 -55 8 -71c50 79 173 189 346 189c343 0 535 -225 535 -541s-192 -541 -535 -541c-173 0 -289 108 -340 181v-522c0 -107 -53 -165 -151 -165c-99 0 -152 58 -152 165v1232zM423 515
c0 -172 104 -306 285 -306c180 0 284 134 284 306s-104 306 -284 306c-181 0 -285 -134 -285 -306z" />
    <glyph glyph-name="q" unicode="q" horiz-adv-x="1378" 
d="M80 515c0 316 192 541 535 541c173 0 296 -110 346 -189c2 16 4 56 8 71c18 60 65 92 137 92c99 0 152 -58 152 -165v-1232c0 -107 -53 -165 -152 -165c-98 0 -151 58 -151 165v522c-51 -73 -167 -181 -340 -181c-343 0 -535 225 -535 541zM386 515
c0 -172 104 -306 284 -306c181 0 285 134 285 306s-104 306 -285 306c-180 0 -284 -134 -284 -306z" />
    <glyph glyph-name="r" unicode="r" horiz-adv-x="969" 
d="M272 0c-98 0 -152 57 -152 164v701c0 107 54 165 152 165c67 0 112 -28 132 -82c5 -16 7 -46 9 -54c32 65 126 162 285 162c34 0 63 -4 87 -8c114 -12 145 -99 106 -168c-31 -56 -73 -68 -123 -68c-26 0 -55 3 -85 5c-11 2 -24 4 -38 4c-157 0 -221 -103 -221 -256v-401
c0 -107 -53 -164 -152 -164z" />
    <glyph glyph-name="s" unicode="s" horiz-adv-x="1077" 
d="M188 24c-105 33 -133 110 -97 174c24 43 58 59 103 59c24 0 52 -5 83 -12c59 -16 148 -36 233 -36c126 0 186 38 186 100c0 63 -65 87 -194 111c-288 54 -421 144 -421 327c0 182 150 309 430 309c145 0 238 -18 317 -39c109 -27 141 -101 108 -166
c-25 -49 -65 -68 -115 -68c-20 0 -41 3 -63 8c-52 13 -136 30 -223 30c-105 0 -149 -28 -149 -84c0 -55 71 -80 174 -100c272 -53 441 -127 441 -344c0 -236 -224 -319 -485 -319c-122 0 -243 21 -328 50z" />
    <glyph glyph-name="t" unicode="t" horiz-adv-x="929" 
d="M60 913c0 75 47 117 122 117h70v132c0 107 53 164 152 164c98 0 151 -57 151 -164v-132h160c74 0 122 -42 122 -117c0 -76 -47 -118 -122 -118h-160v-348c0 -173 19 -244 138 -244h48c60 -3 100 -24 109 -82c12 -77 -41 -122 -126 -138c-24 -6 -49 -9 -78 -9
c-315 0 -394 161 -394 479v342h-70c-75 0 -122 42 -122 118z" />
    <glyph glyph-name="u" unicode="u" 
d="M120 459v407c0 107 53 164 151 164c99 0 152 -57 152 -164v-407c0 -153 64 -250 222 -250c156 0 220 97 220 250v407c0 107 53 164 152 164s152 -57 152 -164v-701c0 -107 -53 -165 -152 -165c-101 0 -128 60 -144 145c-36 -74 -134 -171 -294 -171
c-304 0 -459 189 -459 485z" />
    <glyph glyph-name="v" unicode="v" horiz-adv-x="1173" 
d="M99 783c-47 107 -37 207 64 241c19 6 37 10 53 10c72 0 121 -59 150 -136l221 -564l220 564c29 77 78 136 151 136c16 0 34 -4 53 -10c100 -34 110 -134 63 -241l-266 -622c-50 -115 -123 -161 -221 -161s-172 46 -222 161z" />
    <glyph glyph-name="w" unicode="w" horiz-adv-x="1670" 
d="M88 805c-39 114 -4 204 92 223c13 3 26 4 38 4c78 0 126 -54 150 -137l154 -523l160 520c29 93 78 138 153 138s125 -45 153 -138l160 -520l155 523c23 83 71 137 149 137c12 0 25 -1 38 -4c96 -19 131 -109 93 -223l-229 -671c-32 -91 -92 -134 -188 -134
c-102 0 -161 44 -190 137l-141 456l-141 -456c-28 -93 -88 -137 -189 -137c-96 0 -156 43 -188 134z" />
    <glyph glyph-name="x" unicode="x" horiz-adv-x="1208" 
d="M153 30c-51 41 -80 118 -6 200l257 299l-230 260c-74 79 -70 163 -4 216c25 20 52 29 79 29c46 0 93 -26 138 -74l217 -248l216 248c45 48 93 74 139 74c27 0 54 -9 79 -29c66 -53 69 -137 -5 -216l-230 -260l257 -299c75 -82 45 -159 -6 -200c-26 -21 -55 -32 -86 -32
c-41 0 -84 19 -121 61l-243 286l-243 -286c-37 -42 -80 -61 -121 -61c-32 0 -61 11 -87 32z" />
    <glyph glyph-name="y" unicode="y" horiz-adv-x="1173" 
d="M163 1024c19 6 37 10 53 10c72 0 121 -59 150 -136l221 -564l220 564c29 77 78 136 151 136c16 0 34 -4 53 -10c100 -34 110 -134 63 -241l-462 -1075c-57 -133 -130 -226 -287 -237c-31 -2 -56 -2 -86 1c-91 5 -183 55 -157 154c20 69 77 82 140 79c13 -2 25 -2 38 -1
c70 9 93 69 124 152l55 136l-340 791c-47 107 -37 207 64 241z" />
    <glyph glyph-name="z" unicode="z" horiz-adv-x="1125" 
d="M221 0c-79 0 -129 38 -129 98c0 37 19 79 61 130l462 567h-349c-107 0 -165 42 -165 118s58 117 165 117h622c79 0 129 -39 129 -98c0 -38 -19 -80 -61 -131l-462 -566h374c107 0 165 -41 165 -117s-58 -118 -165 -118h-647z" />
    <glyph glyph-name="braceleft" unicode="{" horiz-adv-x="944" 
d="M100 553c0 90 58 119 122 182c64 36 103 101 103 234c0 307 143 461 341 508c19 5 37 7 53 7c77 0 125 -49 125 -120c0 -89 -43 -120 -91 -160c-68 -49 -100 -149 -100 -265c0 -212 -89 -337 -210 -386c121 -50 210 -175 210 -386c0 -117 32 -217 100 -265
c48 -41 91 -72 91 -161c0 -70 -48 -120 -125 -120c-17 0 -34 2 -53 7c-198 47 -341 201 -341 509c0 133 -39 198 -103 234c-65 62 -122 91 -122 182z" />
    <glyph glyph-name="bar" unicode="|" horiz-adv-x="559" 
d="M120 -367v1718c0 107 57 165 160 165s159 -58 159 -165v-1718c0 -107 -56 -165 -159 -165s-160 58 -160 165z" />
    <glyph glyph-name="braceright" unicode="}" horiz-adv-x="944" 
d="M100 1364c0 71 48 120 125 120c16 0 34 -2 53 -7c199 -47 341 -201 341 -508c0 -133 40 -198 103 -234c65 -63 122 -92 122 -182c0 -91 -57 -120 -122 -182c-63 -36 -103 -101 -103 -234c0 -308 -142 -462 -341 -509c-19 -5 -36 -7 -53 -7c-77 0 -125 50 -125 120
c0 89 43 120 92 161c67 48 99 148 99 265c0 211 89 336 210 386c-121 49 -210 174 -210 386c0 116 -32 216 -99 265c-49 40 -92 71 -92 160z" />
    <glyph glyph-name="asciitilde" unicode="~" horiz-adv-x="1294" 
d="M234 579c-96 0 -161 68 -121 175c42 113 135 226 323 226c133 0 211 -64 270 -122c53 -52 89 -88 140 -88c46 0 76 31 106 61c27 33 57 56 107 56c96 0 161 -68 121 -175c-42 -114 -134 -226 -322 -226c-134 0 -211 63 -270 121c-53 53 -89 89 -140 89
c-44 0 -72 -28 -99 -56c-29 -35 -61 -61 -115 -61z" />
    <glyph glyph-name="uni00A0" unicode="&#xa0;" horiz-adv-x="645" 
 />
    <glyph glyph-name="exclamdown" unicode="&#xa1;" horiz-adv-x="574" 
d="M288 -500c-105 0 -161 59 -158 167l13 691c2 107 54 163 145 163s142 -56 144 -163l13 -691c3 -108 -52 -167 -157 -167zM120 783c0 92 75 167 167 167s167 -75 167 -167s-75 -167 -167 -167s-167 75 -167 167z" />
    <glyph glyph-name="questiondown" unicode="&#xbf;" horiz-adv-x="1180" 
d="M83 -110c0 193 119 348 413 397v108c0 82 57 126 159 126c103 0 160 -50 160 -142v-123c0 -91 -57 -134 -162 -152c-148 -22 -251 -82 -251 -202c0 -100 80 -165 229 -165c95 0 156 37 208 73c47 26 96 47 143 47c30 0 58 -9 84 -29c68 -54 72 -146 -21 -216
c-82 -68 -214 -144 -414 -144c-368 0 -548 194 -548 422zM488 783c0 92 75 167 168 167c92 0 167 -75 167 -167s-75 -167 -167 -167c-93 0 -168 75 -168 167z" />
    <glyph glyph-name="sterling" unicode="&#xa3;" horiz-adv-x="1452" 
d="M268 585c-89 0 -148 47 -148 132c0 65 34 107 90 121c15 5 46 8 65 9c-4 23 -6 62 -6 91c-8 292 188 528 580 528c199 0 335 -69 423 -162c71 -70 59 -142 4 -188c-28 -24 -58 -33 -88 -33c-46 0 -93 21 -134 45c-42 36 -103 69 -205 69c-188 0 -261 -116 -261 -261
c0 -29 2 -65 6 -88h276c89 0 148 -46 148 -131s-59 -132 -148 -132h-218c6 -37 14 -73 14 -111c0 -126 -75 -197 -83 -205h585c107 0 165 -48 165 -134c0 -87 -58 -135 -165 -135h-782c-107 0 -165 44 -165 119s30 121 70 187c27 41 56 103 56 172c0 22 -4 58 -14 107h-65z
" />
    <glyph glyph-name="currency" unicode="&#xa4;" horiz-adv-x="1089" 
d="M114 948c-41 60 -47 122 3 173c26 25 56 39 88 39c31 0 64 -13 96 -39c19 -17 32 -30 52 -49c58 31 125 49 192 49s134 -18 191 -48c23 21 40 37 63 55c28 20 57 30 85 30c31 0 61 -13 86 -37c53 -50 47 -117 5 -175c-18 -22 -32 -38 -53 -59c31 -58 49 -125 49 -192
c0 -68 -18 -135 -49 -193c20 -20 34 -36 52 -58c42 -58 53 -123 -4 -176c-26 -25 -55 -38 -86 -38c-29 0 -59 11 -89 33c-21 18 -37 33 -59 53c-57 -30 -124 -48 -191 -48s-135 18 -192 48c-25 -25 -46 -42 -70 -60c-26 -16 -53 -24 -79 -24c-31 0 -62 12 -87 35
c-47 43 -49 107 -1 178c17 21 30 37 49 58c-30 57 -49 125 -49 192c0 66 19 134 49 192c-20 22 -34 39 -51 61zM362 697c0 -103 84 -186 187 -186s186 83 186 186c0 104 -83 186 -186 186s-187 -82 -187 -186z" />
    <glyph glyph-name="brokenbar" unicode="&#xa6;" horiz-adv-x="559" 
d="M120 1318c0 107 57 165 160 165s159 -58 159 -165v-563c0 -107 -56 -165 -159 -165s-160 58 -160 165v563zM280 -532c-103 0 -160 58 -160 165v564c0 107 57 164 160 164s159 -57 159 -164v-564c0 -107 -56 -165 -159 -165z" />
    <glyph glyph-name="section" unicode="&#xa7;" horiz-adv-x="1353" 
d="M633 45c-354 77 -553 191 -553 462c0 142 52 246 143 317c-64 62 -94 137 -94 233c0 239 170 409 546 409c171 0 313 -28 411 -61c108 -35 147 -115 105 -192c-28 -51 -73 -69 -127 -69c-29 0 -60 5 -93 13c-66 18 -181 40 -284 40c-134 0 -236 -33 -236 -140
c0 -101 95 -128 270 -168c353 -77 552 -191 552 -462c0 -143 -52 -247 -143 -317c64 -61 95 -137 95 -233c0 -239 -170 -409 -546 -409c-171 0 -314 28 -412 61c-107 35 -146 115 -104 192c28 51 72 69 126 69c29 0 60 -5 93 -13c67 -18 182 -40 285 -40
c134 0 236 33 236 140c0 101 -95 129 -270 168zM402 507c0 -88 65 -137 208 -174c68 -19 134 -35 181 -53c101 19 160 60 160 147c0 90 -69 140 -216 177c-66 18 -127 34 -173 50c-101 -20 -160 -61 -160 -147z" />
    <glyph glyph-name="copyright" unicode="&#xa9;" horiz-adv-x="1698" 
d="M100 717c0 413 329 743 748 743c420 0 750 -330 750 -743s-330 -743 -750 -743c-419 0 -748 330 -748 743zM848 1240c-289 0 -522 -229 -522 -523s233 -523 522 -523s524 229 524 523s-235 523 -524 523zM854 307c-243 0 -407 172 -407 410s164 410 407 410
c77 0 153 -16 216 -53c62 -36 75 -87 44 -130c-18 -26 -39 -36 -65 -36c-20 0 -42 5 -68 14c-38 15 -82 22 -127 22c-136 0 -202 -100 -202 -227s66 -227 202 -227c45 0 89 7 127 22c26 9 49 15 68 15c26 0 47 -10 65 -37c31 -43 18 -94 -43 -130c-64 -37 -140 -53 -217 -53
z" />
    <glyph glyph-name="guillemotleft" unicode="&#xab;" horiz-adv-x="1602" 
d="M100 659c0 57 29 104 98 158l402 313c44 34 83 50 115 50c54 0 87 -46 87 -130c0 -88 -31 -148 -102 -200l-255 -191l255 -192c71 -52 102 -112 102 -200c0 -82 -37 -127 -92 -127c-32 0 -70 15 -110 47l-402 313c-69 54 -98 101 -98 159zM780 659c0 57 29 104 98 158
l402 313c44 34 83 50 115 50c54 0 87 -46 87 -130c0 -88 -31 -148 -102 -200l-255 -191l255 -192c71 -52 102 -112 102 -200c0 -82 -37 -127 -92 -127c-32 0 -70 15 -110 47l-402 313c-69 54 -98 101 -98 159z" />
    <glyph glyph-name="guillemotright" unicode="&#xbb;" horiz-adv-x="1602" 
d="M902 850c-71 52 -102 112 -102 200c0 82 36 127 91 127c32 0 70 -15 110 -47l402 -313c69 -54 99 -101 99 -158c0 -58 -30 -105 -99 -159l-402 -313c-43 -34 -82 -50 -114 -50c-54 0 -87 46 -87 130c0 88 31 148 102 200l255 192zM120 1050c0 82 36 127 91 127
c32 0 70 -15 110 -47l402 -313c69 -54 99 -101 99 -158c0 -58 -30 -105 -99 -159l-402 -313c-43 -34 -82 -50 -114 -50c-54 0 -87 46 -87 130c0 88 31 148 102 200l255 192l-255 191c-71 52 -102 112 -102 200z" />
    <glyph glyph-name="logicalnot" unicode="&#xac;" horiz-adv-x="1190" 
d="M100 714c0 94 58 145 165 145h660c107 0 165 -58 165 -165v-281c0 -107 -56 -165 -158 -165c-103 0 -160 58 -160 165v156h-507c-107 0 -165 51 -165 145z" />
    <glyph glyph-name="uni00AD" unicode="&#xad;" horiz-adv-x="1000" 
d="M100 663c0 77 52 120 159 120h482c107 0 159 -43 159 -120s-52 -120 -159 -120h-482c-107 0 -159 42 -159 120z" />
    <glyph glyph-name="registered" unicode="&#xae;" horiz-adv-x="1164" 
d="M80 964c0 277 225 502 502 502c276 0 502 -225 502 -502s-226 -502 -502 -502c-277 0 -502 225 -502 502zM582 1324c-199 0 -360 -160 -360 -360c0 -199 161 -360 360 -360s360 161 360 360c0 200 -161 360 -360 360zM463 736c-38 0 -60 22 -60 79v283
c0 71 34 105 105 105h112c115 0 167 -69 167 -158c0 -74 -39 -117 -82 -132l49 -93c23 -45 12 -73 -21 -84c-8 -3 -15 -4 -22 -4c-26 0 -45 17 -60 45l-62 115h-67v-77c0 -57 -21 -79 -59 -79zM522 1096v-102h98c33 0 48 19 48 51c0 31 -15 51 -48 51h-98z" />
    <glyph glyph-name="degree" unicode="&#xb0;" horiz-adv-x="619" 
d="M310 907c-155 0 -280 124 -280 279s125 280 280 280c154 0 279 -125 279 -280s-125 -279 -279 -279zM215 1186c0 -52 42 -95 95 -95c52 0 94 43 94 95c0 53 -42 95 -94 95c-53 0 -95 -42 -95 -95z" />
    <glyph glyph-name="plusminus" unicode="&#xb1;" horiz-adv-x="1231" 
d="M265 766c-107 0 -165 48 -165 136c0 87 58 135 165 135h205v197c0 107 52 165 146 165c93 0 145 -58 145 -165v-197h205c107 0 165 -48 165 -135c0 -88 -58 -136 -165 -136h-205v-197c0 -107 -52 -164 -145 -164c-94 0 -146 57 -146 164v197h-205zM265 58
c-107 0 -165 48 -165 136c0 87 58 135 165 135h701c107 0 165 -48 165 -135c0 -88 -58 -136 -165 -136h-701z" />
    <glyph glyph-name="uni00B5" unicode="&#xb5;" horiz-adv-x="1371" 
d="M272 -532c-99 0 -152 58 -152 165v1233c0 107 53 164 152 164c98 0 151 -57 151 -164v-329c0 -207 88 -328 262 -328c175 0 263 121 263 328v329c0 107 53 164 152 164c98 0 151 -57 151 -164v-701c0 -107 -53 -165 -151 -165c-64 0 -104 21 -129 67c-8 14 -16 48 -23 66
c-32 -59 -105 -159 -263 -159c-157 0 -230 100 -262 159v-500c0 -107 -53 -165 -151 -165z" />
    <glyph glyph-name="paragraph" unicode="&#xb6;" horiz-adv-x="1643" 
d="M602 504c-342 0 -502 224 -502 465c0 242 160 465 502 465h777c107 0 165 -48 165 -134c0 -104 -66 -128 -152 -134v-1002c0 -107 -56 -164 -159 -164s-160 57 -160 164v1001h-75v-1001c0 -107 -56 -164 -159 -164s-160 55 -160 157v347h-77zM419 969
c0 -101 52 -196 183 -196h77v392h-77c-131 0 -183 -96 -183 -196z" />
    <glyph glyph-name="periodcentered" unicode="&#xb7;" horiz-adv-x="518" 
d="M100 718c0 87 71 159 159 159s159 -72 159 -159s-71 -159 -159 -159s-159 72 -159 159z" />
    <glyph glyph-name="cedilla" unicode="&#xb8;" horiz-adv-x="642" 
d="M205 -483c-97 10 -137 52 -121 102c10 35 39 44 83 44c18 0 37 -1 59 -3c64 -6 140 -4 148 58c5 45 -37 58 -86 60c-102 11 -151 30 -123 112l39 116c14 41 48 56 108 56c55 0 82 -22 71 -56l-34 -105c128 -1 225 -60 212 -187c-15 -147 -136 -202 -278 -202
c-25 0 -52 2 -78 5z" />
    <glyph glyph-name="divide" unicode="&#xf7;" horiz-adv-x="1088" 
d="M100 688c0 87 58 135 165 135h558c107 0 165 -48 165 -135c0 -88 -58 -136 -165 -136h-558c-107 0 -165 48 -165 136zM544 140c-95 0 -171 76 -171 171s76 171 171 171s171 -76 171 -171s-76 -171 -171 -171zM373 1063c0 95 76 171 171 171s171 -76 171 -171
s-76 -171 -171 -171s-171 76 -171 171z" />
    <glyph glyph-name="multiply" unicode="&#xd7;" horiz-adv-x="1057" 
d="M142 286c-62 62 -56 135 16 208l178 177l-173 173c-76 76 -83 150 -20 213c28 28 59 43 91 43c38 0 78 -20 117 -59l177 -178l173 173c42 42 83 63 122 63c32 0 63 -14 91 -42c62 -62 56 -136 -16 -208l-179 -178l174 -173c75 -76 83 -149 21 -212
c-28 -29 -59 -43 -91 -43c-38 0 -77 20 -117 59l-178 178l-174 -174c-41 -41 -83 -62 -122 -62c-32 0 -62 14 -90 42z" />
    <glyph glyph-name="bullet" unicode="&#x2022;" horiz-adv-x="812" 
d="M120 662c0 158 128 286 286 286s286 -128 286 -286s-128 -286 -286 -286s-286 128 -286 286z" />
    <glyph glyph-name="onedotenleader" unicode="&#x2024;" horiz-adv-x="534" 
d="M100 151c0 92 75 167 167 167s167 -75 167 -167s-75 -167 -167 -167s-167 75 -167 167z" />
    <glyph glyph-name="twodotenleader" unicode="&#x2025;" horiz-adv-x="958" 
d="M100 151c0 92 75 167 167 167s167 -75 167 -167s-75 -167 -167 -167s-167 75 -167 167zM691 -16c-92 0 -167 75 -167 167s75 167 167 167s167 -75 167 -167s-75 -167 -167 -167z" />
    <glyph glyph-name="ellipsis" unicode="&#x2026;" horiz-adv-x="1372" 
d="M100 151c0 92 75 167 167 167s167 -75 167 -167s-75 -167 -167 -167s-167 75 -167 167zM686 -16c-92 0 -167 75 -167 167s75 167 167 167s167 -75 167 -167s-75 -167 -167 -167zM938 151c0 92 75 167 167 167s167 -75 167 -167s-75 -167 -167 -167s-167 75 -167 167z" />
    <glyph glyph-name="quoteleft" unicode="&#x2018;" horiz-adv-x="491" 
d="M167 934c-110 0 -160 68 -103 180l100 206c38 75 92 117 182 113c93 -3 131 -67 86 -182l-72 -187c-35 -90 -94 -130 -189 -130h-4z" />
    <glyph glyph-name="quoteright" unicode="&#x2019;" horiz-adv-x="491" 
d="M145 934c-94 4 -131 67 -86 183l72 187c34 90 94 130 188 130h4c110 0 161 -68 104 -181l-100 -205c-38 -75 -92 -117 -182 -114z" />
    <glyph glyph-name="quotesinglbase" unicode="&#x201a;" horiz-adv-x="521" 
d="M135 -247c-94 4 -131 67 -86 183l72 187c34 89 94 130 188 130h4c110 0 161 -69 104 -181l-100 -205c-38 -76 -92 -117 -182 -114z" />
    <glyph glyph-name="quotedblleft" unicode="&#x201c;" horiz-adv-x="887" 
d="M563 933c-110 0 -160 68 -103 180l100 206c38 75 92 117 182 113c93 -3 131 -67 86 -182l-72 -188c-35 -89 -94 -129 -189 -129h-4zM167 933c-110 0 -160 68 -103 180l100 206c38 75 92 117 182 113c93 -3 131 -67 86 -182l-72 -188c-35 -89 -94 -129 -189 -129h-4z" />
    <glyph glyph-name="quotedblright" unicode="&#x201d;" horiz-adv-x="887" 
d="M541 934c-94 4 -131 67 -86 183l72 187c34 90 94 130 188 130h4c110 0 161 -68 104 -181l-100 -205c-38 -75 -92 -117 -182 -114zM145 934c-94 4 -131 67 -86 183l72 187c34 90 94 130 188 130h4c110 0 161 -68 104 -181l-100 -205c-38 -75 -92 -117 -182 -114z" />
    <glyph glyph-name="quotedblbase" unicode="&#x201e;" horiz-adv-x="917" 
d="M531 -247c-94 4 -131 67 -86 183l72 187c34 89 94 130 188 130h4c110 0 161 -69 104 -181l-100 -205c-38 -76 -92 -117 -182 -114zM135 -247c-94 4 -131 67 -86 183l72 187c34 89 94 130 188 130h4c110 0 161 -69 104 -181l-100 -205c-38 -76 -92 -117 -182 -114z" />
    <glyph glyph-name="dieresis" unicode="&#xa8;" horiz-adv-x="960" 
d="M100 1320c0 88 72 159 159 159s159 -71 159 -159c0 -87 -72 -158 -159 -158s-159 71 -159 158zM702 1162c-87 0 -159 71 -159 158c0 88 72 159 159 159s159 -71 159 -159c0 -87 -72 -158 -159 -158z" />
    <glyph glyph-name="circumflex" unicode="&#x2c6;" horiz-adv-x="809" 
d="M134 1130c-67 15 -72 68 -11 128l85 93c61 59 118 83 197 83s136 -24 196 -83l85 -93c61 -60 56 -113 -11 -128c-13 -3 -25 -4 -38 -4c-61 0 -114 32 -168 73l-64 62l-65 -62c-54 -41 -107 -73 -168 -73c-13 0 -25 1 -38 4z" />
    <glyph glyph-name="macron" unicode="&#xaf;" horiz-adv-x="1040" 
d="M100 1317c0 76 58 117 165 117h516c107 0 159 -41 159 -117s-52 -118 -159 -118h-516c-107 0 -165 41 -165 118z" />
    <glyph glyph-name="acute" unicode="&#xb4;" horiz-adv-x="578" 
d="M176 1126c-90 3 -130 66 -60 150l74 84c47 56 106 74 187 74c109 0 159 -61 85 -141l-87 -88c-55 -53 -117 -81 -199 -79z" />
    <glyph glyph-name="grave" unicode="`" horiz-adv-x="578" 
d="M116 1293c-75 80 -25 141 85 141c81 0 140 -18 187 -74l74 -84c70 -84 30 -147 -60 -150c-82 -2 -144 26 -199 79z" />
    <glyph glyph-name="caron" unicode="&#x2c7;" horiz-adv-x="809" 
d="M123 1306c-61 59 -56 113 11 128c13 3 25 4 38 4c61 0 114 -32 168 -73l65 -62l64 62c54 41 107 73 168 73c13 0 25 -1 38 -4c67 -15 72 -69 11 -128l-85 -94c-60 -58 -117 -82 -196 -82s-136 24 -197 82z" />
    <glyph glyph-name="breve" unicode="&#x2d8;" horiz-adv-x="882" 
d="M130 1430c11 4 22 6 33 6c22 0 43 -8 62 -23c52 -38 107 -88 217 -88c101 0 158 49 204 82c24 17 49 28 76 28c10 0 20 -1 31 -5c54 -15 72 -87 14 -151c-68 -85 -198 -127 -325 -127c-129 0 -250 40 -322 121c-63 66 -44 141 10 157z" />
    <glyph glyph-name="dotaccent" unicode="&#x2d9;" horiz-adv-x="518" 
d="M100 1323c0 87 71 158 159 158c87 0 159 -71 159 -158c0 -88 -72 -159 -159 -159c-88 0 -159 71 -159 159z" />
    <glyph glyph-name="ring" unicode="&#x2da;" horiz-adv-x="628" 
d="M315 1117c-111 0 -203 91 -203 202s92 203 203 203c110 0 202 -92 202 -203s-92 -202 -202 -202zM248 1319c0 -37 30 -67 67 -67s66 30 66 67s-29 68 -66 68s-67 -31 -67 -68z" />
    <glyph glyph-name="ogonek" unicode="&#x2db;" horiz-adv-x="550" 
d="M81 -226c0 122 95 199 161 226h127c-37 -40 -75 -95 -75 -150c0 -44 25 -67 55 -81c70 -39 121 -53 121 -128c0 -58 -44 -109 -121 -109c-15 0 -31 2 -49 6c-134 30 -219 117 -219 236z" />
    <glyph glyph-name="tilde" unicode="&#x2dc;" horiz-adv-x="907" 
d="M160 1197c-69 6 -113 85 -43 181c38 60 101 116 212 116c82 0 126 -35 160 -66c27 -25 44 -47 80 -47c21 0 37 11 52 24c32 32 60 63 127 56c68 -6 112 -85 43 -181c-38 -60 -102 -116 -213 -116c-81 0 -125 34 -159 66c-27 25 -44 47 -81 47c-24 0 -40 -14 -58 -29
c-31 -31 -59 -57 -120 -51z" />
    <glyph glyph-name="hungarumlaut" unicode="&#x2dd;" horiz-adv-x="849" 
d="M185 1139c-70 2 -99 51 -78 133l34 97c24 78 81 114 165 114c86 0 126 -53 87 -135l-47 -101c-35 -75 -89 -110 -161 -108zM526 1139c-70 2 -99 51 -78 133l34 97c25 78 81 114 165 114c87 0 126 -53 87 -135l-47 -101c-35 -75 -89 -110 -161 -108z" />
    <glyph glyph-name="uni0326" unicode="&#x326;" horiz-adv-x="521" 
d="M178 -508c-87 6 -113 65 -84 145l60 156c28 78 85 111 175 111h5c98 0 142 -58 105 -134l-82 -169c-29 -59 -77 -114 -179 -109z" />
    <glyph glyph-name="tonos" unicode="&#x384;" horiz-adv-x="486" 
d="M178 1066c-84 2 -123 53 -103 140l29 98c25 89 88 130 181 130h8c101 0 147 -63 110 -151l-39 -96c-36 -86 -97 -123 -186 -121z" />
    <glyph glyph-name="dieresistonos" unicode="&#x385;" horiz-adv-x="900" 
d="M449 1520c-84 2 -122 54 -102 140l28 99c25 88 88 129 182 129h7c101 0 148 -62 110 -151l-39 -96c-36 -86 -97 -123 -186 -121zM229 1162c-87 0 -159 71 -159 158c0 88 72 159 159 159s159 -71 159 -159c0 -87 -72 -158 -159 -158zM672 1162c-87 0 -159 71 -159 158
c0 88 72 159 159 159s159 -71 159 -159c0 -87 -72 -158 -159 -158z" />
    <glyph glyph-name="Agrave" unicode="&#xc0;" horiz-adv-x="1495" 
d="M85 210l445 1072c46 112 125 153 218 153s171 -41 217 -153l445 -1072c47 -114 1 -197 -105 -210c-93 -11 -155 27 -196 131l-76 183h-571l-76 -183c-42 -104 -103 -142 -196 -131c-107 13 -152 96 -105 210zM554 1821c81 0 140 -19 187 -75l74 -84
c70 -83 31 -147 -60 -149c-81 -2 -144 25 -199 79l-87 88c-74 80 -24 141 85 141zM748 1029l-187 -464h374z" />
    <glyph glyph-name="Aacute" unicode="&#xc1;" horiz-adv-x="1495" 
d="M85 210l445 1072c46 112 125 153 218 153s171 -41 217 -153l445 -1072c47 -114 1 -197 -105 -210c-93 -11 -155 27 -196 131l-76 183h-571l-76 -183c-42 -104 -103 -142 -196 -131c-107 13 -152 96 -105 210zM680 1662l74 84c46 56 105 75 186 75c110 0 160 -61 86 -141
l-87 -88c-55 -54 -118 -81 -200 -79c-90 2 -129 66 -59 149zM748 1029l-187 -464h374z" />
    <glyph glyph-name="Acircumflex" unicode="&#xc2;" horiz-adv-x="1495" 
d="M85 210l445 1072c46 112 125 153 218 153s171 -41 217 -153l445 -1072c47 -114 1 -197 -105 -210c-93 -11 -155 27 -196 131l-76 183h-571l-76 -183c-42 -104 -103 -142 -196 -131c-107 13 -152 96 -105 210zM466 1641l85 93c60 59 117 82 196 82s136 -23 197 -82l85 -93
c61 -60 56 -114 -11 -129c-13 -3 -25 -4 -38 -4c-61 0 -114 32 -168 73l-65 63l-64 -63c-54 -41 -107 -73 -168 -73c-13 0 -25 1 -38 4c-67 15 -72 69 -11 129zM748 1029l-187 -464h374z" />
    <glyph glyph-name="Atilde" unicode="&#xc3;" horiz-adv-x="1495" 
d="M85 210l445 1072c46 112 125 153 218 153s171 -41 217 -153l445 -1072c47 -114 1 -197 -105 -210c-93 -11 -155 27 -196 131l-76 183h-571l-76 -183c-42 -104 -103 -142 -196 -131c-107 13 -152 96 -105 210zM410 1727c38 60 102 116 213 116c81 0 125 -35 159 -67
c27 -24 44 -46 80 -46c22 0 37 11 52 24c33 32 60 63 127 56c68 -7 113 -85 43 -182c-38 -59 -101 -115 -213 -115c-81 0 -125 34 -159 66c-27 25 -44 46 -80 46c-24 0 -41 -13 -59 -28c-30 -31 -58 -57 -120 -52c-68 7 -113 85 -43 182zM748 1029l-187 -464h374z" />
    <glyph glyph-name="Adieresis" unicode="&#xc4;" horiz-adv-x="1495" 
d="M85 210l446 1072c45 112 124 153 217 153s171 -41 218 -153l445 -1072c46 -114 1 -197 -105 -210c-93 -11 -155 27 -197 131l-75 183h-571l-77 -183c-42 -104 -103 -142 -196 -131c-107 13 -152 96 -105 210zM969 1829c87 0 159 -71 159 -158c0 -88 -72 -158 -159 -158
s-159 70 -159 158c0 87 72 158 159 158zM526 1829c87 0 159 -71 159 -158c0 -88 -72 -158 -159 -158s-159 70 -159 158c0 87 72 158 159 158zM748 1029l-187 -464h374z" />
    <glyph glyph-name="Aring" unicode="&#xc5;" horiz-adv-x="1495" 
d="M85 210l445 1072c46 112 125 153 218 153s171 -41 217 -153l445 -1072c47 -114 2 -197 -105 -210c-93 -11 -155 27 -196 131l-76 183h-571l-76 -183c-42 -104 -103 -142 -196 -131c-107 13 -152 96 -105 210zM747 1918c111 0 203 -92 203 -203s-92 -202 -203 -202
c-110 0 -202 91 -202 202s92 203 202 203zM748 1029l-187 -464h374zM747 1648c38 0 67 30 67 67s-29 67 -67 67c-37 0 -66 -30 -66 -67s29 -67 66 -67z" />
    <glyph glyph-name="Amacron" unicode="&#x100;" horiz-adv-x="1495" 
d="M85 210l445 1072c46 112 125 153 218 153s171 -41 217 -153l445 -1072c47 -114 1 -197 -105 -210c-93 -11 -155 27 -196 131l-76 183h-571l-76 -183c-42 -104 -103 -142 -196 -131c-107 13 -152 96 -105 210zM492 1748h516c107 0 159 -41 159 -117s-52 -118 -159 -118
h-516c-107 0 -164 41 -164 118c0 76 57 117 164 117zM561 565h374l-187 464z" />
    <glyph glyph-name="Abreve" unicode="&#x102;" horiz-adv-x="1495" 
d="M85 210l445 1072c46 112 125 153 218 153s171 -41 217 -153l445 -1072c47 -114 1 -197 -105 -210c-93 -11 -155 27 -196 131l-76 183h-571l-76 -183c-42 -104 -103 -142 -196 -131c-107 13 -152 96 -105 210zM435 1791c11 4 23 6 34 6c22 0 42 -8 61 -23
c53 -38 108 -88 217 -88c101 0 159 49 205 82c24 17 49 28 76 28c10 0 20 -1 31 -5c53 -15 71 -87 14 -151c-68 -85 -198 -127 -326 -127s-250 40 -321 121c-63 66 -44 141 9 157zM561 565h374l-187 464z" />
    <glyph glyph-name="Aogonek" unicode="&#x104;" horiz-adv-x="1495" 
d="M85 210l446 1072c45 112 124 153 217 153s171 -41 218 -153l445 -1072c37 -91 16 -162 -48 -194c-35 -39 -71 -92 -71 -146c0 -44 24 -67 55 -81c70 -39 121 -53 121 -128c0 -58 -44 -109 -121 -109c-15 0 -31 2 -49 6c-135 30 -219 117 -219 236c0 108 74 181 136 215
c-45 17 -80 56 -106 122l-75 183h-571l-76 -183c-43 -104 -104 -142 -197 -131c-106 13 -151 96 -105 210zM748 1029l-187 -464h374z" />
    <glyph glyph-name="uni01CD" unicode="&#x1cd;" horiz-adv-x="1495" 
d="M85 210l445 1072c46 112 125 153 218 153s171 -41 217 -153l445 -1072c47 -114 1 -197 -105 -210c-93 -11 -155 27 -196 131l-76 183h-571l-76 -183c-42 -104 -103 -142 -196 -131c-107 13 -152 96 -105 210zM477 1817c13 3 25 4 38 4c61 0 114 -32 168 -73l64 -63l65 63
c54 41 106 73 168 73c12 0 25 -1 38 -4c67 -15 72 -69 11 -129l-85 -93c-61 -59 -118 -82 -197 -82s-136 23 -196 82l-85 93c-61 60 -57 114 11 129zM748 1029l-187 -464h374z" />
    <glyph glyph-name="uni01DE" unicode="&#x1de;" horiz-adv-x="1495" 
d="M190 0c-107 13 -152 96 -105 210l445 1071c46 113 124 153 217 153c94 0 171 -40 218 -153l445 -1071c46 -114 1 -197 -105 -210c-93 -11 -155 27 -197 131l-75 183h-571l-76 -183c-42 -104 -103 -142 -196 -131zM411 1869c0 59 43 90 125 90h426c81 0 121 -31 121 -90
c0 -58 -40 -90 -121 -90h-426c-82 0 -125 31 -125 90zM747 1029l-186 -464h373zM800 1611c0 68 56 123 124 123s123 -55 123 -123s-55 -123 -123 -123s-124 55 -124 123zM446 1611c0 68 56 123 124 123c67 0 123 -55 123 -123s-56 -123 -123 -123c-68 0 -124 55 -124 123z
" />
    <glyph glyph-name="uni01E0" unicode="&#x1e0;" horiz-adv-x="1495" 
d="M190 0c-106 13 -151 96 -105 210l446 1071c45 112 124 153 217 153c94 0 171 -41 218 -153l445 -1071c46 -114 1 -197 -105 -210c-93 -11 -155 27 -197 131l-75 183h-571l-76 -183c-43 -104 -104 -142 -197 -131zM413 1878c0 59 43 90 125 90h426c81 0 121 -31 121 -90
c0 -58 -40 -90 -121 -90h-426c-82 0 -125 31 -125 90zM561 565h374l-187 463zM625 1619c0 68 55 123 124 123c68 0 123 -55 123 -123c0 -67 -55 -123 -123 -123c-69 0 -124 56 -124 123z" />
    <glyph glyph-name="Aringacute" unicode="&#x1fa;" horiz-adv-x="1495" 
d="M189 0c-106 13 -151 96 -105 210l446 1071c46 113 124 153 217 153c94 0 171 -40 218 -153l445 -1071c46 -114 1 -197 -105 -210c-93 -11 -155 27 -197 131l-75 183h-571l-76 -183c-43 -104 -104 -142 -197 -131zM747 1481c-103 0 -187 85 -187 187c0 48 19 90 48 124
l98 117c46 56 92 78 167 78c76 0 101 -40 62 -78l-88 -86c51 -32 87 -90 87 -155c0 -102 -84 -187 -187 -187zM561 565h373l-187 464zM685 1668c0 -34 28 -61 62 -61c35 0 62 27 62 61s-27 62 -62 62c-34 0 -62 -28 -62 -62z" />
    <glyph glyph-name="uni0200" unicode="&#x200;" horiz-adv-x="1495" 
d="M85 210l445 1072c46 112 125 153 218 153s171 -41 217 -153l445 -1072c47 -114 1 -197 -105 -210c-93 -11 -155 27 -196 131l-76 183h-571l-76 -183c-42 -104 -103 -142 -196 -131c-107 13 -152 96 -105 210zM366 1817c81 0 140 -18 187 -74l74 -84
c70 -84 30 -147 -60 -150c-82 -2 -144 26 -199 79l-87 88c-75 80 -25 141 85 141zM780 1817c81 0 140 -18 186 -74l74 -84c70 -84 31 -147 -59 -150c-82 -2 -145 26 -200 79l-87 88c-74 80 -24 141 86 141zM748 1029l-187 -464h374z" />
    <glyph glyph-name="uni0202" unicode="&#x202;" horiz-adv-x="1495" 
d="M85 210l445 1072c46 112 125 153 218 153s171 -41 217 -153l445 -1072c47 -114 1 -197 -105 -210c-93 -11 -155 27 -196 131l-76 183h-571l-76 -183c-42 -104 -103 -142 -196 -131c-107 13 -152 96 -105 210zM426 1647c71 82 193 122 321 122s258 -42 326 -127
c57 -64 39 -137 -14 -152c-10 -3 -21 -5 -31 -5c-27 0 -52 11 -76 29c-46 33 -104 82 -205 82c-109 0 -164 -51 -217 -89c-19 -15 -39 -23 -61 -23c-11 0 -23 2 -34 6c-53 16 -72 92 -9 157zM561 565h374l-187 464z" />
    <glyph glyph-name="uni0226" unicode="&#x226;" horiz-adv-x="1495" 
d="M85 210l446 1072c45 112 124 153 217 153c94 0 171 -41 218 -153l445 -1072c46 -114 1 -197 -105 -210c-93 -11 -155 27 -197 131l-75 183h-571l-76 -183c-43 -104 -104 -142 -197 -131c-106 13 -151 96 -105 210zM748 1830c87 0 159 -71 159 -159
c0 -87 -72 -158 -159 -158c-88 0 -159 71 -159 158c0 88 71 159 159 159zM748 1029l-187 -464h374z" />
    <glyph glyph-name="AE" unicode="&#xc6;" horiz-adv-x="2202" 
d="M185 0c-117 19 -154 122 -79 235l735 1093c50 74 110 106 199 106h868c107 0 165 -48 165 -134c0 -87 -58 -135 -165 -135h-576v-305h529c107 0 164 -46 164 -131s-57 -132 -164 -132h-529v-328h586c107 0 165 -48 165 -134c0 -87 -58 -135 -165 -135h-740
c-107 0 -165 40 -165 115v239h-456l-164 -244c-49 -75 -113 -125 -208 -110zM1013 1041l-278 -418h278v418z" />
    <glyph glyph-name="uni01E2" unicode="&#x1e2;" horiz-adv-x="2202" 
d="M185 0c-117 19 -154 122 -79 235l735 1093c50 74 110 106 199 106h868c107 0 165 -48 165 -134c0 -87 -58 -135 -165 -135h-576v-305h529c107 0 164 -46 164 -131s-57 -132 -164 -132h-529v-328h586c107 0 165 -48 165 -134c0 -87 -58 -135 -165 -135h-740
c-107 0 -165 40 -165 115v239h-456l-164 -244c-49 -75 -113 -125 -208 -110zM833 1630c0 76 57 117 164 117h516c107 0 159 -41 159 -117s-52 -118 -159 -118h-516c-107 0 -164 41 -164 118zM1013 1041l-278 -418h278v418z" />
    <glyph glyph-name="AEacute" unicode="&#x1fc;" horiz-adv-x="2202" 
d="M185 0c-117 19 -154 122 -79 235l735 1093c50 74 110 106 199 106h868c107 0 165 -48 165 -134c0 -87 -58 -135 -165 -135h-576v-305h529c107 0 164 -46 164 -131s-57 -132 -164 -132h-529v-328h586c107 0 165 -48 165 -134c0 -87 -58 -135 -165 -135h-740
c-107 0 -165 40 -165 115v239h-456l-164 -244c-49 -75 -113 -125 -208 -110zM1244 1512c-90 3 -129 66 -59 150l74 84c46 56 105 74 186 74c110 0 160 -61 86 -141l-87 -88c-55 -54 -118 -81 -200 -79zM735 623h278v418z" />
    <glyph glyph-name="Ccedilla" unicode="&#xc7;" horiz-adv-x="1488" 
d="M743 -20c-431 45 -643 357 -643 737c0 412 249 743 755 743c194 0 330 -41 422 -85c99 -47 114 -134 68 -201c-27 -41 -63 -56 -106 -56c-33 0 -71 9 -112 24c-65 24 -158 49 -272 49c-302 0 -432 -222 -432 -474s130 -474 432 -474c114 0 207 25 272 49
c41 15 79 24 112 24c43 0 79 -15 106 -56c46 -67 31 -154 -68 -201c-81 -39 -196 -75 -355 -83l-24 -75c128 -1 224 -60 211 -187c-14 -147 -135 -202 -278 -202c-25 0 -52 2 -78 5c-96 10 -136 52 -121 102c11 35 39 44 84 44c17 0 37 -1 59 -3c63 -6 139 -4 147 58
c6 45 -36 58 -85 60c-103 11 -152 30 -124 112z" />
    <glyph glyph-name="Cacute" unicode="&#x106;" horiz-adv-x="1488" 
d="M855 -26c-506 0 -755 331 -755 743s249 743 755 743c194 0 330 -41 422 -85c99 -47 114 -134 68 -201c-27 -41 -63 -56 -106 -56c-33 0 -71 9 -112 24c-65 24 -158 49 -272 49c-302 0 -432 -222 -432 -474s130 -474 432 -474c114 0 207 25 272 49c41 15 79 24 112 24
c43 0 79 -15 106 -56c46 -67 31 -154 -68 -201c-92 -44 -228 -85 -422 -85zM814 1538c-91 3 -130 66 -60 150l74 84c47 56 106 74 187 74c109 0 159 -61 85 -141l-87 -88c-55 -54 -118 -81 -199 -79z" />
    <glyph glyph-name="Ccircumflex" unicode="&#x108;" horiz-adv-x="1488" 
d="M855 -26c-506 0 -755 331 -755 743s249 743 755 743c194 0 330 -41 422 -85c99 -47 114 -134 68 -201c-27 -41 -63 -56 -106 -56c-33 0 -71 9 -112 24c-65 24 -158 49 -272 49c-302 0 -432 -222 -432 -474s130 -474 432 -474c114 0 207 25 272 49c41 15 79 24 112 24
c43 0 79 -15 106 -56c46 -67 31 -154 -68 -201c-92 -44 -228 -85 -422 -85zM551 1537c-67 15 -72 69 -11 129l85 93c61 59 118 83 197 83s136 -24 196 -83l85 -93c61 -60 57 -114 -11 -129c-13 -3 -25 -4 -38 -4c-61 0 -114 32 -168 73l-64 63l-65 -63
c-54 -41 -107 -73 -168 -73c-13 0 -25 1 -38 4z" />
    <glyph glyph-name="Cdotaccent" unicode="&#x10a;" horiz-adv-x="1488" 
d="M100 717c0 412 249 743 755 743c194 0 331 -41 423 -85c98 -47 113 -134 68 -201c-28 -41 -63 -56 -106 -56c-34 0 -72 9 -113 24c-64 24 -157 49 -272 49c-302 0 -432 -222 -432 -474s130 -474 432 -474c115 0 208 25 272 49c41 15 79 24 113 24c43 0 78 -15 106 -56
c45 -67 30 -154 -68 -201c-92 -44 -229 -85 -423 -85c-506 0 -755 331 -755 743zM822 1538c-88 0 -159 71 -159 159c0 87 71 158 159 158c87 0 159 -71 159 -158c0 -88 -72 -159 -159 -159z" />
    <glyph glyph-name="Ccaron" unicode="&#x10c;" horiz-adv-x="1488" 
d="M855 -26c-506 0 -755 331 -755 743s249 743 755 743c194 0 330 -41 422 -85c99 -47 114 -134 68 -201c-27 -41 -63 -56 -106 -56c-33 0 -71 9 -112 24c-65 24 -158 49 -272 49c-302 0 -432 -222 -432 -474s130 -474 432 -474c114 0 207 25 272 49c41 15 79 24 112 24
c43 0 79 -15 106 -56c46 -67 31 -154 -68 -201c-92 -44 -228 -85 -422 -85zM540 1714c-61 60 -57 113 11 128c13 3 25 4 38 4c61 0 114 -32 168 -73l65 -62l64 62c54 41 107 73 168 73c13 0 25 -1 38 -4c67 -15 72 -68 11 -128l-85 -94c-60 -58 -117 -82 -196 -82
c-80 0 -137 24 -197 82z" />
    <glyph glyph-name="Dcaron" unicode="&#x10e;" horiz-adv-x="1529" 
d="M140 1269c0 107 58 165 165 165h394c528 0 730 -310 730 -717s-202 -717 -730 -717h-394c-107 0 -165 58 -165 165v1104zM699 1165h-240v-896h240c294 0 409 175 409 448s-115 448 -409 448zM423 1688c-61 60 -56 113 11 128c13 3 25 4 38 4c61 0 114 -32 168 -73l65 -62
l64 62c54 41 107 73 168 73c13 0 25 -1 38 -4c68 -15 72 -68 12 -128l-86 -94c-60 -58 -117 -82 -196 -82s-136 24 -197 82z" />
    <glyph glyph-name="Dcroat" unicode="&#x110;" horiz-adv-x="1674" 
d="M70 717c0 80 53 127 126 127h89v425c0 107 58 165 165 165h393c528 0 730 -310 730 -717s-202 -717 -730 -717h-393c-107 0 -165 58 -165 165v424h-89c-73 0 -126 47 -126 128zM785 589h-181v-320h239c294 0 409 175 409 448s-115 448 -409 448h-239v-321h181
c73 0 125 -47 125 -127c0 -81 -52 -128 -125 -128z" />
    <glyph glyph-name="Eth" unicode="&#xd0;" horiz-adv-x="1674" 
d="M70 717c0 80 53 127 126 127h89v425c0 107 58 165 165 165h393c528 0 730 -310 730 -717s-202 -717 -730 -717h-393c-107 0 -165 58 -165 165v424h-89c-73 0 -126 47 -126 128zM785 589h-181v-320h239c294 0 409 175 409 448s-115 448 -409 448h-239v-321h181
c73 0 125 -47 125 -127c0 -81 -52 -128 -125 -128z" />
    <glyph glyph-name="Egrave" unicode="&#xc8;" horiz-adv-x="1336" 
d="M305 1434h736c107 0 165 -48 165 -134c0 -87 -58 -135 -165 -135h-582v-305h535c107 0 164 -46 164 -131s-57 -132 -164 -132h-535v-328h592c107 0 165 -48 165 -134c0 -87 -58 -135 -165 -135h-746c-107 0 -165 58 -165 165v1104c0 107 58 165 165 165zM477 1820
c81 0 140 -18 186 -74l74 -84c71 -84 31 -147 -59 -150c-82 -2 -145 25 -200 79l-87 88c-74 80 -24 141 86 141z" />
    <glyph glyph-name="Eacute" unicode="&#xc9;" horiz-adv-x="1336" 
d="M140 165v1104c0 107 58 165 165 165h736c107 0 165 -48 165 -134c0 -87 -58 -135 -165 -135h-582v-305h535c107 0 164 -46 164 -131s-57 -132 -164 -132h-535v-328h592c107 0 165 -48 165 -134c0 -87 -58 -135 -165 -135h-746c-107 0 -165 58 -165 165zM602 1662l74 84
c47 56 106 74 187 74c109 0 159 -61 85 -141l-87 -88c-55 -54 -118 -81 -200 -79c-90 3 -129 66 -59 150z" />
    <glyph glyph-name="Ecircumflex" unicode="&#xca;" horiz-adv-x="1336" 
d="M140 165v1104c0 107 58 165 165 165h736c107 0 165 -48 165 -134c0 -87 -58 -135 -165 -135h-582v-305h535c107 0 164 -46 164 -131s-57 -132 -164 -132h-535v-328h592c107 0 165 -48 165 -134c0 -87 -58 -135 -165 -135h-746c-107 0 -165 58 -165 165zM388 1640l85 93
c61 59 118 83 197 83s136 -24 196 -83l85 -93c61 -60 57 -114 -11 -129c-13 -3 -25 -4 -38 -4c-61 0 -114 32 -168 73l-64 63l-65 -63c-54 -41 -107 -73 -168 -73c-13 0 -25 1 -38 4c-67 15 -72 69 -11 129z" />
    <glyph glyph-name="Edieresis" unicode="&#xcb;" horiz-adv-x="1336" 
d="M140 165v1104c0 107 58 165 165 165h737c107 0 164 -48 164 -134c0 -87 -57 -135 -164 -135h-583v-305h535c107 0 165 -46 165 -131s-58 -132 -165 -132h-535v-328h593c107 0 164 -48 164 -134c0 -87 -57 -135 -164 -135h-747c-107 0 -165 58 -165 165zM289 1670
c0 88 72 159 159 159s159 -71 159 -159c0 -87 -72 -158 -159 -158s-159 71 -159 158zM891 1829c87 0 159 -71 159 -159c0 -87 -72 -158 -159 -158s-159 71 -159 158c0 88 72 159 159 159z" />
    <glyph glyph-name="Emacron" unicode="&#x112;" horiz-adv-x="1336" 
d="M305 1434h736c107 0 165 -48 165 -134c0 -87 -58 -135 -165 -135h-582v-305h535c107 0 164 -46 164 -131s-57 -132 -164 -132h-535v-328h592c107 0 165 -48 165 -134c0 -87 -58 -135 -165 -135h-746c-107 0 -165 58 -165 165v1104c0 107 58 165 165 165zM415 1747h516
c107 0 159 -41 159 -117s-52 -118 -159 -118h-516c-108 0 -165 41 -165 118c0 76 57 117 165 117z" />
    <glyph glyph-name="Ebreve" unicode="&#x114;" horiz-adv-x="1336" 
d="M140 165v1104c0 107 58 165 165 165h736c107 0 165 -48 165 -134c0 -87 -58 -135 -165 -135h-582v-305h535c107 0 164 -46 164 -131s-57 -132 -164 -132h-535v-328h592c107 0 165 -48 165 -134c0 -87 -58 -135 -165 -135h-746c-107 0 -165 58 -165 165zM357 1791
c11 4 23 6 34 6c22 0 43 -8 62 -23c52 -39 107 -89 217 -89c101 0 158 49 204 82c24 18 49 29 76 29c10 0 21 -2 31 -5c54 -16 72 -88 14 -152c-67 -85 -198 -127 -325 -127c-129 0 -250 40 -322 122c-63 65 -44 141 9 157z" />
    <glyph glyph-name="Edotaccent" unicode="&#x116;" horiz-adv-x="1336" 
d="M140 165v1104c0 107 58 165 165 165h737c107 0 164 -48 164 -134c0 -87 -57 -135 -164 -135h-583v-305h535c107 0 165 -46 165 -131s-58 -132 -165 -132h-535v-328h593c107 0 164 -48 164 -134c0 -87 -57 -135 -164 -135h-747c-107 0 -165 58 -165 165zM511 1671
c0 87 71 158 159 158c87 0 159 -71 159 -158c0 -88 -72 -159 -159 -159c-88 0 -159 71 -159 159z" />
    <glyph glyph-name="Eogonek" unicode="&#x118;" horiz-adv-x="1336" 
d="M140 165v1104c0 107 58 165 165 165h737c107 0 164 -48 164 -134c0 -87 -57 -135 -164 -135h-583v-305h535c107 0 165 -46 165 -131s-58 -132 -165 -132h-535v-328h593c107 0 164 -48 164 -134c0 -87 -57 -135 -164 -135h-1c-36 -40 -75 -95 -75 -150
c0 -44 25 -67 56 -81c70 -39 121 -53 121 -128c0 -58 -44 -109 -121 -109c-15 0 -31 2 -49 6c-135 30 -219 117 -219 236c0 122 94 199 160 226h-619c-107 0 -165 58 -165 165z" />
    <glyph glyph-name="Ecaron" unicode="&#x11a;" horiz-adv-x="1336" 
d="M140 165v1104c0 107 58 165 165 165h736c107 0 165 -48 165 -134c0 -87 -58 -135 -165 -135h-582v-305h535c107 0 164 -46 164 -131s-57 -132 -164 -132h-535v-328h592c107 0 165 -48 165 -134c0 -87 -58 -135 -165 -135h-746c-107 0 -165 58 -165 165zM399 1816
c13 3 25 4 38 4c61 0 114 -32 168 -73l65 -62l64 62c54 41 107 73 168 73c13 0 25 -1 38 -4c67 -15 72 -68 11 -128l-85 -94c-60 -58 -117 -82 -196 -82c-80 0 -137 24 -197 82l-85 94c-61 60 -57 113 11 128z" />
    <glyph glyph-name="uni0204" unicode="&#x204;" horiz-adv-x="1336" 
d="M140 165v1104c0 107 58 165 165 165h736c107 0 165 -48 165 -134c0 -87 -58 -135 -165 -135h-582v-305h535c107 0 164 -46 164 -131s-57 -132 -164 -132h-535v-328h592c107 0 165 -48 165 -134c0 -87 -58 -135 -165 -135h-746c-107 0 -165 58 -165 165zM288 1816
c81 0 140 -18 187 -74l74 -84c70 -84 31 -147 -60 -150c-82 -2 -144 26 -199 79l-87 89c-75 80 -25 140 85 140zM702 1816c81 0 140 -18 187 -74l74 -84c70 -84 30 -147 -60 -150c-82 -2 -144 26 -200 79l-87 89c-74 80 -24 140 86 140z" />
    <glyph glyph-name="uni0206" unicode="&#x206;" horiz-adv-x="1336" 
d="M305 1434h736c107 0 165 -48 165 -134c0 -87 -58 -135 -165 -135h-582v-305h535c107 0 164 -46 164 -131s-57 -132 -164 -132h-535v-328h592c107 0 165 -48 165 -134c0 -87 -58 -135 -165 -135h-746c-107 0 -165 58 -165 165v1104c0 107 58 165 165 165zM348 1648
c72 82 193 122 322 122c127 0 258 -43 325 -128c58 -63 40 -136 -14 -151c-11 -4 -21 -5 -31 -5c-27 0 -52 11 -76 28c-46 33 -103 82 -204 82c-110 0 -165 -50 -217 -88c-19 -15 -40 -23 -62 -23c-11 0 -23 2 -34 6c-53 16 -72 92 -9 157z" />
    <glyph glyph-name="uni0228" unicode="&#x228;" horiz-adv-x="1336" 
d="M140 165v1104c0 107 58 165 165 165h736c107 0 165 -48 165 -134c0 -87 -58 -135 -165 -135h-582v-305h535c107 0 164 -46 164 -131s-57 -132 -164 -132h-535v-328h592c107 0 165 -48 165 -134c0 -87 -58 -135 -165 -135h-286l-32 -99c128 -1 225 -60 212 -187
c-15 -147 -136 -202 -279 -202c-25 0 -52 2 -78 5c-96 10 -136 52 -121 102c11 35 39 44 84 44c17 0 37 -1 59 -3c63 -6 139 -4 148 58c5 45 -37 58 -86 60c-102 11 -151 30 -124 112l37 110h-280c-107 0 -165 58 -165 165z" />
    <glyph glyph-name="Gcircumflex" unicode="&#x11c;" horiz-adv-x="1581" 
d="M100 717c0 412 249 743 754 743c197 0 336 -42 428 -84c103 -43 138 -121 93 -197c-26 -44 -64 -61 -112 -61c-31 0 -65 7 -102 18c-75 27 -180 55 -307 55c-301 0 -431 -222 -431 -474s130 -474 431 -474c161 0 260 48 300 68v288h-141c-107 0 -159 44 -159 123
s52 122 159 122h262c107 0 165 -58 165 -164v-409c0 -89 -33 -142 -114 -188c-110 -62 -272 -109 -472 -109c-505 0 -754 331 -754 743zM556 1537c-67 15 -72 69 -11 129l85 93c61 59 118 83 197 83s136 -24 196 -83l85 -93c61 -60 56 -114 -11 -129c-13 -3 -25 -4 -38 -4
c-61 0 -114 32 -168 73l-64 63l-65 -63c-54 -41 -107 -73 -168 -73c-13 0 -25 1 -38 4z" />
    <glyph glyph-name="Gbreve" unicode="&#x11e;" horiz-adv-x="1581" 
d="M100 717c0 412 249 743 754 743c197 0 336 -42 428 -84c103 -43 138 -121 93 -197c-26 -44 -64 -61 -112 -61c-31 0 -65 7 -102 18c-75 27 -180 55 -307 55c-301 0 -431 -222 -431 -474s130 -474 431 -474c161 0 260 48 300 68v288h-141c-107 0 -159 44 -159 123
s52 122 159 122h262c107 0 165 -58 165 -164v-409c0 -89 -33 -142 -114 -188c-110 -62 -272 -109 -472 -109c-505 0 -754 331 -754 743zM505 1660c-63 65 -44 141 9 157c11 4 23 6 34 6c22 0 43 -8 62 -23c52 -39 107 -89 217 -89c101 0 158 49 204 82c24 18 49 29 76 29
c10 0 21 -2 31 -5c53 -16 71 -88 14 -152c-68 -85 -198 -127 -325 -127c-129 0 -250 40 -322 122z" />
    <glyph glyph-name="uni0122" unicode="&#x122;" horiz-adv-x="1581" 
d="M100 717c0 412 249 743 754 743c197 0 336 -42 428 -84c103 -43 138 -121 93 -197c-26 -44 -64 -61 -112 -61c-31 0 -65 7 -102 18c-75 27 -180 55 -307 55c-301 0 -431 -222 -431 -474s130 -474 431 -474c161 0 260 48 300 68v288h-141c-107 0 -159 44 -159 123
s52 122 159 122h262c107 0 165 -58 165 -164v-409c0 -89 -33 -142 -114 -188c-110 -62 -272 -109 -472 -109c-505 0 -754 331 -754 743zM690 -516c-87 6 -113 65 -84 145l61 156c28 78 84 111 175 111h5c98 0 142 -58 105 -134l-83 -169c-28 -59 -77 -114 -179 -109z" />
    <glyph glyph-name="uni01E4" unicode="&#x1e4;" horiz-adv-x="1651" 
d="M100 717c0 412 249 743 754 743c197 0 336 -42 428 -84c103 -43 138 -121 93 -197c-26 -44 -64 -61 -112 -61c-31 0 -65 7 -102 18c-75 27 -180 55 -307 55c-301 0 -431 -222 -431 -474s130 -474 431 -474c161 0 260 48 300 68v52h-190c-68 0 -104 32 -104 84
s36 84 104 84h190v68h-141c-107 0 -159 44 -159 123s52 122 159 122h262c107 0 165 -58 165 -164v-149h45c68 0 103 -32 103 -84s-35 -84 -103 -84h-45v-92c0 -89 -33 -142 -114 -188c-110 -62 -272 -109 -472 -109c-505 0 -754 331 -754 743z" />
    <glyph glyph-name="uni01F4" unicode="&#x1f4;" horiz-adv-x="1581" 
d="M100 717c0 412 249 743 754 743c197 0 336 -42 428 -84c103 -43 138 -121 93 -197c-26 -44 -64 -61 -112 -61c-31 0 -65 7 -102 18c-75 27 -180 55 -307 55c-301 0 -431 -222 -431 -474s130 -474 431 -474c161 0 260 48 300 68v288h-141c-107 0 -159 44 -159 123
s52 122 159 122h262c107 0 165 -58 165 -164v-409c0 -89 -33 -142 -114 -188c-110 -62 -272 -109 -472 -109c-505 0 -754 331 -754 743zM819 1538c-91 3 -130 66 -60 150c12 13 54 61 74 84c47 56 106 74 187 74c109 0 159 -61 85 -141c-20 -21 -66 -67 -87 -88
c-55 -54 -118 -81 -199 -79z" />
    <glyph glyph-name="Gcaron" unicode="&#x1e6;" horiz-adv-x="1581" 
d="M100 717c0 412 249 743 754 743c197 0 336 -42 428 -84c103 -43 138 -121 93 -197c-26 -44 -64 -61 -112 -61c-31 0 -65 7 -102 18c-75 27 -180 55 -307 55c-301 0 -431 -222 -431 -474s130 -474 431 -474c161 0 260 48 300 68v288h-141c-107 0 -159 44 -159 123
s52 122 159 122h262c107 0 165 -58 165 -164v-409c0 -89 -33 -142 -114 -188c-110 -62 -272 -109 -472 -109c-505 0 -754 331 -754 743zM545 1714c-61 60 -57 113 11 128c13 3 25 4 38 4c61 0 114 -32 168 -73l65 -62l64 62c54 41 107 73 168 73c13 0 25 -1 38 -4
c67 -15 72 -68 11 -128l-85 -94c-61 -58 -117 -82 -196 -82c-80 0 -137 24 -197 82z" />
    <glyph glyph-name="Gdotaccent" unicode="&#x120;" horiz-adv-x="1581" 
d="M100 717c0 412 249 743 755 743c197 0 335 -42 427 -84c103 -43 138 -121 93 -197c-26 -44 -64 -61 -112 -61c-31 0 -65 7 -102 18c-75 27 -179 55 -306 55c-302 0 -432 -222 -432 -474s130 -474 432 -474c161 0 260 48 299 68v288h-140c-107 0 -159 44 -159 123
s52 122 159 122h261c107 0 165 -58 165 -164v-409c0 -89 -33 -142 -114 -188c-110 -62 -271 -109 -471 -109c-506 0 -755 331 -755 743zM827 1538c-88 0 -159 71 -159 159c0 87 71 158 159 158c87 0 159 -71 159 -158c0 -88 -72 -159 -159 -159z" />
    <glyph glyph-name="Hcircumflex" unicode="&#x124;" horiz-adv-x="1555" 
d="M140 1270c0 107 57 164 160 164s159 -57 159 -164v-404h637v404c0 107 57 164 160 164s159 -57 159 -164v-1105c0 -107 -56 -165 -159 -165s-160 58 -160 165v432h-637v-432c0 -107 -56 -165 -159 -165s-160 58 -160 165v1105zM507 1512c-67 15 -72 69 -11 128l85 94
c61 58 118 82 197 82s136 -24 196 -82l85 -94c61 -59 56 -113 -11 -128c-13 -3 -25 -4 -38 -4c-61 0 -114 32 -168 73l-64 62l-65 -62c-54 -41 -107 -73 -168 -73c-13 0 -25 1 -38 4z" />
    <glyph glyph-name="Hbar" unicode="&#x126;" horiz-adv-x="1949" 
d="M140 1096c0 73 48 108 116 108h81v65c0 107 57 165 160 165s159 -58 159 -165v-65h637v65c0 107 57 165 160 165s159 -58 159 -165v-65h81c68 0 116 -35 116 -108s-47 -108 -116 -108h-81v-823c0 -107 -56 -165 -159 -165s-160 58 -160 165v432h-637v-432
c0 -107 -56 -165 -159 -165s-160 58 -160 165v823h-81c-69 0 -116 35 -116 108zM1293 988h-637v-122h637v122z" />
    <glyph glyph-name="uni021E" unicode="&#x21e;" horiz-adv-x="1555" 
d="M140 165v1105c0 107 57 164 160 164s159 -57 159 -164v-404h637v404c0 107 57 164 160 164s159 -57 159 -164v-1105c0 -107 -56 -165 -159 -165s-160 58 -160 165v432h-637v-432c0 -107 -56 -165 -159 -165s-160 58 -160 165zM496 1688c-61 60 -57 114 11 129
c13 3 25 4 38 4c61 0 114 -32 168 -73l65 -63l64 63c54 41 107 73 168 73c13 0 25 -1 38 -4c67 -15 72 -69 11 -129l-85 -93c-60 -59 -117 -83 -196 -83c-80 0 -137 24 -197 83z" />
    <glyph glyph-name="Igrave" unicode="&#xcc;" horiz-adv-x="619" 
d="M150 1269c0 107 57 165 160 165s159 -58 159 -165v-1104c0 -107 -56 -165 -159 -165s-160 58 -160 165v1104zM31 1679c-74 80 -24 141 86 141c81 0 140 -18 187 -74l74 -84c70 -84 30 -147 -60 -150c-82 -2 -144 26 -200 79z" />
    <glyph glyph-name="Iacute" unicode="&#xcd;" horiz-adv-x="619" 
d="M150 1269c0 107 57 165 160 165s159 -58 159 -165v-1104c0 -107 -56 -165 -159 -165s-160 58 -160 165v1104zM302 1512c-91 3 -130 66 -60 150l74 84c47 56 106 74 187 74c110 0 160 -61 85 -141l-87 -88c-55 -53 -117 -81 -199 -79z" />
    <glyph glyph-name="Icircumflex" unicode="&#xce;" horiz-adv-x="619" 
d="M150 165v1104c0 107 57 165 160 165s159 -58 159 -165v-1104c0 -107 -56 -165 -159 -165s-160 58 -160 165zM39 1512c-67 14 -72 68 -11 128l85 93c61 59 118 83 197 83s136 -24 196 -83l86 -93c60 -60 56 -114 -12 -128c-14 -3 -27 -4 -39 -4c-61 0 -113 31 -167 72
l-64 63l-65 -63c-54 -41 -105 -72 -166 -72c-13 0 -26 1 -40 4z" />
    <glyph glyph-name="Idieresis" unicode="&#xcf;" horiz-adv-x="619" 
d="M150 165v1104c0 107 57 165 160 165s159 -58 159 -165v-1104c0 -107 -56 -165 -159 -165s-160 58 -160 165zM88 1512c-87 0 -159 71 -159 158c0 88 72 159 159 159s159 -71 159 -159c0 -87 -72 -158 -159 -158zM372 1670c0 88 72 159 159 159s159 -71 159 -159
c0 -87 -72 -158 -159 -158s-159 71 -159 158z" />
    <glyph glyph-name="Itilde" unicode="&#x128;" horiz-adv-x="619" 
d="M150 165v1104c0 107 57 165 160 165s159 -58 159 -165v-1104c0 -107 -56 -165 -159 -165s-160 58 -160 165zM15 1545c-68 6 -112 85 -43 181c38 60 102 116 213 116c82 0 126 -34 160 -66c27 -25 44 -47 80 -47c21 0 37 11 52 24c32 32 60 63 127 56
c68 -6 112 -85 43 -181c-38 -60 -102 -116 -213 -116c-81 0 -125 35 -159 66c-27 25 -44 47 -81 47c-24 0 -40 -14 -58 -29c-31 -31 -59 -57 -121 -51z" />
    <glyph glyph-name="Imacron" unicode="&#x12a;" horiz-adv-x="619" 
d="M150 165v1104c0 107 57 165 160 165s159 -58 159 -165v-1104c0 -107 -56 -165 -159 -165s-160 58 -160 165zM55 1512c-107 0 -165 41 -165 118c0 76 58 117 165 117h516c107 0 159 -41 159 -117s-52 -118 -159 -118h-516z" />
    <glyph glyph-name="Ibreve" unicode="&#x12c;" horiz-adv-x="619" 
d="M150 165v1104c0 107 57 165 160 165s159 -58 159 -165v-1104c0 -107 -56 -165 -159 -165s-160 58 -160 165zM-12 1634c-63 65 -44 141 10 157c11 4 22 6 33 6c22 0 43 -8 62 -23c53 -39 107 -89 217 -89c101 0 158 49 204 82c24 18 50 29 77 29c10 0 21 -2 31 -5
c53 -16 71 -88 14 -152c-68 -85 -199 -127 -326 -127c-129 0 -250 40 -322 122z" />
    <glyph glyph-name="Iogonek" unicode="&#x12e;" horiz-adv-x="619" 
d="M314 -444c-134 29 -219 117 -219 236c0 113 82 187 146 219c-59 21 -91 74 -91 154v1104c0 107 57 165 160 165s159 -58 159 -165v-1104c0 -81 -32 -134 -93 -155c-34 -39 -68 -90 -68 -143c0 -44 25 -66 56 -80c70 -39 120 -53 120 -128c0 -59 -43 -109 -120 -109
c-15 0 -32 2 -50 6z" />
    <glyph glyph-name="Idotaccent" unicode="&#x130;" horiz-adv-x="619" 
d="M150 165v1104c0 107 57 165 160 165s159 -58 159 -165v-1104c0 -107 -56 -165 -159 -165s-160 58 -160 165zM151 1671c0 87 71 158 159 158c87 0 159 -71 159 -158c0 -88 -72 -159 -159 -159c-88 0 -159 71 -159 159z" />
    <glyph glyph-name="uni01CF" unicode="&#x1cf;" horiz-adv-x="619" 
d="M150 1269c0 107 57 165 160 165s159 -58 159 -165v-1104c0 -107 -56 -165 -159 -165s-160 58 -160 165v1104zM28 1688c-61 60 -56 113 11 128c13 3 25 4 38 4c61 0 114 -32 168 -73l65 -62l64 62c54 41 107 73 168 73c13 0 25 -1 38 -4c68 -15 72 -68 11 -128l-85 -93
c-60 -59 -117 -83 -196 -83s-136 24 -197 83z" />
    <glyph glyph-name="uni0208" unicode="&#x208;" horiz-adv-x="619" 
d="M150 1269c0 107 57 165 160 165s159 -58 159 -165v-1104c0 -107 -56 -165 -159 -165s-160 58 -160 165v1104zM256 1676c-74 80 -24 140 86 140c81 0 140 -18 187 -74l74 -84c70 -84 30 -147 -60 -150c-82 -2 -144 26 -199 80zM-157 1676c-74 80 -24 140 85 140
c81 0 140 -18 187 -74l74 -84c70 -84 31 -147 -59 -150c-82 -2 -145 26 -200 80z" />
    <glyph glyph-name="uni020A" unicode="&#x20a;" horiz-adv-x="619" 
d="M150 165v1104c0 107 57 165 160 165s159 -58 159 -165v-1104c0 -107 -56 -165 -159 -165s-160 58 -160 165zM-2 1491c-54 16 -73 91 -10 157c72 81 193 121 322 121c127 0 258 -42 326 -127c57 -64 39 -136 -14 -151c-11 -4 -21 -5 -32 -5c-26 0 -52 11 -76 28
c-46 33 -103 82 -204 82c-110 0 -164 -50 -217 -88c-19 -15 -40 -23 -62 -23c-11 0 -22 2 -33 6z" />
    <glyph glyph-name="IJ" unicode="&#x132;" horiz-adv-x="1807" 
d="M783 89c-113 87 -103 207 -13 260c24 14 47 20 69 20c55 0 105 -36 144 -66c32 -30 83 -66 157 -66c151 0 209 94 209 240v792c0 107 56 165 159 165s159 -58 159 -165v-792c0 -359 -205 -509 -515 -509c-178 0 -295 56 -369 121zM150 165v1104c0 107 57 165 160 165
s159 -58 159 -165v-1104c0 -107 -56 -165 -159 -165s-160 58 -160 165z" />
    <glyph glyph-name="Jcircumflex" unicode="&#x134;" horiz-adv-x="1188" 
d="M164 89c-113 87 -102 207 -12 260c24 14 47 20 69 20c55 0 104 -36 143 -66c32 -30 83 -66 157 -66c151 0 209 94 209 240v792c0 107 57 165 160 165s159 -58 159 -165v-792c0 -359 -205 -509 -516 -509c-177 0 -295 56 -369 121zM619 1512c-68 15 -72 68 -12 128l86 93
c60 59 117 83 196 83s136 -24 196 -83l86 -93c60 -60 56 -113 -12 -128c-13 -3 -25 -4 -38 -4c-61 0 -114 32 -168 73l-64 62l-64 -62c-54 -41 -107 -73 -168 -73c-13 0 -25 1 -38 4z" />
    <glyph glyph-name="uni0136" unicode="&#x136;" horiz-adv-x="1439" 
d="M140 165v1104c0 107 57 165 160 165s159 -58 159 -165v-397l594 519c36 30 78 45 118 45s77 -15 103 -45c56 -65 45 -158 -33 -223l-407 -355l448 -578c56 -74 55 -157 -17 -211c-29 -22 -62 -32 -94 -32c-46 0 -91 21 -122 62l-440 569l-150 -134v-324
c0 -107 -56 -165 -159 -165s-160 58 -160 165zM570 -510c-87 5 -113 64 -84 144l61 157c28 78 84 111 174 111h6c98 0 142 -58 105 -135l-83 -169c-28 -58 -77 -114 -179 -108z" />
    <glyph glyph-name="uni01E8" unicode="&#x1e8;" horiz-adv-x="1439" 
d="M140 165v1104c0 107 57 165 160 165s159 -58 159 -165v-397l594 519c36 30 78 45 118 45s77 -15 103 -45c56 -65 45 -158 -33 -223l-407 -355l448 -578c56 -74 55 -157 -17 -211c-29 -22 -62 -32 -94 -32c-46 0 -91 21 -122 62l-440 569l-150 -134v-324
c0 -107 -56 -165 -159 -165s-160 58 -160 165zM389 1688c-61 60 -57 113 11 128c13 3 25 4 38 4c61 0 114 -32 168 -73l65 -62l64 62c54 41 107 73 168 73c13 0 25 -1 38 -4c67 -15 72 -68 11 -128l-85 -93c-60 -59 -117 -83 -196 -83c-80 0 -137 24 -197 83z" />
    <glyph glyph-name="Lacute" unicode="&#x139;" horiz-adv-x="1260" 
d="M140 1269c0 107 57 165 160 165s159 -58 159 -165v-1000h541c107 0 164 -48 164 -134c0 -87 -57 -135 -164 -135h-695c-107 0 -165 58 -165 165v1104zM292 1512c-91 3 -130 66 -60 150l74 84c47 56 106 74 187 74c110 0 160 -61 85 -140l-87 -89
c-55 -53 -117 -81 -199 -79z" />
    <glyph glyph-name="uni013B" unicode="&#x13b;" horiz-adv-x="1260" 
d="M140 1269c0 107 57 165 160 165s159 -58 159 -165v-1000h541c107 0 164 -48 164 -134c0 -87 -57 -135 -164 -135h-695c-107 0 -165 58 -165 165v1104zM500 -502c-87 6 -113 65 -84 145l61 156c28 78 84 111 174 111h6c98 0 142 -58 105 -134l-83 -169
c-28 -59 -77 -114 -179 -109z" />
    <glyph glyph-name="Lcaron" unicode="&#x13d;" horiz-adv-x="1260" 
d="M140 1269c0 107 57 165 160 165s159 -58 159 -165v-1000h541c107 0 164 -48 164 -134c0 -87 -57 -135 -164 -135h-695c-107 0 -165 58 -165 165v1104zM655 983c-73 3 -112 47 -96 126l46 212c14 70 63 113 151 113c91 0 131 -49 108 -130l-67 -228
c-19 -63 -71 -97 -142 -93z" />
    <glyph glyph-name="Ldot" unicode="&#x13f;" horiz-adv-x="1260" 
d="M140 165v1104c0 107 57 165 160 165s159 -58 159 -165v-1000h540c107 0 165 -48 165 -134c0 -87 -58 -135 -165 -135h-694c-107 0 -165 58 -165 165zM952 626c-87 0 -158 71 -158 158s71 159 158 159c88 0 159 -72 159 -159s-71 -158 -159 -158z" />
    <glyph glyph-name="Lslash" unicode="&#x141;" horiz-adv-x="1393" 
d="M40 536v18c1 90 46 137 116 176l117 64v475c0 107 57 165 160 165s159 -58 159 -165v-302l71 39c36 19 66 28 91 28c48 0 75 -33 75 -93v-16c0 -94 -46 -139 -118 -178l-119 -66v-412h541c107 0 164 -48 164 -134c0 -87 -57 -135 -164 -135h-695c-107 0 -165 58 -165 165
v342l-67 -37c-35 -19 -65 -28 -90 -28c-48 0 -76 34 -76 94z" />
    <glyph glyph-name="Eng" unicode="&#x14a;" horiz-adv-x="1569" 
d="M140 1196c0 115 36 238 212 238c102 0 186 -52 273 -199l486 -775v809c0 107 56 165 159 165s160 -58 160 -165v-1292c0 -359 -205 -509 -516 -509c-177 0 -294 56 -369 121c-101 79 -104 192 -26 250c31 24 58 33 85 33c48 0 92 -32 141 -69c34 -32 84 -66 157 -66
c151 0 209 94 209 240v47c-58 28 -112 83 -166 175l-486 775v-809c0 -107 -56 -165 -159 -165s-160 58 -160 165v1031z" />
    <glyph glyph-name="uni01F8" unicode="&#x1f8;" horiz-adv-x="1569" 
d="M300 0c-103 0 -160 58 -160 165v1031c0 115 36 238 212 238c102 0 186 -52 273 -199l486 -775v809c0 107 56 165 159 165s160 -58 160 -165v-1031c0 -115 -36 -238 -212 -238c-102 0 -186 52 -273 199l-486 775v-809c0 -107 -56 -165 -159 -165zM507 1679
c-75 80 -25 141 85 141c81 0 140 -18 187 -74c20 -23 62 -71 74 -84c70 -84 31 -147 -60 -150c-82 -2 -144 26 -199 79c-21 21 -67 68 -87 88z" />
    <glyph glyph-name="Ntilde" unicode="&#xd1;" horiz-adv-x="1569" 
d="M300 0c-103 0 -160 58 -160 165v1031c0 115 36 238 212 238c102 0 186 -52 273 -199l486 -775v809c0 107 56 165 159 165s160 -58 160 -165v-1031c0 -115 -36 -238 -212 -238c-102 0 -186 52 -273 199l-486 775v-809c0 -107 -56 -165 -159 -165zM491 1545
c-69 6 -113 85 -43 181c38 60 101 116 213 116c81 0 125 -34 159 -66c27 -25 44 -47 80 -47c22 0 37 11 52 24c33 32 60 63 127 56c68 -6 113 -85 43 -181c-38 -60 -101 -116 -213 -116c-81 0 -125 35 -159 66c-27 25 -44 47 -80 47c-25 0 -41 -14 -59 -29
c-30 -31 -58 -57 -120 -51z" />
    <glyph glyph-name="Nacute" unicode="&#x143;" horiz-adv-x="1569" 
d="M300 0c-103 0 -160 58 -160 165v1031c0 115 36 238 212 238c102 0 186 -52 273 -199l486 -775v809c0 107 56 165 159 165s160 -58 160 -165v-1031c0 -115 -36 -238 -212 -238c-102 0 -186 52 -273 199l-486 775v-809c0 -107 -56 -165 -159 -165zM777 1512
c-90 3 -130 66 -60 150c12 13 55 61 75 84c46 56 105 74 186 74c110 0 160 -61 86 -141c-21 -20 -66 -67 -87 -88c-56 -53 -118 -81 -200 -79z" />
    <glyph glyph-name="uni0145" unicode="&#x145;" horiz-adv-x="1569" 
d="M140 1196c0 115 36 238 212 238c102 0 186 -52 273 -199l486 -775v809c0 107 56 165 159 165s160 -58 160 -165v-1031c0 -115 -36 -238 -212 -238c-102 0 -186 52 -273 199l-486 775v-809c0 -107 -56 -165 -159 -165s-160 58 -160 165v1031zM633 -502
c-87 6 -113 65 -84 145l60 156c29 78 85 111 175 111h5c99 0 143 -58 106 -134l-83 -169c-28 -59 -77 -114 -179 -109z" />
    <glyph glyph-name="Ncaron" unicode="&#x147;" horiz-adv-x="1569" 
d="M300 0c-103 0 -160 58 -160 165v1031c0 115 36 238 212 238c102 0 186 -52 273 -199l486 -775v809c0 107 56 165 159 165s160 -58 160 -165v-1031c0 -115 -36 -238 -212 -238c-102 0 -186 52 -273 199l-486 775v-809c0 -107 -56 -165 -159 -165zM503 1688
c-61 60 -56 113 11 128c13 3 26 4 38 4c62 0 115 -32 169 -73l64 -62l65 62c54 41 106 73 168 73c12 0 25 -1 38 -4c67 -15 72 -68 11 -128l-85 -93c-61 -59 -118 -83 -197 -83s-136 24 -197 83z" />
    <glyph glyph-name="Omacron" unicode="&#x14c;" horiz-adv-x="1708" 
d="M854 -26c-477 0 -754 321 -754 743c0 421 277 743 754 743s754 -322 754 -743c0 -422 -277 -743 -754 -743zM854 1191c-281 0 -432 -190 -432 -474s151 -474 432 -474s432 190 432 474s-151 474 -432 474zM599 1538c-107 0 -165 41 -165 118c0 76 58 117 165 117h516
c107 0 159 -41 159 -117s-52 -118 -159 -118h-516z" />
    <glyph glyph-name="Obreve" unicode="&#x14e;" horiz-adv-x="1708" 
d="M854 -26c-477 0 -754 321 -754 743c0 421 277 743 754 743s754 -322 754 -743c0 -422 -277 -743 -754 -743zM422 717c0 -284 151 -474 432 -474s432 190 432 474s-151 474 -432 474s-432 -190 -432 -474zM532 1660c-62 65 -44 141 10 157c11 4 22 6 33 6
c22 0 43 -8 62 -23c53 -39 108 -89 217 -89c101 0 158 49 204 82c24 18 50 29 77 29c10 0 21 -2 31 -5c53 -16 71 -88 14 -152c-68 -85 -199 -127 -326 -127c-129 0 -250 40 -322 122z" />
    <glyph glyph-name="Ohungarumlaut" unicode="&#x150;" horiz-adv-x="1708" 
d="M854 -26c-477 0 -754 321 -754 743c0 421 277 743 754 743s754 -322 754 -743c0 -422 -277 -743 -754 -743zM422 717c0 -284 151 -474 432 -474s432 190 432 474s-151 474 -432 474s-432 -190 -432 -474zM1010 1538c-70 2 -99 51 -78 133l34 97c25 78 82 114 165 114
c87 0 126 -52 87 -135l-47 -101c-35 -75 -89 -110 -161 -108zM669 1538c-70 2 -99 51 -78 133l34 97c25 78 81 114 165 114c86 0 126 -52 87 -135l-47 -101c-35 -75 -89 -110 -161 -108z" />
    <glyph glyph-name="Ohorn" unicode="&#x1a0;" horiz-adv-x="1708" 
d="M854 -26c-477 0 -754 321 -754 743c0 421 277 743 754 743c193 0 354 -53 476 -144c62 35 89 82 89 149c0 76 56 123 131 123c73 0 129 -43 129 -123c0 -132 -64 -245 -199 -305c84 -122 128 -275 128 -443c0 -422 -277 -743 -754 -743zM854 1191
c-281 0 -432 -190 -432 -474s151 -474 432 -474s432 190 432 474s-151 474 -432 474z" />
    <glyph glyph-name="uni01D1" unicode="&#x1d1;" horiz-adv-x="1708" 
d="M100 717c0 421 277 743 754 743s754 -322 754 -743c0 -422 -277 -743 -754 -743s-754 321 -754 743zM854 1191c-281 0 -432 -190 -432 -474s151 -474 432 -474s432 190 432 474s-151 474 -432 474zM572 1714c-61 60 -56 113 11 128c13 3 26 4 38 4c62 0 114 -32 168 -73
l65 -62l64 62c54 41 107 73 168 73c13 0 25 -1 38 -4c68 -15 72 -68 11 -128l-85 -94c-60 -58 -117 -82 -196 -82s-136 24 -197 82z" />
    <glyph glyph-name="uni01EA" unicode="&#x1ea;" horiz-adv-x="1708" 
d="M854 -26c-477 0 -754 321 -754 743c0 421 277 743 754 743s754 -322 754 -743c0 -352 -193 -635 -535 -718c-36 -40 -74 -94 -74 -149c0 -44 25 -67 56 -81c69 -39 120 -53 120 -128c0 -58 -43 -109 -120 -109c-15 0 -31 2 -49 6c-135 30 -219 117 -219 236
c0 96 57 163 114 201c-16 -1 -31 -1 -47 -1zM854 1191c-281 0 -432 -190 -432 -474s151 -474 432 -474s432 190 432 474s-151 474 -432 474z" />
    <glyph glyph-name="uni01EC" unicode="&#x1ec;" horiz-adv-x="1708" 
d="M100 717c0 421 277 743 754 743s754 -322 754 -743c0 -352 -193 -635 -535 -718c-36 -40 -74 -94 -74 -149c0 -44 25 -67 56 -81c69 -39 120 -53 120 -128c0 -58 -43 -109 -120 -109c-15 0 -31 2 -49 6c-135 30 -219 117 -219 236c0 96 57 163 114 201
c-16 -1 -31 -1 -47 -1c-477 0 -754 321 -754 743zM422 717c0 -284 151 -474 432 -474s432 190 432 474s-151 474 -432 474s-432 -190 -432 -474zM434 1656c0 76 58 117 165 117h516c107 0 159 -41 159 -117s-52 -118 -159 -118h-516c-107 0 -165 41 -165 118z" />
    <glyph glyph-name="uni020C" unicode="&#x20c;" horiz-adv-x="1708" 
d="M854 -26c-477 0 -754 321 -754 743c0 421 277 743 754 743s754 -322 754 -743c0 -422 -277 -743 -754 -743zM422 717c0 -284 151 -474 432 -474s432 190 432 474s-151 474 -432 474s-432 -190 -432 -474zM801 1702c-74 80 -24 140 85 140c81 0 140 -18 187 -74l74 -84
c70 -84 30 -147 -60 -150c-82 -2 -144 26 -199 79zM387 1702c-74 80 -24 140 86 140c81 0 140 -18 186 -74l74 -84c70 -84 31 -147 -60 -150c-81 -2 -144 26 -199 79z" />
    <glyph glyph-name="uni020E" unicode="&#x20e;" horiz-adv-x="1708" 
d="M854 -26c-477 0 -754 321 -754 743c0 421 277 743 754 743s754 -322 754 -743c0 -422 -277 -743 -754 -743zM422 717c0 -284 151 -474 432 -474s432 190 432 474s-151 474 -432 474s-432 -190 -432 -474zM542 1517c-54 16 -72 92 -10 157c72 82 193 122 322 122
c127 0 258 -43 326 -128c57 -63 39 -136 -14 -151c-11 -4 -21 -5 -32 -5c-26 0 -52 11 -76 28c-46 33 -103 82 -204 82c-109 0 -164 -50 -217 -88c-19 -15 -40 -23 -62 -23c-11 0 -22 2 -33 6z" />
    <glyph glyph-name="uni022A" unicode="&#x22a;" horiz-adv-x="1708" 
d="M854 -26c-477 0 -754 321 -754 743c0 421 277 743 754 743s754 -322 754 -743c0 -422 -277 -743 -754 -743zM422 717c0 -284 151 -474 432 -474s432 190 432 474s-151 474 -432 474s-432 -190 -432 -474zM642 1795c-82 0 -125 31 -125 90s43 90 125 90h426
c81 0 121 -31 121 -90c0 -58 -40 -90 -121 -90h-426zM1030 1508c-68 0 -124 55 -124 123s56 123 124 123s123 -55 123 -123s-55 -123 -123 -123zM552 1631c0 68 56 123 124 123c67 0 123 -55 123 -123s-56 -123 -123 -123c-68 0 -124 55 -124 123z" />
    <glyph glyph-name="uni022C" unicode="&#x22c;" horiz-adv-x="1708" 
d="M854 -26c-477 0 -754 321 -754 743c0 421 277 743 754 743s754 -322 754 -743c0 -422 -277 -743 -754 -743zM422 717c0 -284 151 -474 432 -474s432 190 432 474s-151 474 -432 474s-432 -190 -432 -474zM643 1802c-81 0 -125 31 -125 90s44 90 125 90h427
c81 0 121 -31 121 -90c0 -58 -40 -90 -121 -90h-427zM621 1534c-53 5 -88 64 -36 138c29 50 78 97 169 97c67 0 102 -30 130 -57c21 -20 36 -38 63 -38c16 0 29 9 40 19c26 27 46 51 99 47c53 -5 88 -63 38 -137c-29 -50 -80 -97 -171 -97c-66 0 -101 30 -129 56
c-22 21 -36 38 -63 38c-19 0 -31 -10 -45 -22c-24 -26 -45 -47 -95 -44z" />
    <glyph glyph-name="uni022E" unicode="&#x22e;" horiz-adv-x="1708" 
d="M854 -26c-477 0 -754 321 -754 743c0 421 277 743 754 743s754 -322 754 -743c0 -422 -277 -743 -754 -743zM422 717c0 -284 151 -474 432 -474s432 190 432 474s-151 474 -432 474s-432 -190 -432 -474zM854 1538c-88 0 -159 71 -159 159c0 87 71 158 159 158
c87 0 159 -71 159 -158c0 -88 -72 -159 -159 -159z" />
    <glyph glyph-name="uni0230" unicode="&#x230;" horiz-adv-x="1708" 
d="M100 717c0 421 277 743 755 743c476 0 753 -322 753 -743c0 -422 -277 -743 -753 -743c-478 0 -755 321 -755 743zM422 717c0 -284 151 -474 433 -474c280 0 431 190 431 474s-151 474 -431 474c-282 0 -433 -190 -433 -474zM518 1883c0 59 44 90 126 90h426
c81 0 121 -31 121 -90c0 -58 -40 -90 -121 -90h-426c-82 0 -126 31 -126 90zM731 1634c0 68 55 123 124 123c68 0 123 -55 123 -123c0 -67 -55 -123 -123 -123c-69 0 -124 56 -124 123z" />
    <glyph glyph-name="Ograve" unicode="&#xd2;" horiz-adv-x="1708" 
d="M854 -26c-477 0 -754 321 -754 743c0 421 277 743 754 743s754 -322 754 -743c0 -422 -277 -743 -754 -743zM854 1191c-281 0 -432 -190 -432 -474s151 -474 432 -474s432 190 432 474s-151 474 -432 474zM576 1705c-75 80 -25 141 85 141c81 0 140 -18 186 -74l74 -84
c71 -84 31 -147 -59 -150c-82 -2 -144 25 -199 79z" />
    <glyph glyph-name="Oacute" unicode="&#xd3;" horiz-adv-x="1708" 
d="M854 -26c-477 0 -754 321 -754 743c0 421 277 743 754 743s754 -322 754 -743c0 -422 -277 -743 -754 -743zM854 1191c-281 0 -432 -190 -432 -474s151 -474 432 -474s432 190 432 474s-151 474 -432 474zM846 1538c-90 3 -130 66 -60 150l74 84c47 56 106 74 187 74
c109 0 160 -61 85 -141l-87 -88c-55 -54 -117 -81 -199 -79z" />
    <glyph glyph-name="Ocircumflex" unicode="&#xd4;" horiz-adv-x="1708" 
d="M854 -26c-477 0 -754 321 -754 743c0 421 277 743 754 743s754 -322 754 -743c0 -422 -277 -743 -754 -743zM422 717c0 -284 151 -474 432 -474s432 190 432 474s-151 474 -432 474s-432 -190 -432 -474zM584 1537c-68 15 -72 69 -12 129l86 93c60 59 117 83 196 83
s136 -24 196 -83l86 -93c60 -60 56 -114 -12 -129c-13 -3 -25 -4 -38 -4c-61 0 -114 32 -168 73l-64 63l-64 -63c-54 -41 -107 -73 -168 -73c-13 0 -25 1 -38 4z" />
    <glyph glyph-name="Otilde" unicode="&#xd5;" horiz-adv-x="1708" 
d="M854 -26c-477 0 -754 321 -754 743c0 421 277 743 754 743s754 -322 754 -743c0 -422 -277 -743 -754 -743zM422 717c0 -284 151 -474 432 -474s432 190 432 474s-151 474 -432 474s-432 -190 -432 -474zM560 1571c-69 6 -113 85 -43 181c38 60 101 116 212 116
c82 0 126 -34 160 -66c26 -25 44 -47 80 -47c21 0 37 11 52 24c32 32 60 63 127 56c68 -6 112 -85 43 -181c-38 -60 -102 -116 -213 -116c-82 0 -126 34 -160 66c-26 25 -44 47 -80 47c-24 0 -40 -14 -58 -29c-31 -31 -59 -57 -120 -51z" />
    <glyph glyph-name="Odieresis" unicode="&#xd6;" horiz-adv-x="1708" 
d="M854 -26c-477 0 -754 321 -754 743c0 421 277 743 754 743s754 -322 754 -743c0 -422 -277 -743 -754 -743zM422 717c0 -284 152 -474 432 -474c281 0 432 190 432 474s-151 474 -432 474c-280 0 -432 -190 -432 -474zM917 1696c0 88 71 159 159 159
c87 0 158 -71 158 -159c0 -87 -71 -158 -158 -158c-88 0 -159 71 -159 158zM474 1696c0 88 71 159 158 159s159 -71 159 -159c0 -87 -72 -158 -159 -158s-158 71 -158 158z" />
    <glyph glyph-name="Oslash" unicode="&#xd8;" horiz-adv-x="1709" 
d="M100 717c0 420 277 743 755 743c87 0 168 -11 241 -32l10 20c14 31 41 56 85 56c11 0 23 -2 36 -5c49 -14 72 -53 51 -106l-16 -33c224 -127 347 -363 347 -643c0 -421 -277 -743 -754 -743c-90 0 -171 12 -246 33l-9 -20c-18 -31 -43 -57 -87 -57c-10 0 -22 1 -35 5
c-50 14 -73 54 -51 107l16 33c-221 127 -343 363 -343 642zM1137 1100l-409 -847c38 -10 81 -16 127 -16c280 0 431 196 431 480c0 163 -51 299 -149 383zM423 717c0 -161 49 -296 146 -380l408 845c-37 10 -78 15 -122 15c-281 0 -432 -196 -432 -480z" />
    <glyph glyph-name="Oslashacute" unicode="&#x1fe;" horiz-adv-x="1709" 
d="M100 717c0 420 277 743 755 743c87 0 168 -11 241 -32l10 20c14 31 41 56 85 56c11 0 23 -2 36 -5c49 -14 72 -53 51 -106l-16 -33c224 -127 347 -363 347 -643c0 -421 -277 -743 -754 -743c-90 0 -171 12 -246 33l-9 -20c-18 -31 -43 -57 -87 -57c-10 0 -22 1 -35 5
c-50 14 -73 54 -51 107l16 33c-221 127 -343 363 -343 642zM728 253c38 -10 81 -16 127 -16c280 0 431 196 431 480c0 163 -51 299 -149 383zM423 717c0 -161 49 -296 146 -380l408 845c-37 10 -78 15 -122 15c-281 0 -432 -196 -432 -480zM847 1550c-91 3 -130 66 -60 150
c12 13 54 61 74 84c47 56 106 74 187 74c109 0 159 -61 85 -140c-20 -21 -66 -68 -87 -89c-55 -53 -118 -81 -199 -79z" />
    <glyph glyph-name="OE" unicode="&#x152;" horiz-adv-x="2346" 
d="M100 717c0 412 249 749 755 749c134 0 250 -24 348 -67c21 23 59 35 113 35h736c107 0 165 -48 165 -134c0 -87 -58 -135 -165 -135h-582v-305h535c107 0 164 -46 164 -131s-57 -132 -164 -132h-535v-328h592c107 0 165 -48 165 -134c0 -87 -58 -135 -165 -135h-746
c-54 0 -92 12 -113 34c-98 -42 -214 -66 -348 -66c-506 0 -755 337 -755 749zM855 1197c-302 0 -432 -228 -432 -480s130 -480 432 -480c134 0 230 48 296 122v716c-66 73 -162 122 -296 122z" />
    <glyph glyph-name="Racute" unicode="&#x154;" horiz-adv-x="1436" 
d="M140 165v1104c0 107 58 165 165 165h465c333 0 566 -149 566 -472c0 -230 -141 -368 -281 -407l194 -336c51 -90 25 -179 -58 -214c-23 -10 -46 -14 -68 -14c-57 0 -110 32 -146 96l-240 420h-278v-342c0 -107 -56 -165 -159 -165s-160 58 -160 165zM459 1165v-407h311
c168 0 244 73 244 204c0 129 -76 203 -244 203h-311zM587 1662l75 84c46 56 105 74 186 74c110 0 160 -61 86 -140l-87 -88c-56 -54 -118 -82 -200 -80c-90 3 -130 66 -60 150z" />
    <glyph glyph-name="uni0156" unicode="&#x156;" horiz-adv-x="1436" 
d="M140 165v1104c0 107 58 165 165 165h465c333 0 566 -149 566 -472c0 -230 -141 -368 -281 -407l194 -336c51 -90 25 -179 -58 -214c-23 -10 -46 -14 -68 -14c-57 0 -110 32 -146 96l-240 420h-278v-342c0 -107 -56 -165 -159 -165s-160 58 -160 165zM459 1165v-407h311
c168 0 244 73 244 204c0 129 -76 203 -244 203h-311zM460 -366l61 157c28 77 85 110 175 110h5c98 0 142 -58 105 -134l-82 -169c-29 -58 -77 -114 -180 -108c-87 5 -113 64 -84 144z" />
    <glyph glyph-name="Rcaron" unicode="&#x158;" horiz-adv-x="1436" 
d="M140 165v1104c0 107 58 165 165 165h465c333 0 566 -149 566 -472c0 -230 -141 -368 -281 -407l194 -336c51 -90 25 -179 -58 -214c-23 -10 -46 -14 -68 -14c-57 0 -110 32 -146 96l-240 420h-278v-342c0 -107 -56 -165 -159 -165s-160 58 -160 165zM770 1165h-311v-407
h311c168 0 244 73 244 204c0 129 -76 203 -244 203zM384 1816c13 3 26 4 38 4c62 0 115 -32 169 -72l64 -63l65 63c53 40 106 72 167 72c13 0 25 -1 38 -4c68 -15 72 -68 11 -128l-85 -93c-60 -59 -117 -83 -196 -83s-136 24 -197 83l-85 93c-61 60 -56 113 11 128z" />
    <glyph glyph-name="uni0210" unicode="&#x210;" horiz-adv-x="1436" 
d="M140 165v1104c0 107 58 165 165 165h465c333 0 566 -149 566 -472c0 -230 -141 -368 -281 -407l194 -336c51 -90 25 -179 -58 -214c-23 -10 -46 -14 -68 -14c-57 0 -110 32 -146 96l-240 420h-278v-342c0 -107 -56 -165 -159 -165s-160 58 -160 165zM459 1165v-407h311
c168 0 244 73 244 204c0 129 -76 203 -244 203h-311zM274 1816c81 0 140 -18 187 -74l74 -84c70 -83 30 -146 -60 -149c-82 -2 -144 25 -200 79l-87 88c-74 80 -24 140 86 140zM687 1816c81 0 141 -18 187 -74l74 -84c70 -83 31 -146 -59 -149c-82 -2 -145 25 -200 79
l-87 88c-74 80 -24 140 85 140z" />
    <glyph glyph-name="uni0212" unicode="&#x212;" horiz-adv-x="1436" 
d="M305 1434h465c333 0 566 -149 566 -472c0 -230 -141 -368 -281 -407l194 -336c51 -90 25 -179 -58 -214c-23 -10 -46 -14 -68 -14c-57 0 -110 32 -146 96l-240 420h-278v-342c0 -107 -56 -165 -159 -165s-160 58 -160 165v1104c0 107 58 165 165 165zM459 1165v-407h311
c168 0 244 73 244 204c0 129 -76 203 -244 203h-311zM333 1648c72 81 193 121 322 121c127 0 258 -42 326 -127c57 -64 39 -136 -14 -151c-11 -4 -21 -5 -31 -5c-27 0 -52 11 -76 28c-47 33 -104 82 -205 82c-109 0 -164 -50 -217 -88c-19 -15 -40 -23 -62 -23
c-11 0 -22 2 -33 6c-54 16 -72 91 -10 157z" />
    <glyph glyph-name="uni024C" unicode="&#x24c;" horiz-adv-x="1623" 
d="M68 633c0 75 46 125 135 125h124v511c0 107 58 165 165 165h465c333 0 566 -149 566 -472c0 -230 -141 -368 -281 -407l194 -336c51 -90 25 -179 -58 -214c-23 -10 -46 -14 -68 -14c-57 0 -110 32 -146 96l-240 420h-278v-342c0 -107 -56 -165 -159 -165
s-160 58 -160 165v342h-124c-89 0 -135 49 -135 126zM646 1165v-407h311c168 0 244 73 244 204c0 129 -76 203 -244 203h-311z" />
    <glyph glyph-name="Sacute" unicode="&#x15a;" horiz-adv-x="1377" 
d="M211 62c-101 43 -126 131 -83 202c27 45 65 63 112 63c32 0 67 -8 106 -21c76 -28 206 -63 322 -63c181 0 280 41 280 160c0 104 -92 150 -291 194c-363 78 -532 218 -532 443c0 239 175 420 546 420c171 0 314 -28 412 -61c107 -35 144 -115 105 -192
c-27 -51 -72 -69 -127 -69c-28 0 -60 5 -93 13c-67 18 -181 40 -285 40c-134 0 -236 -41 -236 -149c0 -99 95 -137 271 -177c353 -77 552 -191 552 -462c0 -309 -253 -429 -590 -429c-192 0 -361 42 -469 88zM668 1538c-90 3 -129 66 -59 150l74 84c47 56 106 74 187 74
c109 0 159 -61 85 -141l-87 -88c-55 -54 -118 -81 -200 -79z" />
    <glyph glyph-name="Scircumflex" unicode="&#x15c;" horiz-adv-x="1377" 
d="M211 62c-101 43 -126 131 -83 202c27 45 65 63 112 63c32 0 67 -8 106 -21c76 -28 206 -63 322 -63c181 0 280 41 280 160c0 104 -92 150 -291 194c-363 78 -532 218 -532 443c0 239 175 420 546 420c171 0 314 -28 412 -61c107 -35 144 -115 105 -192
c-27 -51 -72 -69 -127 -69c-28 0 -60 5 -93 13c-67 18 -181 40 -285 40c-134 0 -236 -41 -236 -149c0 -99 95 -137 271 -177c353 -77 552 -191 552 -462c0 -309 -253 -429 -590 -429c-192 0 -361 42 -469 88zM406 1537c-67 15 -72 69 -11 129l85 93c61 59 118 83 197 83
s136 -24 196 -83l85 -93c61 -60 57 -114 -11 -129c-13 -3 -25 -4 -38 -4c-61 0 -114 32 -168 73l-64 63l-65 -63c-54 -41 -107 -73 -168 -73c-13 0 -25 1 -38 4z" />
    <glyph glyph-name="Scedilla" unicode="&#x15e;" horiz-adv-x="1377" 
d="M211 62c-101 43 -126 131 -83 202c27 45 65 63 112 63c32 0 67 -8 106 -21c76 -28 206 -63 322 -63c181 0 280 41 280 160c0 104 -92 150 -291 194c-363 78 -532 218 -532 443c0 239 175 420 546 420c171 0 314 -28 412 -61c107 -35 144 -115 105 -192
c-27 -51 -72 -69 -127 -69c-28 0 -60 5 -93 13c-67 18 -181 40 -285 40c-134 0 -236 -41 -236 -149c0 -99 95 -137 271 -177c353 -77 552 -191 552 -462c0 -288 -219 -411 -521 -427l-24 -75c127 -1 224 -60 211 -187c-14 -147 -135 -202 -278 -202c-25 0 -52 2 -78 5
c-96 10 -136 52 -121 102c11 35 39 44 84 44c17 0 36 -1 58 -3c64 -6 140 -4 148 58c6 45 -36 58 -86 60c-102 11 -151 30 -123 112l30 89c-146 12 -272 46 -359 83z" />
    <glyph glyph-name="Scaron" unicode="&#x160;" horiz-adv-x="1377" 
d="M211 62c-101 43 -126 131 -83 202c27 45 65 63 112 63c32 0 67 -8 106 -21c76 -28 206 -63 322 -63c181 0 280 41 280 160c0 104 -92 150 -291 194c-363 78 -532 218 -532 443c0 239 175 420 546 420c171 0 314 -28 412 -61c107 -35 144 -115 105 -192
c-27 -51 -72 -69 -127 -69c-28 0 -60 5 -93 13c-67 18 -181 40 -285 40c-134 0 -236 -41 -236 -149c0 -99 95 -137 271 -177c353 -77 552 -191 552 -462c0 -309 -253 -429 -590 -429c-192 0 -361 42 -469 88zM395 1714c-61 60 -57 113 11 128c13 3 25 4 38 4
c61 0 114 -32 168 -73l64 -62l65 62c54 41 107 73 168 73c13 0 25 -1 38 -4c67 -15 72 -68 11 -128l-85 -94c-61 -58 -118 -82 -197 -82s-136 24 -196 82z" />
    <glyph glyph-name="uni0218" unicode="&#x218;" horiz-adv-x="1377" 
d="M211 62c-101 43 -126 131 -83 202c27 45 65 63 112 63c32 0 67 -8 106 -21c76 -28 206 -63 322 -63c181 0 280 41 280 160c0 104 -92 150 -291 194c-363 78 -532 218 -532 443c0 239 175 420 546 420c171 0 314 -28 412 -61c107 -35 144 -115 105 -192
c-27 -51 -72 -69 -127 -69c-28 0 -60 5 -93 13c-67 18 -181 40 -285 40c-134 0 -236 -41 -236 -149c0 -99 95 -137 271 -177c353 -77 552 -191 552 -462c0 -309 -253 -429 -590 -429c-192 0 -361 42 -469 88zM524 -512c-87 6 -113 65 -84 145l61 156c28 78 84 111 174 111h6
c98 0 142 -58 105 -134l-83 -169c-28 -59 -77 -114 -179 -109z" />
    <glyph glyph-name="uni0162" unicode="&#x162;" horiz-adv-x="1413" 
d="M66 1300c0 86 57 134 164 134h953c107 0 164 -48 164 -134c0 -87 -57 -135 -164 -135h-317v-1000c0 -107 -56 -165 -159 -165s-160 58 -160 165v1000h-317c-107 0 -164 48 -164 135zM554 -502c-87 5 -113 64 -84 144l61 157c28 78 84 111 174 111h6
c98 0 142 -58 105 -135l-83 -169c-28 -58 -77 -114 -179 -108z" />
    <glyph glyph-name="uni021A" unicode="&#x21a;" horiz-adv-x="1413" 
d="M66 1300c0 86 57 134 164 134h953c107 0 164 -48 164 -134c0 -87 -57 -135 -164 -135h-317v-1000c0 -107 -56 -165 -159 -165s-160 58 -160 165v1000h-317c-107 0 -164 48 -164 135zM554 -502c-87 5 -113 64 -84 144l61 157c28 78 84 111 174 111h6
c98 0 142 -58 105 -135l-83 -169c-28 -58 -77 -114 -179 -108z" />
    <glyph glyph-name="Tcaron" unicode="&#x164;" horiz-adv-x="1413" 
d="M66 1300c0 86 57 134 164 134h953c107 0 164 -48 164 -134c0 -87 -57 -135 -164 -135h-317v-1000c0 -107 -56 -165 -159 -165s-160 58 -160 165v1000h-317c-107 0 -164 48 -164 135zM425 1688c-61 60 -56 113 11 128c13 3 25 4 38 4c61 0 114 -32 168 -73l64 -62l65 62
c54 41 107 73 168 73c13 0 25 -1 38 -4c67 -15 72 -68 11 -128l-85 -94c-61 -58 -118 -82 -197 -82s-136 24 -196 82z" />
    <glyph glyph-name="Tbar" unicode="&#x166;" horiz-adv-x="1413" 
d="M66 1300c0 86 57 134 164 134h953c107 0 164 -48 164 -134c0 -87 -57 -135 -164 -135h-317v-242h154c80 0 134 -46 134 -131s-54 -132 -134 -132h-154v-495c0 -107 -56 -165 -159 -165s-160 58 -160 165v495h-154c-80 0 -134 47 -134 132s54 131 134 131h154v242h-317
c-107 0 -164 48 -164 135z" />
    <glyph glyph-name="Ugrave" unicode="&#xd9;" horiz-adv-x="1558" 
d="M779 -26c-447 0 -639 250 -639 668v627c0 107 57 165 160 165s159 -58 159 -165v-627c0 -259 85 -399 320 -399s320 140 320 399v627c0 107 57 165 160 165s159 -58 159 -165v-627c0 -418 -192 -668 -639 -668zM501 1680c-75 79 -25 140 85 140c81 0 140 -18 187 -74
l74 -84c70 -84 31 -147 -60 -150c-82 -2 -144 26 -199 79z" />
    <glyph glyph-name="Uacute" unicode="&#xda;" horiz-adv-x="1558" 
d="M779 -26c-447 0 -639 250 -639 668v627c0 107 57 165 160 165s159 -58 159 -165v-627c0 -259 85 -399 320 -399s320 140 320 399v627c0 107 57 165 160 165s159 -58 159 -165v-627c0 -418 -192 -668 -639 -668zM771 1512c-90 3 -130 66 -60 150l75 84
c46 56 105 74 186 74c110 0 160 -61 86 -140l-87 -89c-56 -53 -118 -81 -200 -79z" />
    <glyph glyph-name="Ucircumflex" unicode="&#xdb;" horiz-adv-x="1558" 
d="M779 -26c-447 0 -639 250 -639 668v627c0 107 57 165 160 165s159 -58 159 -165v-627c0 -259 85 -399 320 -399s320 140 320 399v627c0 107 57 165 160 165s159 -58 159 -165v-627c0 -418 -192 -668 -639 -668zM509 1512c-68 15 -72 68 -12 128l86 93
c60 59 117 83 196 83s136 -24 197 -83l85 -93c60 -60 56 -113 -11 -128c-13 -3 -26 -4 -38 -4c-62 0 -114 32 -168 73l-65 62l-64 -62c-54 -41 -107 -73 -168 -73c-13 0 -25 1 -38 4z" />
    <glyph glyph-name="Utilde" unicode="&#x168;" horiz-adv-x="1558" 
d="M779 -26c-447 0 -639 250 -639 668v627c0 107 57 165 160 165s159 -58 159 -165v-627c0 -259 85 -399 320 -399s320 140 320 399v627c0 107 57 165 160 165s159 -58 159 -165v-627c0 -418 -192 -668 -639 -668zM485 1545c-69 7 -113 85 -43 182c38 59 101 115 213 115
c81 0 125 -34 159 -66c27 -25 44 -46 80 -46c21 0 37 10 52 24c32 32 60 62 127 56c68 -7 112 -85 43 -182c-38 -60 -102 -116 -213 -116c-81 0 -125 35 -159 67c-27 24 -44 46 -80 46c-25 0 -41 -14 -59 -29c-30 -31 -58 -56 -120 -51z" />
    <glyph glyph-name="Umacron" unicode="&#x16a;" horiz-adv-x="1558" 
d="M779 -26c-447 0 -639 250 -639 668v627c0 107 57 165 160 165s159 -58 159 -165v-627c0 -259 85 -399 320 -399s320 140 320 399v627c0 107 57 165 160 165s159 -58 159 -165v-627c0 -418 -192 -668 -639 -668zM524 1512c-107 0 -165 41 -165 118c0 76 58 117 165 117
h516c107 0 159 -41 159 -117s-52 -118 -159 -118h-516z" />
    <glyph glyph-name="Ubreve" unicode="&#x16c;" horiz-adv-x="1558" 
d="M140 642v627c0 107 57 165 160 165s159 -58 159 -165v-627c0 -259 85 -399 320 -399s320 140 320 399v627c0 107 57 165 160 165s159 -58 159 -165v-627c0 -418 -192 -668 -639 -668s-639 250 -639 668zM457 1634c-62 65 -44 141 10 157c11 4 22 6 33 6
c22 0 43 -8 62 -23c53 -38 108 -89 217 -89c101 0 158 49 205 82c24 18 49 29 76 29c10 0 21 -2 31 -5c53 -15 71 -88 14 -152c-68 -85 -198 -127 -326 -127c-129 0 -250 40 -322 122z" />
    <glyph glyph-name="Uring" unicode="&#x16e;" horiz-adv-x="1558" 
d="M780 -26c-448 0 -640 250 -640 668v627c0 107 57 165 160 165s159 -58 159 -165v-627c0 -259 85 -399 321 -399c235 0 319 140 319 399v627c0 107 57 165 160 165s159 -58 159 -165v-627c0 -418 -192 -668 -638 -668zM779 1512c-111 0 -202 92 -202 203s91 203 202 203
s203 -92 203 -203s-92 -203 -203 -203zM779 1782c-37 0 -67 -31 -67 -67c0 -38 30 -67 67 -67c38 0 67 29 67 67c0 36 -29 67 -67 67z" />
    <glyph glyph-name="Uhungarumlaut" unicode="&#x170;" horiz-adv-x="1558" 
d="M140 642v627c0 107 57 165 160 165s159 -58 159 -165v-627c0 -259 85 -399 320 -399s320 140 320 399v627c0 107 57 165 160 165s159 -58 159 -165v-627c0 -418 -192 -668 -639 -668s-639 250 -639 668zM594 1512c-70 2 -99 51 -78 133l34 98c25 77 82 114 165 114
c87 0 126 -53 87 -136l-46 -100c-36 -75 -90 -111 -162 -109zM935 1512c-69 2 -99 51 -77 133l34 98c24 77 81 114 164 114c87 0 126 -53 87 -136l-46 -100c-36 -75 -89 -111 -162 -109z" />
    <glyph glyph-name="Uogonek" unicode="&#x172;" horiz-adv-x="1558" 
d="M140 642v627c0 107 57 165 160 165s159 -58 159 -165v-627c0 -259 85 -399 320 -399c236 0 320 140 320 399v627c0 107 57 165 160 165s159 -58 159 -165v-627c0 -342 -128 -571 -419 -643c-36 -40 -73 -94 -73 -149c0 -44 25 -67 55 -81c70 -39 121 -53 121 -128
c0 -58 -44 -109 -121 -109c-15 0 -31 2 -49 6c-135 30 -219 117 -219 236c0 95 57 163 114 201c-16 -1 -32 -1 -48 -1c-447 0 -639 250 -639 668z" />
    <glyph glyph-name="Uhorn" unicode="&#x1af;" horiz-adv-x="1558" 
d="M140 642v627c0 107 57 165 160 165s159 -58 159 -165v-627c0 -259 85 -399 320 -399s320 140 320 399v627c0 107 57 165 160 165s159 -58 159 -165v-117c78 35 111 85 111 160c0 76 56 123 132 123c73 0 129 -43 129 -123c0 -180 -120 -325 -372 -346v-324
c0 -418 -192 -668 -639 -668s-639 250 -639 668z" />
    <glyph glyph-name="uni01D3" unicode="&#x1d3;" horiz-adv-x="1558" 
d="M140 642v627c0 107 57 165 160 165s159 -58 159 -165v-627c0 -259 85 -399 320 -399s320 140 320 399v627c0 107 57 165 160 165s159 -58 159 -165v-627c0 -418 -192 -668 -639 -668s-639 250 -639 668zM497 1688c-61 60 -56 114 11 128c14 3 27 4 40 4
c61 0 113 -31 167 -72l64 -63l65 63c54 41 105 72 166 72c12 0 25 -1 39 -4c68 -14 72 -68 12 -128l-86 -93c-60 -59 -117 -83 -196 -83s-136 24 -197 83z" />
    <glyph glyph-name="Udieresis" unicode="&#xdc;" horiz-adv-x="1558" 
d="M779 -26c-447 0 -639 250 -639 668v627c0 107 57 165 160 165s159 -58 159 -165v-627c0 -259 85 -399 320 -399s320 140 320 399v627c0 107 57 165 160 165s159 -58 159 -165v-627c0 -418 -191 -668 -639 -668zM558 1512c-88 0 -159 71 -159 159c0 87 71 158 159 158
c87 0 159 -71 159 -158c0 -88 -72 -159 -159 -159zM842 1671c0 87 71 158 159 158c86 0 158 -71 158 -158c0 -88 -72 -159 -158 -159c-88 0 -159 71 -159 159z" />
    <glyph glyph-name="uni01D9" unicode="&#x1d9;" horiz-adv-x="1558" 
d="M140 1270c0 107 57 164 159 164c103 0 160 -57 160 -164v-627c0 -260 84 -400 320 -400c235 0 320 140 320 400v627c0 107 57 164 160 164s159 -57 159 -164v-627c0 -419 -192 -669 -639 -669c-448 0 -639 250 -639 669v627zM531 1869c-52 51 -48 99 10 112
c11 2 21 3 31 3c52 0 97 -28 143 -63l62 -60l62 60c46 35 91 63 143 63c10 0 20 -1 31 -3c58 -13 62 -61 10 -112l-80 -89c-51 -50 -99 -70 -166 -70s-115 20 -166 70zM424 1599c0 69 58 126 127 126s125 -57 125 -126s-56 -125 -125 -125s-127 56 -127 125zM1003 1474
c-69 0 -126 56 -126 125s57 126 126 126s126 -57 126 -126s-57 -125 -126 -125z" />
    <glyph glyph-name="uni01D5" unicode="&#x1d5;" horiz-adv-x="1558" 
d="M779 -26c-447 0 -639 250 -639 668v627c0 107 57 165 160 165s159 -58 159 -165v-627c0 -259 85 -399 320 -399s320 140 320 399v627c0 107 57 165 160 165s159 -58 159 -165v-627c0 -418 -192 -668 -639 -668zM570 1772c-82 0 -126 31 -126 90s44 90 126 90h424
c81 0 122 -31 122 -90c0 -58 -41 -90 -122 -90h-424zM479 1606c0 68 55 123 124 123c67 0 123 -55 123 -123s-56 -123 -123 -123c-69 0 -124 55 -124 123zM832 1606c0 68 56 123 124 123c67 0 123 -55 123 -123s-56 -123 -123 -123c-68 0 -124 55 -124 123z" />
    <glyph glyph-name="uni01D7" unicode="&#x1d7;" horiz-adv-x="1558" 
d="M140 1269c0 107 57 165 160 165s159 -58 159 -165v-627c0 -259 85 -399 320 -399s320 140 320 399v627c0 107 57 165 160 165s159 -58 159 -165v-627c0 -418 -192 -668 -639 -668s-639 250 -639 668v627zM758 1711c-78 3 -110 58 -50 129l71 80c39 47 89 63 158 63
c95 0 136 -52 73 -121l-83 -83c-47 -46 -100 -70 -169 -68zM587 1461c-69 0 -126 56 -126 125s57 126 126 126s126 -57 126 -126s-57 -125 -126 -125zM845 1586c0 69 57 126 126 126s126 -57 126 -126s-57 -125 -126 -125s-126 56 -126 125z" />
    <glyph glyph-name="uni01DB" unicode="&#x1db;" horiz-adv-x="1558" 
d="M779 -26c-447 0 -639 250 -639 668v627c0 107 57 165 160 165s159 -58 159 -165v-627c0 -259 85 -399 320 -399s320 140 320 399v627c0 107 57 165 160 165s159 -58 159 -165v-627c0 -418 -192 -668 -639 -668zM549 1862c-64 69 -23 121 72 121c69 0 119 -16 159 -63
l70 -80c60 -71 28 -126 -49 -129c-70 -2 -123 22 -170 68zM845 1586c0 69 57 126 126 126s126 -57 126 -126s-57 -125 -126 -125s-126 56 -126 125zM587 1461c-69 0 -126 56 -126 125s57 126 126 126s126 -57 126 -126s-57 -125 -126 -125z" />
    <glyph glyph-name="uni0214" unicode="&#x214;" horiz-adv-x="1558" 
d="M779 -26c-447 0 -639 250 -639 668v627c0 107 57 165 160 165s159 -58 159 -165v-627c0 -259 85 -399 320 -399s320 140 320 399v627c0 107 57 165 160 165s159 -58 159 -165v-627c0 -418 -192 -668 -639 -668zM312 1676c-74 80 -24 141 86 141c81 0 140 -19 187 -75
l74 -84c70 -83 30 -147 -60 -149c-82 -2 -144 25 -200 79zM726 1676c-74 80 -24 141 85 141c81 0 141 -19 187 -75l74 -84c70 -83 31 -147 -59 -149c-82 -2 -145 25 -200 79z" />
    <glyph glyph-name="uni0216" unicode="&#x216;" horiz-adv-x="1558" 
d="M140 1269c0 107 57 165 160 165s159 -58 159 -165v-627c0 -259 85 -399 320 -399s320 140 320 399v627c0 107 57 165 160 165s159 -58 159 -165v-627c0 -418 -192 -668 -639 -668s-639 250 -639 668v627zM467 1490c-54 17 -72 92 -10 158c72 81 193 121 322 121
c128 0 258 -42 326 -127c57 -64 39 -136 -14 -152c-10 -3 -20 -5 -30 -5c-27 0 -53 11 -77 29c-47 33 -104 82 -205 82c-109 0 -164 -50 -217 -88c-19 -16 -40 -24 -62 -24c-11 0 -22 2 -33 6z" />
    <glyph glyph-name="Wcircumflex" unicode="&#x174;" horiz-adv-x="2014" 
d="M93 1205c-39 113 -11 202 93 228c17 4 33 6 48 6c75 0 127 -50 154 -139l238 -773l217 764c26 94 79 143 164 143s137 -49 164 -143l216 -764l239 773c27 89 79 139 153 139c15 0 31 -2 48 -6c105 -26 132 -115 94 -228l-360 -1071c-31 -91 -86 -134 -170 -134
c-83 0 -136 45 -163 139l-221 784l-222 -784c-27 -94 -80 -139 -163 -139s-138 43 -169 134zM736 1512c-67 15 -72 69 -11 128l85 94c61 58 118 82 197 82s136 -24 196 -82l85 -94c61 -59 57 -113 -11 -128c-13 -3 -25 -4 -38 -4c-61 0 -114 32 -168 73l-64 62l-65 -62
c-54 -41 -106 -73 -168 -73c-12 0 -25 1 -38 4z" />
    <glyph glyph-name="uni024E" unicode="&#x24e;" horiz-adv-x="1462" 
d="M138 1178c-77 106 -55 193 28 238c23 13 46 19 67 19c57 0 109 -41 157 -106l235 -332h213l235 332c48 65 100 106 156 106c22 0 45 -6 68 -19c83 -45 105 -132 28 -238l-126 -181h62c68 0 109 -34 109 -96c0 -63 -41 -97 -109 -97h-197l-173 -248v-391
c0 -107 -57 -165 -159 -165c-103 0 -160 58 -160 165v391l-173 248h-198c-68 0 -109 34 -109 97c0 62 41 96 109 96h63z" />
    <glyph glyph-name="Yacute" unicode="&#xdd;" horiz-adv-x="1458" 
d="M135 1178c-77 106 -55 193 28 238c23 13 46 19 67 19c57 0 109 -41 157 -106l342 -483l341 483c48 65 100 106 156 106c22 0 45 -6 68 -19c83 -45 105 -132 28 -238l-434 -622v-391c0 -107 -57 -165 -159 -165c-103 0 -160 58 -160 165v391zM721 1512
c-91 3 -130 66 -60 150c12 14 54 62 74 84c47 56 106 74 187 74c109 0 159 -60 85 -140c-20 -21 -66 -67 -87 -88c-55 -54 -118 -82 -199 -80z" />
    <glyph glyph-name="Ycircumflex" unicode="&#x176;" horiz-adv-x="1458" 
d="M135 1178c-77 106 -55 193 28 238c23 13 46 19 67 19c57 0 109 -41 157 -106l342 -483l341 483c48 65 100 106 156 106c22 0 45 -6 68 -19c83 -45 105 -132 28 -238l-434 -622v-391c0 -107 -57 -165 -159 -165c-103 0 -160 58 -160 165v391zM458 1512
c-67 15 -72 69 -11 128l85 94c61 58 118 82 197 82s136 -24 196 -82l85 -94c61 -59 56 -113 -11 -128c-13 -3 -25 -4 -38 -4c-61 0 -114 32 -168 73l-64 62l-65 -62c-54 -41 -107 -73 -168 -73c-13 0 -25 1 -38 4z" />
    <glyph glyph-name="Ydieresis" unicode="&#x178;" horiz-adv-x="1458" 
d="M134 1178c-76 106 -54 193 28 238c23 13 46 19 68 19c57 0 109 -41 157 -106l342 -483l342 483c48 65 99 106 156 106c22 0 44 -6 68 -19c82 -45 104 -132 28 -238l-435 -622v-391c0 -107 -56 -165 -159 -165s-160 58 -160 165v391zM507 1512c-87 0 -159 71 -159 159
c0 87 72 158 159 158s159 -71 159 -158c0 -88 -72 -159 -159 -159zM791 1671c0 87 72 158 159 158s158 -71 158 -158c0 -88 -71 -159 -158 -159s-159 71 -159 159z" />
    <glyph glyph-name="uni0232" unicode="&#x232;" horiz-adv-x="1458" 
d="M135 1178c-77 106 -55 193 28 238c23 13 46 19 67 19c57 0 109 -41 157 -106l342 -483l341 483c48 65 100 106 156 106c22 0 45 -6 68 -19c83 -45 105 -132 28 -238l-434 -622v-391c0 -107 -57 -165 -159 -165c-103 0 -160 58 -160 165v391zM309 1630
c0 76 58 117 165 117h516c106 0 158 -41 158 -117s-52 -118 -158 -118h-516c-107 0 -165 41 -165 118z" />
    <glyph glyph-name="yen" unicode="&#xa5;" horiz-adv-x="1458" 
d="M135 1178c-77 106 -55 193 28 238c23 13 46 19 67 19c57 0 109 -41 157 -106l342 -482l341 482c48 65 100 106 156 106c22 0 45 -6 68 -19c83 -45 105 -132 28 -238l-402 -576h125c74 0 108 -36 108 -89c0 -54 -34 -90 -108 -90h-157v-70h157c74 0 108 -35 108 -89
s-34 -90 -108 -90h-157v-9c0 -107 -57 -165 -159 -165c-103 0 -160 58 -160 165v9h-157c-74 0 -109 36 -109 90s35 89 109 89h157v70h-157c-74 0 -109 36 -109 90c0 53 35 89 109 89h125z" />
    <glyph glyph-name="Zacute" unicode="&#x179;" horiz-adv-x="1420" 
d="M120 112c0 43 21 95 60 148l662 905h-548c-107 0 -165 48 -165 135c0 86 58 134 165 134h841c105 0 154 -46 154 -112c0 -43 -20 -95 -59 -148l-663 -905h568c107 0 165 -48 165 -134c0 -87 -58 -135 -165 -135h-860c-106 0 -155 46 -155 112zM703 1512
c-91 3 -130 66 -60 150c12 13 54 61 74 84c47 56 106 74 187 74c109 0 159 -61 85 -141c-20 -20 -66 -67 -87 -88c-55 -54 -118 -81 -199 -79z" />
    <glyph glyph-name="Zdotaccent" unicode="&#x17b;" horiz-adv-x="1420" 
d="M120 112c0 43 21 95 60 148l663 905h-549c-107 0 -165 48 -165 135c0 86 58 134 165 134h841c106 0 155 -46 155 -112c0 -43 -20 -95 -60 -148l-663 -905h569c107 0 165 -48 165 -134c0 -87 -58 -135 -165 -135h-861c-106 0 -155 46 -155 112zM552 1671
c0 87 71 158 159 158c87 0 159 -71 159 -158c0 -88 -72 -159 -159 -159c-88 0 -159 71 -159 159z" />
    <glyph glyph-name="Zcaron" unicode="&#x17d;" horiz-adv-x="1420" 
d="M120 112c0 43 21 95 60 148l662 905h-548c-107 0 -165 48 -165 135c0 86 58 134 165 134h841c105 0 154 -46 154 -112c0 -43 -20 -95 -59 -148l-663 -905h568c107 0 165 -48 165 -134c0 -87 -58 -135 -165 -135h-860c-106 0 -155 46 -155 112zM429 1688
c-61 60 -56 113 11 128c13 3 25 4 38 4c61 0 114 -32 168 -73l64 -62l65 62c54 41 107 73 168 73c13 0 25 -1 38 -4c67 -15 72 -68 11 -128l-85 -94c-61 -58 -118 -82 -197 -82s-136 24 -196 82z" />
    <glyph glyph-name="Thorn" unicode="&#xde;" horiz-adv-x="1267" 
d="M140 1270c0 107 57 165 160 165s159 -58 159 -165v-107h219c333 0 489 -188 489 -445s-156 -446 -489 -446h-219v-107c0 -107 -56 -165 -159 -165s-160 58 -160 165v1105zM678 894h-219v-353h219c109 0 170 64 170 177s-61 176 -170 176z" />
    <glyph glyph-name="germandbls" unicode="&#xdf;" horiz-adv-x="1446" 
d="M294 0c-100 0 -154 58 -154 165v705c0 552 363 590 586 590c327 0 568 -155 568 -413c0 -151 -99 -264 -211 -302c141 -41 262 -160 262 -348c0 -308 -219 -423 -531 -423c-56 0 -97 5 -126 11c-98 12 -164 61 -151 147c13 96 96 98 184 91c24 -6 56 -10 93 -10
c165 0 224 75 224 202c0 149 -95 208 -245 208h-64c-82 0 -127 45 -127 120s43 119 123 119h65c137 0 197 61 197 173c0 106 -70 186 -261 186c-145 0 -279 -43 -279 -351v-705c0 -107 -53 -165 -153 -165z" />
    <glyph glyph-name="agrave" unicode="&#xe0;" horiz-adv-x="1216" 
d="M80 317c0 276 292 355 570 355c49 0 98 -3 142 -7c-1 108 -23 168 -209 168c-82 0 -182 -24 -231 -38c-29 -6 -54 -9 -75 -9c-54 0 -87 19 -106 63c-27 63 5 126 112 157c73 23 196 50 323 50c370 0 490 -138 490 -446v-444c0 -108 -53 -166 -151 -166
c-97 0 -138 42 -152 104l-1 42c-41 -75 -134 -168 -324 -168c-236 0 -388 122 -388 339zM385 330c0 -82 57 -129 162 -129c176 0 245 116 245 211v73c-30 2 -62 3 -96 3c-149 0 -311 -29 -311 -158zM336 1317c-75 80 -25 141 85 141c81 0 140 -18 187 -74
c19 -23 62 -71 74 -84c70 -84 30 -147 -60 -150c-82 -2 -144 26 -199 79c-21 21 -67 68 -87 88z" />
    <glyph glyph-name="aacute" unicode="&#xe1;" horiz-adv-x="1216" 
d="M468 -22c-236 0 -388 122 -388 339c0 276 292 355 570 355c49 0 98 -3 142 -7c-1 108 -23 168 -209 168c-82 0 -182 -24 -231 -38c-29 -6 -54 -9 -75 -9c-54 0 -87 19 -106 63c-27 63 5 126 112 157c73 23 196 50 323 50c370 0 490 -138 490 -446v-444
c0 -108 -53 -166 -151 -166c-97 0 -138 42 -152 104l-1 42c-41 -75 -134 -168 -324 -168zM385 330c0 -82 57 -129 162 -129c176 0 245 116 245 211v73c-30 2 -62 3 -96 3c-149 0 -311 -29 -311 -158zM606 1150c-90 3 -130 66 -60 150c12 13 55 61 74 84c47 56 106 74 187 74
c110 0 160 -61 85 -141c-20 -20 -66 -67 -87 -88c-55 -53 -117 -81 -199 -79z" />
    <glyph glyph-name="acircumflex" unicode="&#xe2;" horiz-adv-x="1216" 
d="M468 -22c-236 0 -388 122 -388 339c0 276 292 355 570 355c49 0 98 -3 142 -7c-1 108 -23 168 -209 168c-82 0 -182 -24 -231 -38c-29 -6 -54 -9 -75 -9c-54 0 -87 19 -106 63c-27 63 5 126 112 157c73 23 196 50 323 50c370 0 490 -138 490 -446v-444
c0 -108 -53 -166 -151 -166c-97 0 -138 42 -152 104l-1 42c-41 -75 -134 -168 -324 -168zM344 1150c-68 14 -72 68 -12 128l86 93c60 59 117 83 196 83s136 -24 196 -83l86 -93c60 -60 56 -114 -12 -128c-14 -3 -27 -4 -39 -4c-61 0 -113 31 -167 72l-64 63l-64 -63
c-54 -41 -106 -72 -167 -72c-12 0 -25 1 -39 4zM696 488c-149 0 -311 -29 -311 -158c0 -82 57 -129 162 -129c176 0 245 116 245 211v73c-30 2 -62 3 -96 3z" />
    <glyph glyph-name="atilde" unicode="&#xe3;" horiz-adv-x="1216" 
d="M80 317c0 276 292 355 570 355c49 0 98 -3 142 -7c-1 108 -23 168 -209 168c-82 0 -182 -24 -231 -38c-29 -6 -54 -9 -75 -9c-54 0 -87 19 -106 63c-27 63 5 126 112 157c73 23 196 50 323 50c370 0 490 -138 490 -446v-444c0 -108 -53 -166 -151 -166
c-97 0 -138 42 -152 104l-1 42c-41 -75 -134 -168 -324 -168c-236 0 -388 122 -388 339zM320 1183c-69 6 -113 85 -43 181c38 60 101 116 212 116c82 0 126 -34 160 -66c27 -25 44 -47 80 -47c21 0 37 11 52 24c32 32 60 63 127 56c68 -6 112 -85 42 -181
c-38 -60 -101 -116 -212 -116c-81 0 -125 35 -159 66c-27 25 -44 47 -81 47c-24 0 -40 -14 -58 -29c-31 -31 -59 -57 -120 -51zM696 488c-149 0 -311 -29 -311 -158c0 -82 57 -129 162 -129c176 0 245 116 245 211v73c-30 2 -62 3 -96 3z" />
    <glyph glyph-name="adieresis" unicode="&#xe4;" horiz-adv-x="1216" 
d="M80 317c0 276 292 355 570 355c49 0 98 -3 142 -7c-1 108 -23 168 -208 168c-83 0 -182 -24 -232 -38c-28 -6 -53 -9 -75 -9c-53 0 -87 19 -106 63c-26 63 5 126 113 157c72 23 196 50 322 50c370 0 490 -138 490 -446v-444c0 -108 -53 -166 -151 -166
c-97 0 -138 42 -152 104l-1 42c-41 -75 -134 -168 -324 -168c-235 0 -388 122 -388 339zM696 488c-148 0 -311 -29 -311 -158c0 -82 57 -129 163 -129c175 0 244 116 244 211v73c-30 2 -62 3 -96 3zM393 1150c-88 0 -159 71 -159 158c0 88 71 159 159 159
c87 0 158 -71 158 -159c0 -87 -71 -158 -158 -158zM835 1150c-87 0 -158 71 -158 158c0 88 71 159 158 159s159 -71 159 -159c0 -87 -72 -158 -159 -158z" />
    <glyph glyph-name="aring" unicode="&#xe5;" horiz-adv-x="1216" 
d="M80 317c0 276 292 355 571 355c48 0 97 -3 141 -7c-1 108 -22 168 -208 168c-83 0 -182 -24 -232 -38c-29 -6 -54 -9 -75 -9c-54 0 -87 19 -106 63c-27 63 5 126 112 157c73 23 197 50 324 50c370 0 489 -138 489 -446v-444c0 -108 -53 -166 -151 -166
c-97 0 -138 42 -152 104l-1 42c-40 -75 -134 -168 -323 -168c-237 0 -389 122 -389 339zM614 1150c-111 0 -202 92 -202 202c0 112 91 203 202 203s203 -91 203 -203c0 -110 -92 -202 -203 -202zM697 488c-149 0 -312 -29 -312 -158c0 -82 57 -129 163 -129
c175 0 244 116 244 211v73c-29 2 -62 3 -95 3zM614 1420c-37 0 -67 -31 -67 -68s30 -66 67 -66s67 29 67 66s-30 68 -67 68z" />
    <glyph glyph-name="amacron" unicode="&#x101;" horiz-adv-x="1216" 
d="M80 317c0 276 292 355 570 355c49 0 98 -3 142 -7c-1 108 -23 168 -209 168c-82 0 -182 -24 -231 -38c-29 -6 -54 -9 -75 -9c-54 0 -87 19 -106 63c-27 63 5 126 112 157c73 23 196 50 323 50c370 0 490 -138 490 -446v-444c0 -108 -53 -166 -151 -166
c-97 0 -138 42 -152 104l-1 42c-41 -75 -134 -168 -324 -168c-236 0 -388 122 -388 339zM359 1150c-107 0 -165 41 -165 118c0 76 58 117 165 117h516c107 0 159 -41 159 -117s-52 -118 -159 -118h-516zM385 330c0 -82 57 -129 162 -129c176 0 245 116 245 211v73
c-30 2 -62 3 -96 3c-149 0 -311 -29 -311 -158z" />
    <glyph glyph-name="abreve" unicode="&#x103;" horiz-adv-x="1216" 
d="M468 -22c-236 0 -388 122 -388 339c0 276 292 355 570 355c49 0 98 -3 142 -7c-1 108 -23 168 -209 168c-82 0 -182 -24 -231 -38c-29 -6 -54 -9 -75 -9c-54 0 -87 19 -106 63c-27 63 5 126 112 157c73 23 196 50 323 50c370 0 490 -138 490 -446v-444
c0 -108 -53 -166 -151 -166c-97 0 -138 42 -152 104l-1 42c-41 -75 -134 -168 -324 -168zM292 1272c-62 65 -44 141 10 157c11 4 22 6 33 6c22 0 43 -8 62 -23c53 -39 108 -89 217 -89c101 0 158 49 204 82c24 18 49 29 76 29c10 0 21 -2 31 -5c54 -16 72 -88 14 -152
c-67 -85 -198 -127 -325 -127c-129 0 -250 40 -322 122zM696 488c-149 0 -311 -29 -311 -158c0 -82 57 -129 162 -129c176 0 245 116 245 211v73c-30 2 -62 3 -96 3z" />
    <glyph glyph-name="aogonek" unicode="&#x105;" horiz-adv-x="1216" 
d="M468 -22c-236 0 -388 122 -388 339c0 276 292 355 570 355c49 0 98 -3 142 -7c-1 108 -23 168 -209 168c-82 0 -182 -24 -231 -38c-29 -6 -54 -9 -75 -9c-54 0 -87 19 -106 63c-27 63 5 126 112 157c73 23 196 50 323 50c370 0 490 -138 490 -446v-444
c0 -79 -29 -132 -83 -154c-34 -39 -68 -90 -68 -142c0 -45 25 -67 55 -81c70 -39 121 -53 121 -128c0 -58 -44 -109 -121 -109c-15 0 -31 2 -49 6c-134 29 -219 117 -219 236c0 110 78 184 141 217c-47 15 -70 49 -80 93l-1 42c-41 -75 -134 -168 -324 -168zM385 330
c0 -82 57 -129 162 -129c176 0 245 116 245 211v73c-30 2 -63 3 -96 3c-149 0 -311 -29 -311 -158z" />
    <glyph glyph-name="uni01CE" unicode="&#x1ce;" horiz-adv-x="1216" 
d="M468 -22c-236 0 -388 122 -388 339c0 276 292 355 570 355c49 0 98 -3 142 -7c-1 108 -23 168 -209 168c-82 0 -182 -24 -231 -38c-29 -6 -54 -9 -75 -9c-54 0 -87 19 -106 63c-27 63 5 126 112 157c73 23 196 50 323 50c370 0 490 -138 490 -446v-444
c0 -108 -53 -166 -151 -166c-97 0 -138 42 -152 104l-1 42c-41 -75 -134 -168 -324 -168zM332 1326c-61 60 -56 113 11 128c13 3 26 4 38 4c62 0 114 -32 168 -73l65 -62l64 62c54 41 107 73 168 73c13 0 25 -1 38 -4c67 -15 72 -68 11 -128l-85 -93
c-60 -59 -117 -83 -196 -83s-136 24 -197 83zM696 488c-149 0 -311 -29 -311 -158c0 -82 57 -129 162 -129c176 0 245 116 245 211v73c-30 2 -62 3 -96 3z" />
    <glyph glyph-name="uni01DF" unicode="&#x1df;" horiz-adv-x="1216" 
d="M468 -22c-235 0 -388 122 -388 339c0 276 292 355 570 355c49 0 98 -3 142 -7c-1 108 -23 168 -208 168c-83 0 -182 -24 -232 -38c-28 -6 -53 -9 -75 -9c-53 0 -87 19 -106 63c-26 63 5 126 113 157c72 23 196 50 322 50c370 0 490 -138 490 -446v-444
c0 -108 -53 -166 -151 -166c-97 0 -138 42 -152 104l-1 42c-41 -75 -134 -168 -324 -168zM360 1513c-107 0 -165 41 -165 118c0 76 58 117 165 117h515c108 0 159 -41 159 -117s-51 -118 -159 -118h-515zM385 330c0 -82 57 -129 163 -129c175 0 244 116 244 211v73
c-30 2 -62 3 -96 3c-148 0 -311 -29 -311 -158zM677 1303c0 87 72 158 159 158s159 -71 159 -158c0 -88 -72 -159 -159 -159s-159 71 -159 159zM235 1303c0 87 71 158 158 158c88 0 160 -71 160 -158c0 -88 -72 -159 -160 -159c-87 0 -158 71 -158 159z" />
    <glyph glyph-name="uni01E1" unicode="&#x1e1;" horiz-adv-x="1216" 
d="M80 317c0 276 292 355 571 355c49 0 98 -3 141 -7c-1 108 -22 168 -208 168c-83 0 -182 -24 -232 -38c-29 -6 -54 -9 -75 -9c-54 0 -87 19 -106 63c-27 63 5 126 112 157c73 23 197 50 324 50c369 0 489 -138 489 -446v-444c0 -108 -53 -166 -151 -166
c-97 0 -138 42 -152 104l-1 42c-40 -75 -133 -168 -324 -168c-236 0 -388 122 -388 339zM359 1513c-107 0 -164 41 -164 118c0 76 57 117 164 117h516c107 0 159 -41 159 -117s-52 -118 -159 -118h-516zM385 330c0 -82 57 -129 163 -129c176 0 244 116 244 211v73
c-29 2 -61 3 -95 3c-149 0 -312 -29 -312 -158zM456 1303c0 87 71 158 159 158c87 0 159 -71 159 -158c0 -88 -72 -159 -159 -159c-88 0 -159 71 -159 159z" />
    <glyph glyph-name="aringacute" unicode="&#x1fb;" horiz-adv-x="1216" 
d="M468 -22c-236 0 -388 122 -388 339c0 276 292 355 571 355c49 0 97 -3 141 -7c-1 108 -22 168 -209 168c-82 0 -181 -24 -231 -38c-29 -6 -54 -9 -75 -9c-54 0 -87 19 -106 63c-27 63 5 126 112 157c73 23 196 50 323 50c370 0 490 -138 490 -446v-444
c0 -108 -53 -166 -151 -166c-97 0 -138 42 -152 104l-1 42c-40 -75 -134 -168 -324 -168zM633 1119c-103 0 -187 85 -187 187c0 48 19 90 48 124l98 117c46 56 92 78 167 78c76 0 101 -40 62 -78l-88 -86c51 -32 87 -90 87 -155c0 -102 -84 -187 -187 -187zM697 488
c-150 0 -312 -29 -312 -158c0 -82 57 -129 162 -129c177 0 245 116 245 211v73c-29 2 -62 3 -95 3zM633 1368c-34 0 -62 -28 -62 -62s28 -61 62 -61c35 0 62 27 62 61s-27 62 -62 62z" />
    <glyph glyph-name="uni0201" unicode="&#x201;" horiz-adv-x="1216" 
d="M80 317c0 276 292 355 570 355c49 0 98 -3 142 -7c-1 108 -23 168 -209 168c-82 0 -182 -24 -231 -38c-29 -6 -54 -9 -75 -9c-54 0 -87 19 -106 63c-27 63 5 126 112 157c73 23 196 50 323 50c370 0 490 -138 490 -446v-444c0 -108 -53 -166 -151 -166
c-97 0 -138 42 -152 104l-1 42c-41 -75 -134 -168 -324 -168c-236 0 -388 122 -388 339zM696 488c-149 0 -311 -29 -311 -158c0 -82 57 -129 162 -129c176 0 245 116 245 211v73c-30 2 -62 3 -96 3zM561 1314c-74 80 -24 140 85 140c81 0 140 -18 187 -74
c19 -22 62 -70 74 -84c70 -84 30 -147 -60 -150c-82 -2 -144 26 -199 80c-21 21 -67 67 -87 88zM147 1314c-74 80 -24 140 86 140c81 0 140 -18 186 -74c20 -22 62 -70 74 -84c70 -84 31 -147 -59 -150c-82 -2 -145 26 -200 80c-21 21 -66 67 -87 88z" />
    <glyph glyph-name="uni0203" unicode="&#x203;" horiz-adv-x="1216" 
d="M80 317c0 276 292 355 570 355c49 0 98 -3 142 -7c-1 108 -23 168 -209 168c-82 0 -182 -24 -231 -38c-29 -6 -54 -9 -75 -9c-54 0 -87 19 -106 63c-27 63 5 126 112 157c73 23 196 50 323 50c370 0 490 -138 490 -446v-444c0 -108 -53 -166 -151 -166
c-97 0 -138 42 -152 104l-1 42c-41 -75 -134 -168 -324 -168c-236 0 -388 122 -388 339zM302 1129c-54 16 -72 91 -10 157c72 81 193 121 322 121c127 0 258 -42 325 -127c58 -64 40 -136 -14 -151c-11 -4 -21 -5 -31 -5c-27 0 -52 11 -76 28c-46 33 -103 82 -204 82
c-109 0 -164 -50 -217 -88c-19 -15 -40 -23 -62 -23c-11 0 -22 2 -33 6zM385 330c0 -82 57 -129 162 -129c176 0 245 116 245 211v73c-30 2 -62 3 -96 3c-149 0 -311 -29 -311 -158z" />
    <glyph glyph-name="uni0227" unicode="&#x227;" horiz-adv-x="1216" 
d="M80 317c0 276 292 355 570 355c49 0 98 -3 142 -7c-1 108 -22 168 -209 168c-82 0 -182 -24 -231 -38c-29 -6 -54 -9 -75 -9c-54 0 -87 19 -106 63c-27 63 5 126 112 157c73 23 196 50 323 50c370 0 490 -138 490 -446v-444c0 -108 -53 -166 -151 -166
c-97 0 -138 42 -152 104l-1 42c-40 -75 -134 -168 -324 -168c-236 0 -388 122 -388 339zM385 330c0 -82 56 -129 162 -129c177 0 245 116 245 211v73c-29 2 -62 3 -95 3c-150 0 -312 -29 -312 -158zM455 1309c0 87 71 158 159 158c87 0 159 -71 159 -158
c0 -88 -72 -159 -159 -159c-88 0 -159 71 -159 159z" />
    <glyph glyph-name="ae" unicode="&#xe6;" horiz-adv-x="1945" 
d="M528 -22c-296 0 -448 122 -448 339c0 276 292 355 571 355c49 0 97 -3 142 -7c-2 108 -23 168 -210 168c-81 0 -171 -20 -221 -34c-29 -7 -55 -10 -77 -10c-52 0 -84 19 -103 63c-28 64 2 126 110 157c73 23 191 47 314 47c191 0 310 -40 383 -118c87 74 205 118 351 118
c294 0 514 -182 525 -485c1 -111 -52 -171 -160 -171h-605c3 -101 91 -197 269 -197c95 0 181 23 230 44c31 9 59 14 84 14c39 0 69 -14 89 -51c37 -68 6 -134 -86 -171c-90 -38 -202 -65 -346 -65c-178 0 -311 59 -400 156c-82 -84 -223 -152 -412 -152zM385 330
c0 -82 57 -129 162 -129c177 0 246 116 246 211v73c-30 2 -63 3 -96 3c-150 0 -312 -29 -312 -158zM1100 605h480c-7 116 -85 222 -240 222s-233 -107 -240 -222z" />
    <glyph glyph-name="aeacute" unicode="&#x1fd;" horiz-adv-x="1945" 
d="M80 317c0 276 292 355 571 355c49 0 97 -3 142 -7c-2 108 -23 168 -210 168c-81 0 -171 -20 -221 -34c-29 -7 -55 -10 -77 -10c-52 0 -84 19 -103 63c-28 64 2 126 110 157c73 23 191 47 314 47c191 0 310 -40 383 -118c87 74 205 118 351 118c294 0 514 -182 525 -485
c1 -111 -52 -171 -160 -171h-605c3 -101 91 -197 269 -197c95 0 181 23 230 44c31 9 59 14 84 14c39 0 69 -14 89 -51c37 -68 6 -134 -86 -171c-90 -38 -202 -65 -346 -65c-178 0 -311 59 -400 156c-82 -84 -223 -152 -412 -152c-296 0 -448 122 -448 339zM385 330
c0 -82 57 -129 162 -129c177 0 246 116 246 211v73c-30 2 -63 3 -96 3c-150 0 -312 -29 -312 -158zM1340 827c-155 0 -233 -107 -240 -222h480c-7 116 -85 222 -240 222zM976 1150c-90 3 -129 66 -59 150c12 13 54 61 74 84c46 56 105 74 186 74c110 0 160 -61 86 -141
c-21 -20 -66 -67 -87 -88c-55 -53 -118 -81 -200 -79z" />
    <glyph glyph-name="uni01E3" unicode="&#x1e3;" horiz-adv-x="1945" 
d="M80 317c0 276 292 355 571 355c49 0 97 -3 142 -7c-2 108 -23 168 -210 168c-81 0 -171 -20 -221 -34c-29 -7 -55 -10 -77 -10c-52 0 -84 19 -103 63c-28 64 2 126 110 157c73 23 191 47 314 47c191 0 310 -40 383 -118c87 74 205 118 351 118c294 0 514 -182 525 -485
c1 -111 -52 -171 -160 -171h-605c3 -101 91 -197 269 -197c95 0 181 23 230 44c31 9 59 14 84 14c39 0 69 -14 89 -51c37 -68 6 -134 -86 -171c-90 -38 -202 -65 -346 -65c-178 0 -311 59 -400 156c-82 -84 -223 -152 -412 -152c-296 0 -448 122 -448 339zM565 1268
c0 76 57 117 164 117h517c107 0 158 -41 158 -117s-51 -118 -158 -118h-517c-107 0 -164 41 -164 118zM385 330c0 -82 57 -129 162 -129c177 0 246 116 246 211v73c-30 2 -63 3 -96 3c-150 0 -312 -29 -312 -158zM1100 605h480c-7 116 -85 222 -240 222s-233 -107 -240 -222
z" />
    <glyph glyph-name="ccaron" unicode="&#x10d;" horiz-adv-x="1144" 
d="M80 515c0 331 233 541 600 541c123 0 214 -28 283 -58c102 -41 114 -119 76 -178c-23 -36 -56 -49 -97 -49c-32 0 -69 8 -111 20c-39 15 -92 30 -151 30c-183 0 -294 -122 -294 -306s111 -306 294 -306c59 0 112 15 151 30c42 12 79 20 111 20c41 0 74 -13 97 -49
c38 -59 26 -137 -76 -178c-69 -30 -160 -58 -283 -58c-367 0 -600 210 -600 541zM366 1326c-61 60 -56 113 11 128c13 3 25 4 38 4c61 0 114 -32 168 -73l65 -62l64 62c54 41 107 73 168 73c13 0 25 -1 38 -4c67 -15 72 -68 11 -128l-85 -93c-60 -59 -117 -83 -196 -83
s-136 24 -197 83z" />
    <glyph glyph-name="ccircumflex" unicode="&#x109;" horiz-adv-x="1144" 
d="M80 515c0 331 233 541 600 541c123 0 214 -28 283 -58c102 -41 114 -119 76 -178c-23 -36 -56 -49 -97 -49c-32 0 -69 8 -111 20c-39 15 -92 30 -151 30c-183 0 -294 -122 -294 -306s111 -306 294 -306c59 0 112 15 151 30c42 12 79 20 111 20c41 0 74 -13 97 -49
c38 -59 26 -137 -76 -178c-69 -30 -160 -58 -283 -58c-367 0 -600 210 -600 541zM377 1150c-67 14 -72 68 -11 128l85 93c61 59 118 83 197 83s136 -24 196 -83l85 -93c61 -60 57 -114 -11 -128c-14 -3 -27 -4 -39 -4c-61 0 -113 31 -167 72l-64 63l-65 -63
c-54 -41 -105 -72 -166 -72c-13 0 -26 1 -40 4z" />
    <glyph glyph-name="ccedilla" unicode="&#xe7;" horiz-adv-x="1144" 
d="M540 -15c-286 47 -460 243 -460 530c0 331 233 541 600 541c123 0 214 -28 283 -58c102 -41 114 -119 76 -178c-23 -36 -56 -49 -97 -49c-32 0 -69 8 -111 20c-39 15 -92 30 -151 30c-183 0 -294 -122 -294 -306s111 -306 294 -306c59 0 112 15 151 30
c42 12 79 20 111 20c41 0 74 -13 97 -49c38 -59 26 -137 -76 -178c-62 -27 -141 -52 -246 -57l-24 -74c127 -1 224 -60 211 -187c-14 -147 -135 -202 -278 -202c-25 0 -52 2 -78 5c-96 10 -136 52 -121 102c11 35 39 44 84 44c17 0 36 -1 58 -3c64 -6 140 -4 148 58
c6 45 -36 58 -85 60c-103 11 -152 30 -124 112z" />
    <glyph glyph-name="cacute" unicode="&#x107;" horiz-adv-x="1144" 
d="M680 -26c-367 0 -600 210 -600 541s233 541 600 541c123 0 214 -28 283 -58c102 -41 114 -119 76 -178c-23 -36 -56 -49 -97 -49c-32 0 -69 8 -111 20c-39 15 -92 30 -151 30c-183 0 -294 -122 -294 -306s111 -306 294 -306c59 0 112 15 151 30c42 12 79 20 111 20
c41 0 74 -13 97 -49c38 -59 26 -137 -76 -178c-69 -30 -160 -58 -283 -58zM640 1150c-91 3 -130 66 -60 150l74 84c47 56 106 74 187 74c109 0 159 -61 85 -141l-87 -88c-55 -53 -117 -81 -199 -79z" />
    <glyph glyph-name="cdotaccent" unicode="&#x10b;" horiz-adv-x="1144" 
d="M80 515c0 331 233 541 600 541c124 0 215 -28 283 -58c102 -41 114 -119 76 -178c-23 -36 -55 -49 -96 -49c-32 0 -70 8 -112 20c-39 15 -92 30 -151 30c-183 0 -294 -122 -294 -306s111 -306 294 -306c59 0 112 15 151 30c42 12 80 20 112 20c41 0 73 -13 96 -49
c38 -59 26 -137 -76 -178c-68 -30 -159 -58 -283 -58c-367 0 -600 210 -600 541zM648 1150c-88 0 -159 71 -159 159c0 87 71 158 159 158c87 0 159 -71 159 -158c0 -88 -72 -159 -159 -159z" />
    <glyph glyph-name="cent" unicode="&#xa2;" horiz-adv-x="1147" 
d="M80 515c0 275 160 468 424 522v111c0 82 47 133 133 133s133 -51 133 -133v-97c81 -8 147 -30 196 -52c102 -41 114 -118 73 -179c-23 -35 -56 -48 -97 -48c-32 0 -70 8 -112 20c-39 15 -92 29 -151 29c-183 0 -293 -121 -293 -306s110 -306 293 -306c59 0 112 14 151 29
c42 12 80 20 112 20c41 0 74 -13 97 -48c41 -61 29 -138 -73 -179c-49 -22 -115 -44 -196 -52v-96c0 -82 -47 -132 -133 -132s-133 50 -133 132v110c-264 53 -424 247 -424 522z" />
    <glyph glyph-name="dcaron" unicode="&#x10f;" horiz-adv-x="1501" 
d="M615 -26c-343 0 -535 225 -535 541s192 541 535 541c176 0 287 -104 340 -182v477c0 107 53 165 151 165c99 0 152 -58 152 -165v-1186c0 -107 -53 -165 -152 -165c-81 0 -117 36 -133 85c-7 24 -11 69 -12 79c-52 -84 -170 -190 -346 -190zM671 821
c-181 0 -285 -134 -285 -306s104 -306 285 -306c180 0 284 134 284 306s-104 306 -284 306zM1407 1064c-74 4 -113 47 -97 127l46 212c14 70 63 113 151 113c91 0 131 -49 108 -130l-67 -228c-19 -63 -71 -97 -141 -94z" />
    <glyph glyph-name="dcroat" unicode="&#x111;" horiz-adv-x="1446" 
d="M80 515c0 316 192 541 535 541c176 0 287 -104 340 -182v245h-147c-80 0 -124 38 -124 106s44 105 124 105h147v21c0 107 53 165 151 165c99 0 152 -58 152 -165v-21h67c81 0 125 -37 125 -105s-44 -106 -125 -106h-67v-954c0 -107 -53 -165 -152 -165
c-81 0 -117 36 -133 85c-7 24 -11 69 -12 79c-52 -84 -170 -190 -346 -190c-343 0 -535 225 -535 541zM671 821c-181 0 -285 -134 -285 -306s104 -306 285 -306c180 0 284 134 284 306s-104 306 -284 306z" />
    <glyph glyph-name="eth" unicode="&#xf0;" horiz-adv-x="1374" 
d="M657 -26c-373 0 -577 225 -577 541s204 541 535 541c172 0 288 -108 339 -182c-19 147 -107 262 -214 334l-45 -34c-30 -33 -64 -50 -99 -50c-24 0 -49 9 -72 27c-52 39 -54 92 -28 127l28 23c-24 11 -49 20 -73 26c-52 14 -130 67 -104 168c20 76 76 101 132 101
c71 0 183 -45 243 -76l45 38c28 32 60 50 95 50c22 0 45 -7 69 -22c57 -37 65 -100 24 -148l-33 -26c216 -162 333 -409 333 -755c0 -465 -250 -683 -598 -683zM671 821c-181 0 -285 -134 -285 -306s104 -306 285 -306c180 0 284 134 284 306s-104 306 -284 306z" />
    <glyph glyph-name="egrave" unicode="&#xe8;" horiz-adv-x="1232" 
d="M80 515c0 295 191 541 547 541c294 0 514 -182 525 -485c1 -111 -52 -171 -160 -171h-605c3 -101 91 -197 269 -197c95 0 181 23 230 43c32 9 60 15 85 15c39 0 69 -14 88 -51c36 -66 6 -134 -86 -171c-90 -39 -202 -65 -346 -65c-373 0 -547 252 -547 541zM627 827
c-155 0 -233 -107 -240 -222h480c-7 116 -85 222 -240 222zM338 1317c-74 80 -24 141 85 141c81 0 140 -18 187 -74c19 -23 62 -71 74 -84c70 -84 30 -147 -60 -150c-82 -2 -144 26 -199 79c-21 21 -66 68 -87 88z" />
    <glyph glyph-name="eacute" unicode="&#xe9;" horiz-adv-x="1232" 
d="M80 515c0 295 191 541 547 541c294 0 514 -182 525 -485c1 -111 -52 -171 -160 -171h-605c3 -101 91 -197 269 -197c95 0 181 23 230 43c32 9 60 15 85 15c39 0 69 -14 88 -51c36 -66 6 -134 -86 -171c-90 -39 -202 -65 -346 -65c-373 0 -547 252 -547 541zM627 827
c-155 0 -233 -107 -240 -222h480c-7 116 -85 222 -240 222zM608 1150c-90 3 -129 66 -59 150c12 13 54 61 74 84c46 56 105 74 186 74c110 0 160 -61 85 -141c-20 -20 -66 -67 -87 -88c-55 -53 -117 -81 -199 -79z" />
    <glyph glyph-name="ecircumflex" unicode="&#xea;" horiz-adv-x="1232" 
d="M627 -26c-373 0 -547 252 -547 541c0 295 191 541 547 541c294 0 514 -182 525 -485c1 -111 -52 -171 -160 -171h-605c3 -101 91 -197 269 -197c95 0 181 23 230 43c32 9 60 15 85 15c39 0 69 -14 88 -51c36 -66 6 -134 -86 -171c-90 -39 -202 -65 -346 -65zM346 1150
c-67 14 -72 68 -11 128l85 93c60 59 117 83 196 83s136 -24 196 -83l86 -93c60 -60 56 -114 -12 -128c-14 -3 -27 -4 -39 -4c-61 0 -113 31 -167 72l-64 63l-64 -63c-54 -41 -106 -72 -167 -72c-12 0 -25 1 -39 4zM387 605h480c-7 116 -85 222 -240 222s-233 -107 -240 -222
z" />
    <glyph glyph-name="edieresis" unicode="&#xeb;" horiz-adv-x="1232" 
d="M627 -26c-373 0 -547 252 -547 541c0 295 191 541 547 541c295 0 515 -182 526 -485c2 -111 -52 -171 -160 -171h-606c3 -101 91 -197 270 -197c95 0 181 23 230 43c32 9 60 15 85 15c39 0 69 -14 88 -51c36 -66 6 -134 -86 -171c-89 -39 -202 -65 -347 -65zM627 827
c-155 0 -233 -107 -240 -222h481c-7 116 -85 222 -241 222zM838 1150c-87 0 -159 71 -159 158c0 88 72 159 159 159s159 -71 159 -159c0 -87 -72 -158 -159 -158zM236 1308c0 88 72 159 159 159s158 -71 158 -159c0 -87 -71 -158 -158 -158s-159 71 -159 158z" />
    <glyph glyph-name="emacron" unicode="&#x113;" horiz-adv-x="1232" 
d="M80 515c0 295 191 541 547 541c294 0 514 -182 525 -485c1 -111 -52 -171 -160 -171h-605c3 -101 91 -197 269 -197c95 0 181 23 230 43c32 9 60 15 85 15c39 0 69 -14 88 -51c36 -66 6 -134 -86 -171c-90 -39 -202 -65 -346 -65c-373 0 -547 252 -547 541zM361 1150
c-107 0 -164 41 -164 118c0 76 57 117 164 117h516c107 0 159 -41 159 -117s-52 -118 -159 -118h-516zM387 605h480c-7 116 -85 222 -240 222s-233 -107 -240 -222z" />
    <glyph glyph-name="ebreve" unicode="&#x115;" horiz-adv-x="1232" 
d="M627 -26c-373 0 -547 252 -547 541c0 295 191 541 547 541c294 0 514 -182 525 -485c1 -111 -52 -171 -160 -171h-605c3 -101 91 -197 269 -197c95 0 181 23 230 43c32 9 60 15 85 15c39 0 69 -14 88 -51c36 -66 6 -134 -86 -171c-90 -39 -202 -65 -346 -65zM295 1272
c-63 65 -44 141 9 157c11 4 23 6 34 6c22 0 42 -8 61 -23c53 -39 108 -89 217 -89c101 0 158 49 204 82c24 18 50 29 77 29c10 0 21 -2 31 -5c53 -16 71 -88 14 -152c-68 -85 -199 -127 -326 -127c-129 0 -250 40 -321 122zM627 827c-155 0 -233 -107 -240 -222h480
c-7 116 -85 222 -240 222z" />
    <glyph glyph-name="edotaccent" unicode="&#x117;" horiz-adv-x="1232" 
d="M80 515c0 295 191 541 548 541c294 0 514 -182 525 -485c2 -111 -52 -171 -160 -171h-606c3 -101 91 -197 270 -197c95 0 182 23 230 43c32 9 60 15 85 15c39 0 69 -14 88 -51c36 -66 6 -134 -86 -171c-89 -39 -201 -65 -346 -65c-374 0 -548 252 -548 541zM628 827
c-155 0 -234 -107 -241 -222h481c-7 116 -85 222 -240 222zM458 1309c0 87 71 158 158 158s159 -71 159 -158c0 -88 -72 -159 -159 -159s-158 71 -158 159z" />
    <glyph glyph-name="eogonek" unicode="&#x119;" horiz-adv-x="1232" 
d="M80 515c0 295 191 541 547 541c295 0 515 -182 525 -485c2 -111 -51 -171 -160 -171h-605c3 -101 91 -197 269 -197c96 0 182 23 230 43c32 9 61 15 86 15c39 0 68 -14 88 -51c35 -66 5 -134 -86 -171c-36 -16 -75 -29 -118 -39c-36 -40 -74 -95 -74 -150
c0 -44 24 -67 55 -81c70 -39 121 -53 121 -128c0 -58 -44 -109 -121 -109c-15 0 -31 2 -49 6c-134 30 -219 117 -219 236c0 96 58 164 114 201c-18 -1 -37 -1 -56 -1c-373 0 -547 252 -547 541zM627 827c-155 0 -233 -107 -240 -222h480c-6 116 -85 222 -240 222z" />
    <glyph glyph-name="ecaron" unicode="&#x11b;" horiz-adv-x="1232" 
d="M627 -26c-373 0 -547 252 -547 541c0 295 191 541 547 541c294 0 514 -182 525 -485c1 -111 -52 -171 -160 -171h-605c3 -101 91 -197 269 -197c95 0 181 23 230 43c32 9 60 15 85 15c39 0 69 -14 88 -51c36 -66 6 -134 -86 -171c-90 -39 -202 -65 -346 -65zM335 1326
c-61 60 -57 113 11 128c13 3 25 4 38 4c61 0 113 -32 167 -73l65 -62l64 62c54 41 107 73 168 73c13 0 25 -1 38 -4c68 -15 72 -68 11 -128l-85 -93c-60 -59 -117 -83 -196 -83s-136 24 -196 83zM627 827c-155 0 -233 -107 -240 -222h480c-7 116 -85 222 -240 222z" />
    <glyph glyph-name="uni0205" unicode="&#x205;" horiz-adv-x="1232" 
d="M627 -26c-373 0 -547 252 -547 541c0 295 191 541 547 541c294 0 514 -182 525 -485c1 -111 -52 -171 -160 -171h-605c3 -101 91 -197 269 -197c95 0 181 23 230 43c32 9 60 15 85 15c39 0 69 -14 88 -51c36 -66 6 -134 -86 -171c-90 -39 -202 -65 -346 -65zM627 827
c-155 0 -233 -107 -240 -222h480c-7 116 -85 222 -240 222zM150 1314c-75 80 -25 140 85 140c81 0 140 -18 186 -74c20 -22 62 -70 74 -84c70 -84 31 -147 -59 -150c-82 -2 -144 26 -200 80c-20 21 -66 67 -86 88zM563 1314c-74 80 -24 140 85 140c81 0 140 -18 187 -74
c20 -22 62 -70 74 -84c70 -84 30 -147 -60 -150c-81 -2 -144 26 -199 80c-21 21 -66 67 -87 88z" />
    <glyph glyph-name="uni0207" unicode="&#x207;" horiz-adv-x="1232" 
d="M627 -26c-373 0 -547 252 -547 541c0 295 191 541 547 541c294 0 514 -182 525 -485c1 -111 -52 -171 -160 -171h-605c3 -101 91 -197 269 -197c95 0 181 23 230 43c32 9 60 15 85 15c39 0 69 -14 88 -51c36 -66 6 -134 -86 -171c-90 -39 -202 -65 -346 -65zM304 1129
c-53 16 -72 91 -9 157c71 81 192 121 321 121c127 0 258 -42 326 -127c57 -64 39 -136 -14 -151c-11 -4 -21 -5 -32 -5c-26 0 -52 11 -76 28c-46 33 -103 82 -204 82c-109 0 -164 -50 -217 -88c-19 -15 -39 -23 -61 -23c-11 0 -23 2 -34 6zM627 827
c-155 0 -233 -107 -240 -222h480c-7 116 -85 222 -240 222z" />
    <glyph glyph-name="uni0229" unicode="&#x229;" horiz-adv-x="1232" 
d="M80 515c0 295 191 541 547 541c294 0 514 -182 525 -485c1 -111 -52 -171 -160 -171h-605c3 -101 91 -197 269 -197c95 0 181 23 230 43c32 9 60 15 85 15c39 0 69 -14 88 -51c36 -66 6 -134 -86 -171c-74 -32 -163 -56 -274 -63l-24 -75c127 -1 224 -60 211 -187
c-14 -147 -135 -202 -278 -202c-25 0 -52 2 -78 5c-96 10 -136 52 -120 102c10 35 38 44 83 44c17 0 37 -1 59 -3c63 -6 139 -4 147 58c6 45 -36 58 -85 60c-102 11 -151 30 -124 112l31 91c-300 44 -441 274 -441 534zM627 827c-155 0 -233 -107 -240 -222h480
c-7 116 -85 222 -240 222z" />
    <glyph glyph-name="gcircumflex" unicode="&#x11d;" horiz-adv-x="1378" 
d="M80 515c0 316 192 541 535 541c176 0 287 -104 340 -182c4 22 11 65 18 82c23 51 71 74 133 74c99 0 152 -58 152 -165v-865c0 -414 -288 -532 -598 -532c-140 0 -257 27 -345 57c-106 32 -137 100 -105 173c19 44 55 59 100 59c31 0 67 -7 104 -17
c59 -19 138 -37 222 -37c189 0 319 90 319 297v155c-51 -73 -167 -181 -340 -181c-343 0 -535 225 -535 541zM671 821c-181 0 -285 -134 -285 -306s104 -306 285 -306c180 0 284 134 284 306s-104 306 -284 306zM399 1150c-68 14 -72 68 -12 128l86 93c60 59 117 83 196 83
s136 -24 197 -83l85 -93c61 -60 56 -114 -11 -128c-14 -3 -27 -4 -39 -4c-61 0 -113 31 -167 72l-65 63l-64 -63c-54 -41 -106 -72 -167 -72c-12 0 -25 1 -39 4z" />
    <glyph glyph-name="gbreve" unicode="&#x11f;" horiz-adv-x="1378" 
d="M80 515c0 316 192 541 535 541c176 0 287 -104 340 -182c4 22 11 65 18 82c23 51 71 74 133 74c99 0 152 -58 152 -165v-865c0 -414 -288 -532 -598 -532c-140 0 -257 27 -345 57c-106 32 -137 100 -105 173c19 44 55 59 100 59c31 0 67 -7 104 -17
c59 -19 138 -37 222 -37c189 0 319 90 319 297v155c-51 -73 -167 -181 -340 -181c-343 0 -535 225 -535 541zM671 821c-181 0 -285 -134 -285 -306s104 -306 285 -306c180 0 284 134 284 306s-104 306 -284 306zM347 1272c-62 65 -44 141 10 157c11 4 22 6 33 6
c22 0 43 -8 62 -23c53 -39 108 -89 217 -89c101 0 159 49 205 82c24 18 49 29 76 29c10 0 21 -2 31 -5c53 -16 71 -88 14 -152c-68 -85 -198 -127 -326 -127c-129 0 -250 40 -322 122z" />
    <glyph glyph-name="gdotaccent" unicode="&#x121;" horiz-adv-x="1378" 
d="M615 -26c-343 0 -535 225 -535 541s192 541 535 541c176 0 287 -104 340 -182c4 22 11 65 18 82c23 51 71 74 133 74c99 0 152 -58 152 -165v-865c0 -414 -288 -532 -598 -532c-140 0 -257 27 -345 57c-106 32 -137 100 -105 173c19 44 55 59 100 59c31 0 67 -7 104 -17
c59 -19 137 -37 222 -37c189 0 319 90 319 297v155c-51 -73 -167 -181 -340 -181zM670 821c-180 0 -284 -134 -284 -306s104 -306 284 -306c181 0 285 134 285 306s-104 306 -285 306zM669 1150c-87 0 -159 71 -159 159c0 87 72 158 159 158s159 -71 159 -158
c0 -88 -72 -159 -159 -159z" />
    <glyph glyph-name="uni0123" unicode="&#x123;" horiz-adv-x="1378" 
d="M80 515c0 316 192 541 535 541c176 0 287 -104 340 -182c4 22 11 65 18 82c23 51 71 74 133 74c99 0 152 -58 152 -165v-865c0 -414 -288 -532 -598 -532c-140 0 -257 27 -345 57c-106 32 -137 100 -105 173c19 44 55 59 100 59c31 0 67 -7 104 -17
c59 -19 138 -37 222 -37c189 0 319 90 319 297v155c-51 -73 -167 -181 -340 -181c-343 0 -535 225 -535 541zM671 821c-181 0 -285 -134 -285 -306s104 -306 285 -306c180 0 284 134 284 306s-104 306 -284 306zM665 1150c-110 0 -161 68 -104 181l101 205
c38 75 91 117 181 114c94 -4 132 -67 87 -183l-73 -187c-34 -90 -93 -130 -188 -130h-4z" />
    <glyph glyph-name="uni01E5" unicode="&#x1e5;" horiz-adv-x="1411" 
d="M80 515c0 316 192 541 535 541c176 0 287 -104 340 -182c4 22 11 65 18 82c23 51 71 74 133 74c99 0 152 -58 152 -165v-865c0 -25 -1 -48 -3 -71h28c74 0 108 -27 108 -78c0 -50 -34 -77 -108 -77h-62c-87 -233 -317 -306 -561 -306c-140 0 -257 27 -345 57
c-106 32 -137 100 -105 173c19 44 55 59 100 59c31 0 67 -7 104 -17c59 -19 138 -37 222 -37c95 0 174 23 231 71h-112c-74 0 -109 27 -109 77c0 51 35 78 109 78h194c4 22 6 46 6 71v155c-51 -73 -167 -181 -340 -181c-343 0 -535 225 -535 541zM671 821
c-181 0 -285 -134 -285 -306s104 -306 285 -306c180 0 284 134 284 306s-104 306 -284 306z" />
    <glyph glyph-name="gcaron" unicode="&#x1e7;" horiz-adv-x="1378" 
d="M80 515c0 316 192 541 535 541c176 0 287 -104 340 -182c4 22 11 65 18 82c23 51 71 74 133 74c99 0 152 -58 152 -165v-865c0 -414 -288 -532 -598 -532c-140 0 -257 27 -345 57c-106 32 -137 100 -105 173c19 44 55 59 100 59c31 0 67 -7 104 -17
c59 -19 138 -37 222 -37c189 0 319 90 319 297v155c-51 -73 -167 -181 -340 -181c-343 0 -535 225 -535 541zM671 821c-181 0 -285 -134 -285 -306s104 -306 285 -306c180 0 284 134 284 306s-104 306 -284 306zM387 1326c-61 60 -56 113 11 128c13 3 26 4 38 4
c62 0 115 -32 169 -73l64 -62l64 62c54 41 107 73 169 73c12 0 25 -1 38 -4c67 -15 72 -68 11 -128l-86 -93c-60 -59 -117 -83 -196 -83s-136 24 -197 83z" />
    <glyph glyph-name="uni01F5" unicode="&#x1f5;" horiz-adv-x="1378" 
d="M615 -26c-343 0 -535 225 -535 541s192 541 535 541c176 0 287 -104 340 -182c4 22 11 65 18 82c23 51 71 74 133 74c99 0 152 -58 152 -165v-865c0 -414 -288 -532 -598 -532c-140 0 -257 27 -345 57c-106 32 -137 100 -105 173c19 44 55 59 100 59c31 0 67 -7 104 -17
c59 -19 138 -37 222 -37c189 0 319 90 319 297v155c-51 -73 -167 -181 -340 -181zM671 821c-181 0 -285 -134 -285 -306s104 -306 285 -306c180 0 284 134 284 306s-104 306 -284 306zM661 1150c-90 3 -130 66 -60 150c13 13 55 61 75 84c46 56 105 74 186 74
c110 0 160 -61 86 -141c-21 -20 -67 -67 -87 -88c-56 -53 -118 -81 -200 -79z" />
    <glyph glyph-name="hcircumflex" unicode="&#x125;" 
d="M272 0c-99 0 -152 57 -152 164v1187c0 107 53 165 152 165c98 0 151 -58 151 -165v-455c33 63 126 160 287 160c304 0 459 -189 459 -485v-407c0 -107 -53 -164 -151 -164c-99 0 -152 57 -152 164v407c0 153 -64 250 -222 250c-156 0 -221 -97 -221 -250v-407
c0 -107 -53 -164 -151 -164zM374 1570c-67 14 -72 68 -11 128l85 93c61 59 118 83 196 83c80 0 137 -24 197 -83l86 -93c60 -60 56 -114 -12 -128c-14 -3 -27 -4 -39 -4c-61 0 -113 31 -167 72l-65 63l-64 -63c-54 -41 -105 -72 -166 -72c-13 0 -26 1 -40 4z" />
    <glyph glyph-name="hbar" unicode="&#x127;" horiz-adv-x="1431" 
d="M60 1225c0 68 44 105 125 105h77v21c0 107 53 165 152 165c98 0 151 -58 151 -165v-21h137c80 0 124 -37 124 -105s-44 -106 -124 -106h-137v-223c33 63 126 160 286 160c304 0 459 -189 459 -485v-407c0 -107 -53 -164 -151 -164c-99 0 -152 57 -152 164v407
c0 153 -64 250 -221 250s-221 -97 -221 -250v-407c0 -107 -53 -164 -151 -164c-99 0 -152 57 -152 164v955h-77c-81 0 -125 38 -125 106z" />
    <glyph glyph-name="uni021F" unicode="&#x21f;" 
d="M272 0c-99 0 -152 57 -152 164v1187c0 107 53 165 152 165c98 0 151 -58 151 -165v-455c33 63 126 160 287 160c304 0 459 -189 459 -485v-407c0 -107 -53 -164 -151 -164c-99 0 -152 57 -152 164v407c0 153 -64 250 -222 250c-156 0 -221 -97 -221 -250v-407
c0 -107 -53 -164 -151 -164zM363 1746c-61 60 -56 113 11 128c13 3 25 4 38 4c61 0 114 -32 168 -73l64 -62l65 62c54 41 107 73 168 73c13 0 25 -1 38 -4c68 -15 72 -68 11 -128l-85 -93c-61 -59 -118 -83 -197 -83s-136 24 -196 83z" />
    <glyph glyph-name="dotlessi" unicode="&#x131;" horiz-adv-x="543" 
d="M120 165v700c0 107 53 165 152 165c98 0 151 -58 151 -165v-700c0 -107 -53 -165 -151 -165c-99 0 -152 58 -152 165z" />
    <glyph glyph-name="igrave" unicode="&#xec;" horiz-adv-x="543" 
d="M120 865c0 107 53 165 152 165c98 0 151 -58 151 -165v-700c0 -107 -53 -165 -151 -165c-99 0 -152 58 -152 165v700zM-7 1351c-74 80 -24 141 85 141c81 0 140 -18 187 -74l74 -84c70 -84 30 -147 -60 -150c-82 -2 -144 26 -199 79z" />
    <glyph glyph-name="iacute" unicode="&#xed;" horiz-adv-x="543" 
d="M120 865c0 107 53 165 152 165c98 0 151 -58 151 -165v-700c0 -107 -53 -165 -151 -165c-99 0 -152 58 -152 165v700zM263 1184c-90 3 -129 66 -59 150l74 84c46 56 105 74 186 74c110 0 160 -61 85 -141l-86 -88c-56 -53 -118 -81 -200 -79z" />
    <glyph glyph-name="icircumflex" unicode="&#xee;" horiz-adv-x="543" 
d="M120 165v700c0 107 53 165 152 165c98 0 151 -58 151 -165v-700c0 -107 -53 -165 -151 -165c-99 0 -152 58 -152 165zM1 1184c-67 14 -72 68 -11 128l85 93c60 59 117 83 196 83s136 -24 196 -83l86 -93c60 -60 56 -114 -12 -128c-14 -3 -27 -4 -39 -4
c-61 0 -113 31 -167 72l-64 63l-64 -63c-54 -41 -106 -72 -167 -72c-12 0 -25 1 -39 4z" />
    <glyph glyph-name="idieresis" unicode="&#xef;" horiz-adv-x="543" 
d="M120 165v700c0 107 54 165 152 165s151 -58 151 -165v-700c0 -107 -52 -165 -151 -165c-98 0 -152 58 -152 165zM334 1342c0 88 72 159 159 159s159 -71 159 -159c0 -87 -72 -158 -159 -158s-159 71 -159 158zM50 1184c-87 0 -159 71 -159 158c0 88 72 159 159 159
s158 -71 158 -159c0 -87 -71 -158 -158 -158z" />
    <glyph glyph-name="itilde" unicode="&#x129;" horiz-adv-x="543" 
d="M120 165v700c0 107 53 165 152 165c98 0 151 -58 151 -165v-700c0 -107 -53 -165 -151 -165c-99 0 -152 58 -152 165zM-23 1217c-68 6 -113 85 -43 181c38 60 102 116 213 116c81 0 125 -34 159 -66c27 -25 44 -47 80 -47c21 0 37 11 52 24c32 32 60 63 127 56
c68 -6 112 -85 43 -181c-38 -60 -102 -116 -213 -116c-81 0 -125 35 -159 66c-27 25 -44 47 -80 47c-25 0 -41 -14 -59 -29c-30 -31 -58 -57 -120 -51z" />
    <glyph glyph-name="imacron" unicode="&#x12b;" horiz-adv-x="543" 
d="M120 165v700c0 107 53 165 152 165c98 0 151 -58 151 -165v-700c0 -107 -53 -165 -151 -165c-99 0 -152 58 -152 165zM16 1184c-107 0 -164 41 -164 118c0 76 57 117 164 117h516c107 0 159 -41 159 -117s-52 -118 -159 -118h-516z" />
    <glyph glyph-name="ibreve" unicode="&#x12d;" horiz-adv-x="543" 
d="M120 865c0 107 53 165 152 165c98 0 151 -58 151 -165v-700c0 -107 -53 -165 -151 -165c-99 0 -152 58 -152 165v700zM-50 1306c-63 65 -44 141 9 157c11 4 22 6 33 6c22 0 43 -8 62 -23c53 -39 108 -89 217 -89c101 0 158 49 204 82c24 18 50 29 77 29c10 0 21 -2 31 -5
c53 -16 71 -88 14 -152c-68 -85 -199 -127 -326 -127c-129 0 -250 40 -321 122z" />
    <glyph glyph-name="iogonek" unicode="&#x12f;" horiz-adv-x="564" 
d="M61 -211c0 118 89 193 154 222c-56 22 -85 75 -85 154v700c0 107 54 165 153 165c97 0 150 -58 150 -165v-700c0 -82 -31 -135 -89 -156c-35 -39 -70 -92 -70 -145c0 -44 25 -67 55 -80c69 -40 121 -54 121 -129c0 -58 -44 -108 -121 -108c-15 0 -31 2 -49 6
c-135 29 -219 117 -219 236zM123 1321c0 87 72 158 159 158s159 -71 159 -158c0 -88 -72 -159 -159 -159s-159 71 -159 159z" />
    <glyph glyph-name="uni01D0" unicode="&#x1d0;" horiz-adv-x="543" 
d="M120 865c0 107 53 165 152 165c98 0 151 -58 151 -165v-700c0 -107 -53 -165 -151 -165c-99 0 -152 58 -152 165v700zM-11 1360c-60 60 -56 113 12 128c13 3 25 4 38 4c61 0 114 -32 168 -73l64 -62l64 62c54 41 107 73 168 73c13 0 25 -1 38 -4c68 -15 72 -68 11 -128
l-85 -93c-60 -59 -117 -83 -196 -83s-136 24 -196 83z" />
    <glyph glyph-name="uni0209" unicode="&#x209;" horiz-adv-x="543" 
d="M120 865c0 107 53 165 152 165c98 0 151 -58 151 -165v-700c0 -107 -53 -165 -151 -165c-99 0 -152 58 -152 165v700zM218 1348c-74 80 -24 140 86 140c80 0 139 -18 186 -74l74 -84c70 -84 30 -147 -60 -150c-81 -2 -144 26 -199 80zM-195 1348c-75 80 -25 140 85 140
c81 0 140 -18 186 -74l74 -84c70 -84 31 -147 -59 -150c-82 -2 -144 26 -200 80z" />
    <glyph glyph-name="uni020B" unicode="&#x20b;" horiz-adv-x="543" 
d="M120 165v700c0 107 53 165 152 165c98 0 151 -58 151 -165v-700c0 -107 -53 -165 -151 -165c-99 0 -152 58 -152 165zM-41 1163c-53 16 -72 91 -9 157c71 81 192 121 321 121c127 0 258 -42 326 -127c57 -64 39 -136 -14 -151c-11 -4 -21 -5 -32 -5c-26 0 -52 11 -76 28
c-46 33 -103 82 -204 82c-109 0 -164 -50 -217 -88c-19 -15 -40 -23 -62 -23c-11 0 -22 2 -33 6z" />
    <glyph glyph-name="ij" unicode="&#x133;" horiz-adv-x="1126" 
d="M531 -526c-108 12 -177 76 -149 163c25 79 96 73 157 69c17 -1 33 -2 50 0c100 14 103 142 103 267v892c0 107 53 165 151 165s152 -58 152 -165v-892c0 -303 -84 -505 -380 -505c-32 0 -59 3 -84 6zM130 165v700c0 107 53 165 152 165c98 0 151 -58 151 -165v-700
c0 -107 -53 -165 -151 -165c-99 0 -152 58 -152 165zM123 1321c0 87 71 158 158 158s160 -71 160 -158c0 -88 -73 -159 -160 -159s-158 71 -158 159zM685 1321c0 87 71 158 158 158s159 -71 159 -158c0 -88 -72 -159 -159 -159s-158 71 -158 159z" />
    <glyph glyph-name="uni01F0" unicode="&#x1f0;" horiz-adv-x="620" 
d="M-14 -526c-108 11 -177 76 -149 163c25 79 96 73 157 69c17 -1 33 -2 50 0c100 14 103 142 103 267v892c0 107 53 165 152 165c98 0 151 -58 151 -165v-892c0 -303 -84 -505 -380 -505c-32 0 -59 2 -84 6zM21 1306c-61 60 -57 113 11 128c13 3 25 4 38 4
c61 0 114 -32 168 -73l64 -62l64 62c54 41 107 73 168 73c13 0 25 -1 38 -4c68 -15 72 -68 11 -128l-85 -93c-60 -59 -117 -83 -196 -83s-136 24 -196 83z" />
    <glyph glyph-name="jcircumflex" unicode="&#x135;" horiz-adv-x="620" 
d="M-14 -526c-108 11 -177 76 -149 163c25 79 96 73 157 69c17 -2 33 -2 50 0c100 14 103 142 103 267v893c0 107 53 164 152 164c98 0 151 -57 151 -164v-893c0 -303 -84 -505 -380 -505c-32 0 -59 2 -84 6zM32 1130c-67 15 -72 69 -11 129l85 93c61 59 118 82 197 82
s135 -23 196 -82l85 -93c61 -60 56 -114 -11 -129c-13 -3 -25 -4 -38 -4c-61 0 -114 32 -168 73l-64 63l-65 -63c-54 -41 -106 -73 -168 -73c-12 0 -25 1 -38 4z" />
    <glyph glyph-name="uni01E9" unicode="&#x1e9;" horiz-adv-x="1167" 
d="M120 1351c0 107 53 165 152 165c98 0 151 -58 151 -165v-675l409 319c33 25 69 37 103 37c37 0 71 -14 94 -43c46 -56 38 -140 -42 -201l-249 -194l280 -351c71 -87 64 -177 1 -221c-24 -16 -50 -25 -77 -25c-47 0 -95 25 -134 73l-286 361l-99 -78v-188
c0 -107 -53 -165 -151 -165c-99 0 -152 58 -152 165v1186zM300 1734c-61 60 -56 113 11 128c13 3 25 4 38 4c61 0 114 -32 168 -73l64 -62l65 62c54 41 107 73 168 73c13 0 25 -1 38 -4c67 -15 72 -68 11 -128l-85 -93c-61 -59 -118 -83 -197 -83c-78 0 -135 24 -196 83z
" />
    <glyph glyph-name="uni0137" unicode="&#x137;" horiz-adv-x="1167" 
d="M120 165v1186c0 107 53 165 152 165c98 0 151 -58 151 -165v-675l409 319c33 25 69 37 103 37c37 0 71 -14 94 -43c46 -56 38 -140 -42 -201l-249 -194l280 -351c71 -87 64 -177 1 -221c-24 -16 -50 -25 -77 -25c-47 0 -95 25 -134 73l-286 361l-99 -78v-188
c0 -107 -53 -165 -151 -165c-99 0 -152 58 -152 165zM442 -510c-87 6 -113 65 -84 145l60 156c28 78 85 111 175 111h5c98 0 142 -58 105 -134l-83 -169c-28 -59 -76 -114 -178 -109z" />
    <glyph glyph-name="kgreenlandic" unicode="&#x138;" horiz-adv-x="1167" 
d="M120 165v700c0 107 53 165 152 165c98 0 151 -58 151 -165v-189l409 319c33 25 69 37 103 37c37 0 71 -14 94 -43c46 -56 38 -140 -42 -201l-249 -194l280 -351c71 -87 64 -177 1 -221c-24 -16 -50 -25 -77 -25c-47 0 -95 25 -134 73l-286 361l-99 -78v-188
c0 -107 -53 -165 -151 -165c-99 0 -152 58 -152 165z" />
    <glyph glyph-name="lcaron" unicode="&#x13e;" horiz-adv-x="770" 
d="M120 1351c0 107 53 165 152 165c98 0 151 -58 151 -165v-1038c0 -53 4 -78 44 -78c52 0 91 -29 91 -105s-67 -130 -174 -130c-228 0 -264 168 -264 329v1022zM583 1064c-73 4 -113 47 -96 127l46 212c14 70 62 113 151 113c91 0 130 -49 107 -130l-66 -228
c-20 -63 -71 -97 -142 -94z" />
    <glyph glyph-name="ldot" unicode="&#x140;" horiz-adv-x="819" 
d="M120 328v1023c0 107 53 165 152 165c98 0 151 -58 151 -165v-1038c0 -54 4 -79 44 -79c52 0 92 -29 92 -105s-68 -129 -175 -129c-228 0 -264 167 -264 328zM679 638c-87 0 -158 71 -158 158s71 159 158 159c88 0 159 -72 159 -159s-71 -158 -159 -158z" />
    <glyph glyph-name="lslash" unicode="&#x142;" horiz-adv-x="859" 
d="M66 585c-10 91 19 149 151 227l51 33v506c0 107 53 165 152 165c98 0 151 -58 151 -165v-314l44 27c37 22 71 33 99 33c43 0 72 -27 78 -79c10 -91 -19 -149 -152 -227l-69 -44v-434c0 -53 4 -78 44 -78c52 0 91 -29 91 -105s-67 -130 -174 -130
c-228 0 -264 168 -264 329v225l-24 -15c-38 -22 -72 -33 -100 -33c-44 0 -73 27 -78 79z" />
    <glyph glyph-name="lacute" unicode="&#x13a;" horiz-adv-x="639" 
d="M384 0c-228 0 -264 168 -264 329v1022c0 107 53 165 152 165c98 0 151 -58 151 -165v-1038c0 -53 4 -78 44 -78c52 0 91 -29 91 -105s-67 -130 -174 -130zM264 1582c-90 3 -130 66 -60 150l74 84c47 56 106 74 187 74c109 0 159 -61 85 -141l-87 -88
c-55 -53 -117 -81 -199 -79z" />
    <glyph glyph-name="uni013C" unicode="&#x13c;" horiz-adv-x="639" 
d="M120 1351c0 107 53 165 152 165c98 0 151 -58 151 -165v-1038c0 -53 4 -78 44 -78c52 0 91 -29 91 -105s-67 -130 -174 -130c-228 0 -264 168 -264 329v1022zM183 -508c-87 6 -113 65 -84 145l61 156c28 78 84 111 174 111h6c97 0 142 -58 105 -134l-83 -169
c-28 -59 -77 -114 -179 -109z" />
    <glyph glyph-name="nacute" unicode="&#x144;" 
d="M272 0c-99 0 -152 57 -152 164v701c0 107 53 165 152 165c66 0 110 -28 130 -80c5 -22 10 -40 13 -64c37 73 135 170 295 170c304 0 459 -189 459 -485v-407c0 -107 -53 -164 -151 -164c-99 0 -152 57 -152 164v407c0 153 -64 250 -222 250c-156 0 -221 -97 -221 -250
v-407c0 -107 -53 -164 -151 -164zM637 1150c-90 3 -130 66 -60 150c12 13 55 61 74 84c47 56 106 74 186 74c110 0 160 -61 86 -141c-21 -20 -66 -67 -87 -88c-55 -53 -118 -81 -199 -79z" />
    <glyph glyph-name="ntilde" unicode="&#xf1;" 
d="M272 0c-99 0 -152 57 -152 164v701c0 107 53 165 152 165c66 0 110 -28 130 -80c5 -22 10 -40 13 -64c37 73 135 170 295 170c304 0 459 -189 459 -485v-407c0 -107 -53 -164 -151 -164c-99 0 -152 57 -152 164v407c0 153 -64 250 -222 250c-156 0 -221 -97 -221 -250
v-407c0 -107 -53 -164 -151 -164zM350 1183c-68 6 -112 85 -42 181c38 60 101 116 212 116c81 0 125 -34 159 -66c27 -25 44 -47 81 -47c21 0 37 11 52 24c32 32 60 63 127 56c68 -6 113 -85 43 -181c-38 -60 -102 -116 -213 -116c-82 0 -126 35 -160 66
c-27 25 -44 47 -80 47c-24 0 -41 -14 -59 -29c-30 -31 -58 -57 -120 -51z" />
    <glyph glyph-name="uni0146" unicode="&#x146;" 
d="M120 865c0 107 53 165 152 165c66 0 110 -28 130 -80c5 -22 10 -40 13 -64c37 73 135 170 295 170c304 0 459 -189 459 -485v-407c0 -107 -53 -164 -151 -164c-99 0 -152 57 -152 164v407c0 153 -64 250 -222 250c-156 0 -221 -97 -221 -250v-407
c0 -107 -53 -164 -151 -164c-99 0 -152 57 -152 164v701zM493 -508c-87 5 -114 64 -84 144l60 157c28 77 84 111 174 111h6c98 0 142 -58 105 -135l-83 -169c-28 -58 -77 -114 -178 -108z" />
    <glyph glyph-name="ncaron" unicode="&#x148;" 
d="M120 164v701c0 107 53 165 152 165c66 0 110 -28 130 -80c5 -22 10 -40 13 -64c37 73 135 170 295 170c304 0 459 -189 459 -485v-407c0 -107 -53 -164 -151 -164c-99 0 -152 57 -152 164v407c0 153 -64 250 -222 250c-156 0 -221 -97 -221 -250v-407
c0 -107 -53 -164 -151 -164c-99 0 -152 57 -152 164zM363 1326c-61 60 -56 113 11 128c13 3 25 4 38 4c61 0 114 -32 168 -73l64 -62l65 62c54 41 107 73 168 73c13 0 25 -1 38 -4c68 -15 72 -68 11 -128l-85 -93c-61 -59 -118 -83 -197 -83s-136 24 -196 83z" />
    <glyph glyph-name="napostrophe" unicode="&#x149;" horiz-adv-x="1431" 
d="M414 0c-99 0 -152 57 -152 164v701c0 107 53 165 152 165c66 0 110 -28 130 -80c6 -22 10 -40 13 -64c37 73 134 170 294 170c305 0 459 -189 459 -485v-407c0 -107 -52 -164 -151 -164s-152 57 -152 164v407c0 153 -64 250 -221 250c-156 0 -221 -97 -221 -250v-407
c0 -107 -53 -164 -151 -164zM130 1005c-69 3 -112 42 -78 135l70 188c27 73 88 106 171 106c86 0 133 -46 92 -139l-86 -189c-31 -70 -91 -104 -169 -101z" />
    <glyph glyph-name="uni01F9" unicode="&#x1f9;" 
d="M272 0c-99 0 -152 57 -152 164v701c0 107 53 165 152 165c66 0 110 -28 130 -80c5 -22 10 -40 13 -64c37 73 135 170 295 170c304 0 459 -189 459 -485v-407c0 -107 -53 -164 -151 -164c-99 0 -152 57 -152 164v407c0 153 -64 250 -222 250c-156 0 -221 -97 -221 -250
v-407c0 -107 -53 -164 -151 -164zM366 1317c-74 80 -24 141 86 141c81 0 140 -18 186 -74c20 -23 62 -71 74 -84c70 -84 31 -147 -60 -150c-81 -2 -144 26 -199 79c-20 21 -66 68 -87 88z" />
    <glyph glyph-name="eng" unicode="&#x14b;" 
d="M120 865c0 107 53 165 152 165c66 0 110 -28 130 -80c5 -22 10 -40 13 -64c36 69 137 170 295 170c304 0 459 -189 459 -485v-598c0 -303 -84 -505 -380 -505c-32 0 -60 2 -84 6c-108 14 -177 76 -150 163c25 79 97 73 158 69c16 -2 33 -2 49 0c101 14 104 142 104 267
v598c0 154 -64 250 -222 250c-156 0 -221 -96 -221 -250v-406c0 -107 -53 -165 -151 -165c-99 0 -152 58 -152 165v700z" />
    <glyph glyph-name="omacron" unicode="&#x14d;" horiz-adv-x="1359" 
d="M80 515c0 331 245 541 600 541c354 0 599 -210 599 -541s-245 -541 -599 -541c-355 0 -600 210 -600 541zM386 515c0 -180 105 -306 294 -306c182 0 293 126 293 306s-111 306 -293 306c-189 0 -294 -126 -294 -306zM260 1268c0 76 58 117 165 117h515
c107 0 159 -41 159 -117s-52 -118 -159 -118h-515c-107 0 -165 41 -165 118z" />
    <glyph glyph-name="obreve" unicode="&#x14f;" horiz-adv-x="1359" 
d="M80 515c0 331 245 541 600 541c354 0 599 -210 599 -541s-245 -541 -599 -541c-355 0 -600 210 -600 541zM386 515c0 -180 105 -306 294 -306c182 0 293 126 293 306s-111 306 -293 306c-189 0 -294 -126 -294 -306zM358 1272c-63 65 -44 141 10 157c11 4 22 6 33 6
c22 0 43 -8 62 -23c53 -39 107 -89 217 -89c101 0 158 49 204 82c24 18 49 29 76 29c10 0 21 -2 31 -5c53 -16 71 -88 14 -152c-68 -85 -198 -127 -325 -127c-129 0 -250 40 -322 122z" />
    <glyph glyph-name="ohungarumlaut" unicode="&#x151;" horiz-adv-x="1359" 
d="M80 515c0 331 245 541 600 541c354 0 599 -210 599 -541s-245 -541 -599 -541c-355 0 -600 210 -600 541zM386 515c0 -180 105 -306 294 -306c182 0 293 126 293 306s-111 306 -293 306c-189 0 -294 -126 -294 -306zM495 1150c-70 2 -100 51 -78 133l34 97
c24 78 81 114 165 114c86 0 126 -52 87 -135l-47 -101c-35 -75 -89 -110 -161 -108zM836 1150c-70 2 -99 51 -78 133l34 97c25 78 81 114 165 114c86 0 126 -52 86 -135l-46 -101c-35 -75 -89 -110 -161 -108z" />
    <glyph glyph-name="ohorn" unicode="&#x1a1;" horiz-adv-x="1359" 
d="M80 515c0 331 245 541 600 541c153 0 286 -39 388 -111c61 34 86 82 86 148c0 76 56 123 132 123c73 0 129 -43 129 -123c0 -133 -66 -248 -203 -307c43 -77 67 -168 67 -271c0 -331 -244 -541 -599 -541s-600 210 -600 541zM386 515c0 -180 105 -306 294 -306
c182 0 293 126 293 306s-111 306 -293 306c-189 0 -294 -126 -294 -306z" />
    <glyph glyph-name="uni01D2" unicode="&#x1d2;" horiz-adv-x="1359" 
d="M80 515c0 331 245 541 600 541c354 0 599 -210 599 -541s-245 -541 -599 -541c-355 0 -600 210 -600 541zM386 515c0 -180 105 -306 294 -306c182 0 293 126 293 306s-111 306 -293 306c-189 0 -294 -126 -294 -306zM398 1326c-61 60 -56 113 11 128c13 3 25 4 38 4
c61 0 114 -32 168 -73l65 -62l64 62c54 41 107 73 168 73c13 0 25 -1 38 -4c67 -15 72 -68 11 -128l-85 -93c-61 -59 -117 -83 -196 -83s-136 24 -197 83z" />
    <glyph glyph-name="uni01EB" unicode="&#x1eb;" horiz-adv-x="1359" 
d="M80 515c0 331 245 541 599 541c355 0 600 -210 600 -541c0 -271 -163 -460 -416 -520c-35 -40 -70 -92 -70 -145c0 -44 25 -67 56 -81c69 -39 120 -53 120 -128c0 -58 -43 -109 -120 -109c-16 0 -32 2 -50 6c-134 30 -219 117 -219 236c0 95 57 162 113 200h-14
c-354 0 -599 210 -599 541zM679 821c-188 0 -293 -126 -293 -306s105 -306 293 -306c183 0 294 126 294 306s-111 306 -294 306z" />
    <glyph glyph-name="ograve" unicode="&#xf2;" horiz-adv-x="1359" 
d="M80 515c0 331 245 541 600 541c354 0 599 -210 599 -541s-245 -541 -599 -541c-355 0 -600 210 -600 541zM680 821c-189 0 -294 -126 -294 -306s105 -306 294 -306c182 0 293 126 293 306s-111 306 -293 306zM401 1317c-74 80 -24 141 86 141c81 0 140 -18 186 -74
l74 -84c71 -84 31 -147 -59 -150c-82 -2 -144 26 -200 79z" />
    <glyph glyph-name="oacute" unicode="&#xf3;" horiz-adv-x="1359" 
d="M80 515c0 331 245 541 600 541c354 0 599 -210 599 -541s-245 -541 -599 -541c-355 0 -600 210 -600 541zM680 821c-189 0 -294 -126 -294 -306s105 -306 294 -306c182 0 293 126 293 306s-111 306 -293 306zM672 1150c-91 3 -130 66 -60 150l74 84c47 56 106 74 187 74
c109 0 159 -61 85 -141l-87 -88c-55 -53 -117 -81 -199 -79z" />
    <glyph glyph-name="ocircumflex" unicode="&#xf4;" horiz-adv-x="1359" 
d="M80 515c0 331 245 541 600 541c354 0 599 -210 599 -541s-245 -541 -599 -541c-355 0 -600 210 -600 541zM386 515c0 -180 105 -306 294 -306c182 0 293 126 293 306s-111 306 -293 306c-189 0 -294 -126 -294 -306zM409 1150c-67 14 -72 68 -11 128l85 93
c61 59 118 83 197 83s136 -24 196 -83l85 -93c61 -60 56 -114 -11 -128c-14 -3 -27 -4 -39 -4c-61 0 -113 31 -167 72l-64 63l-65 -63c-54 -41 -105 -72 -166 -72c-13 0 -26 1 -40 4z" />
    <glyph glyph-name="otilde" unicode="&#xf5;" horiz-adv-x="1359" 
d="M80 515c0 331 245 541 600 541c354 0 599 -210 599 -541s-245 -541 -599 -541c-355 0 -600 210 -600 541zM386 515c0 -180 105 -306 294 -306c182 0 293 126 293 306s-111 306 -293 306c-189 0 -294 -126 -294 -306zM385 1183c-68 6 -112 85 -43 181
c38 60 102 116 213 116c82 0 126 -34 160 -66c26 -25 43 -47 80 -47c21 0 37 11 52 24c32 32 59 63 126 56c68 -6 113 -85 43 -181c-38 -60 -101 -116 -212 -116c-82 0 -126 35 -160 66c-26 25 -44 47 -80 47c-24 0 -40 -14 -58 -29c-31 -31 -59 -57 -121 -51z" />
    <glyph glyph-name="odieresis" unicode="&#xf6;" horiz-adv-x="1359" 
d="M80 515c0 331 244 541 600 541c355 0 599 -210 599 -541s-244 -541 -599 -541c-356 0 -600 210 -600 541zM680 821c-189 0 -294 -126 -294 -306s105 -306 294 -306c182 0 293 126 293 306s-111 306 -293 306zM299 1308c0 88 72 159 159 159s159 -71 159 -159
c0 -87 -72 -158 -159 -158s-159 71 -159 158zM901 1150c-87 0 -159 71 -159 158c0 88 72 159 159 159s158 -71 158 -159c0 -87 -71 -158 -158 -158z" />
    <glyph glyph-name="uni01ED" unicode="&#x1ed;" horiz-adv-x="1359" 
d="M80 515c0 331 245 541 599 541c355 0 600 -210 600 -541c0 -271 -163 -460 -416 -520c-35 -40 -70 -92 -70 -145c0 -44 25 -67 56 -81c69 -39 120 -53 120 -128c0 -58 -43 -109 -120 -109c-16 0 -32 2 -50 6c-134 30 -219 117 -219 236c0 95 57 162 113 200h-14
c-354 0 -599 210 -599 541zM679 821c-188 0 -293 -126 -293 -306s105 -306 293 -306c183 0 294 126 294 306s-111 306 -294 306zM425 1150c-107 0 -165 41 -165 118c0 76 58 117 165 117h516c106 0 158 -41 158 -117s-52 -118 -158 -118h-516z" />
    <glyph glyph-name="uni020D" unicode="&#x20d;" horiz-adv-x="1359" 
d="M80 515c0 331 245 541 600 541c354 0 599 -210 599 -541s-245 -541 -599 -541c-355 0 -600 210 -600 541zM680 821c-189 0 -294 -126 -294 -306s105 -306 294 -306c182 0 293 126 293 306s-111 306 -293 306zM626 1314c-74 80 -24 140 86 140c81 0 140 -18 187 -74
l74 -84c70 -84 30 -147 -60 -150c-82 -2 -144 26 -199 80zM213 1314c-74 80 -24 140 85 140c81 0 140 -18 187 -74l74 -84c70 -84 31 -147 -60 -150c-81 -2 -144 26 -199 80z" />
    <glyph glyph-name="uni020F" unicode="&#x20f;" horiz-adv-x="1359" 
d="M80 515c0 331 245 541 600 541c354 0 599 -210 599 -541s-245 -541 -599 -541c-355 0 -600 210 -600 541zM386 515c0 -180 105 -306 294 -306c182 0 293 126 293 306s-111 306 -293 306c-189 0 -294 -126 -294 -306zM368 1129c-54 16 -73 91 -10 157
c72 81 193 121 322 121c127 0 257 -42 325 -127c57 -64 39 -136 -14 -151c-11 -4 -21 -5 -31 -5c-27 0 -52 11 -76 28c-46 33 -103 82 -204 82c-110 0 -164 -50 -217 -88c-19 -15 -40 -23 -62 -23c-11 0 -22 2 -33 6z" />
    <glyph glyph-name="uni022B" unicode="&#x22b;" horiz-adv-x="1359" 
d="M80 515c0 331 245 541 600 541s599 -210 599 -541s-244 -541 -599 -541s-600 210 -600 541zM680 821c-189 0 -294 -126 -294 -306s105 -306 294 -306c182 0 293 126 293 306s-111 306 -293 306zM425 1486c-107 0 -165 41 -165 118c0 76 58 117 165 117h515
c108 0 159 -41 159 -117s-51 -118 -159 -118h-515zM459 1120c-87 0 -159 71 -159 159c0 87 72 158 159 158s159 -71 159 -158c0 -88 -72 -159 -159 -159zM742 1279c0 87 72 158 159 158s159 -71 159 -158c0 -88 -72 -159 -159 -159s-159 71 -159 159z" />
    <glyph glyph-name="uni022D" unicode="&#x22d;" horiz-adv-x="1359" 
d="M80 515c0 331 245 541 600 541c354 0 599 -210 599 -541s-245 -541 -599 -541c-355 0 -600 210 -600 541zM386 515c0 -180 105 -306 294 -306c182 0 293 126 293 306s-111 306 -293 306c-189 0 -294 -126 -294 -306zM261 1614c0 76 57 117 164 117h516
c107 0 159 -41 159 -117s-52 -118 -159 -118h-516c-107 0 -164 41 -164 118zM385 1151c-68 7 -112 85 -42 181c38 60 101 116 212 116c81 0 125 -35 159 -66c27 -25 44 -47 80 -47c22 0 37 11 52 24c33 32 60 63 127 56c68 -7 113 -85 43 -181c-38 -60 -101 -116 -213 -116
c-81 0 -125 35 -159 67c-27 24 -44 46 -80 46c-24 0 -40 -14 -58 -29c-31 -31 -59 -56 -121 -51z" />
    <glyph glyph-name="uni022F" unicode="&#x22f;" horiz-adv-x="1359" 
d="M80 515c0 331 245 541 600 541c354 0 599 -210 599 -541s-245 -541 -599 -541c-355 0 -600 210 -600 541zM386 515c0 -180 105 -306 294 -306c183 0 293 126 293 306s-110 306 -293 306c-189 0 -294 -126 -294 -306zM680 1150c-88 0 -159 71 -159 159
c0 87 71 158 159 158c87 0 159 -71 159 -158c0 -88 -72 -159 -159 -159z" />
    <glyph glyph-name="uni0231" unicode="&#x231;" horiz-adv-x="1359" 
d="M80 515c0 331 245 541 600 541c354 0 599 -210 599 -541s-245 -541 -599 -541c-355 0 -600 210 -600 541zM680 821c-189 0 -294 -126 -294 -306s105 -306 294 -306c183 0 293 126 293 306s-110 306 -293 306zM425 1486c-107 0 -165 41 -165 118c0 76 58 117 165 117h515
c107 0 159 -41 159 -117s-52 -118 -159 -118h-515zM521 1279c0 87 71 158 159 158c87 0 159 -71 159 -158c0 -88 -72 -159 -159 -159c-88 0 -159 71 -159 159z" />
    <glyph glyph-name="oslash" unicode="&#xf8;" horiz-adv-x="1359" 
d="M80 515c0 331 245 541 600 541c61 0 119 -6 174 -19l9 19c14 30 38 48 68 48c9 0 19 -2 30 -6c40 -14 54 -55 35 -93l-7 -14c180 -87 290 -254 290 -476c0 -331 -245 -541 -599 -541c-61 0 -118 6 -170 18l-11 -23c-15 -30 -39 -47 -69 -47c-10 0 -20 1 -30 5
c-40 14 -54 56 -35 95l8 16c-182 86 -293 254 -293 477zM680 821c-189 0 -294 -126 -294 -306c0 -103 34 -189 99 -243l261 542c-21 4 -43 7 -66 7zM617 215c19 -4 40 -6 63 -6c182 0 293 126 293 306c0 101 -34 184 -97 239z" />
    <glyph glyph-name="oslashacute" unicode="&#x1ff;" horiz-adv-x="1359" 
d="M80 515c0 331 245 541 600 541c61 0 119 -6 174 -19l9 19c14 30 38 48 68 48c9 0 19 -2 30 -6c40 -14 54 -55 35 -93l-7 -14c180 -87 290 -254 290 -476c0 -331 -245 -541 -599 -541c-61 0 -118 6 -170 18l-11 -23c-15 -30 -39 -47 -69 -47c-10 0 -20 1 -30 5
c-40 14 -54 56 -35 95l8 16c-182 86 -293 254 -293 477zM680 821c-189 0 -294 -126 -294 -306c0 -103 34 -189 99 -243l261 542c-21 4 -43 7 -66 7zM617 215c19 -4 40 -6 63 -6c182 0 293 126 293 306c0 101 -34 184 -97 239zM672 1181c-91 2 -130 66 -60 149l74 84
c47 56 106 75 187 75c109 0 159 -61 85 -141l-87 -88c-55 -54 -117 -81 -199 -79z" />
    <glyph glyph-name="oe" unicode="&#x153;" horiz-adv-x="2126" 
d="M680 -26c-367 0 -600 210 -600 541s233 541 600 541c187 0 340 -61 442 -163c89 101 224 163 399 163c294 0 514 -182 525 -485c1 -111 -52 -171 -160 -171h-605c3 -101 91 -197 269 -197c95 0 181 23 230 43c32 9 60 15 85 15c39 0 68 -14 88 -51
c37 -68 6 -134 -86 -171c-90 -39 -202 -65 -346 -65c-179 0 -313 61 -401 160c-101 -101 -253 -160 -440 -160zM386 515c0 -185 111 -306 294 -306c182 0 293 121 293 306c0 184 -111 306 -293 306c-183 0 -294 -122 -294 -306zM1521 827c-155 0 -233 -107 -240 -222h480
c-7 116 -85 222 -240 222z" />
    <glyph glyph-name="racute" unicode="&#x155;" horiz-adv-x="969" 
d="M272 0c-98 0 -152 57 -152 164v701c0 107 54 165 152 165c67 0 112 -28 132 -82c5 -16 7 -46 9 -54c32 65 126 162 285 162c34 0 63 -4 87 -8c114 -12 145 -99 106 -168c-31 -56 -73 -68 -123 -68c-26 0 -55 3 -85 5c-11 2 -24 4 -38 4c-157 0 -221 -103 -221 -256v-401
c0 -107 -53 -164 -152 -164zM512 1150c-91 3 -130 66 -60 150c12 13 54 61 74 84c47 56 106 74 187 74c109 0 159 -61 85 -141c-20 -20 -66 -67 -87 -88c-55 -53 -118 -81 -199 -79z" />
    <glyph glyph-name="uni0157" unicode="&#x157;" horiz-adv-x="969" 
d="M272 0c-98 0 -152 57 -152 164v701c0 107 54 165 152 165c67 0 112 -28 132 -82c5 -16 7 -46 9 -54c32 65 126 162 285 162c34 0 63 -4 87 -8c114 -12 145 -99 106 -168c-31 -56 -73 -68 -123 -68c-26 0 -55 3 -85 5c-11 2 -24 4 -38 4c-157 0 -221 -103 -221 -256v-401
c0 -107 -53 -164 -152 -164zM118 -508c-87 5 -113 64 -84 144l61 157c28 77 84 111 174 111h6c98 0 142 -58 105 -135l-83 -169c-28 -58 -77 -114 -179 -108z" />
    <glyph glyph-name="rcaron" unicode="&#x159;" horiz-adv-x="969" 
d="M120 865c0 107 54 165 152 165c67 0 112 -28 132 -82c5 -16 7 -46 9 -54c32 65 126 162 285 162c34 0 63 -4 87 -8c114 -12 145 -99 106 -168c-31 -56 -73 -68 -123 -68c-26 0 -55 3 -85 5c-11 2 -24 4 -38 4c-157 0 -221 -103 -221 -256v-401c0 -107 -53 -164 -152 -164
c-98 0 -152 57 -152 164v701zM238 1326c-61 60 -57 113 11 128c13 3 25 4 38 4c61 0 114 -32 168 -73l65 -62l64 62c54 41 107 73 168 73c13 0 25 -1 38 -4c67 -15 72 -68 11 -128l-85 -93c-60 -59 -117 -83 -196 -83c-80 0 -137 24 -197 83z" />
    <glyph glyph-name="uni0211" unicode="&#x211;" horiz-adv-x="969" 
d="M272 0c-98 0 -152 57 -152 164v701c0 107 54 165 152 165c67 0 112 -28 132 -82c5 -16 7 -46 9 -54c32 65 126 162 285 162c34 0 63 -4 87 -8c114 -12 145 -99 106 -168c-31 -56 -73 -68 -123 -68c-26 0 -55 3 -85 5c-11 2 -24 4 -38 4c-157 0 -221 -103 -221 -256v-401
c0 -107 -53 -164 -152 -164zM466 1314c-74 80 -24 140 86 140c81 0 140 -18 187 -74c19 -22 62 -70 74 -84c70 -84 30 -147 -60 -150c-82 -2 -144 26 -200 80c-20 21 -66 67 -87 88zM53 1314c-75 80 -25 140 85 140c81 0 140 -18 187 -74c20 -22 62 -70 74 -84
c70 -84 31 -147 -60 -150c-81 -2 -144 26 -199 80c-21 21 -67 67 -87 88z" />
    <glyph glyph-name="uni0213" unicode="&#x213;" horiz-adv-x="969" 
d="M120 865c0 107 54 165 152 165c67 0 112 -28 132 -82c5 -16 7 -46 9 -54c32 65 126 162 285 162c34 0 63 -4 87 -8c114 -12 145 -99 106 -168c-31 -56 -73 -68 -123 -68c-26 0 -55 3 -85 5c-11 2 -24 4 -38 4c-157 0 -221 -103 -221 -256v-401c0 -107 -53 -164 -152 -164
c-98 0 -152 57 -152 164v701zM207 1129c-53 16 -72 91 -9 157c72 81 193 121 322 121c127 0 258 -42 325 -127c58 -64 40 -136 -14 -151c-11 -4 -21 -5 -31 -5c-27 0 -52 11 -76 28c-46 33 -103 82 -204 82c-110 0 -165 -50 -217 -88c-19 -15 -40 -23 -62 -23
c-11 0 -23 2 -34 6z" />
    <glyph glyph-name="uni024D" unicode="&#x24d;" horiz-adv-x="1058" 
d="M134 377c-74 0 -114 31 -114 89s40 89 114 89h75v310c0 107 54 165 152 165c67 0 112 -28 132 -82c5 -16 7 -46 9 -54c32 65 126 162 285 162c34 0 63 -4 87 -8c114 -12 145 -99 106 -168c-31 -56 -73 -68 -123 -68c-26 0 -55 3 -85 5c-11 2 -24 4 -38 4
c-157 0 -221 -102 -221 -256v-10h91c74 0 115 -31 115 -89s-41 -89 -115 -89h-91v-212c0 -107 -53 -165 -152 -165c-98 0 -152 58 -152 165v212h-75z" />
    <glyph glyph-name="sacute" unicode="&#x15b;" horiz-adv-x="1077" 
d="M188 24c-105 33 -133 110 -97 174c24 43 58 59 103 59c24 0 52 -5 83 -12c59 -16 148 -36 233 -36c126 0 186 38 186 100c0 63 -65 87 -194 111c-288 54 -421 144 -421 327c0 182 150 309 430 309c145 0 238 -18 317 -39c109 -27 141 -101 108 -166
c-25 -49 -65 -68 -115 -68c-20 0 -41 3 -63 8c-52 13 -136 30 -223 30c-105 0 -149 -28 -149 -84c0 -55 71 -80 174 -100c272 -53 441 -127 441 -344c0 -236 -224 -319 -485 -319c-122 0 -243 21 -328 50zM525 1150c-91 3 -130 66 -60 150l74 84c47 56 106 74 187 74
c109 0 159 -61 85 -141l-87 -88c-55 -53 -118 -81 -199 -79z" />
    <glyph glyph-name="scircumflex" unicode="&#x15d;" horiz-adv-x="1077" 
d="M188 24c-105 33 -133 110 -97 174c24 43 58 59 103 59c24 0 52 -5 83 -12c59 -16 148 -36 233 -36c126 0 186 38 186 100c0 63 -65 87 -194 111c-288 54 -421 144 -421 327c0 182 150 309 430 309c145 0 238 -18 317 -39c109 -27 141 -101 108 -166
c-25 -49 -65 -68 -115 -68c-20 0 -41 3 -63 8c-52 13 -136 30 -223 30c-105 0 -149 -28 -149 -84c0 -55 71 -80 174 -100c272 -53 441 -127 441 -344c0 -236 -224 -319 -485 -319c-122 0 -243 21 -328 50zM262 1150c-67 14 -72 68 -11 128l85 93c61 59 118 83 197 83
s135 -24 196 -83l85 -93c61 -60 56 -114 -11 -128c-14 -3 -27 -4 -39 -4c-61 0 -113 31 -167 72l-64 63l-65 -63c-54 -41 -106 -72 -167 -72c-12 0 -25 1 -39 4z" />
    <glyph glyph-name="scedilla" unicode="&#x15f;" horiz-adv-x="1077" 
d="M188 24c-105 33 -133 110 -97 174c24 43 58 59 103 59c24 0 52 -5 83 -12c59 -16 148 -36 233 -36c126 0 186 38 186 100c0 63 -65 87 -194 111c-288 54 -421 144 -421 327c0 182 150 309 430 309c145 0 238 -18 317 -39c109 -27 141 -101 108 -166
c-25 -49 -65 -68 -115 -68c-20 0 -41 3 -63 8c-52 13 -136 30 -223 30c-105 0 -149 -28 -149 -84c0 -55 71 -80 174 -100c272 -53 441 -127 441 -344c0 -206 -170 -295 -386 -315l-25 -77c127 -1 224 -60 211 -187c-15 -147 -136 -202 -278 -202c-25 0 -52 2 -78 5
c-96 10 -136 52 -121 102c11 35 39 44 84 44c17 0 37 -1 59 -3c63 -6 139 -4 147 58c6 45 -36 58 -85 60c-102 11 -151 30 -124 112l29 87c-93 7 -180 25 -246 47z" />
    <glyph glyph-name="scaron" unicode="&#x161;" horiz-adv-x="1077" 
d="M188 24c-105 33 -133 110 -97 174c24 43 58 59 103 59c24 0 52 -5 83 -12c59 -16 148 -36 233 -36c126 0 186 38 186 100c0 63 -65 87 -194 111c-288 54 -421 144 -421 327c0 182 150 309 430 309c145 0 238 -18 317 -39c109 -27 141 -101 108 -166
c-25 -49 -65 -68 -115 -68c-20 0 -41 3 -63 8c-52 13 -136 30 -223 30c-105 0 -149 -28 -149 -84c0 -55 71 -80 174 -100c272 -53 441 -127 441 -344c0 -236 -224 -319 -485 -319c-122 0 -243 21 -328 50zM251 1326c-61 60 -56 113 11 128c13 3 25 4 38 4
c61 0 114 -32 168 -73l64 -62l65 62c54 41 106 73 168 73c12 0 24 -1 37 -4c68 -15 72 -68 12 -128l-85 -93c-61 -59 -118 -83 -197 -83s-136 24 -196 83z" />
    <glyph glyph-name="uni0219" unicode="&#x219;" horiz-adv-x="1077" 
d="M188 24c-105 33 -133 110 -97 174c24 43 58 59 103 59c24 0 52 -5 83 -12c59 -16 148 -36 233 -36c126 0 186 38 186 100c0 63 -65 87 -194 111c-288 54 -421 144 -421 327c0 182 150 309 430 309c145 0 238 -18 317 -39c109 -27 141 -101 108 -166
c-25 -49 -65 -68 -115 -68c-20 0 -41 3 -63 8c-52 13 -136 30 -223 30c-105 0 -149 -28 -149 -84c0 -55 71 -80 174 -100c272 -53 441 -127 441 -344c0 -236 -224 -319 -485 -319c-122 0 -243 21 -328 50zM386 -516c-87 6 -113 65 -84 145l61 156c28 78 84 111 174 111h6
c98 0 142 -58 105 -134l-83 -169c-28 -59 -77 -114 -179 -109z" />
    <glyph glyph-name="uni0163" unicode="&#x163;" horiz-adv-x="929" 
d="M60 913c0 75 47 117 122 117h70v132c0 107 53 164 152 164c98 0 151 -57 151 -164v-132h160c74 0 122 -42 122 -117c0 -76 -47 -118 -122 -118h-160v-348c0 -173 19 -244 138 -244h48c60 -3 100 -24 109 -82c12 -77 -41 -122 -126 -138c-24 -6 -49 -9 -78 -9
c-315 0 -394 161 -394 479v342h-70c-75 0 -122 42 -122 118zM416 -516c-87 6 -113 65 -84 145l61 156c28 78 84 111 174 111h5c98 0 142 -58 105 -134l-82 -169c-28 -59 -77 -114 -179 -109z" />
    <glyph glyph-name="uni021B" unicode="&#x21b;" horiz-adv-x="929" 
d="M60 913c0 75 47 117 122 117h70v132c0 107 53 164 152 164c98 0 151 -57 151 -164v-132h160c74 0 122 -42 122 -117c0 -76 -47 -118 -122 -118h-160v-348c0 -173 19 -244 138 -244h48c60 -3 100 -24 109 -82c12 -77 -41 -122 -126 -138c-24 -6 -49 -9 -78 -9
c-315 0 -394 161 -394 479v342h-70c-75 0 -122 42 -122 118zM416 -516c-87 6 -113 65 -84 145l61 156c28 78 84 111 174 111h5c98 0 142 -58 105 -134l-82 -169c-28 -59 -77 -114 -179 -109z" />
    <glyph glyph-name="tcaron" unicode="&#x165;" horiz-adv-x="1161" 
d="M182 795c-75 0 -122 42 -122 118c0 75 47 117 122 117h70v132c0 107 53 164 152 164c98 0 151 -57 151 -164v-132h160c74 0 122 -42 122 -117c0 -76 -47 -118 -122 -118h-160v-348c0 -173 19 -244 138 -244h48c60 -3 100 -24 109 -82c12 -77 -41 -122 -126 -138
c-24 -6 -49 -9 -78 -9c-315 0 -394 161 -394 479v342h-70zM869 1064c-73 4 -113 47 -96 127l45 212c15 70 63 113 152 113c90 0 130 -49 107 -130l-67 -228c-18 -64 -70 -97 -141 -94z" />
    <glyph glyph-name="tbar" unicode="&#x167;" horiz-adv-x="929" 
d="M174 472c-74 0 -114 37 -114 95s40 95 114 95h78v133h-70c-75 0 -122 42 -122 118c0 75 47 117 122 117h70v132c0 107 53 164 152 164c98 0 151 -57 151 -164v-132h160c74 0 122 -42 122 -117c0 -76 -47 -118 -122 -118h-160v-133h168c74 0 114 -37 114 -95
s-40 -95 -114 -95h-168v-26c0 -172 19 -243 138 -243h48c60 -3 100 -24 109 -82c12 -77 -41 -122 -126 -138c-24 -6 -49 -9 -78 -9c-315 0 -394 161 -394 478v20h-78z" />
    <glyph glyph-name="utilde" unicode="&#x169;" 
d="M579 -26c-304 0 -459 189 -459 485v407c0 107 53 164 151 164c99 0 152 -57 152 -164v-407c0 -153 64 -250 222 -250c156 0 220 97 220 250v407c0 107 53 164 152 164s152 -57 152 -164v-701c0 -107 -53 -165 -152 -165c-101 0 -128 60 -144 145
c-36 -74 -134 -171 -294 -171zM350 1157c-68 7 -112 85 -42 182c38 60 101 116 212 116c81 0 125 -35 159 -67c27 -24 44 -46 81 -46c21 0 37 11 52 24c32 32 59 62 126 56c69 -7 113 -85 43 -182c-38 -60 -101 -116 -212 -116c-82 0 -126 35 -160 67c-27 24 -44 46 -80 46
c-24 0 -41 -14 -59 -29c-30 -30 -58 -56 -120 -51z" />
    <glyph glyph-name="umacron" unicode="&#x16b;" 
d="M579 -26c-304 0 -459 189 -459 485v407c0 107 53 164 151 164c99 0 152 -57 152 -164v-407c0 -153 64 -250 222 -250c156 0 220 97 220 250v407c0 107 53 164 152 164s152 -57 152 -164v-701c0 -107 -53 -165 -152 -165c-101 0 -128 60 -144 145
c-36 -74 -134 -171 -294 -171zM225 1242c0 76 58 117 165 117h516c107 0 158 -41 158 -117s-51 -118 -158 -118h-516c-107 0 -165 41 -165 118z" />
    <glyph glyph-name="ubreve" unicode="&#x16d;" 
d="M579 -26c-304 0 -459 189 -459 485v407c0 107 53 164 151 164c99 0 152 -57 152 -164v-407c0 -153 64 -250 222 -250c156 0 220 97 220 250v407c0 107 53 164 152 164s152 -57 152 -164v-701c0 -107 -53 -165 -152 -165c-101 0 -128 60 -144 145
c-36 -74 -134 -171 -294 -171zM323 1246c-63 65 -44 141 10 157c11 4 22 6 33 6c22 0 43 -8 62 -23c52 -38 107 -88 216 -88c102 0 159 49 205 81c24 18 49 29 76 29c10 0 20 -1 31 -5c54 -15 72 -88 14 -151c-68 -85 -198 -128 -326 -128s-249 40 -321 122z" />
    <glyph glyph-name="uring" unicode="&#x16f;" 
d="M579 -26c-304 0 -459 189 -459 485v407c0 107 53 164 151 164c99 0 152 -57 152 -164v-407c0 -153 65 -250 222 -250s221 97 221 250v407c0 107 52 164 151 164s152 -57 152 -164v-701c0 -107 -53 -165 -152 -165c-59 0 -101 23 -121 67c-9 25 -17 47 -22 78
c-36 -74 -134 -171 -295 -171zM442 1327c0 111 92 203 203 203c110 0 202 -92 202 -203s-92 -203 -202 -203c-111 0 -203 92 -203 203zM645 1394c-38 0 -67 -30 -67 -67s29 -67 67 -67c37 0 66 30 66 67s-29 67 -66 67z" />
    <glyph glyph-name="uhungarumlaut" unicode="&#x171;" 
d="M120 866c0 107 53 164 151 164c99 0 152 -57 152 -164v-407c0 -153 64 -250 222 -250c156 0 220 97 220 250v407c0 107 53 164 152 164s152 -57 152 -164v-701c0 -107 -53 -165 -152 -165c-101 0 -128 60 -144 145c-36 -74 -134 -171 -294 -171c-304 0 -459 189 -459 485
v407zM800 1124c-69 2 -99 51 -77 133l34 98c24 77 81 114 165 114c86 0 126 -53 87 -136l-47 -100c-35 -75 -89 -111 -162 -109zM460 1124c-70 2 -99 51 -78 133l34 98c24 77 81 114 165 114c86 0 125 -53 86 -136l-46 -100c-35 -75 -89 -111 -161 -109z" />
    <glyph glyph-name="uogonek" unicode="&#x173;" 
d="M120 459v407c0 107 53 164 151 164c99 0 152 -57 152 -164v-407c0 -153 64 -250 221 -250s221 97 221 250v407c0 107 53 164 152 164s152 -57 152 -164v-701c0 -80 -30 -133 -87 -154c-33 -39 -66 -90 -66 -141c0 -45 25 -67 55 -81c70 -39 121 -53 121 -128
c0 -58 -44 -109 -121 -109c-15 0 -31 2 -49 6c-134 29 -219 117 -219 236c0 114 82 188 146 219c-52 24 -66 81 -76 132c-36 -74 -134 -171 -294 -171c-304 0 -459 189 -459 485z" />
    <glyph glyph-name="uni01D4" unicode="&#x1d4;" 
d="M120 459v407c0 107 53 164 151 164c99 0 152 -57 152 -164v-407c0 -153 64 -250 222 -250c156 0 220 97 220 250v407c0 107 53 164 152 164s152 -57 152 -164v-701c0 -107 -53 -165 -152 -165c-101 0 -128 60 -144 145c-36 -74 -134 -171 -294 -171
c-304 0 -459 189 -459 485zM363 1300c-61 60 -56 114 11 129c13 3 25 4 38 4c61 0 114 -32 168 -73l64 -63l65 63c54 41 106 73 168 73c12 0 25 -1 38 -4c67 -15 72 -69 11 -129l-85 -93c-61 -59 -118 -83 -197 -83s-136 24 -196 83z" />
    <glyph glyph-name="uni0215" unicode="&#x215;" 
d="M120 866c0 107 53 164 151 164c99 0 152 -57 152 -164v-407c0 -153 64 -250 222 -250c156 0 220 97 220 250v407c0 107 53 164 152 164s152 -57 152 -164v-701c0 -107 -53 -165 -152 -165c-101 0 -128 60 -144 145c-36 -74 -134 -171 -294 -171c-304 0 -459 189 -459 485
v407zM178 1288c-74 80 -24 141 85 141c81 0 140 -19 187 -75c19 -22 62 -70 74 -84c70 -83 30 -146 -60 -149c-82 -2 -144 25 -199 79c-21 21 -66 67 -87 88zM592 1288c-75 80 -25 141 85 141c81 0 140 -19 186 -75c20 -22 62 -70 74 -84c70 -83 31 -146 -59 -149
c-82 -2 -144 25 -199 79c-21 21 -67 67 -87 88z" />
    <glyph glyph-name="uni0217" unicode="&#x217;" 
d="M120 459v407c0 107 53 164 151 164c99 0 152 -57 152 -164v-407c0 -153 64 -250 222 -250c156 0 220 97 220 250v407c0 107 53 164 152 164s152 -57 152 -164v-701c0 -107 -53 -165 -152 -165c-101 0 -128 60 -144 145c-36 -74 -134 -171 -294 -171
c-304 0 -459 189 -459 485zM333 1102c-54 16 -73 92 -10 157c72 82 193 122 321 122s258 -42 326 -127c58 -64 40 -136 -14 -152c-10 -3 -21 -5 -31 -5c-27 0 -52 11 -76 29c-46 33 -103 82 -205 82c-109 0 -164 -50 -216 -89c-19 -15 -40 -23 -62 -23c-11 0 -22 2 -33 6z
" />
    <glyph glyph-name="uhorn" unicode="&#x1b0;" 
d="M120 459v407c0 107 53 164 151 164c99 0 152 -57 152 -164v-407c0 -153 64 -250 222 -250c156 0 220 97 220 250v407c0 107 53 164 152 164s152 -57 152 -164v-117c78 35 111 85 111 159c0 76 56 123 132 123c73 0 129 -43 129 -123c0 -179 -120 -324 -372 -346v-397
c0 -107 -53 -165 -152 -165c-101 0 -128 60 -144 145c-36 -74 -134 -171 -294 -171c-304 0 -459 189 -459 485z" />
    <glyph glyph-name="uni01D8" unicode="&#x1d8;" 
d="M120 459v406c0 107 53 165 152 165c98 0 151 -58 151 -165v-406c0 -153 65 -250 222 -250c156 0 220 97 220 250v406c0 107 53 165 152 165s152 -58 152 -165v-700c0 -107 -53 -165 -152 -165c-59 0 -100 23 -121 67c-10 25 -17 47 -23 78c-36 -74 -134 -171 -293 -171
c-305 0 -460 189 -460 485zM615 1434c-90 2 -130 66 -59 149c12 14 54 62 73 84c47 56 105 75 186 75c110 0 160 -61 86 -141c-21 -21 -66 -67 -87 -88c-55 -54 -118 -81 -199 -79zM876 1122c-87 0 -159 71 -159 159c0 87 72 158 159 158s159 -71 159 -158
c0 -88 -72 -159 -159 -159zM251 1281c0 87 71 158 158 158c88 0 160 -71 160 -158c0 -88 -72 -159 -160 -159c-87 0 -158 71 -158 159z" />
    <glyph glyph-name="uni01DA" unicode="&#x1da;" 
d="M120 459v406c0 107 53 165 152 165c98 0 151 -58 151 -165v-406c0 -153 65 -250 222 -250c156 0 220 97 220 250v406c0 107 53 165 152 165s152 -58 152 -165v-700c0 -107 -53 -165 -152 -165c-59 0 -100 23 -121 67c-10 25 -17 47 -23 78c-36 -74 -134 -171 -293 -171
c-305 0 -460 189 -460 485zM363 1581c-61 60 -56 114 11 129c13 3 25 4 38 4c61 0 114 -32 169 -73l64 -63l64 63c54 41 106 73 168 73c12 0 25 -1 38 -4c67 -15 72 -69 11 -129l-86 -93c-60 -59 -117 -83 -195 -83c-79 0 -136 24 -197 83zM880 1102c-87 0 -159 71 -159 159
c0 87 72 158 159 158s159 -71 159 -158c0 -88 -72 -159 -159 -159zM247 1261c0 87 71 158 158 158c88 0 160 -71 160 -158c0 -88 -72 -159 -160 -159c-87 0 -158 71 -158 159z" />
    <glyph glyph-name="udieresis" unicode="&#xfc;" 
d="M579 -26c-305 0 -459 189 -459 485v407c0 107 53 164 151 164c99 0 152 -57 152 -164v-407c0 -153 65 -250 222 -250c156 0 220 97 220 250v407c0 107 53 164 152 164s152 -57 152 -164v-701c0 -107 -53 -165 -152 -165c-59 0 -100 23 -121 67c-10 25 -17 47 -23 78
c-36 -74 -134 -171 -294 -171zM707 1283c0 87 72 158 159 158s158 -71 158 -158c0 -88 -71 -159 -158 -159s-159 71 -159 159zM423 1124c-87 0 -159 71 -159 159c0 87 72 158 159 158s159 -71 159 -158c0 -88 -72 -159 -159 -159z" />
    <glyph glyph-name="uni01DC" unicode="&#x1dc;" 
d="M120 865c0 107 53 165 152 165c98 0 151 -58 151 -165v-406c0 -153 65 -250 222 -250c156 0 220 97 220 250v406c0 107 53 165 152 165s152 -58 152 -165v-700c0 -107 -53 -165 -152 -165c-59 0 -100 23 -121 67c-10 25 -17 47 -23 78c-36 -74 -134 -171 -293 -171
c-305 0 -460 189 -460 485v406zM366 1601c-74 80 -24 141 86 141c81 0 140 -19 187 -75c19 -22 61 -70 73 -84c70 -83 31 -147 -59 -149c-81 -2 -144 25 -200 79c-21 21 -66 67 -87 88zM717 1281c0 87 72 158 159 158s159 -71 159 -158c0 -88 -72 -159 -159 -159
s-159 71 -159 159zM409 1122c-87 0 -158 71 -158 159c0 87 71 158 158 158c88 0 160 -71 160 -158c0 -88 -72 -159 -160 -159z" />
    <glyph glyph-name="uni01D6" unicode="&#x1d6;" 
d="M120 865c0 107 53 165 151 165c99 0 152 -58 152 -165v-406c0 -153 65 -250 222 -250c156 0 220 97 220 250v406c0 107 53 165 152 165s152 -58 152 -165v-700c0 -107 -53 -165 -152 -165c-59 0 -100 23 -121 67c-10 25 -17 47 -23 78c-36 -74 -134 -171 -294 -171
c-305 0 -459 189 -459 485v406zM224 1607c0 76 58 117 165 117h516c108 0 159 -41 159 -117s-51 -118 -159 -118h-516c-107 0 -165 41 -165 118zM866 1123c-87 0 -159 71 -159 159c0 87 72 158 159 158s159 -71 159 -158c0 -88 -72 -159 -159 -159zM423 1123
c-87 0 -159 71 -159 159c0 87 72 158 159 158s159 -71 159 -158c0 -88 -72 -159 -159 -159z" />
    <glyph glyph-name="ugrave" unicode="&#xf9;" 
d="M120 459v407c0 107 53 164 151 164c99 0 152 -57 152 -164v-407c0 -153 64 -250 222 -250c156 0 220 97 220 250v407c0 107 53 164 152 164s152 -57 152 -164v-701c0 -107 -53 -165 -152 -165c-101 0 -128 60 -144 145c-36 -74 -134 -171 -294 -171
c-304 0 -459 189 -459 485zM366 1292c-74 80 -24 140 86 140c81 0 140 -18 186 -74c20 -22 62 -70 74 -84c70 -84 31 -147 -60 -150c-81 -2 -144 26 -199 80c-20 21 -66 67 -87 88z" />
    <glyph glyph-name="uacute" unicode="&#xfa;" 
d="M579 -26c-304 0 -459 189 -459 485v407c0 107 53 164 151 164c99 0 152 -57 152 -164v-407c0 -153 64 -250 222 -250c156 0 220 97 220 250v407c0 107 53 164 152 164s152 -57 152 -164v-701c0 -107 -53 -165 -152 -165c-101 0 -128 60 -144 145
c-36 -74 -134 -171 -294 -171zM637 1124c-90 3 -130 66 -60 150c12 14 55 62 74 84c47 56 106 74 187 74c109 0 159 -60 85 -140c-21 -21 -66 -67 -87 -88c-55 -54 -118 -82 -199 -80z" />
    <glyph glyph-name="ucircumflex" unicode="&#xfb;" 
d="M579 -26c-304 0 -459 189 -459 485v407c0 107 53 164 151 164c99 0 152 -57 152 -164v-407c0 -153 64 -250 222 -250c156 0 220 97 220 250v407c0 107 53 164 152 164s152 -57 152 -164v-701c0 -107 -53 -165 -152 -165c-101 0 -128 60 -144 145
c-36 -74 -134 -171 -294 -171zM374 1124c-67 15 -72 69 -11 128l85 94c61 58 118 82 196 82c79 0 136 -24 197 -82l85 -94c61 -59 56 -113 -11 -128c-13 -3 -25 -4 -38 -4c-61 0 -114 32 -168 73l-65 62l-64 -62c-54 -41 -106 -73 -168 -73c-12 0 -25 1 -38 4z" />
    <glyph glyph-name="wcircumflex" unicode="&#x175;" horiz-adv-x="1670" 
d="M88 805c-39 114 -4 204 92 223c13 3 26 4 38 4c78 0 126 -54 150 -137l154 -523l160 520c29 93 78 138 153 138s125 -45 153 -138l160 -520l155 523c23 83 71 137 149 137c12 0 25 -1 38 -4c96 -19 131 -109 93 -223l-229 -671c-32 -91 -92 -134 -188 -134
c-102 0 -161 44 -190 137l-141 456l-141 -456c-28 -93 -88 -137 -189 -137c-96 0 -156 43 -188 134zM565 1126c-68 15 -72 69 -11 128l85 94c60 58 117 82 196 82s136 -24 197 -82l85 -94c61 -59 56 -113 -11 -128c-13 -3 -26 -4 -38 -4c-62 0 -114 32 -168 73l-65 62
l-64 -62c-54 -41 -107 -73 -168 -73c-13 0 -25 1 -38 4z" />
    <glyph glyph-name="ycircumflex" unicode="&#x177;" horiz-adv-x="1173" 
d="M163 1024c19 6 37 10 53 10c72 0 121 -59 150 -136l221 -564l220 564c29 77 78 136 151 136c16 0 34 -4 53 -10c100 -34 110 -134 63 -241l-462 -1075c-57 -133 -130 -226 -287 -237c-31 -2 -56 -2 -86 1c-91 5 -183 55 -157 154c20 69 77 82 140 79c13 -2 25 -2 38 -1
c70 9 93 69 124 152l55 136l-340 791c-47 107 -37 207 64 241zM305 1255l85 93c61 59 118 83 197 83s136 -24 196 -83l85 -93c61 -60 56 -114 -11 -129c-13 -3 -25 -4 -38 -4c-61 0 -114 32 -168 73l-64 63l-65 -63c-54 -41 -107 -73 -168 -73c-13 0 -25 1 -38 4
c-67 15 -72 69 -11 129z" />
    <glyph glyph-name="ydieresis" unicode="&#xff;" horiz-adv-x="1173" 
d="M162 1024c19 6 37 10 53 10c73 0 122 -59 151 -136l221 -564l220 564c30 77 79 136 151 136c16 0 34 -4 53 -10c101 -34 111 -134 64 -241l-463 -1075c-57 -133 -130 -226 -287 -237c-31 -2 -56 -2 -86 1c-92 5 -183 55 -157 154c20 69 77 82 140 79c13 -2 25 -2 38 -1
c70 9 93 69 124 152l55 136l-340 791c-47 107 -37 207 63 241zM365 1444c87 0 159 -72 159 -159s-72 -158 -159 -158s-159 71 -159 158s72 159 159 159zM649 1285c0 87 72 159 159 159s159 -72 159 -159s-72 -158 -159 -158s-159 71 -159 158z" />
    <glyph glyph-name="uni0233" unicode="&#x233;" horiz-adv-x="1173" 
d="M163 1024c19 6 37 10 53 10c72 0 121 -59 150 -136l221 -564l220 564c29 77 78 136 151 136c16 0 34 -4 53 -10c100 -34 110 -134 63 -241l-462 -1075c-57 -133 -130 -226 -287 -237c-31 -2 -56 -2 -86 1c-91 5 -183 55 -157 154c20 69 77 82 140 79c13 -2 25 -2 38 -1
c70 9 93 69 124 152l55 136l-340 791c-47 107 -37 207 64 241zM167 1245c0 76 58 117 165 117h516c107 0 158 -41 158 -117s-51 -118 -158 -118h-516c-107 0 -165 41 -165 118z" />
    <glyph glyph-name="uni024F" unicode="&#x24f;" horiz-adv-x="1323" 
d="M72 595c0 58 40 89 114 89h33l-42 99c-47 107 -37 206 64 241c19 6 36 9 52 9c73 0 122 -57 151 -135l84 -214h273l84 214c29 78 78 135 151 135c16 0 34 -3 53 -9c100 -35 110 -134 63 -241l-42 -99h26c74 0 115 -31 115 -89s-41 -89 -115 -89h-103l-343 -799
c-57 -132 -130 -225 -287 -236c-31 -2 -56 -2 -86 1c-91 5 -183 55 -157 154c20 68 77 81 140 78c13 -1 25 -1 38 0c70 8 93 69 124 151l55 136l-221 515h-110c-74 0 -114 31 -114 89zM732 506h-135l68 -172z" />
    <glyph glyph-name="yacute" unicode="&#xfd;" horiz-adv-x="1173" 
d="M163 1024c19 6 37 10 53 10c72 0 121 -59 150 -136l221 -564l220 564c29 77 78 136 151 136c16 0 34 -4 53 -10c100 -34 110 -134 63 -241l-462 -1075c-57 -133 -130 -226 -287 -237c-31 -2 -56 -2 -86 1c-91 5 -183 55 -157 154c20 69 77 82 140 79c13 -2 25 -2 38 -1
c70 9 93 69 124 152l55 136l-340 791c-47 107 -37 207 64 241zM519 1276c12 14 54 62 74 84c47 56 106 75 187 75c109 0 159 -61 85 -141c-20 -21 -66 -67 -87 -88c-55 -54 -118 -81 -199 -79c-91 3 -130 66 -60 149z" />
    <glyph glyph-name="zacute" unicode="&#x17a;" horiz-adv-x="1125" 
d="M221 0c-79 0 -129 38 -129 98c0 37 19 79 61 130l462 567h-349c-107 0 -165 42 -165 118s58 117 165 117h622c79 0 129 -39 129 -98c0 -38 -19 -80 -61 -131l-462 -566h374c107 0 165 -41 165 -117s-58 -118 -165 -118h-647zM549 1124c-90 3 -130 66 -60 150l74 84
c47 56 106 74 187 74c109 0 159 -61 85 -141l-87 -88c-55 -53 -117 -81 -199 -79z" />
    <glyph glyph-name="zdotaccent" unicode="&#x17c;" horiz-adv-x="1125" 
d="M92 98c0 37 19 79 61 130l462 567h-349c-107 0 -165 42 -165 118s58 117 165 117h622c80 0 129 -39 129 -98c0 -38 -19 -80 -61 -131l-462 -566h374c107 0 165 -41 165 -117s-58 -118 -165 -118h-647c-79 0 -129 38 -129 98zM557 1124c-88 0 -159 71 -159 159
c0 87 71 158 159 158c87 0 159 -71 159 -158c0 -88 -72 -159 -159 -159z" />
    <glyph glyph-name="zcaron" unicode="&#x17e;" horiz-adv-x="1125" 
d="M221 0c-79 0 -129 38 -129 98c0 37 19 79 61 130l462 567h-349c-107 0 -165 42 -165 118s58 117 165 117h622c79 0 129 -39 129 -98c0 -38 -19 -80 -61 -131l-462 -566h374c107 0 165 -41 165 -117s-58 -118 -165 -118h-647zM275 1300c-61 60 -56 113 11 128
c13 3 25 4 38 4c61 0 114 -32 168 -73l65 -62l64 62c54 41 107 73 168 73c13 0 25 -1 38 -4c67 -15 72 -68 11 -128l-85 -93c-60 -59 -117 -83 -196 -83s-136 24 -197 83z" />
    <glyph glyph-name="longs" unicode="&#x17f;" horiz-adv-x="810" 
d="M272 0c-99 0 -152 57 -152 164v894c0 288 92 484 402 484c34 0 64 -3 90 -6c112 -10 157 -66 140 -143c-18 -76 -78 -93 -144 -89c-11 2 -22 3 -33 3c-125 -1 -152 -64 -152 -250v-893c0 -107 -53 -164 -151 -164z" />
    <glyph glyph-name="florin" unicode="&#x192;" horiz-adv-x="1166" 
d="M32 -532c-114 0 -175 50 -160 134c16 91 75 135 169 135h29c107 0 123 68 134 127l162 897h-87c-114 0 -172 51 -157 135c16 90 86 134 159 134h134l15 86c26 146 93 376 440 376h65c113 0 174 -50 159 -134c-16 -90 -74 -134 -168 -134h-30c-105 0 -122 -69 -134 -128
l-12 -66h88c114 0 172 -50 157 -134c-17 -90 -86 -135 -159 -135h-134l-166 -917c-26 -146 -93 -376 -439 -376h-65z" />
    <glyph glyph-name="thorn" unicode="&#xfe;" horiz-adv-x="1378" 
d="M120 -367v1718c0 107 53 165 152 165c98 0 151 -58 151 -165v-477c51 74 167 182 340 182c343 0 535 -225 535 -541s-192 -541 -535 -541c-173 0 -289 108 -340 181v-522c0 -107 -53 -165 -151 -165c-99 0 -152 58 -152 165zM708 821c-181 0 -285 -134 -285 -306
s104 -306 285 -306c180 0 284 134 284 306s-104 306 -284 306z" />
    <glyph glyph-name="uni0238" unicode="&#x238;" horiz-adv-x="2213" 
d="M80 515c0 316 192 541 535 541c176 0 287 -104 340 -182v477c0 107 53 165 152 165c98 0 151 -58 151 -165v-477c51 74 167 182 340 182c343 0 535 -225 535 -541s-192 -541 -535 -541c-173 0 -296 110 -346 189c-2 -25 -4 -42 -6 -66c-18 -64 -65 -97 -139 -97
c-73 0 -120 32 -139 92c-3 26 -6 44 -8 71c-50 -79 -172 -189 -345 -189c-343 0 -535 225 -535 541zM1258 515c0 -172 104 -306 285 -306c180 0 284 134 284 306s-104 306 -284 306c-181 0 -285 -134 -285 -306zM670 821c-180 0 -284 -134 -284 -306s104 -306 284 -306
c181 0 285 134 285 306s-104 306 -285 306z" />
    <glyph glyph-name="uni0239" unicode="&#x239;" horiz-adv-x="2213" 
d="M80 515c0 316 192 541 535 541c173 0 295 -110 345 -188c5 33 11 57 18 86c20 49 65 76 129 76c63 0 106 -25 126 -74c8 -30 15 -54 19 -89c50 79 173 189 346 189c343 0 535 -225 535 -541s-192 -541 -535 -541c-173 0 -289 108 -340 182v-523
c0 -107 -53 -165 -151 -165c-99 0 -152 58 -152 165v523c-53 -78 -164 -182 -340 -182c-343 0 -535 225 -535 541zM1543 821c-181 0 -285 -134 -285 -306s104 -306 285 -306c180 0 284 134 284 306s-104 306 -284 306zM386 515c0 -172 104 -306 285 -306
c180 0 284 134 284 306s-104 306 -284 306c-181 0 -285 -134 -285 -306z" />
    <glyph glyph-name="Alphatonos" unicode="&#x386;" horiz-adv-x="1495" 
d="M190 0c-107 13 -152 96 -105 210l445 1072c46 112 125 153 218 153s171 -41 217 -153l445 -1072c47 -114 1 -197 -105 -210c-93 -11 -155 27 -196 131l-76 183h-571l-76 -183c-42 -104 -103 -142 -196 -131zM255 1066c-77 4 -114 43 -96 132l32 124c21 86 78 113 166 113
c93 0 141 -43 110 -135l-44 -116c-27 -76 -80 -122 -168 -118zM748 1029l-187 -464h374z" />
    <glyph glyph-name="Epsilontonos" unicode="&#x388;" horiz-adv-x="1470" 
d="M274 165v1104c0 107 58 165 165 165h736c107 0 165 -48 165 -134c0 -87 -58 -135 -165 -135h-582v-305h535c107 0 164 -46 164 -131s-57 -132 -164 -132h-535v-328h592c107 0 165 -48 165 -134c0 -87 -58 -135 -165 -135h-746c-107 0 -165 58 -165 165zM15 1065
c-77 4 -114 43 -96 132l32 124c21 86 78 113 166 113c93 0 141 -43 110 -135l-44 -116c-27 -76 -80 -121 -168 -118z" />
    <glyph glyph-name="Etatonos" unicode="&#x389;" horiz-adv-x="1696" 
d="M282 165v1105c0 107 57 164 160 164s159 -57 159 -164v-404h637v404c0 107 57 164 160 164s159 -57 159 -164v-1105c0 -107 -56 -165 -159 -165s-160 58 -160 165v432h-637v-432c0 -107 -56 -165 -159 -165s-160 58 -160 165zM15 1066c-77 4 -113 43 -96 132l33 124
c20 86 78 112 165 112c93 0 141 -43 111 -134l-45 -117c-26 -75 -79 -121 -168 -117z" />
    <glyph glyph-name="Iotatonos" unicode="&#x38a;" horiz-adv-x="750" 
d="M442 0c-103 0 -160 58 -160 165v1104c0 107 57 165 160 165s159 -58 159 -165v-1104c0 -107 -56 -165 -159 -165zM15 1066c-77 3 -113 43 -96 132l33 123c20 86 78 113 165 113c93 0 141 -43 111 -135l-45 -116c-26 -76 -79 -121 -168 -117z" />
    <glyph glyph-name="Omicrontonos" unicode="&#x38c;" horiz-adv-x="1754" 
d="M900 -26c-477 0 -754 321 -754 743c0 421 277 743 754 743c476 0 753 -322 753 -743c0 -422 -277 -743 -753 -743zM900 1191c-281 0 -432 -190 -432 -474s151 -474 432 -474c280 0 431 190 431 474s-151 474 -431 474zM47 1066c-77 3 -113 42 -96 131l33 124
c20 86 78 113 165 113c93 0 141 -43 111 -135l-45 -116c-26 -76 -79 -121 -168 -117z" />
    </font>
</defs>
</svg>
