<?xml version="1.0" standalone="no"?>
<!DOCTYPE svg PUBLIC "-//W3C//DTD SVG 1.1//EN" "http://www.w3.org/Graphics/SVG/1.1/DTD/svg11.dtd" >
<svg xmlns="http://www.w3.org/2000/svg" xmlns:xlink="http://www.w3.org/1999/xlink" version="1.1">
<metadata>
Created by FontForge 20201107 at Sat Mar 21 20:29:13 2020
 By Jimmy Wärting
Copyright \(c\) 2019 by Artegra. All rights reserved.
</metadata>
<defs>
<font id="ArtegraSoft-Medium" horiz-adv-x="1223" >
  <font-face 
    font-family="Artegra Soft"
    font-weight="500"
    font-stretch="normal"
    units-per-em="2048"
    panose-1="0 0 0 0 0 0 0 0 0 0"
    ascent="1516"
    descent="-532"
    x-height="1014"
    cap-height="1434"
    bbox="-208.708 -532 2988 1988"
    underline-thickness="102"
    underline-position="-205"
    stemh="186"
    stemv="184"
    unicode-range="U+0020-FE65"
  />
<missing-glyph horiz-adv-x="1510" 
d="M160 1324c0 71 39 110 110 110h970c71 0 110 -39 110 -110v-1214c0 -71 -39 -110 -110 -110h-970c-71 0 -110 39 -110 110v1214zM825 717l389 -518v1035zM296 199l389 518l-389 517v-1035zM755 622l-368 -490h735zM1122 1302h-735l368 -490z" />
    <glyph glyph-name="f_f" unicode="ff" horiz-adv-x="1513" 
d="M176 848c-61 0 -96 29 -96 83s36 83 96 83h106v19c0 293 83 465 351 465c45 0 83 -5 113 -11c72 -11 100 -53 83 -104c-16 -52 -57 -65 -111 -57c-19 3 -40 6 -60 6c-138 0 -172 -77 -172 -299v-19h416v51c0 301 83 473 352 473c44 0 82 -5 112 -11
c73 -11 101 -53 84 -104c-16 -52 -58 -65 -112 -57c-18 3 -40 6 -60 6c-138 0 -172 -77 -172 -307v-51h199c61 0 96 -29 96 -83s-35 -83 -96 -83h-199v-738c0 -71 -36 -110 -102 -110s-102 39 -102 110v738h-416v-738c0 -71 -36 -110 -102 -110s-102 39 -102 110v738h-106z
" />
    <glyph glyph-name="fi" unicode="fi" horiz-adv-x="1247" 
d="M80 931c0 54 35 83 95 83h107v52c0 285 122 472 434 472c128 0 223 -38 286 -74c68 -34 66 -90 37 -126c-17 -20 -40 -30 -66 -30c-22 0 -47 7 -71 19c-41 23 -99 45 -170 45c-184 0 -246 -88 -246 -306v-52h511c71 0 110 -39 110 -109v-795c0 -71 -36 -110 -102 -110
s-102 39 -102 110v738h-417v-738c0 -71 -36 -110 -102 -110s-102 39 -102 110v738h-107c-60 0 -95 29 -95 83z" />
    <glyph glyph-name="fl" unicode="fl" horiz-adv-x="1328" 
d="M80 931c0 54 35 83 95 83h107v52c0 284 122 472 434 472c156 0 265 -54 328 -96c48 -30 63 -73 63 -131v-1054c0 -54 3 -91 45 -91c43 0 77 -25 77 -79s-43 -87 -104 -87c-197 0 -222 139 -222 262v586h-417v-738c0 -71 -36 -110 -102 -110s-102 39 -102 110v738h-107
c-60 0 -95 29 -95 83zM486 1014h417v309c-37 23 -94 49 -171 49c-184 0 -246 -88 -246 -306v-52z" />
    <glyph glyph-name="f_f_i" unicode="ffi" horiz-adv-x="1866" 
d="M176 848c-61 0 -96 29 -96 83s36 83 96 83h106v19c0 293 83 465 351 465c45 0 83 -5 113 -11c72 -11 100 -53 83 -104c-16 -52 -57 -65 -111 -57c-19 4 -40 6 -60 6c-138 0 -172 -77 -172 -299v-19h416v52c0 285 122 472 433 472c129 0 223 -39 286 -74
c68 -34 73 -88 37 -126c-20 -21 -43 -30 -68 -30c-21 0 -44 7 -69 19c-41 23 -99 45 -169 45c-184 0 -246 -89 -246 -306v-52h510c71 0 110 -39 110 -109v-795c0 -71 -36 -110 -102 -110s-102 39 -102 110v738h-416v-738c0 -71 -36 -110 -102 -110s-102 39 -102 110v738
h-416v-738c0 -71 -36 -110 -102 -110s-102 39 -102 110v738h-106z" />
    <glyph glyph-name="f_f_l" unicode="ffl" horiz-adv-x="1948" 
d="M176 848c-61 0 -96 29 -96 83s36 83 96 83h106v19c0 293 83 465 351 465c45 0 83 -5 113 -11c72 -11 100 -53 83 -104c-16 -52 -57 -65 -111 -57c-19 4 -40 6 -60 6c-138 0 -172 -77 -172 -299v-19h416v51c0 285 122 473 433 473c156 0 265 -54 328 -96
c48 -30 63 -73 63 -131v-1054c0 -54 3 -91 45 -91c43 0 77 -25 77 -79s-43 -87 -104 -87c-197 0 -222 139 -222 262v586h-416v-738c0 -71 -36 -110 -102 -110s-102 39 -102 110v738h-416v-738c0 -71 -36 -110 -102 -110s-102 39 -102 110v738h-106zM1106 1066v-52h416v309
c-37 23 -94 49 -170 49c-184 0 -246 -89 -246 -306z" />
    <glyph glyph-name=".notdef" horiz-adv-x="1510" 
d="M160 1324c0 71 39 110 110 110h970c71 0 110 -39 110 -110v-1214c0 -71 -39 -110 -110 -110h-970c-71 0 -110 39 -110 110v1214zM825 717l389 -518v1035zM296 199l389 518l-389 517v-1035zM755 622l-368 -490h735zM1122 1302h-735l368 -490z" />
    <glyph glyph-name="uni0000" horiz-adv-x="0" 
 />
    <glyph glyph-name="uni0000" horiz-adv-x="0" 
 />
    <glyph glyph-name="CR" horiz-adv-x="842" 
 />
    <glyph glyph-name="space" unicode=" " horiz-adv-x="562" 
 />
    <glyph glyph-name="exclam" unicode="!" horiz-adv-x="609" 
d="M199 1324c-1 72 37 110 107 110c69 0 106 -38 105 -110l-9 -870c-1 -71 -35 -109 -96 -109c-62 0 -97 38 -98 109zM180 113c0 68 56 124 125 124c68 0 124 -56 124 -124c0 -69 -56 -125 -124 -125c-69 0 -125 56 -125 125z" />
    <glyph glyph-name="quotedbl" unicode="&#x22;" horiz-adv-x="742" 
d="M120 1322c-3 72 34 112 102 112h3c68 0 105 -40 102 -112l-9 -232c-2 -70 -35 -107 -94 -107s-92 37 -95 107zM415 1322c-2 72 34 112 103 112h3c68 0 103 -40 101 -111l-8 -232c-3 -70 -36 -108 -95 -108s-92 37 -95 107z" />
    <glyph glyph-name="numbersign" unicode="#" horiz-adv-x="1455" 
d="M120 453c0 60 39 93 110 93h132l55 342h-105c-70 0 -108 34 -108 93c0 60 39 93 110 93h133l42 264c9 56 44 96 117 96c72 0 97 -47 88 -106l-41 -254h263l42 264c9 56 44 96 117 96c71 0 97 -47 87 -106l-40 -254h106c70 0 107 -34 107 -93c0 -60 -38 -93 -109 -93h-133
l-56 -342h106c70 -1 108 -34 108 -93c0 -60 -39 -93 -110 -93h-133l-42 -264c-9 -56 -44 -96 -117 -96c-71 0 -97 47 -87 106l40 254h-264l-41 -264c-9 -56 -44 -96 -117 -96c-71 0 -97 47 -87 106l40 254h-105c-70 0 -108 34 -108 93zM623 888l-55 -342h263l55 342h-263z
" />
    <glyph glyph-name="dollar" unicode="$" horiz-adv-x="1290" 
d="M167 76c-66 31 -84 94 -51 144c20 30 46 42 76 42c23 0 47 -6 74 -17c82 -34 229 -83 385 -83c221 0 322 76 322 223c0 131 -94 200 -347 258c-342 78 -509 208 -509 427c0 209 146 361 432 384v101c0 57 30 92 86 92s86 -35 86 -92v-100c144 -9 252 -40 320 -66
c70 -27 100 -83 68 -138c-19 -33 -49 -45 -83 -45c-22 0 -46 5 -70 12c-70 23 -194 54 -325 54c-174 0 -297 -62 -297 -202c0 -125 108 -182 331 -234c340 -77 525 -193 525 -451c0 -257 -178 -390 -469 -406v-100c0 -58 -30 -92 -86 -92s-86 34 -86 92v102
c-176 13 -305 58 -382 95z" />
    <glyph glyph-name="ampersand" unicode="&#x26;" horiz-adv-x="1401" 
d="M140 357c0 188 107 308 275 421c-67 101 -115 192 -115 323c0 204 136 357 365 357c207 0 353 -100 353 -318c0 -195 -140 -308 -313 -413c79 -103 183 -220 288 -322c29 53 52 108 74 172c18 37 46 58 82 58c11 0 23 -2 35 -6c54 -20 74 -66 59 -122
c-24 -94 -57 -175 -96 -241c47 -41 98 -79 152 -120c58 -47 66 -95 29 -133c-18 -18 -41 -25 -68 -25c-80 0 -180 77 -240 125c-113 -108 -258 -137 -409 -137c-257 0 -471 111 -471 381zM525 621c-95 -63 -172 -132 -172 -248c0 -147 110 -211 252 -211
c103 0 195 27 256 86c-130 128 -227 237 -336 373zM665 1272c-80 0 -151 -62 -151 -176c0 -83 39 -156 80 -220c142 91 210 150 210 257c0 83 -45 139 -139 139z" />
    <glyph glyph-name="quotesingle" unicode="'" horiz-adv-x="447" 
d="M120 1322c-3 72 34 112 102 112h3c68 0 105 -40 102 -112l-9 -232c-2 -70 -35 -107 -93 -107c-59 0 -92 37 -95 107z" />
    <glyph glyph-name="parenleft" unicode="(" horiz-adv-x="851" 
d="M594 -295c-156 80 -454 306 -454 882s298 802 454 882c20 11 40 16 59 16c40 0 74 -23 90 -64c23 -61 -11 -103 -67 -141c-115 -69 -319 -249 -319 -693s204 -623 319 -693c56 -38 90 -79 67 -141c-16 -41 -50 -64 -90 -64c-19 0 -39 5 -59 16z" />
    <glyph glyph-name="parenright" unicode=")" horiz-adv-x="851" 
d="M175 1280c-56 38 -90 80 -67 141c16 41 50 64 90 64c19 0 39 -5 59 -16c156 -80 454 -306 454 -882s-298 -802 -454 -882c-20 -11 -40 -16 -59 -16c-40 0 -74 23 -90 64c-23 62 11 103 67 141c115 70 319 249 319 693s-204 624 -319 693z" />
    <glyph glyph-name="asterisk" unicode="*" horiz-adv-x="954" 
d="M179 1040c-64 18 -92 63 -74 124c13 46 41 69 83 69c14 0 30 -3 47 -8c24 -9 125 -44 150 -54c-1 30 -5 131 -6 158c-1 67 33 105 98 105c64 0 97 -39 95 -108c-1 -25 -5 -126 -6 -155c28 10 126 44 150 53c18 6 34 9 49 9c41 0 70 -23 83 -69c18 -63 -11 -106 -75 -125
c-28 -8 -130 -39 -157 -47c17 -21 82 -98 99 -119c46 -54 43 -104 -9 -143c-20 -15 -40 -22 -59 -22c-30 0 -59 18 -82 51c-16 21 -75 105 -89 125c-15 -22 -73 -104 -88 -126c-24 -33 -52 -51 -82 -51c-19 0 -39 8 -59 23c-52 38 -56 88 -10 143c15 19 83 99 100 119
c-27 8 -131 39 -158 48z" />
    <glyph glyph-name="plus" unicode="+" horiz-adv-x="1212" 
d="M120 697c0 62 36 95 103 95h284v278c0 69 35 107 99 107c63 0 98 -38 98 -107v-278h284c67 0 103 -33 103 -95c0 -61 -36 -95 -103 -95h-284v-278c0 -69 -35 -107 -98 -107c-64 0 -99 38 -99 107v278h-284c-67 0 -103 34 -103 95z" />
    <glyph glyph-name="comma" unicode="," horiz-adv-x="546" 
d="M169 -216c-61 4 -86 47 -57 125l95 246c23 60 63 87 125 87h4c78 0 112 -49 76 -125l-118 -253c-26 -54 -63 -83 -125 -80z" />
    <glyph glyph-name="hyphen" unicode="-" horiz-adv-x="923" 
d="M120 554c0 53 37 81 108 81h467c71 0 108 -28 108 -81s-37 -81 -108 -81h-467c-71 0 -108 28 -108 81z" />
    <glyph glyph-name="period" unicode="." horiz-adv-x="489" 
d="M120 113c0 68 56 124 125 124c68 0 124 -56 124 -124c0 -69 -56 -125 -124 -125c-69 0 -125 56 -125 125z" />
    <glyph glyph-name="slash" unicode="/" horiz-adv-x="1015" 
d="M192 2c-67 12 -92 65 -54 149l552 1201c21 49 53 85 105 85c9 0 19 -1 29 -3c66 -12 91 -64 53 -148l-552 -1202c-21 -48 -53 -85 -105 -85c-8 0 -18 1 -28 3z" />
    <glyph glyph-name="zero" unicode="0" horiz-adv-x="1423" 
d="M120 717c0 419 202 739 592 739c389 0 591 -320 591 -739s-202 -739 -591 -739c-390 0 -592 320 -592 739zM334 717c0 -315 119 -555 378 -555c258 0 377 240 377 555s-119 555 -377 555c-259 0 -378 -240 -378 -555z" />
    <glyph glyph-name="one" unicode="1" horiz-adv-x="743" 
d="M98 1009c-46 47 -34 110 19 158l223 203c49 44 91 64 140 64c68 0 103 -39 103 -115v-1209c0 -71 -38 -110 -107 -110s-107 39 -107 110v1013l-119 -108c-24 -21 -54 -35 -85 -35c-23 0 -47 8 -67 29z" />
    <glyph glyph-name="two" unicode="2" horiz-adv-x="1272" 
d="M140 91c0 37 18 75 54 111l534 564c100 106 170 194 170 302c0 133 -87 202 -260 202c-131 0 -225 -82 -272 -145c-28 -32 -63 -55 -102 -55c-15 0 -30 3 -45 10c-53 24 -73 83 -32 144c60 97 201 232 451 232c284 0 475 -134 475 -388c0 -177 -107 -300 -236 -436
l-417 -446h563c71 0 110 -33 110 -93s-39 -93 -110 -93h-772c-74 0 -111 40 -111 91z" />
    <glyph glyph-name="three" unicode="3" horiz-adv-x="1241" 
d="M166 128c-55 47 -55 109 -6 148c20 14 39 20 58 20c38 0 74 -24 105 -44c47 -39 131 -88 263 -88c190 0 321 77 321 243s-128 222 -338 233c-73 5 -113 35 -113 95s39 89 110 96c178 14 301 76 301 229c0 137 -108 210 -273 210c-119 0 -194 -46 -235 -85
c-36 -26 -77 -51 -118 -51c-14 0 -29 4 -44 11c-58 28 -66 97 -15 149c65 72 188 162 404 162c279 0 497 -130 497 -391c0 -180 -123 -281 -250 -322c135 -34 288 -124 288 -340c0 -282 -228 -427 -535 -425c-232 1 -356 88 -420 150z" />
    <glyph glyph-name="four" unicode="4" horiz-adv-x="1379" 
d="M261 350c-78 0 -121 47 -121 105c0 37 14 74 51 121l602 777c42 53 90 81 154 81c74 0 113 -39 113 -110v-789h96c66 0 102 -35 102 -92c0 -58 -36 -93 -102 -93h-96v-241c0 -71 -37 -109 -107 -109c-69 0 -107 38 -107 109v241h-585zM846 1118l-452 -583h452v583z" />
    <glyph glyph-name="five" unicode="5" horiz-adv-x="1305" 
d="M226 87c-66 35 -83 94 -46 146c19 26 44 37 72 37c26 0 54 -9 82 -22c63 -37 173 -84 307 -84c229 0 304 133 304 291c0 159 -71 294 -300 294c-130 0 -263 -38 -352 -70c-18 -6 -34 -8 -48 -8c-49 0 -77 33 -73 97l31 559c4 71 44 107 114 107h653c72 0 110 -32 110 -93
c0 -60 -38 -93 -110 -93h-553l-21 -357c58 22 146 44 249 44c371 0 520 -212 520 -480c0 -261 -149 -477 -524 -477c-201 0 -341 62 -415 109z" />
    <glyph glyph-name="six" unicode="6" horiz-adv-x="1343" 
d="M140 647c0 547 260 809 657 809c52 0 107 -6 163 -17c77 -14 109 -68 84 -124c-21 -49 -69 -58 -120 -52c-43 5 -85 9 -125 9c-235 1 -406 -144 -431 -450c63 93 180 150 309 150c367 0 526 -240 526 -496c0 -266 -159 -496 -526 -496c-421 0 -537 316 -537 667zM677 166
c206 0 312 131 312 310s-106 310 -312 310c-208 0 -313 -131 -313 -310s105 -310 313 -310z" />
    <glyph glyph-name="seven" unicode="7" horiz-adv-x="1205" 
d="M120 1341c0 60 39 93 110 93h737c89 0 118 -45 118 -100c0 -38 -15 -81 -32 -117l-536 -1134c-25 -54 -63 -85 -112 -85c-10 0 -20 2 -30 4c-62 16 -83 77 -50 145l521 1101h-616c-71 0 -110 33 -110 93z" />
    <glyph glyph-name="eight" unicode="8" horiz-adv-x="1320" 
d="M120 405c0 188 116 293 249 345c-124 50 -213 160 -213 307c0 248 206 401 504 401s504 -153 504 -401c0 -147 -89 -257 -213 -307c133 -52 249 -157 249 -345c0 -291 -244 -429 -540 -429s-540 138 -540 429zM660 656c-201 0 -324 -88 -324 -247s123 -247 324 -247
s324 88 324 247s-123 247 -324 247zM372 1053c0 -145 116 -219 288 -219s288 74 288 219s-116 219 -288 219s-288 -74 -288 -219z" />
    <glyph glyph-name="nine" unicode="9" horiz-adv-x="1343" 
d="M140 960c0 266 159 496 526 496c421 0 537 -315 537 -667c0 -546 -261 -809 -657 -809c-52 0 -107 6 -163 17c-77 14 -109 68 -84 124c21 49 69 58 120 52c43 -5 85 -9 125 -9c235 -1 406 144 431 450c-63 -93 -180 -150 -309 -150c-367 0 -526 240 -526 496zM666 1270
c-206 0 -312 -131 -312 -310s106 -310 312 -310c208 0 313 131 313 310s-105 310 -313 310z" />
    <glyph glyph-name="colon" unicode=":" horiz-adv-x="489" 
d="M120 113c0 68 56 124 125 124c68 0 124 -56 124 -124c0 -69 -56 -125 -124 -125c-69 0 -125 56 -125 125zM120 902c0 68 56 124 125 124c68 0 124 -56 124 -124c0 -69 -56 -125 -124 -125c-69 0 -125 56 -125 125z" />
    <glyph glyph-name="semicolon" unicode=";" horiz-adv-x="515" 
d="M89 -216c-61 4 -86 47 -56 124l94 247c23 60 63 86 126 86h3c78 0 113 -48 76 -124l-118 -254c-25 -53 -63 -83 -125 -79zM272 777c-69 0 -125 56 -125 125c0 68 56 124 125 124c68 0 124 -56 124 -124c0 -69 -56 -125 -124 -125z" />
    <glyph glyph-name="less" unicode="&#x3c;" horiz-adv-x="1187" 
d="M120 623c0 48 25 82 79 111l706 363c25 13 48 20 68 20c45 0 74 -31 74 -89c0 -55 -33 -88 -83 -112l-581 -293l581 -293c50 -24 83 -57 83 -112c0 -58 -29 -89 -74 -89c-20 0 -43 7 -68 20l-706 363c-54 29 -79 63 -79 111z" />
    <glyph glyph-name="equal" unicode="=" horiz-adv-x="1060" 
d="M120 851c0 62 39 95 110 95h601c71 0 109 -33 109 -95c0 -61 -38 -95 -109 -95h-601c-71 0 -110 33 -110 95zM230 448c-71 0 -110 33 -110 95c0 61 39 95 110 95h601c71 0 109 -34 109 -95s-38 -95 -109 -95h-601z" />
    <glyph glyph-name="greater" unicode="&#x3e;" horiz-adv-x="1187" 
d="M222 916c-55 27 -92 65 -79 132c9 46 33 69 70 69c19 0 43 -6 69 -20l706 -363c54 -29 79 -63 79 -111s-25 -82 -79 -111l-706 -363c-26 -14 -50 -20 -69 -20c-37 0 -61 23 -70 69c-13 67 24 105 79 132l582 293z" />
    <glyph glyph-name="question" unicode="?" horiz-adv-x="1157" 
d="M140 1130c-51 34 -55 100 -1 151c69 75 200 177 413 177c354 0 505 -192 505 -397c0 -230 -158 -361 -428 -404v-215c0 -63 -38 -97 -107 -97s-107 36 -107 102v244c0 66 38 97 107 107c179 22 319 97 319 259c0 129 -97 215 -289 215c-125 0 -207 -62 -258 -112
c-32 -27 -67 -47 -102 -47c-18 0 -35 5 -52 17zM398 113c0 68 55 124 124 124s124 -56 124 -124c0 -69 -55 -125 -124 -125s-124 56 -124 125z" />
    <glyph glyph-name="at" unicode="@" horiz-adv-x="1730" 
d="M120 516c0 462 327 740 744 740c418 0 746 -278 746 -740c0 -224 -125 -341 -305 -341c-140 0 -203 99 -216 200c-26 -154 -107 -271 -279 -271c-234 0 -346 159 -346 361c0 265 171 463 444 463c78 0 160 -15 232 -55c40 -22 49 -54 48 -99c-3 -101 -5 -151 -8 -252
c-4 -118 30 -193 115 -193c87 0 132 65 132 187c0 357 -225 580 -563 580c-329 0 -561 -223 -561 -580c0 -363 232 -578 561 -578c168 0 308 64 386 107c22 11 43 17 62 17c25 0 47 -11 66 -34c33 -45 13 -94 -36 -123c-86 -53 -241 -127 -478 -127
c-417 0 -744 278 -744 738zM634 463c0 -115 53 -205 178 -205c120 0 184 89 198 265c7 87 12 150 18 232c-28 13 -66 21 -126 21c-183 0 -268 -143 -268 -313z" />
    <glyph glyph-name="A" unicode="A" horiz-adv-x="1464" 
d="M96 146l503 1195c27 67 73 93 134 93c60 0 105 -26 133 -93l502 -1195c30 -72 8 -133 -62 -146c-10 -2 -20 -3 -30 -3c-50 0 -86 29 -110 90l-128 308h-611l-130 -308c-25 -61 -60 -90 -110 -90c-9 0 -19 1 -30 3c-69 13 -92 74 -61 146zM499 575h467l-233 567z" />
    <glyph glyph-name="B" unicode="B" horiz-adv-x="1442" 
d="M270 0c-71 0 -110 39 -110 109v1215c0 71 39 110 110 110h496c400 0 500 -198 500 -384c0 -140 -80 -256 -203 -295c178 -53 259 -183 259 -340c0 -201 -130 -415 -537 -415h-515zM374 653v-468h411c244 0 318 112 318 236c0 127 -79 232 -251 232h-478zM374 832h475
c132 0 199 88 199 206c0 114 -47 210 -282 210h-392v-416z" />
    <glyph glyph-name="C" unicode="C" horiz-adv-x="1447" 
d="M843 -22c-476 0 -723 334 -723 739s247 739 723 739c196 0 332 -47 414 -87c65 -33 80 -93 46 -141c-19 -28 -45 -40 -75 -40c-23 0 -48 7 -75 18c-69 28 -178 64 -310 64c-344 0 -505 -252 -505 -553s161 -553 505 -553c132 0 241 36 310 64c27 11 53 18 75 18
c30 0 56 -12 75 -40c34 -48 19 -108 -46 -141c-82 -40 -218 -87 -414 -87z" />
    <glyph glyph-name="D" unicode="D" horiz-adv-x="1483" 
d="M160 1324c0 71 39 110 110 110h383c504 0 710 -306 710 -717s-206 -717 -710 -717h-383c-71 0 -110 39 -110 110v1214zM653 1248h-279v-1062h279c361 0 492 227 492 531s-131 531 -492 531z" />
    <glyph glyph-name="E" unicode="E" horiz-adv-x="1301" 
d="M160 110v1214c0 71 39 110 110 110h771c71 0 110 -33 110 -93s-39 -93 -110 -93h-667v-424h620c71 0 110 -33 110 -92s-39 -92 -110 -92h-620v-454h677c71 0 110 -33 110 -93s-39 -93 -110 -93h-781c-71 0 -110 39 -110 110z" />
    <glyph glyph-name="F" unicode="F" horiz-adv-x="1291" 
d="M160 110v1214c0 71 39 110 110 110h771c71 0 110 -33 110 -93s-39 -93 -110 -93h-667v-435h620c71 0 110 -33 110 -92s-39 -92 -110 -92h-620v-519c0 -71 -38 -110 -107 -110s-107 39 -107 110z" />
    <glyph glyph-name="G" unicode="G" horiz-adv-x="1570" 
d="M120 717c0 405 247 739 723 739c218 0 365 -57 456 -105c67 -33 87 -88 55 -137c-18 -29 -44 -40 -75 -40c-22 0 -47 6 -72 16c-76 35 -203 80 -364 80c-344 0 -505 -252 -505 -553s161 -553 505 -553c223 0 347 79 370 93v383h-242c-71 0 -108 32 -108 89s37 89 108 89
h329c71 0 110 -39 110 -110v-477c0 -58 -20 -97 -72 -128c-90 -53 -260 -125 -495 -125c-476 0 -723 334 -723 739z" />
    <glyph glyph-name="H" unicode="H" horiz-adv-x="1492" 
d="M160 110v1215c0 71 38 110 107 110s107 -39 107 -110v-499h743v499c0 71 38 110 107 110s107 -39 107 -110v-1215c0 -71 -38 -110 -107 -110s-107 39 -107 110v530h-743v-530c0 -71 -38 -110 -107 -110s-107 39 -107 110z" />
    <glyph glyph-name="I" unicode="I" horiz-adv-x="554" 
d="M170 110v1214c0 71 38 110 107 110s107 -39 107 -110v-1214c0 -71 -38 -110 -107 -110s-107 39 -107 110z" />
    <glyph glyph-name="J" unicode="J" horiz-adv-x="1131" 
d="M144 131c-67 72 -48 143 14 174c15 7 29 10 42 10c40 0 75 -28 103 -57c37 -43 103 -96 206 -96c175 0 248 105 248 293v870c0 71 38 109 107 109s107 -38 107 -109v-870c0 -337 -185 -479 -458 -479c-197 0 -309 81 -369 155z" />
    <glyph glyph-name="K" unicode="K" horiz-adv-x="1388" 
d="M160 110v1214c0 71 38 110 107 110s107 -39 107 -110v-549l691 628c25 22 52 32 78 32s50 -10 67 -28c38 -40 40 -105 -17 -154l-477 -435l518 -654c42 -54 35 -111 -9 -145c-19 -14 -42 -22 -65 -22c-30 0 -61 13 -85 43l-510 646l-191 -178v-398
c0 -71 -38 -110 -107 -110s-107 39 -107 110z" />
    <glyph glyph-name="L" unicode="L" horiz-adv-x="1210" 
d="M160 1325c0 71 38 109 107 109s107 -38 107 -109v-1139h614c71 0 110 -33 110 -93s-39 -93 -110 -93h-718c-71 0 -110 39 -110 110v1215z" />
    <glyph glyph-name="M" unicode="M" horiz-adv-x="1822" 
d="M267 0c-69 0 -107 39 -107 110v1158c0 95 57 166 162 166c82 0 148 -45 187 -143l402 -982l402 982c39 98 105 143 187 143c105 0 162 -71 162 -166v-1158c0 -71 -38 -110 -107 -110s-107 39 -107 110v991l-406 -993c-29 -71 -63 -108 -131 -108s-102 37 -131 108
l-406 993v-991c0 -71 -38 -110 -107 -110z" />
    <glyph glyph-name="N" unicode="N" horiz-adv-x="1506" 
d="M267 0c-69 0 -107 39 -107 110v1167c0 87 41 157 148 157c72 0 124 -38 172 -114l652 -1007v1011c0 71 38 110 107 110s107 -39 107 -110v-1167c0 -87 -41 -157 -148 -157c-72 0 -124 38 -171 114l-653 1007v-1011c0 -71 -38 -110 -107 -110z" />
    <glyph glyph-name="O" unicode="O" horiz-adv-x="1684" 
d="M842 -22c-465 0 -722 329 -722 739c0 409 257 739 722 739s722 -330 722 -739c0 -410 -257 -739 -722 -739zM337 717c0 -312 168 -553 505 -553s505 241 505 553s-168 553 -505 553s-505 -241 -505 -553z" />
    <glyph glyph-name="P" unicode="P" horiz-adv-x="1397" 
d="M267 0c-69 0 -107 39 -107 110v1214c0 71 39 110 110 110h498c323 0 508 -174 508 -463s-185 -463 -508 -463h-394v-398c0 -71 -37 -110 -107 -110zM768 1248h-394v-554h394c198 0 291 110 291 277c0 168 -93 277 -291 277z" />
    <glyph glyph-name="Q" unicode="Q" horiz-adv-x="1686" 
d="M843 -22c-466 0 -723 331 -723 739s257 739 723 739c465 0 722 -331 722 -739c0 -243 -91 -459 -263 -593l40 -44c46 -49 35 -105 -4 -135c-17 -13 -36 -20 -56 -20c-27 0 -54 12 -77 39l-61 70c-87 -36 -188 -56 -301 -56zM338 717c0 -312 168 -553 505 -553
c61 0 116 10 165 26l-54 64c-34 41 -26 90 13 119c17 13 35 20 53 20c23 0 47 -12 68 -35l78 -86c121 98 181 260 181 445c0 312 -168 553 -504 553c-337 0 -505 -241 -505 -553z" />
    <glyph glyph-name="R" unicode="R" horiz-adv-x="1391" 
d="M270 1434h517c295 0 485 -159 485 -435c0 -225 -150 -370 -329 -406l258 -440c36 -64 26 -125 -35 -152c-16 -7 -32 -10 -46 -10c-43 0 -77 26 -101 68l-299 511h-346v-461c0 -71 -37 -109 -107 -109c-69 0 -107 38 -107 109v1215c0 71 39 110 110 110zM787 1248h-413
v-498h413c185 0 268 100 268 249s-83 249 -268 249z" />
    <glyph glyph-name="S" unicode="S" horiz-adv-x="1322" 
d="M183 78c-66 31 -83 93 -51 143c20 30 46 43 77 43c22 0 47 -7 73 -17c82 -34 229 -83 385 -83c221 0 322 74 322 221c0 131 -95 200 -347 258c-342 77 -509 207 -509 426c0 226 173 387 510 387c189 0 330 -36 414 -69c70 -26 99 -83 68 -138c-18 -33 -48 -45 -83 -45
c-22 0 -46 5 -70 12c-70 23 -195 54 -325 54c-174 0 -297 -61 -297 -201c0 -124 108 -181 331 -233c340 -77 525 -193 525 -451c0 -277 -209 -407 -535 -407c-228 0 -394 55 -488 100z" />
    <glyph glyph-name="T" unicode="T" horiz-adv-x="1366" 
d="M82 1341c0 60 39 93 110 93h982c71 0 110 -33 110 -93s-39 -93 -110 -93h-384v-1139c0 -71 -38 -109 -107 -109s-107 38 -107 109v1139h-384c-71 0 -110 33 -110 93z" />
    <glyph glyph-name="U" unicode="U" horiz-adv-x="1514" 
d="M757 -22c-402 0 -597 234 -597 646v701c0 71 38 109 107 109s107 -38 107 -109v-701c0 -303 114 -460 383 -460s383 157 383 460v701c0 71 38 109 107 109s107 -38 107 -109v-701c0 -412 -195 -646 -597 -646z" />
    <glyph glyph-name="V" unicode="V" horiz-adv-x="1434" 
d="M106 1274c-28 71 -17 140 58 160c12 3 22 5 32 5c55 0 88 -43 105 -89l416 -1057l416 1057c17 46 50 89 105 89c10 0 20 -2 32 -5c75 -20 87 -89 59 -160l-479 -1179c-27 -67 -72 -95 -133 -95c-60 0 -105 28 -133 95z" />
    <glyph glyph-name="W" unicode="W" horiz-adv-x="2003" 
d="M101 1288c-24 71 2 128 66 144c12 3 23 5 33 5c48 0 83 -31 100 -87l305 -975l269 958c18 62 58 101 128 101c69 0 109 -39 127 -101l269 -958l305 975c17 56 52 87 100 87c10 0 21 -2 33 -5c65 -16 90 -73 66 -144l-389 -1198c-20 -60 -58 -90 -117 -90
c-57 0 -94 30 -111 93l-283 1011l-284 -1011c-17 -63 -54 -93 -111 -93c-59 0 -96 30 -117 90z" />
    <glyph glyph-name="X" unicode="X" horiz-adv-x="1413" 
d="M159 17c-42 28 -61 87 -17 146l430 582l-401 519c-46 58 -39 118 8 152c19 14 39 20 59 20c35 0 70 -19 95 -54l374 -483l374 483c25 35 59 54 94 54c20 0 40 -6 59 -20c48 -34 54 -94 9 -152l-402 -519l430 -582c44 -59 25 -118 -16 -146c-18 -12 -38 -18 -58 -18
c-32 0 -65 15 -92 52l-398 539l-399 -539c-27 -37 -60 -52 -92 -52c-20 0 -40 6 -57 18z" />
    <glyph glyph-name="Y" unicode="Y" horiz-adv-x="1383" 
d="M123 1265c-45 65 -31 125 20 156c16 9 33 14 50 14c38 0 76 -24 106 -66l392 -580l392 580c30 42 68 66 106 66c17 0 34 -5 50 -14c51 -31 65 -91 20 -156l-461 -682v-473c0 -71 -38 -110 -107 -110s-107 39 -107 110v473z" />
    <glyph glyph-name="Z" unicode="Z" horiz-adv-x="1391" 
d="M140 78c0 33 16 72 45 112l762 1058h-684c-71 0 -109 33 -109 93s38 93 109 93h877c73 0 106 -32 106 -78c0 -33 -16 -72 -45 -112l-763 -1058h704c71 0 109 -33 109 -93s-38 -93 -109 -93h-896c-74 0 -106 32 -106 78z" />
    <glyph glyph-name="bracketleft" unicode="[" horiz-adv-x="797" 
d="M170 -231v1555c0 71 39 110 110 110h277c71 0 110 -33 110 -93s-39 -93 -110 -93h-173v-1403h173c71 0 110 -33 110 -93s-39 -93 -110 -93h-277c-71 0 -110 39 -110 110z" />
    <glyph glyph-name="backslash" unicode="\" horiz-adv-x="1035" 
d="M148 1286c-37 84 -13 136 54 148c10 2 20 3 29 3c51 0 83 -36 104 -85l553 -1201c37 -84 12 -137 -54 -149c-10 -2 -20 -3 -29 -3c-52 0 -84 37 -105 85z" />
    <glyph glyph-name="bracketright" unicode="]" horiz-adv-x="797" 
d="M130 1341c0 60 39 93 110 93h278c70 0 109 -39 109 -110v-1555c0 -71 -39 -110 -109 -110h-278c-71 0 -110 33 -110 93s39 93 110 93h173v1403h-173c-71 0 -110 33 -110 93z" />
    <glyph glyph-name="asciicircum" unicode="^" horiz-adv-x="1000" 
d="M186 841c-61 10 -88 57 -40 133l237 388c32 50 68 72 117 72c50 0 86 -22 118 -72l237 -388c48 -76 20 -123 -41 -133c-57 -9 -96 21 -130 69l-184 281l-184 -281c-34 -48 -72 -78 -130 -69z" />
    <glyph glyph-name="underscore" unicode="_" horiz-adv-x="1215" 
d="M120 -199c0 53 37 81 108 81h759c71 0 108 -28 108 -81s-37 -81 -108 -81h-759c-71 0 -108 28 -108 81z" />
    <glyph glyph-name="a" unicode="a" horiz-adv-x="1164" 
d="M100 311c0 283 294 353 557 353c57 0 113 -4 163 -8c-3 134 -27 218 -234 218c-96 0 -206 -33 -262 -51c-21 -6 -40 -9 -57 -9c-35 0 -61 14 -75 44c-21 46 1 93 70 117c69 25 190 61 332 61c361 0 430 -168 430 -438v-489c0 -71 -36 -109 -102 -109s-97 33 -102 89v80
c-17 -38 -82 -190 -330 -190c-235 0 -390 113 -390 332zM307 315c0 -100 64 -174 209 -174c212 0 304 142 304 284v90c-36 3 -76 4 -116 4c-189 0 -397 -36 -397 -204z" />
    <glyph glyph-name="b" unicode="b" horiz-adv-x="1306" 
d="M140 1406c0 71 36 110 102 110s102 -39 102 -110v-578c24 41 115 208 345 208c341 0 517 -236 517 -529s-176 -529 -517 -529c-230 0 -324 168 -347 210c0 -9 -2 -80 -4 -105c-5 -52 -35 -83 -96 -83c-66 0 -102 39 -102 109v1297zM344 507c0 -197 114 -363 327 -363
c212 0 326 166 326 363s-114 363 -326 363c-213 0 -327 -166 -327 -363z" />
    <glyph glyph-name="c" unicode="c" horiz-adv-x="1111" 
d="M650 -22c-339 0 -550 216 -550 529s211 529 550 529c137 0 236 -37 300 -71c65 -32 73 -84 43 -126c-18 -25 -40 -35 -67 -35c-21 0 -45 6 -73 17c-49 23 -121 49 -203 49c-222 0 -341 -155 -341 -363s119 -363 341 -363c82 0 154 26 203 49c28 11 52 17 73 17
c27 0 49 -10 67 -35c30 -42 22 -94 -43 -126c-64 -34 -163 -71 -300 -71z" />
    <glyph glyph-name="d" unicode="d" horiz-adv-x="1306" 
d="M100 507c0 293 176 529 517 529c230 0 321 -167 345 -208v578c0 71 36 110 102 110s102 -39 102 -110v-1297c0 -70 -36 -109 -102 -109c-61 0 -91 31 -96 83c-2 25 -4 96 -4 105c-23 -42 -117 -210 -347 -210c-341 0 -517 236 -517 529zM309 507
c0 -197 114 -363 327 -363c212 0 326 166 326 363s-114 363 -326 363c-213 0 -327 -166 -327 -363z" />
    <glyph glyph-name="e" unicode="e" horiz-adv-x="1201" 
d="M100 507c0 299 184 529 505 529c274 0 475 -170 497 -498c3 -73 -36 -113 -108 -113h-682c6 -157 114 -283 303 -283c105 0 192 28 253 62c26 11 50 18 71 18c25 0 45 -10 60 -33c34 -51 8 -103 -54 -135c-76 -41 -188 -76 -340 -76c-327 0 -505 232 -505 529zM605 872
c-180 0 -279 -130 -293 -291h587c-13 161 -113 291 -294 291z" />
    <glyph glyph-name="f" unicode="f" horiz-adv-x="892" 
d="M80 931c0 54 36 83 96 83h106v51c0 301 83 473 352 473c44 0 82 -5 112 -11c73 -11 101 -53 84 -104c-16 -52 -58 -65 -112 -57c-19 4 -40 6 -60 6c-138 0 -172 -77 -172 -307v-51h199c61 0 96 -29 96 -83s-35 -83 -96 -83h-199v-738c0 -71 -36 -110 -102 -110
s-102 39 -102 110v738h-106c-61 0 -96 29 -96 83z" />
    <glyph glyph-name="g" unicode="g" horiz-adv-x="1306" 
d="M100 507c0 293 176 529 517 529c230 0 321 -167 345 -208c1 22 4 89 6 107c8 52 42 79 96 79c66 0 102 -38 102 -109v-905c0 -420 -277 -532 -535 -532c-152 0 -271 38 -348 71c-69 27 -83 79 -55 127c16 28 39 38 67 38c22 0 46 -6 73 -16c61 -25 152 -54 255 -54
c206 0 339 115 339 366v185c-20 -31 -121 -207 -345 -207c-341 0 -517 236 -517 529zM309 507c0 -197 114 -363 327 -363c212 0 326 166 326 363s-114 363 -326 363c-213 0 -327 -166 -327 -363z" />
    <glyph glyph-name="h" unicode="h" 
d="M242 0c-66 0 -102 39 -102 110v1296c0 71 36 110 102 110s102 -39 102 -110v-552c15 34 79 182 289 182c294 0 450 -178 450 -473v-453c0 -71 -36 -110 -102 -110s-102 39 -102 110v453c0 183 -79 307 -268 307c-188 0 -267 -124 -267 -307v-453
c0 -71 -36 -110 -102 -110z" />
    <glyph glyph-name="i" unicode="i" horiz-adv-x="525" 
d="M161 110v794c0 71 36 110 102 110s102 -39 102 -110v-794c0 -71 -36 -110 -102 -110s-102 39 -102 110zM141 1297c0 67 55 121 122 121c66 0 121 -54 121 -121s-55 -121 -121 -121c-67 0 -122 54 -122 121z" />
    <glyph glyph-name="j" unicode="j" horiz-adv-x="521" 
d="M-63 -521c-71 12 -107 60 -87 115c14 38 42 50 77 50c13 0 26 -2 40 -4c19 -3 40 -6 64 -5c120 5 126 147 126 310v959c0 71 36 110 102 110s102 -39 102 -110v-959c0 -299 -60 -477 -321 -477c-41 0 -76 5 -103 11zM137 1297c0 67 55 121 122 121c66 0 121 -54 121 -121
s-55 -121 -121 -121c-67 0 -122 54 -122 121z" />
    <glyph glyph-name="k" unicode="k" horiz-adv-x="1099" 
d="M140 110v1296c0 71 36 110 102 110s102 -39 102 -110v-801l472 384c22 18 47 27 71 27c25 0 48 -10 64 -28c34 -39 32 -98 -24 -143l-306 -250l341 -433c44 -55 40 -115 -5 -147c-17 -12 -36 -18 -55 -18c-32 0 -63 17 -86 46l-342 436l-130 -107v-262
c0 -71 -36 -110 -102 -110s-102 39 -102 110z" />
    <glyph glyph-name="l" unicode="l" horiz-adv-x="566" 
d="M362 0c-197 0 -222 139 -222 262v1144c0 71 36 110 102 110s102 -39 102 -110v-1149c0 -54 3 -91 45 -91c43 0 77 -25 77 -79s-43 -87 -104 -87z" />
    <glyph glyph-name="m" unicode="m" horiz-adv-x="1812" 
d="M140 905c0 71 36 109 102 109c54 0 86 -27 93 -74c2 -13 4 -56 5 -70c14 31 72 166 259 166c196 0 299 -96 352 -199c18 35 95 199 312 199c267 0 409 -177 409 -487v-439c0 -71 -36 -110 -102 -110s-102 39 -102 110v445c0 177 -65 315 -230 315s-230 -138 -230 -315
v-445c0 -71 -36 -110 -102 -110s-102 39 -102 110v445c0 177 -65 315 -230 315s-230 -138 -230 -315v-445c0 -71 -36 -110 -102 -110s-102 39 -102 110v795z" />
    <glyph glyph-name="n" unicode="n" 
d="M140 905c0 71 36 109 102 109c56 0 88 -28 95 -81c2 -31 3 -51 4 -82c17 37 82 185 292 185c294 0 450 -178 450 -473v-453c0 -71 -36 -110 -102 -110s-102 39 -102 110v453c0 183 -79 307 -268 307c-188 0 -267 -124 -267 -307v-453c0 -71 -36 -110 -102 -110
s-102 39 -102 110v795z" />
    <glyph glyph-name="o" unicode="o" horiz-adv-x="1298" 
d="M100 507c0 313 215 529 550 529c334 0 549 -216 549 -529s-215 -529 -549 -529c-335 0 -550 216 -550 529zM309 507c0 -207 117 -363 341 -363c221 0 340 156 340 363s-119 363 -340 363c-224 0 -341 -156 -341 -363z" />
    <glyph glyph-name="p" unicode="p" horiz-adv-x="1306" 
d="M140 905c0 71 36 109 102 109c58 0 91 -30 97 -85c1 -18 2 -84 3 -103c19 34 122 210 347 210c341 0 517 -236 517 -529s-176 -529 -517 -529c-225 0 -325 176 -345 207v-607c0 -71 -36 -110 -102 -110s-102 39 -102 110v1327zM344 507c0 -197 114 -363 327 -363
c212 0 326 166 326 363s-114 363 -326 363c-213 0 -327 -166 -327 -363z" />
    <glyph glyph-name="q" unicode="q" horiz-adv-x="1306" 
d="M100 507c0 293 176 529 517 529c225 0 328 -176 347 -210c1 19 2 85 3 103c6 55 40 85 97 85c66 0 102 -38 102 -109v-1327c0 -71 -36 -110 -102 -110s-102 39 -102 110v607c-19 -31 -120 -207 -345 -207c-341 0 -517 236 -517 529zM309 507c0 -197 114 -363 327 -363
c212 0 326 166 326 363s-114 363 -326 363c-213 0 -327 -166 -327 -363z" />
    <glyph glyph-name="r" unicode="r" horiz-adv-x="910" 
d="M242 0c-66 0 -102 39 -102 110v795c0 71 36 109 102 109c55 0 88 -29 95 -82c2 -19 2 -69 3 -78c15 34 79 182 289 182c52 0 94 -7 128 -15c74 -13 93 -72 66 -120c-20 -36 -48 -46 -82 -46c-17 0 -37 3 -58 6c-21 5 -44 9 -71 9c-190 0 -268 -126 -268 -309v-451
c0 -71 -36 -110 -102 -110z" />
    <glyph glyph-name="s" unicode="s" horiz-adv-x="1034" 
d="M162 41c-67 27 -85 81 -57 127c16 29 40 40 70 40c19 0 41 -5 65 -12c62 -21 161 -52 271 -52c137 0 224 48 224 141c0 90 -71 125 -245 158c-282 53 -396 144 -396 306c0 161 131 287 400 287c139 0 247 -23 315 -46c70 -23 93 -76 67 -122c-18 -32 -45 -44 -78 -44
c-17 0 -36 4 -56 9c-54 15 -143 37 -240 37c-148 0 -201 -49 -201 -124c0 -74 70 -111 226 -141c268 -52 415 -124 415 -326c0 -207 -186 -301 -429 -301c-159 0 -278 32 -351 63z" />
    <glyph glyph-name="t" unicode="t" horiz-adv-x="884" 
d="M80 931c0 54 35 83 96 83h105v185c0 71 36 110 102 110s102 -39 102 -110v-185h199c60 0 95 -29 95 -83s-35 -83 -95 -83h-199v-405c0 -204 12 -301 155 -301c17 0 34 1 50 3c54 3 90 -10 100 -56c11 -52 -23 -86 -85 -101c-25 -6 -49 -10 -80 -10
c-294 0 -344 156 -344 467v403h-105c-61 0 -96 29 -96 83z" />
    <glyph glyph-name="u" unicode="u" 
d="M140 451v453c0 71 36 110 102 110s102 -39 102 -110v-453c0 -183 79 -307 268 -307c188 0 267 124 267 307v453c0 71 36 110 102 110s102 -39 102 -110v-795c0 -70 -36 -109 -102 -109c-53 0 -85 27 -92 77c-3 31 -6 53 -8 86c-16 -37 -81 -185 -291 -185
c-294 0 -450 178 -450 473z" />
    <glyph glyph-name="v" unicode="v" horiz-adv-x="1124" 
d="M101 851c-30 69 -24 138 47 161c13 4 25 6 36 6c51 0 84 -40 103 -88l275 -695l276 695c18 48 51 88 102 88c11 0 23 -2 36 -6c71 -23 77 -92 47 -161l-314 -747c-31 -73 -83 -104 -147 -104s-116 31 -147 104z" />
    <glyph glyph-name="w" unicode="w" horiz-adv-x="1589" 
d="M93 868c-23 74 3 129 64 143c10 2 20 4 30 4c47 0 83 -29 100 -85l196 -647l198 638c19 62 56 93 113 93c58 0 95 -31 114 -93l197 -638l197 647c17 56 53 85 100 85c10 0 20 -2 30 -4c61 -14 87 -69 64 -143l-259 -779c-20 -60 -60 -89 -124 -89c-68 0 -107 29 -126 91
l-193 621l-192 -621c-19 -62 -59 -91 -126 -91c-64 0 -104 29 -124 89z" />
    <glyph glyph-name="x" unicode="x" horiz-adv-x="1145" 
d="M150 21c-35 29 -54 84 -10 136l301 367l-274 326c-48 55 -38 113 4 146c16 13 35 20 55 20c29 0 61 -16 88 -47l259 -312l258 312c27 31 59 47 89 47c20 0 39 -7 55 -20c42 -33 51 -91 3 -146l-274 -326l301 -367c45 -52 25 -107 -10 -136c-17 -14 -38 -22 -60 -22
c-28 0 -57 13 -82 43l-280 348l-281 -348c-25 -30 -54 -43 -82 -43c-22 0 -43 8 -60 22z" />
    <glyph glyph-name="y" unicode="y" horiz-adv-x="1124" 
d="M148 1012c13 4 25 6 36 6c51 0 84 -40 103 -88l275 -695l276 695c18 48 51 88 102 88c11 0 23 -2 36 -6c71 -23 77 -92 47 -161l-486 -1154c-46 -109 -105 -224 -271 -228c-37 -1 -56 1 -84 6c-67 11 -111 57 -89 115c19 48 58 55 103 48c14 -2 27 -4 43 -3
c76 3 99 62 134 148l87 214l-359 854c-30 69 -24 138 47 161z" />
    <glyph glyph-name="z" unicode="z" horiz-adv-x="1090" 
d="M188 0c-55 0 -84 26 -84 65c0 30 16 59 48 99l542 684h-462c-71 0 -110 29 -110 83s39 83 110 83h665c55 0 84 -26 84 -65c0 -30 -16 -59 -48 -99l-542 -684h486c71 0 109 -29 109 -83s-38 -83 -109 -83h-689z" />
    <glyph glyph-name="braceleft" unicode="{" horiz-adv-x="907" 
d="M120 580c0 62 35 89 89 120c98 36 159 111 159 294c0 267 117 422 303 462c12 3 23 4 33 4c52 0 83 -35 83 -84c0 -62 -32 -85 -79 -111c-82 -38 -122 -141 -122 -285c0 -234 -95 -355 -211 -400c116 -45 211 -165 211 -400c0 -143 40 -246 122 -285
c47 -25 79 -49 79 -111c0 -50 -31 -84 -84 -84c-10 0 -21 1 -32 4c-186 40 -303 196 -303 462c0 183 -61 258 -159 294c-54 31 -89 58 -89 120z" />
    <glyph glyph-name="bar" unicode="|" horiz-adv-x="494" 
d="M140 -422v1828c0 71 38 110 107 110s107 -39 107 -110v-1828c0 -71 -38 -110 -107 -110s-107 39 -107 110z" />
    <glyph glyph-name="braceright" unicode="}" horiz-adv-x="907" 
d="M120 1376c0 49 32 84 84 84c10 0 21 -1 33 -4c185 -40 302 -195 302 -462c0 -183 61 -258 160 -294c53 -31 88 -58 88 -120s-35 -89 -88 -120c-99 -36 -160 -111 -160 -294c0 -266 -117 -422 -302 -462c-11 -3 -22 -4 -32 -4c-53 0 -85 34 -85 84c0 62 32 86 79 111
c83 39 123 142 123 285c0 235 95 355 210 400c-115 45 -210 166 -210 400c0 144 -40 246 -123 285c-47 26 -79 49 -79 111z" />
    <glyph glyph-name="asciitilde" unicode="~" horiz-adv-x="1147" 
d="M211 627c-64 0 -107 45 -83 117c28 90 95 195 257 195c113 0 177 -58 234 -114c60 -59 89 -91 140 -91c40 0 64 28 82 56c21 42 45 67 95 67c64 0 107 -45 83 -116c-28 -90 -95 -196 -256 -196c-114 0 -178 59 -235 115c-60 59 -89 91 -139 91c-40 0 -63 -27 -80 -55
c-22 -42 -47 -69 -98 -69z" />
    <glyph glyph-name="uni00A0" unicode="&#xa0;" horiz-adv-x="1117" 
 />
    <glyph glyph-name="exclamdown" unicode="&#xa1;" horiz-adv-x="529" 
d="M266 -508c-71 0 -108 38 -107 110l9 870c1 71 37 109 98 109s95 -38 96 -109l9 -870c1 -72 -35 -110 -105 -110zM140 814c0 68 56 124 125 124c68 0 124 -56 124 -124c0 -69 -56 -125 -124 -125c-69 0 -125 56 -125 125z" />
    <glyph glyph-name="questiondown" unicode="&#xbf;" horiz-adv-x="1143" 
d="M103 -135c0 231 158 362 428 404v215c0 63 38 97 107 97s107 -36 107 -102v-244c0 -65 -38 -97 -107 -107c-179 -21 -319 -97 -319 -259c0 -129 97 -215 289 -215c125 0 207 62 258 112c32 27 67 47 102 47c18 0 35 -5 52 -17c51 -34 55 -100 1 -151
c-69 -75 -200 -177 -413 -177c-354 0 -505 192 -505 397zM514 814c0 68 55 124 124 124s124 -56 124 -124c0 -69 -55 -125 -124 -125s-124 56 -124 125z" />
    <glyph glyph-name="sterling" unicode="&#xa3;" horiz-adv-x="1399" 
d="M244 622c-65 0 -104 32 -104 92c0 53 29 84 78 89c13 1 55 2 69 3c-6 36 -9 102 -9 150c-3 225 124 502 514 502c215 0 351 -85 429 -186c45 -52 33 -103 -12 -133c-19 -13 -37 -18 -55 -18c-32 0 -63 18 -91 44c-49 55 -127 107 -271 107c-225 0 -300 -158 -300 -317
c0 -48 5 -111 10 -149h377c65 0 104 -33 104 -92s-39 -92 -104 -92h-341c13 -68 28 -135 28 -204c0 -126 -69 -221 -76 -232h660c71 0 110 -33 110 -93s-39 -93 -110 -93h-810c-71 0 -110 35 -110 87c0 45 18 77 47 121c33 47 75 125 75 211c0 39 -9 110 -28 203h-80z" />
    <glyph glyph-name="currency" unicode="&#xa4;" horiz-adv-x="1074" 
d="M132 989c-39 46 -43 92 -5 130c18 18 39 27 61 27c23 0 48 -11 72 -33c24 -23 38 -37 62 -61c62 40 139 64 216 64s155 -25 216 -63c25 24 40 39 65 61c23 21 46 31 69 31c21 0 41 -9 59 -27c39 -38 35 -86 -4 -129c-23 -25 -38 -40 -62 -64c39 -62 64 -140 64 -216
c0 -77 -25 -155 -64 -217c24 -24 38 -38 61 -63c39 -44 45 -91 5 -130c-18 -18 -38 -26 -59 -26c-23 0 -47 10 -71 31c-24 23 -39 37 -63 61c-61 -38 -139 -63 -216 -63c-76 0 -154 25 -216 63c-25 -25 -42 -41 -68 -64c-22 -19 -45 -28 -67 -28c-21 0 -42 8 -60 26
c-37 36 -35 82 6 130c23 25 37 40 60 64c-38 61 -64 139 -64 216c0 76 26 154 64 216c-24 25 -38 40 -61 64zM298 710c0 -133 107 -240 240 -240s240 107 240 240s-107 239 -240 239s-240 -106 -240 -239z" />
    <glyph glyph-name="brokenbar" unicode="&#xa6;" horiz-adv-x="494" 
d="M140 1341c0 71 38 109 107 109s107 -38 107 -109v-627c0 -71 -38 -109 -107 -109s-107 38 -107 109v627zM247 -532c-69 0 -107 39 -107 110v626c0 71 38 110 107 110s107 -39 107 -110v-626c0 -71 -38 -110 -107 -110z" />
    <glyph glyph-name="section" unicode="&#xa7;" horiz-adv-x="1316" 
d="M626 82c-341 77 -526 193 -526 452c0 135 50 236 140 304c-65 63 -96 140 -96 236c0 227 171 384 510 384c188 0 329 -36 414 -69c69 -26 100 -83 68 -138c-19 -33 -49 -45 -83 -45c-22 0 -46 5 -71 12c-69 23 -194 54 -324 54c-174 0 -297 -58 -297 -198
c0 -125 108 -178 330 -230c341 -77 526 -193 526 -452c0 -136 -51 -237 -141 -305c65 -62 97 -139 97 -235c0 -227 -171 -384 -510 -384c-188 0 -329 36 -414 69c-69 26 -100 83 -68 138c19 33 49 45 83 45c22 0 46 -5 71 -12c69 -23 194 -54 324 -54c174 0 297 58 297 198
c0 125 -108 178 -330 230zM317 534c0 -127 86 -197 320 -252c91 -23 171 -47 234 -76c85 34 129 95 129 186c0 128 -88 198 -323 253c-90 22 -169 46 -231 74c-86 -34 -129 -95 -129 -185z" />
    <glyph glyph-name="copyright" unicode="&#xa9;" horiz-adv-x="1721" 
d="M120 717c0 408 330 739 741 739s740 -331 740 -739s-329 -739 -740 -739s-741 331 -741 739zM861 1286c-315 0 -570 -253 -570 -569s255 -569 570 -569c314 0 569 253 569 569s-255 569 -569 569zM861 286c-262 0 -419 189 -419 431s157 431 419 431
c89 0 168 -19 234 -58c51 -32 60 -75 33 -110c-15 -20 -33 -28 -53 -28c-18 0 -38 6 -61 16c-47 21 -102 31 -153 31c-170 0 -247 -128 -247 -282s77 -282 247 -282c51 0 106 10 153 31c24 10 44 16 61 16c21 0 38 -8 53 -28c27 -35 19 -78 -32 -109
c-67 -40 -146 -59 -235 -59z" />
    <glyph glyph-name="guillemotleft" unicode="&#xab;" horiz-adv-x="1499" 
d="M698 624c0 44 20 78 65 114l462 359c32 25 59 36 80 36c35 0 54 -33 54 -94c0 -58 -20 -98 -66 -134l-367 -281l367 -281c46 -35 66 -75 66 -133c0 -57 -25 -88 -62 -88c-21 0 -45 10 -72 30l-462 359c-45 36 -65 69 -65 113zM120 624c0 44 20 78 65 114l462 359
c32 25 59 36 80 36c35 0 54 -33 54 -94c0 -58 -20 -98 -66 -134l-367 -281l367 -281c46 -35 66 -75 66 -133c0 -57 -25 -88 -62 -88c-21 0 -45 10 -72 30l-462 359c-45 36 -65 69 -65 113z" />
    <glyph glyph-name="guillemotright" unicode="&#xbb;" horiz-adv-x="1499" 
d="M207 905c-47 36 -67 76 -67 134c0 57 25 88 62 88c21 0 46 -10 72 -30l462 -359c45 -36 65 -70 65 -114s-20 -77 -65 -113l-462 -359c-32 -25 -59 -37 -80 -37c-35 0 -54 34 -54 95c0 58 20 98 67 133l366 281zM785 905c-47 36 -67 76 -67 134c0 57 25 88 62 88
c21 0 46 -10 72 -30l462 -359c45 -36 65 -70 65 -114s-20 -77 -65 -113l-462 -359c-32 -25 -59 -37 -80 -37c-35 0 -54 34 -54 95c0 58 20 98 67 133l366 281z" />
    <glyph glyph-name="logicalnot" unicode="&#xac;" horiz-adv-x="1210" 
d="M120 727c0 62 39 96 110 96h751c71 0 109 -39 109 -109v-339c0 -71 -37 -109 -106 -109s-107 38 -107 109v255h-647c-71 0 -110 34 -110 97z" />
    <glyph glyph-name="uni00AD" unicode="&#xad;" horiz-adv-x="1023" 
d="M120 642c0 56 37 88 108 88h568c71 0 107 -32 107 -88s-36 -88 -107 -88h-568c-71 0 -108 31 -108 88z" />
    <glyph glyph-name="registered" unicode="&#xae;" horiz-adv-x="1128" 
d="M100 994c0 255 208 464 464 464s464 -209 464 -464c0 -257 -208 -464 -464 -464s-464 207 -464 464zM564 1349c-196 0 -355 -159 -355 -355c0 -197 159 -355 355 -355s355 158 355 355c0 196 -159 355 -355 355zM452 759c-31 0 -50 16 -50 64v325c0 59 31 89 89 89h111
c110 0 153 -73 153 -154c0 -62 -26 -121 -88 -138l57 -108c24 -45 14 -68 -13 -78c-8 -3 -15 -4 -21 -4c-22 0 -38 16 -52 41l-72 136h-64v-109c0 -48 -17 -64 -50 -64zM502 1147v-127h100c38 0 53 29 53 63c0 35 -15 64 -53 64h-100z" />
    <glyph glyph-name="degree" unicode="&#xb0;" horiz-adv-x="604" 
d="M302 954c-139 0 -252 112 -252 252s113 252 252 252c140 0 251 -112 251 -252s-111 -252 -251 -252zM196 1206c0 -59 47 -106 106 -106s105 47 105 106c0 60 -46 106 -105 106s-106 -46 -106 -106z" />
    <glyph glyph-name="plusminus" unicode="&#xb1;" horiz-adv-x="1212" 
d="M229 759c-71 0 -109 34 -109 95c0 62 38 95 109 95h278v275c0 71 35 110 99 110c63 0 98 -39 98 -110v-275h278c71 0 109 -33 109 -95c0 -61 -38 -95 -109 -95h-278v-275c0 -71 -35 -109 -98 -109c-64 0 -99 38 -99 109v275h-278zM229 116c-71 0 -109 34 -109 95
c0 62 38 95 109 95h753c71 0 109 -33 109 -95c0 -61 -38 -95 -109 -95h-753z" />
    <glyph glyph-name="uni00B5" unicode="&#xb5;" horiz-adv-x="1250" 
d="M242 -532c-66 0 -102 39 -102 110v1326c0 71 36 110 102 110s102 -39 102 -110v-427c0 -201 87 -333 281 -333c195 0 281 132 281 333v427c0 71 36 110 102 110s102 -39 102 -110v-795c0 -70 -36 -109 -102 -109c-54 0 -86 26 -94 77c-3 14 -5 65 -8 82
c-12 -26 -76 -181 -281 -181s-268 155 -281 181v-581c0 -71 -36 -110 -102 -110z" />
    <glyph glyph-name="paragraph" unicode="&#xb6;" horiz-adv-x="1407" 
d="M543 593c-288 0 -423 202 -423 420c0 219 135 421 423 421h635c71 0 109 -33 109 -93c0 -54 -25 -86 -71 -91c-10 -1 -44 -1 -56 -2v-1138c0 -71 -38 -110 -107 -110s-107 39 -107 110v1138h-84v-1138c0 -71 -38 -110 -107 -110s-107 38 -107 107v486h-105zM334 1013
c0 -118 58 -234 209 -234h105v469h-105c-151 0 -209 -117 -209 -235z" />
    <glyph glyph-name="periodcentered" unicode="&#xb7;" horiz-adv-x="483" 
d="M120 679c0 67 54 122 122 122c67 0 121 -55 121 -122c0 -66 -54 -121 -121 -121c-68 0 -122 55 -122 121z" />
    <glyph glyph-name="cedilla" unicode="&#xb8;" horiz-adv-x="633" 
d="M180 -460c-67 13 -89 50 -75 88c9 27 30 36 61 36c15 0 32 -2 51 -5c20 -3 43 -6 65 -6c50 0 97 14 105 69c7 58 -53 71 -114 69c-76 3 -111 30 -87 97l39 114c16 44 45 59 94 59c45 0 66 -20 53 -59l-36 -104c117 -1 207 -61 196 -179c-14 -140 -127 -190 -249 -190
c-34 0 -69 4 -103 11z" />
    <glyph glyph-name="divide" unicode="&#xf7;" horiz-adv-x="1047" 
d="M120 697c0 62 39 95 110 95h587c71 0 110 -33 110 -95c0 -61 -39 -95 -110 -95h-587c-71 0 -110 33 -110 95zM395 999c0 71 57 128 129 128c71 0 128 -57 128 -128c0 -72 -57 -129 -128 -129c-72 0 -129 57 -129 129zM395 396c0 71 57 128 129 128c71 0 128 -57 128 -128
c0 -72 -57 -129 -128 -129c-72 0 -129 57 -129 129z" />
    <glyph glyph-name="multiply" unicode="&#xd7;" horiz-adv-x="1003" 
d="M150 316c-43 43 -40 94 9 143l206 207l-205 205c-50 50 -53 101 -9 145c20 21 43 31 65 31c26 0 52 -13 78 -39l207 -207l205 206c27 27 54 40 80 40c23 0 45 -10 66 -31c44 -44 40 -95 -9 -144l-207 -206l206 -205c49 -50 53 -101 10 -145c-20 -21 -42 -31 -65 -31
c-25 0 -52 13 -78 39l-208 207l-206 -206c-27 -26 -54 -40 -80 -40c-23 0 -45 11 -65 31z" />
    <glyph glyph-name="bullet" unicode="&#x2022;" horiz-adv-x="781" 
d="M140 678c0 139 112 251 251 251c138 0 250 -112 250 -251s-112 -251 -250 -251c-139 0 -251 112 -251 251z" />
    <glyph glyph-name="onedotenleader" unicode="&#x2024;" horiz-adv-x="489" 
d="M120 113c0 68 56 124 125 124c68 0 124 -56 124 -124c0 -69 -56 -125 -124 -125c-69 0 -125 56 -125 125z" />
    <glyph glyph-name="twodotenleader" unicode="&#x2025;" horiz-adv-x="836" 
d="M120 113c0 68 56 124 125 124c68 0 124 -56 124 -124c0 -69 -56 -125 -124 -125c-69 0 -125 56 -125 125zM592 -12c-69 0 -125 56 -125 125c0 68 56 124 125 124c68 0 124 -56 124 -124c0 -69 -56 -125 -124 -125z" />
    <glyph glyph-name="ellipsis" unicode="&#x2026;" horiz-adv-x="1181" 
d="M120 113c0 68 56 124 125 124c68 0 124 -56 124 -124c0 -69 -56 -125 -124 -125c-69 0 -125 56 -125 125zM591 -12c-69 0 -125 56 -125 125c0 68 56 124 125 124c68 0 124 -56 124 -124c0 -69 -56 -125 -124 -125zM812 113c0 68 56 124 125 124c68 0 124 -56 124 -124
c0 -69 -56 -125 -124 -125c-69 0 -125 56 -125 125z" />
    <glyph glyph-name="quoteleft" unicode="&#x2018;" horiz-adv-x="446" 
d="M150 977c-78 0 -112 48 -75 124l118 254c25 53 62 83 124 79c61 -4 87 -47 57 -124l-95 -247c-23 -60 -62 -86 -125 -86h-4z" />
    <glyph glyph-name="quoteright" unicode="&#x2019;" horiz-adv-x="446" 
d="M129 977c-61 4 -86 47 -57 124l95 246c23 60 63 87 125 87h4c78 0 112 -49 76 -124l-118 -254c-26 -54 -63 -83 -125 -79z" />
    <glyph glyph-name="quotesinglbase" unicode="&#x201a;" horiz-adv-x="476" 
d="M119 -216c-61 4 -86 47 -57 125l95 246c23 60 63 87 125 87h4c78 0 112 -49 76 -125l-118 -253c-26 -54 -63 -83 -125 -80z" />
    <glyph glyph-name="quotedblleft" unicode="&#x201c;" horiz-adv-x="748" 
d="M150 976c-78 0 -112 49 -75 124l118 254c25 54 62 83 124 79c61 -3 87 -47 57 -124l-95 -246c-23 -60 -62 -87 -125 -87h-4zM452 976c-78 0 -112 49 -75 124l118 254c25 54 62 83 124 79c61 -3 87 -47 57 -124l-95 -246c-23 -60 -62 -87 -125 -87h-4z" />
    <glyph glyph-name="quotedblright" unicode="&#x201d;" horiz-adv-x="748" 
d="M129 977c-61 4 -86 47 -57 124l95 246c23 60 63 87 125 87h4c78 0 112 -49 76 -124l-118 -254c-26 -54 -63 -83 -125 -79zM431 977c-61 4 -86 47 -57 124l95 246c23 60 63 87 125 87h4c78 0 112 -49 76 -124l-118 -254c-26 -54 -63 -83 -125 -79z" />
    <glyph glyph-name="quotedblbase" unicode="&#x201e;" horiz-adv-x="778" 
d="M421 -216c-61 4 -86 47 -57 125l95 246c23 60 63 87 125 87h4c78 0 112 -49 76 -125l-118 -253c-26 -54 -63 -83 -125 -80zM119 -216c-61 4 -86 47 -57 125l95 246c23 60 63 87 125 87h4c78 0 112 -49 76 -125l-118 -253c-26 -54 -63 -83 -125 -80z" />
    <glyph glyph-name="dieresis" unicode="&#xa8;" horiz-adv-x="877" 
d="M120 1297c0 66 55 121 122 121c66 0 121 -55 121 -121c0 -67 -55 -121 -121 -121c-67 0 -122 54 -122 121zM636 1176c-67 0 -122 54 -122 121c0 66 55 121 122 121c66 0 121 -55 121 -121c0 -67 -55 -121 -121 -121z" />
    <glyph glyph-name="circumflex" unicode="&#x2c6;" horiz-adv-x="772" 
d="M141 1117c-51 15 -54 64 -10 110l130 149c39 41 76 58 125 58s86 -17 125 -58l130 -149c44 -46 42 -95 -10 -110c-10 -3 -19 -4 -28 -4c-42 0 -76 27 -110 57l-107 110l-107 -110c-34 -30 -68 -57 -109 -57c-9 0 -19 1 -29 4z" />
    <glyph glyph-name="macron" unicode="&#xaf;" horiz-adv-x="989" 
d="M120 1351c0 54 39 83 110 83h532c71 0 107 -29 107 -83s-36 -84 -107 -84h-532c-71 0 -110 29 -110 84z" />
    <glyph glyph-name="acute" unicode="&#xb4;" horiz-adv-x="569" 
d="M165 1128c-70 6 -85 60 -36 117l120 134c35 40 78 55 133 55c85 0 115 -54 55 -114l-139 -138c-38 -37 -77 -58 -133 -54z" />
    <glyph glyph-name="grave" unicode="`" horiz-adv-x="569" 
d="M131 1320c-59 60 -29 114 56 114c55 0 98 -15 132 -55l120 -134c50 -57 34 -111 -35 -117c-57 -4 -95 17 -134 54z" />
    <glyph glyph-name="caron" unicode="&#x2c7;" horiz-adv-x="772" 
d="M131 1323c-44 47 -41 95 10 111c10 3 19 4 27 4c42 0 77 -27 111 -58l107 -110l107 110c34 31 69 58 111 58c9 0 18 -1 27 -4c52 -16 54 -64 10 -111l-130 -148c-39 -42 -76 -58 -125 -58s-86 16 -125 58z" />
    <glyph glyph-name="breve" unicode="&#x2d8;" horiz-adv-x="857" 
d="M133 1427c10 5 22 8 34 8c18 0 37 -7 53 -25c36 -35 91 -96 209 -96c115 0 172 61 205 94c17 18 38 27 58 27c11 0 22 -3 32 -8c34 -16 48 -63 14 -111c-60 -97 -192 -141 -309 -141s-236 40 -303 131c-42 52 -27 103 7 121z" />
    <glyph glyph-name="dotaccent" unicode="&#x2d9;" horiz-adv-x="483" 
d="M120 1302c0 66 54 120 122 120c66 0 121 -54 121 -120c0 -68 -55 -122 -121 -122c-68 0 -122 54 -122 122z" />
    <glyph glyph-name="ring" unicode="&#x2da;" horiz-adv-x="611" 
d="M306 1110c-106 0 -195 89 -195 194c0 107 89 195 195 195c105 0 194 -88 194 -195c0 -105 -89 -194 -194 -194zM230 1304c0 -42 33 -75 76 -75c42 0 75 33 75 75s-33 76 -75 76c-43 0 -76 -34 -76 -76z" />
    <glyph glyph-name="ogonek" unicode="&#x2db;" horiz-adv-x="527" 
d="M101 -201c0 140 134 189 167 201h85c-45 -40 -90 -86 -90 -147c0 -52 34 -74 72 -85c56 -21 92 -38 92 -93c0 -53 -40 -92 -111 -80c-114 16 -215 81 -215 204z" />
    <glyph glyph-name="tilde" unicode="&#x2dc;" horiz-adv-x="828" 
d="M169 1208c-53 2 -88 51 -53 119c26 61 77 127 186 127c82 0 120 -44 154 -79c25 -26 42 -47 67 -47c14 0 25 8 34 18c29 38 47 67 102 64c53 -2 88 -51 53 -119c-26 -60 -78 -126 -186 -126c-82 0 -120 44 -154 78c-25 27 -42 47 -67 47c-16 0 -26 -8 -36 -19
c-29 -38 -47 -65 -100 -63z" />
    <glyph glyph-name="hungarumlaut" unicode="&#x2dd;" horiz-adv-x="782" 
d="M459 1104c-53 4 -73 41 -52 107l56 157c19 56 59 82 118 82c70 0 100 -43 70 -109l-75 -161c-24 -53 -63 -80 -117 -76zM180 1104c-52 4 -73 41 -52 107l57 157c19 56 58 82 118 82c70 0 100 -43 69 -109l-74 -161c-24 -53 -63 -80 -118 -76z" />
    <glyph glyph-name="uni0326" unicode="&#x326;" horiz-adv-x="496" 
d="M167 -493c-59 4 -83 45 -56 111l84 206c22 56 59 80 121 80h3c74 0 108 -46 77 -109l-106 -211c-23 -47 -57 -82 -123 -77z" />
    <glyph glyph-name="tonos" unicode="&#x384;" horiz-adv-x="451" 
d="M161 1075c-58 4 -83 43 -65 109l47 161c18 61 60 89 123 89h6c74 0 107 -46 79 -114l-65 -162c-23 -58 -64 -87 -125 -83z" />
    <glyph glyph-name="dieresistonos" unicode="&#x385;" horiz-adv-x="817" 
d="M409 1460c-59 4 -84 43 -66 109l48 161c17 60 59 89 122 89h6c74 0 107 -46 79 -114l-65 -162c-23 -58 -63 -87 -124 -83zM212 1176c-67 0 -122 54 -122 121c0 66 55 121 122 121c66 0 121 -55 121 -121c0 -67 -55 -121 -121 -121zM606 1176c-67 0 -122 54 -122 121
c0 66 55 121 122 121c66 0 121 -55 121 -121c0 -67 -55 -121 -121 -121z" />
    <glyph glyph-name="Agrave" unicode="&#xc0;" horiz-adv-x="1464" 
d="M96 146l503 1195c27 67 73 93 134 93c60 0 105 -26 133 -93l502 -1195c30 -72 8 -133 -62 -146c-10 -2 -20 -3 -30 -3c-50 0 -86 29 -110 90l-128 308h-611l-130 -308c-25 -61 -60 -90 -110 -90c-9 0 -19 1 -30 3c-69 13 -92 74 -61 146zM733 1142l-234 -567h467z
M531 1842c55 0 98 -15 132 -55l120 -134c49 -57 34 -111 -35 -117c-57 -4 -96 17 -134 55l-139 137c-59 61 -29 114 56 114z" />
    <glyph glyph-name="Aacute" unicode="&#xc1;" horiz-adv-x="1464" 
d="M96 146l503 1195c27 67 73 93 134 93c60 0 105 -26 133 -93l502 -1195c30 -72 8 -133 -62 -146c-10 -2 -20 -3 -30 -3c-50 0 -86 29 -110 90l-128 308h-611l-130 -308c-25 -61 -60 -90 -110 -90c-9 0 -19 1 -30 3c-69 13 -92 74 -61 146zM733 1142l-234 -567h467z
M681 1653l120 134c34 40 77 55 132 55c85 0 115 -53 56 -114l-139 -137c-39 -38 -78 -59 -134 -55c-70 6 -85 60 -35 117z" />
    <glyph glyph-name="Acircumflex" unicode="&#xc2;" horiz-adv-x="1464" 
d="M96 146l503 1195c27 67 73 93 134 93c60 0 105 -26 133 -93l502 -1195c30 -72 8 -133 -62 -146c-10 -2 -20 -3 -30 -3c-50 0 -86 29 -110 90l-128 308h-611l-130 -308c-25 -61 -60 -90 -110 -90c-9 0 -19 1 -30 3c-69 13 -92 74 -61 146zM733 1142l-234 -567h467z
M477 1646l130 149c39 41 76 58 125 58s86 -17 125 -58l130 -149c44 -46 41 -95 -10 -111c-10 -3 -19 -4 -27 -4c-42 0 -77 27 -111 58l-107 110l-107 -110c-34 -31 -69 -58 -111 -58c-9 0 -18 1 -27 4c-52 16 -54 65 -10 111z" />
    <glyph glyph-name="Atilde" unicode="&#xc3;" horiz-adv-x="1464" 
d="M96 146l503 1195c27 67 73 93 134 93c60 0 105 -26 133 -93l502 -1195c30 -72 8 -133 -62 -146c-10 -2 -20 -3 -30 -3c-50 0 -86 29 -110 90l-128 308h-611l-130 -308c-25 -61 -60 -90 -110 -90c-9 0 -19 1 -30 3c-69 13 -92 74 -61 146zM733 1142l-234 -567h467z
M433 1699c26 61 78 127 187 127c81 0 119 -45 153 -79c26 -26 42 -47 68 -47c14 0 25 8 34 18c29 38 47 66 101 64s89 -51 54 -119c-26 -61 -78 -127 -186 -127c-82 0 -120 44 -154 79c-26 26 -42 47 -67 47c-16 0 -27 -9 -37 -20c-28 -37 -46 -64 -99 -62s-88 51 -54 119z
" />
    <glyph glyph-name="Adieresis" unicode="&#xc4;" horiz-adv-x="1464" 
d="M96 146l503 1195c27 67 73 93 133 93c61 0 106 -26 134 -93l502 -1195c30 -72 7 -133 -62 -146c-10 -2 -20 -3 -30 -3c-50 0 -86 29 -110 90l-128 308h-611l-130 -308c-25 -61 -60 -90 -110 -90c-9 0 -19 1 -30 3c-69 13 -92 74 -61 146zM499 575h467l-234 567zM535 1778
c66 0 121 -55 121 -121c0 -67 -55 -121 -121 -121c-67 0 -122 54 -122 121c0 66 55 121 122 121zM929 1778c66 0 121 -55 121 -121c0 -67 -55 -121 -121 -121c-67 0 -122 54 -122 121c0 66 55 121 122 121z" />
    <glyph glyph-name="Aring" unicode="&#xc5;" horiz-adv-x="1464" 
d="M96 146l503 1195c27 67 73 93 133 93c61 0 106 -26 134 -93l501 -1195c31 -72 8 -133 -61 -146c-11 -2 -21 -3 -30 -3c-50 0 -86 29 -110 90l-128 308h-611l-130 -308c-25 -61 -60 -90 -110 -90c-9 0 -19 1 -30 3c-69 13 -92 74 -61 146zM537 1731c0 106 89 195 195 195
c105 0 195 -89 195 -195s-90 -195 -195 -195c-106 0 -195 89 -195 195zM499 575h467l-234 567zM732 1655c42 0 75 34 75 76s-33 76 -75 76c-43 0 -76 -34 -76 -76s33 -76 76 -76z" />
    <glyph glyph-name="Amacron" unicode="&#x100;" horiz-adv-x="1464" 
d="M96 146l503 1195c27 67 73 93 134 93c60 0 105 -26 133 -93l502 -1195c30 -72 8 -133 -62 -146c-10 -2 -20 -3 -30 -3c-50 0 -86 29 -110 90l-128 308h-611l-130 -308c-25 -61 -60 -90 -110 -90c-9 0 -19 1 -30 3c-69 13 -92 74 -61 146zM499 575h467l-233 567zM467 1703
h532c71 0 107 -29 107 -83s-36 -84 -107 -84h-532c-71 0 -110 29 -110 84c0 54 39 83 110 83z" />
    <glyph glyph-name="Abreve" unicode="&#x102;" horiz-adv-x="1464" 
d="M96 146l503 1195c27 67 73 93 134 93c60 0 105 -26 133 -93l502 -1195c30 -72 8 -133 -62 -146c-10 -2 -20 -3 -30 -3c-50 0 -86 29 -110 90l-128 308h-611l-130 -308c-25 -61 -60 -90 -110 -90c-9 0 -19 1 -30 3c-69 13 -92 74 -61 146zM499 575h467l-233 567zM436 1788
c10 5 21 8 33 8c19 0 38 -7 54 -25c35 -35 91 -96 209 -96c115 0 171 61 205 94c17 18 38 27 58 27c11 0 22 -3 32 -8c34 -16 48 -63 14 -111c-61 -97 -193 -141 -309 -141c-118 0 -236 40 -303 131c-42 52 -28 103 7 121z" />
    <glyph glyph-name="Aogonek" unicode="&#x104;" horiz-adv-x="1464" 
d="M95 146l504 1195c27 67 73 93 133 93c61 0 106 -26 134 -93l502 -1195c25 -60 13 -113 -31 -136c-44 -39 -85 -84 -85 -142c0 -52 34 -74 72 -85c57 -21 92 -38 92 -93c0 -53 -40 -92 -110 -80c-115 16 -216 81 -216 204c0 116 93 170 143 192c-28 13 -50 40 -67 81
l-128 308h-611l-130 -308c-25 -61 -60 -90 -110 -90c-10 0 -20 1 -30 3c-69 13 -92 74 -62 146zM499 575h467l-234 567z" />
    <glyph glyph-name="uni01CD" unicode="&#x1cd;" horiz-adv-x="1464" 
d="M96 146l503 1195c27 67 73 93 134 93c60 0 105 -26 133 -93l502 -1195c30 -72 8 -133 -62 -146c-10 -2 -20 -3 -30 -3c-50 0 -86 29 -110 90l-128 308h-611l-130 -308c-25 -61 -60 -90 -110 -90c-9 0 -19 1 -30 3c-69 13 -92 74 -61 146zM499 575h467l-233 567zM487 1854
c9 3 18 4 27 4c42 0 77 -27 111 -58l107 -110l107 110c34 31 69 58 111 58c8 0 17 -1 27 -4c51 -16 54 -65 10 -111l-130 -149c-39 -41 -76 -58 -125 -58s-86 17 -125 58l-130 149c-44 46 -42 95 10 111z" />
    <glyph glyph-name="uni01DE" unicode="&#x1de;" horiz-adv-x="1464" 
d="M157 0c-69 13 -92 74 -61 146l503 1195c27 67 73 93 134 93c60 0 106 -26 134 -93l502 -1195c30 -72 7 -133 -62 -146c-10 -2 -20 -3 -30 -3c-50 0 -86 29 -110 90l-128 308h-612l-130 -308c-25 -61 -60 -90 -110 -90c-9 0 -19 1 -30 3zM499 575h468l-234 567zM386 1887
c0 48 33 74 96 74h503c62 0 95 -26 95 -74s-33 -75 -95 -75h-503c-63 0 -96 26 -96 75zM915 1528c-60 0 -110 48 -110 109c0 60 50 109 110 109s110 -49 110 -109c0 -61 -50 -109 -110 -109zM550 1528c-60 0 -110 48 -110 109c0 60 50 109 110 109s110 -49 110 -109
c0 -61 -50 -109 -110 -109z" />
    <glyph glyph-name="uni01E0" unicode="&#x1e0;" horiz-adv-x="1464" 
d="M157 0c-69 13 -92 74 -62 146l504 1195c27 67 73 93 134 93c60 0 105 -26 134 -93l501 -1195c30 -72 8 -133 -61 -146c-11 -2 -21 -3 -30 -3c-51 0 -86 29 -111 90l-127 308h-612l-130 -308c-25 -61 -60 -90 -110 -90c-10 0 -20 1 -30 3zM733 1142l-234 -567h467z
M385 1890c0 48 34 74 97 74h502c62 0 95 -26 95 -74s-33 -75 -95 -75h-502c-63 0 -97 26 -97 75zM732 1531c-61 0 -110 49 -110 110c0 60 49 109 110 109c60 0 110 -49 110 -109c0 -61 -50 -110 -110 -110z" />
    <glyph glyph-name="Aringacute" unicode="&#x1fa;" horiz-adv-x="1464" 
d="M157 0c-69 13 -91 74 -61 146l503 1195c27 67 73 93 133 93c61 0 106 -26 134 -93l501 -1195c30 -72 8 -133 -61 -146c-11 -2 -21 -3 -30 -3c-51 0 -86 29 -111 90l-127 308h-611l-129 -308c-26 -61 -61 -90 -111 -90c-9 0 -19 1 -30 3zM499 575h466l-233 566zM732 1492
c-96 0 -177 81 -177 177c0 46 19 87 47 119l119 136c37 42 68 60 131 60c64 0 75 -38 41 -70l-89 -86c60 -27 104 -88 104 -159c0 -96 -80 -177 -176 -177zM663 1669c0 -38 31 -68 69 -68s68 30 68 68s-30 69 -68 69s-69 -31 -69 -69z" />
    <glyph glyph-name="uni0200" unicode="&#x200;" horiz-adv-x="1464" 
d="M96 146l503 1195c27 67 73 93 134 93c60 0 105 -26 133 -93l502 -1195c30 -72 8 -133 -62 -146c-10 -2 -20 -3 -30 -3c-50 0 -86 29 -110 90l-128 308h-611l-130 -308c-25 -61 -60 -90 -110 -90c-9 0 -19 1 -30 3c-69 13 -92 74 -61 146zM733 1142l-234 -567h467z
M707 1837c55 0 98 -15 132 -55l120 -134c50 -57 35 -111 -35 -117c-56 -4 -95 17 -134 54l-139 138c-59 60 -29 114 56 114zM368 1837c55 0 98 -15 132 -55l120 -134c50 -57 34 -111 -35 -117c-57 -4 -95 17 -134 54l-139 138c-59 60 -29 114 56 114z" />
    <glyph glyph-name="uni0202" unicode="&#x202;" horiz-adv-x="1464" 
d="M96 146l503 1195c27 67 73 93 134 93c60 0 105 -26 133 -93l502 -1195c30 -72 8 -133 -62 -146c-10 -2 -20 -3 -30 -3c-50 0 -86 29 -110 90l-128 308h-611l-130 -308c-25 -61 -60 -90 -110 -90c-9 0 -19 1 -30 3c-69 13 -92 74 -61 146zM499 575h467l-233 567zM429 1623
c67 91 185 131 303 131c116 0 248 -44 309 -141c34 -48 20 -95 -14 -111c-10 -5 -21 -8 -32 -8c-20 0 -41 9 -58 27c-34 33 -90 94 -205 94c-118 0 -174 -61 -209 -96c-16 -18 -35 -25 -54 -25c-12 0 -23 3 -33 8c-35 18 -49 69 -7 121z" />
    <glyph glyph-name="uni0226" unicode="&#x226;" horiz-adv-x="1464" 
d="M95 146l504 1195c27 67 73 93 133 93c61 0 106 -26 134 -93l502 -1195c30 -72 7 -133 -62 -146c-10 -2 -20 -3 -30 -3c-50 0 -86 29 -110 90l-128 308h-611l-130 -308c-25 -61 -60 -90 -110 -90c-10 0 -20 1 -30 3c-69 13 -92 74 -62 146zM499 575h467l-234 567z
M732 1779c66 0 121 -55 121 -121c0 -67 -55 -122 -121 -122c-68 0 -122 55 -122 122c0 66 54 121 122 121z" />
    <glyph glyph-name="AE" unicode="&#xc6;" horiz-adv-x="2141" 
d="M159 0c-73 12 -102 74 -52 149l816 1214c34 50 74 71 133 71h825c71 0 110 -33 110 -93s-39 -93 -110 -93h-665v-424h618c71 0 110 -33 110 -92s-39 -92 -110 -92h-618v-454h675c71 0 110 -33 110 -93s-39 -93 -110 -93h-779c-71 0 -110 33 -110 93v344h-451l-243 -361
c-33 -49 -78 -88 -149 -76zM1002 1111l-327 -488h327v488z" />
    <glyph glyph-name="uni01E2" unicode="&#x1e2;" horiz-adv-x="2141" 
d="M159 0c-73 12 -102 74 -52 149l816 1214c34 50 74 71 133 71h825c71 0 110 -33 110 -93s-39 -93 -110 -93h-665v-424h618c71 0 110 -33 110 -92s-39 -92 -110 -92h-618v-454h675c71 0 110 -33 110 -93s-39 -93 -110 -93h-779c-71 0 -110 33 -110 93v344h-451l-243 -361
c-33 -49 -78 -88 -149 -76zM859 1620c0 54 39 83 110 83h532c71 0 107 -29 107 -83s-36 -84 -107 -84h-532c-71 0 -110 29 -110 84zM1002 1111l-327 -488h327v488z" />
    <glyph glyph-name="AEacute" unicode="&#x1fc;" horiz-adv-x="2141" 
d="M159 0c-73 12 -102 74 -52 149l816 1214c34 50 74 71 133 71h825c71 0 110 -33 110 -93s-39 -93 -110 -93h-665v-424h618c71 0 110 -33 110 -92s-39 -92 -110 -92h-618v-454h675c71 0 110 -33 110 -93s-39 -93 -110 -93h-779c-71 0 -110 33 -110 93v344h-451l-243 -361
c-33 -49 -78 -88 -149 -76zM1002 1111l-327 -488h327v488zM1218 1536c-70 6 -85 60 -35 117l120 134c34 40 77 55 132 55c85 0 115 -54 56 -114l-139 -138c-39 -37 -78 -58 -134 -54z" />
    <glyph glyph-name="Ccedilla" unicode="&#xc7;" horiz-adv-x="1447" 
d="M754 -18c-418 39 -634 356 -634 735c0 405 247 739 723 739c196 0 332 -47 414 -87c65 -33 80 -93 46 -141c-19 -28 -45 -40 -75 -40c-23 0 -48 7 -75 18c-69 28 -178 64 -310 64c-344 0 -505 -252 -505 -553s161 -553 505 -553c132 0 241 36 310 64c27 11 53 18 75 18
c30 0 56 -12 75 -40c34 -48 19 -108 -46 -141c-74 -36 -191 -78 -358 -86l-27 -81c116 -1 206 -61 195 -179c-13 -140 -127 -190 -249 -190c-34 0 -69 4 -102 11c-68 13 -90 50 -76 88c9 27 31 36 62 36c15 0 32 -2 51 -5c20 -3 42 -6 64 -6c50 0 97 14 105 69
c8 58 -52 71 -113 69c-76 3 -111 30 -88 97z" />
    <glyph glyph-name="Cacute" unicode="&#x106;" horiz-adv-x="1447" 
d="M843 -22c-476 0 -723 334 -723 739s247 739 723 739c196 0 332 -47 414 -87c65 -33 80 -93 46 -141c-19 -28 -45 -40 -75 -40c-23 0 -48 7 -75 18c-69 28 -178 64 -310 64c-344 0 -505 -252 -505 -553s161 -553 505 -553c132 0 241 36 310 64c27 11 53 18 75 18
c30 0 56 -12 75 -40c34 -48 19 -108 -46 -141c-82 -40 -218 -87 -414 -87zM800 1558c-70 5 -85 60 -35 117l120 134c34 40 77 55 132 55c85 0 115 -54 55 -114l-139 -138c-38 -37 -77 -58 -133 -54z" />
    <glyph glyph-name="Ccircumflex" unicode="&#x108;" horiz-adv-x="1447" 
d="M843 -22c-476 0 -723 334 -723 739s247 739 723 739c196 0 332 -47 414 -87c65 -33 80 -93 46 -141c-19 -28 -45 -40 -75 -40c-23 0 -48 7 -75 18c-69 28 -178 64 -310 64c-344 0 -505 -252 -505 -553s161 -553 505 -553c132 0 241 36 310 64c27 11 53 18 75 18
c30 0 56 -12 75 -40c34 -48 19 -108 -46 -141c-82 -40 -218 -87 -414 -87zM571 1557c-52 16 -54 64 -10 111l130 148c39 42 76 59 125 59s86 -17 124 -59l131 -148c43 -47 41 -95 -11 -111c-9 -3 -18 -4 -27 -4c-42 0 -77 27 -111 58l-106 110l-107 -110
c-34 -31 -69 -58 -111 -58c-9 0 -18 1 -27 4z" />
    <glyph glyph-name="Cdotaccent" unicode="&#x10a;" horiz-adv-x="1447" 
d="M120 717c0 405 247 739 723 739c196 0 332 -47 414 -87c65 -33 79 -93 46 -141c-20 -28 -46 -40 -76 -40c-23 0 -48 7 -75 18c-68 28 -177 64 -309 64c-344 0 -505 -252 -505 -553s161 -553 505 -553c132 0 241 36 309 64c27 11 53 18 75 18c30 0 56 -12 76 -40
c33 -48 19 -108 -46 -141c-82 -40 -218 -87 -414 -87c-476 0 -723 334 -723 739zM816 1558c-67 0 -122 54 -122 121s55 121 122 121c66 0 121 -54 121 -121s-55 -121 -121 -121z" />
    <glyph glyph-name="Ccaron" unicode="&#x10c;" horiz-adv-x="1447" 
d="M843 -22c-476 0 -723 334 -723 739s247 739 723 739c196 0 332 -47 414 -87c65 -33 80 -93 46 -141c-19 -28 -45 -40 -75 -40c-23 0 -48 7 -75 18c-69 28 -178 64 -310 64c-344 0 -505 -252 -505 -553s161 -553 505 -553c132 0 241 36 310 64c27 11 53 18 75 18
c30 0 56 -12 75 -40c34 -48 19 -108 -46 -141c-82 -40 -218 -87 -414 -87zM561 1764c-44 47 -42 96 10 111c10 3 19 4 28 4c42 0 76 -27 110 -57l107 -111l106 111c34 30 68 57 110 57c9 0 18 -1 28 -4c52 -15 54 -64 11 -111l-131 -148c-38 -42 -75 -58 -124 -58
s-86 16 -125 58z" />
    <glyph glyph-name="Dcaron" unicode="&#x10e;" horiz-adv-x="1483" 
d="M160 1324c0 71 39 110 110 110h383c504 0 710 -306 710 -717s-206 -717 -710 -717h-383c-71 0 -110 39 -110 110v1214zM653 1248h-279v-1062h279c361 0 492 227 492 531s-131 531 -492 531zM426 1742c-43 47 -41 96 11 111c10 3 19 4 28 4c42 0 76 -27 110 -57l106 -111
l107 111c34 30 68 57 110 57c9 0 18 -1 28 -4c52 -15 54 -64 11 -111l-131 -148c-39 -42 -76 -58 -125 -58s-86 16 -124 58z" />
    <glyph glyph-name="Dcroat" unicode="&#x110;" horiz-adv-x="1641" 
d="M90 715c0 53 38 89 88 89h140v520c0 71 39 110 110 110h383c504 0 710 -306 710 -717s-206 -717 -710 -717h-383c-71 0 -110 39 -110 110v516h-140c-50 0 -88 36 -88 89zM793 626h-261v-440h279c361 0 492 227 492 531c0 303 -131 531 -492 531h-279v-444h261
c50 0 89 -36 89 -89s-39 -89 -89 -89z" />
    <glyph glyph-name="Eth" unicode="&#xd0;" horiz-adv-x="1641" 
d="M90 715c0 53 38 89 88 89h140v520c0 71 39 110 110 110h383c504 0 710 -306 710 -717s-206 -717 -710 -717h-383c-71 0 -110 39 -110 110v516h-140c-50 0 -88 36 -88 89zM793 626h-261v-440h279c361 0 492 227 492 531c0 303 -131 531 -492 531h-279v-444h261
c50 0 89 -36 89 -89s-39 -89 -89 -89z" />
    <glyph glyph-name="Egrave" unicode="&#xc8;" horiz-adv-x="1301" 
d="M160 110v1214c0 71 39 110 110 110h771c71 0 110 -33 110 -93s-39 -93 -110 -93h-667v-424h620c71 0 110 -33 110 -92s-39 -92 -110 -92h-620v-454h677c71 0 110 -33 110 -93s-39 -93 -110 -93h-781c-71 0 -110 39 -110 110zM457 1842c55 0 98 -15 132 -55l120 -134
c49 -57 34 -111 -35 -117c-57 -4 -96 17 -134 54l-139 138c-59 60 -29 114 56 114z" />
    <glyph glyph-name="Eacute" unicode="&#xc9;" horiz-adv-x="1301" 
d="M160 110v1214c0 71 39 110 110 110h771c71 0 110 -33 110 -93s-39 -93 -110 -93h-667v-424h620c71 0 110 -33 110 -92s-39 -92 -110 -92h-620v-454h677c71 0 110 -33 110 -93s-39 -93 -110 -93h-781c-71 0 -110 39 -110 110zM607 1653l120 134c34 40 77 55 132 55
c85 0 115 -54 55 -114l-138 -138c-39 -37 -78 -58 -134 -54c-70 6 -85 60 -35 117z" />
    <glyph glyph-name="Ecircumflex" unicode="&#xca;" horiz-adv-x="1301" 
d="M270 1434h771c71 0 110 -33 110 -93s-39 -93 -110 -93h-667v-424h620c71 0 110 -33 110 -92s-39 -92 -110 -92h-620v-454h677c71 0 110 -33 110 -93s-39 -93 -110 -93h-781c-71 0 -110 39 -110 110v1214c0 71 39 110 110 110zM403 1646l130 148c39 42 76 59 125 59
s86 -17 124 -59l131 -148c43 -47 41 -95 -11 -111c-9 -3 -18 -4 -27 -4c-42 0 -77 27 -111 58l-106 110l-107 -110c-34 -31 -69 -58 -111 -58c-9 0 -18 1 -27 4c-52 16 -54 64 -10 111z" />
    <glyph glyph-name="Edieresis" unicode="&#xcb;" horiz-adv-x="1301" 
d="M270 1434h771c71 0 110 -33 110 -93s-39 -93 -110 -93h-667v-424h620c71 0 110 -33 110 -92s-39 -92 -110 -92h-620v-454h677c71 0 110 -33 110 -93s-39 -93 -110 -93h-781c-71 0 -110 39 -110 110v1214c0 71 39 110 110 110zM855 1778c66 0 121 -55 121 -121
c0 -68 -55 -121 -121 -121c-67 0 -122 53 -122 121c0 66 55 121 122 121zM339 1657c0 66 55 121 122 121c66 0 121 -55 121 -121c0 -68 -55 -121 -121 -121c-67 0 -122 53 -122 121z" />
    <glyph glyph-name="Emacron" unicode="&#x112;" horiz-adv-x="1301" 
d="M160 110v1214c0 71 39 110 110 110h771c71 0 110 -33 110 -93s-39 -93 -110 -93h-667v-424h620c71 0 110 -33 110 -92s-39 -92 -110 -92h-620v-454h677c71 0 110 -33 110 -93s-39 -93 -110 -93h-781c-71 0 -110 39 -110 110zM393 1703h532c71 0 107 -29 107 -83
s-36 -84 -107 -84h-532c-71 0 -110 29 -110 84c0 54 39 83 110 83z" />
    <glyph glyph-name="Ebreve" unicode="&#x114;" horiz-adv-x="1301" 
d="M160 110v1214c0 71 39 110 110 110h771c71 0 110 -33 110 -93s-39 -93 -110 -93h-667v-424h620c71 0 110 -33 110 -92s-39 -92 -110 -92h-620v-454h677c71 0 110 -33 110 -93s-39 -93 -110 -93h-781c-71 0 -110 39 -110 110zM362 1788c10 5 21 8 33 8c19 0 38 -7 54 -25
c35 -35 91 -97 209 -97c115 0 171 61 204 95c17 18 39 27 59 27c11 0 22 -3 32 -8c34 -16 48 -63 14 -112c-61 -97 -193 -140 -309 -140c-118 0 -236 40 -303 131c-42 52 -28 103 7 121z" />
    <glyph glyph-name="Edotaccent" unicode="&#x116;" horiz-adv-x="1301" 
d="M160 110v1214c0 71 39 110 110 110h771c71 0 110 -33 110 -93s-39 -93 -110 -93h-667v-424h620c71 0 110 -33 110 -92s-39 -92 -110 -92h-620v-454h677c71 0 110 -33 110 -93s-39 -93 -110 -93h-781c-71 0 -110 39 -110 110zM536 1657c0 67 55 121 122 121
c66 0 121 -54 121 -121s-55 -121 -121 -121c-67 0 -122 54 -122 121z" />
    <glyph glyph-name="Eogonek" unicode="&#x118;" horiz-adv-x="1301" 
d="M160 110v1214c0 71 39 110 110 110h771c71 0 110 -33 110 -93s-39 -93 -110 -93h-667v-424h620c71 0 110 -33 110 -92s-39 -92 -110 -92h-620v-454h677c71 0 110 -33 110 -93s-39 -93 -110 -93c-45 -40 -90 -86 -90 -147c0 -52 34 -74 72 -85c57 -21 92 -38 92 -93
c0 -53 -40 -92 -110 -80c-115 16 -216 81 -216 204c0 140 134 189 168 201h-697c-71 0 -110 39 -110 110z" />
    <glyph glyph-name="Ecaron" unicode="&#x11a;" horiz-adv-x="1301" 
d="M270 1434h771c71 0 110 -33 110 -93s-39 -93 -110 -93h-667v-424h620c71 0 110 -33 110 -92s-39 -92 -110 -92h-620v-454h677c71 0 110 -33 110 -93s-39 -93 -110 -93h-781c-71 0 -110 39 -110 110v1214c0 71 39 110 110 110zM413 1853c10 3 19 4 28 4
c42 0 76 -27 110 -57l107 -111l106 111c34 30 68 57 110 57c9 0 18 -1 28 -4c52 -15 54 -64 11 -111l-131 -148c-38 -41 -75 -58 -124 -58s-86 17 -125 58l-130 148c-44 47 -42 96 10 111z" />
    <glyph glyph-name="uni0204" unicode="&#x204;" horiz-adv-x="1301" 
d="M160 110v1214c0 71 39 110 110 110h771c71 0 110 -33 110 -93s-39 -93 -110 -93h-667v-424h620c71 0 110 -33 110 -92s-39 -92 -110 -92h-620v-454h677c71 0 110 -33 110 -93s-39 -93 -110 -93h-781c-71 0 -110 39 -110 110zM294 1837c55 0 98 -15 132 -55l120 -134
c49 -57 34 -112 -35 -117c-57 -4 -95 17 -134 54l-139 137c-59 61 -29 115 56 115zM633 1837c55 0 98 -15 132 -55l120 -134c50 -57 34 -112 -35 -117c-57 -4 -95 17 -134 54l-139 137c-59 61 -29 115 56 115z" />
    <glyph glyph-name="uni0206" unicode="&#x206;" horiz-adv-x="1301" 
d="M270 1434h771c71 0 110 -33 110 -93s-39 -93 -110 -93h-667v-424h620c71 0 110 -33 110 -92s-39 -92 -110 -92h-620v-454h677c71 0 110 -33 110 -93s-39 -93 -110 -93h-781c-71 0 -110 39 -110 110v1214c0 71 39 110 110 110zM355 1623c67 91 185 131 303 131
c116 0 248 -43 309 -140c34 -49 20 -96 -14 -112c-10 -5 -21 -8 -32 -8c-20 0 -42 9 -59 27c-33 34 -89 95 -204 95c-118 0 -174 -62 -209 -97c-16 -18 -35 -25 -54 -25c-12 0 -23 3 -33 8c-35 18 -49 69 -7 121z" />
    <glyph glyph-name="uni0228" unicode="&#x228;" horiz-adv-x="1301" 
d="M160 110v1214c0 71 39 110 110 110h771c71 0 110 -33 110 -93s-39 -93 -110 -93h-667v-424h620c71 0 110 -33 110 -92s-39 -92 -110 -92h-620v-454h677c71 0 110 -33 110 -93s-39 -93 -110 -93h-315l-35 -102c117 -1 207 -61 196 -179c-14 -140 -127 -190 -249 -190
c-34 0 -69 4 -103 11c-67 13 -89 50 -75 88c9 27 30 36 62 36c15 0 32 -2 51 -5c20 -3 42 -6 64 -6c50 0 97 14 105 69c7 58 -53 71 -113 69c-76 3 -111 30 -88 97l39 112h-320c-71 0 -110 39 -110 110z" />
    <glyph glyph-name="Gcircumflex" unicode="&#x11c;" horiz-adv-x="1570" 
d="M120 717c0 405 247 739 723 739c218 0 365 -57 456 -105c67 -33 87 -88 55 -137c-18 -29 -44 -40 -75 -40c-22 0 -47 6 -72 16c-76 35 -203 80 -364 80c-344 0 -505 -252 -505 -553s161 -553 505 -553c223 0 347 79 370 93v383h-242c-71 0 -108 32 -108 89s37 89 108 89
h329c71 0 110 -39 110 -110v-477c0 -58 -20 -97 -72 -128c-90 -53 -260 -125 -495 -125c-476 0 -723 334 -723 739zM572 1557c-52 16 -54 64 -10 111l130 148c39 42 76 59 125 59s86 -17 125 -59l130 -148c44 -47 41 -95 -10 -111c-10 -3 -19 -4 -27 -4
c-43 0 -77 27 -111 57l-107 111l-107 -111c-34 -30 -69 -57 -111 -57c-9 0 -18 1 -27 4z" />
    <glyph glyph-name="Gbreve" unicode="&#x11e;" horiz-adv-x="1570" 
d="M120 717c0 405 247 739 723 739c218 0 365 -57 456 -105c67 -33 87 -88 55 -137c-18 -29 -44 -40 -75 -40c-22 0 -47 6 -72 16c-76 35 -203 80 -364 80c-344 0 -505 -252 -505 -553s161 -553 505 -553c223 0 347 79 370 93v383h-242c-71 0 -108 32 -108 89s37 89 108 89
h329c71 0 110 -39 110 -110v-477c0 -58 -20 -97 -72 -128c-90 -53 -260 -125 -495 -125c-476 0 -723 334 -723 739zM514 1689c-42 52 -28 103 7 121c10 5 21 8 33 8c19 0 38 -7 54 -25c35 -35 91 -97 209 -97c115 0 171 61 205 95c17 18 38 27 58 27c11 0 22 -3 32 -8
c34 -16 48 -63 14 -112c-61 -97 -193 -140 -309 -140c-118 0 -236 40 -303 131z" />
    <glyph glyph-name="uni0122" unicode="&#x122;" horiz-adv-x="1570" 
d="M120 717c0 405 247 739 723 739c218 0 365 -57 456 -105c67 -33 87 -88 55 -137c-18 -29 -44 -40 -75 -40c-22 0 -47 6 -72 16c-76 35 -203 80 -364 80c-344 0 -505 -252 -505 -553s161 -553 505 -553c223 0 347 79 370 93v383h-242c-71 0 -108 32 -108 89s37 89 108 89
h329c71 0 110 -39 110 -110v-477c0 -58 -20 -97 -72 -128c-90 -53 -260 -125 -495 -125c-476 0 -723 334 -723 739zM677 -521c-59 4 -82 45 -56 111l85 206c22 56 58 80 120 80h4c74 0 107 -46 76 -109l-105 -211c-23 -47 -58 -82 -124 -77z" />
    <glyph glyph-name="uni01E4" unicode="&#x1e4;" horiz-adv-x="1636" 
d="M843 -22c-476 0 -723 334 -723 739s247 739 723 739c218 0 365 -57 456 -105c67 -33 87 -88 55 -137c-18 -29 -44 -40 -75 -40c-22 0 -47 6 -72 16c-76 35 -203 80 -364 80c-344 0 -505 -252 -505 -553s161 -553 505 -553c223 0 347 79 370 93v115h-267
c-49 0 -81 31 -81 75c0 43 32 74 81 74h267v119h-242c-71 0 -108 32 -108 89s37 89 108 89h329c71 0 110 -39 110 -110v-187h76c48 0 81 -31 81 -74c0 -44 -33 -75 -81 -75h-76v-141c0 -58 -20 -97 -72 -128c-90 -53 -260 -125 -495 -125z" />
    <glyph glyph-name="uni01F4" unicode="&#x1f4;" horiz-adv-x="1570" 
d="M120 717c0 405 247 739 723 739c218 0 365 -57 456 -105c67 -33 87 -88 55 -137c-18 -29 -44 -40 -75 -40c-22 0 -47 6 -72 16c-76 35 -203 80 -364 80c-344 0 -505 -252 -505 -553s161 -553 505 -553c223 0 347 79 370 93v383h-242c-71 0 -108 32 -108 89s37 89 108 89
h329c71 0 110 -39 110 -110v-477c0 -58 -20 -97 -72 -128c-90 -53 -260 -125 -495 -125c-476 0 -723 334 -723 739zM801 1558c-70 5 -85 60 -35 117c19 22 88 98 120 134c34 40 77 55 132 55c85 0 115 -54 55 -114c-32 -33 -105 -105 -139 -138c-38 -37 -77 -58 -133 -54z
" />
    <glyph glyph-name="Gcaron" unicode="&#x1e6;" horiz-adv-x="1570" 
d="M120 717c0 405 247 739 723 739c218 0 365 -57 456 -105c67 -33 87 -88 55 -137c-18 -29 -44 -40 -75 -40c-22 0 -47 6 -72 16c-76 35 -203 80 -364 80c-344 0 -505 -252 -505 -553s161 -553 505 -553c223 0 347 79 370 93v383h-242c-71 0 -108 32 -108 89s37 89 108 89
h329c71 0 110 -39 110 -110v-477c0 -58 -20 -97 -72 -128c-90 -53 -260 -125 -495 -125c-476 0 -723 334 -723 739zM562 1764c-44 47 -42 96 10 111c10 3 19 4 28 4c42 0 76 -27 110 -57l107 -111l106 111c34 30 68 57 110 57c9 0 19 -1 29 -4c51 -15 54 -64 10 -111
l-131 -148c-38 -42 -75 -58 -124 -58s-86 16 -125 58z" />
    <glyph glyph-name="Gdotaccent" unicode="&#x120;" horiz-adv-x="1570" 
d="M120 717c0 405 247 739 723 739c218 0 365 -57 456 -105c67 -33 87 -88 55 -137c-18 -29 -44 -40 -75 -40c-22 0 -47 6 -72 16c-76 35 -203 80 -364 80c-344 0 -505 -252 -505 -553s161 -553 505 -553c223 0 347 79 370 93v383h-243c-71 0 -107 32 -107 89s36 89 107 89
h330c71 0 110 -39 110 -110v-477c0 -58 -20 -97 -72 -128c-90 -53 -260 -125 -495 -125c-476 0 -723 334 -723 739zM817 1558c-67 0 -122 54 -122 121s55 121 122 121c66 0 121 -54 121 -121s-55 -121 -121 -121z" />
    <glyph glyph-name="Hcircumflex" unicode="&#x124;" horiz-adv-x="1492" 
d="M160 110v1215c0 71 38 110 107 110s107 -39 107 -110v-499h743v499c0 71 38 110 107 110s107 -39 107 -110v-1215c0 -71 -38 -110 -107 -110s-107 39 -107 110v530h-743v-530c0 -71 -38 -110 -107 -110s-107 39 -107 110zM501 1536c-52 16 -54 64 -10 111l130 148
c39 42 76 58 125 58s86 -16 124 -58l131 -148c43 -47 41 -95 -11 -111c-9 -3 -18 -4 -27 -4c-42 0 -77 27 -111 58l-106 110l-107 -110c-34 -31 -69 -58 -111 -58c-9 0 -18 1 -27 4z" />
    <glyph glyph-name="Hbar" unicode="&#x126;" horiz-adv-x="1874" 
d="M160 1080c0 49 36 80 83 80h108v164c0 71 38 109 107 109s107 -38 107 -109v-164h743v164c0 71 38 109 107 109s107 -38 107 -109v-164h108c47 0 83 -31 83 -80s-36 -81 -83 -81h-108v-889c0 -71 -38 -110 -107 -110s-107 39 -107 110v530h-743v-530
c0 -71 -38 -110 -107 -110s-107 39 -107 110v889h-108c-47 0 -83 32 -83 81zM1308 999h-743v-173h743v173z" />
    <glyph glyph-name="uni021E" unicode="&#x21e;" horiz-adv-x="1492" 
d="M160 110v1215c0 71 38 110 107 110s107 -39 107 -110v-499h743v499c0 71 38 110 107 110s107 -39 107 -110v-1215c0 -71 -38 -110 -107 -110s-107 39 -107 110v530h-743v-530c0 -71 -38 -110 -107 -110s-107 39 -107 110zM491 1743c-44 47 -42 96 10 111c10 3 19 4 28 4
c42 0 76 -27 110 -57l107 -111l106 111c34 30 68 57 110 57c9 0 18 -1 28 -4c52 -15 54 -64 11 -111l-131 -148c-38 -42 -75 -58 -124 -58s-86 16 -125 58z" />
    <glyph glyph-name="Igrave" unicode="&#xcc;" horiz-adv-x="554" 
d="M170 1324c0 71 38 110 107 110s107 -39 107 -110v-1214c0 -71 -38 -110 -107 -110s-107 39 -107 110v1214zM20 1728c-59 60 -29 114 56 114c55 0 98 -15 132 -55l120 -134c50 -57 34 -111 -35 -117c-57 -4 -95 17 -134 54z" />
    <glyph glyph-name="Iacute" unicode="&#xcd;" horiz-adv-x="554" 
d="M170 1324c0 71 38 110 107 110s107 -39 107 -110v-1214c0 -71 -38 -110 -107 -110s-107 39 -107 110v1214zM261 1536c-69 6 -84 60 -35 117l120 134c34 40 77 55 132 55c85 0 115 -54 56 -114l-139 -138c-38 -37 -77 -58 -134 -54z" />
    <glyph glyph-name="Icircumflex" unicode="&#xce;" horiz-adv-x="554" 
d="M170 110v1214c0 71 38 110 107 110s107 -39 107 -110v-1214c0 -71 -38 -110 -107 -110s-107 39 -107 110zM32 1535c-51 16 -54 64 -10 111l130 148c39 42 76 59 125 59s86 -17 125 -59l130 -148c44 -47 42 -95 -10 -111c-10 -3 -19 -4 -27 -4c-42 0 -77 27 -111 58
l-107 110l-107 -110c-34 -31 -69 -58 -111 -58c-8 0 -17 1 -27 4z" />
    <glyph glyph-name="Idieresis" unicode="&#xcf;" horiz-adv-x="554" 
d="M170 110v1214c0 71 38 110 107 110c70 0 107 -39 107 -110v-1214c0 -71 -37 -110 -107 -110c-69 0 -107 39 -107 110zM80 1536c-66 0 -122 54 -122 121c0 66 56 121 122 121c67 0 122 -55 122 -121c0 -67 -55 -121 -122 -121zM353 1657c0 66 55 121 121 121
c67 0 122 -55 122 -121c0 -67 -55 -121 -122 -121c-66 0 -121 54 -121 121z" />
    <glyph glyph-name="Itilde" unicode="&#x128;" horiz-adv-x="554" 
d="M170 1324c0 71 38 110 107 110s107 -39 107 -110v-1214c0 -71 -38 -110 -107 -110s-107 39 -107 110v1214zM32 1580c-53 2 -88 51 -53 119c26 60 78 126 186 126c82 0 120 -44 154 -78c25 -27 42 -47 67 -47c14 0 25 7 34 18c29 38 47 66 102 64c53 -2 88 -51 53 -119
c-26 -61 -78 -127 -186 -127c-82 0 -120 44 -154 79c-25 26 -42 47 -67 47c-15 0 -26 -9 -36 -20c-29 -38 -47 -64 -100 -62z" />
    <glyph glyph-name="Imacron" unicode="&#x12a;" horiz-adv-x="554" 
d="M170 110v1214c0 71 38 110 107 110s107 -39 107 -110v-1214c0 -71 -38 -110 -107 -110s-107 39 -107 110zM12 1536c-71 0 -109 29 -109 84c0 54 38 83 109 83h532c71 0 108 -29 108 -83s-37 -84 -108 -84h-532z" />
    <glyph glyph-name="Ibreve" unicode="&#x12c;" horiz-adv-x="554" 
d="M170 1324c0 71 38 110 107 110s107 -39 107 -110v-1214c0 -71 -38 -110 -107 -110s-107 39 -107 110v1214zM-26 1667c-42 52 -27 103 7 121c10 5 22 8 34 8c18 0 37 -7 53 -25c36 -35 91 -97 209 -97c115 0 171 61 205 95c17 18 38 27 58 27c11 0 22 -3 32 -8
c34 -16 48 -63 14 -112c-60 -97 -193 -140 -309 -140c-117 0 -236 40 -303 131z" />
    <glyph glyph-name="Iogonek" unicode="&#x12e;" horiz-adv-x="554" 
d="M295 -388c-114 16 -215 81 -215 204c0 119 97 173 146 193c-36 16 -56 50 -56 101v1214c0 71 38 110 107 110s107 -39 107 -110v-1214c0 -55 -23 -91 -64 -104c-41 -37 -78 -81 -78 -136c0 -52 34 -74 72 -85c56 -20 92 -38 92 -93c0 -53 -40 -92 -111 -80z" />
    <glyph glyph-name="Idotaccent" unicode="&#x130;" horiz-adv-x="554" 
d="M170 1324c0 71 38 110 107 110s107 -39 107 -110v-1214c0 -71 -38 -110 -107 -110s-107 39 -107 110v1214zM277 1536c-67 0 -121 54 -121 122c0 66 54 120 121 120s122 -54 122 -120c0 -68 -55 -122 -122 -122z" />
    <glyph glyph-name="uni01CF" unicode="&#x1cf;" horiz-adv-x="554" 
d="M170 1324c0 71 38 110 107 110s107 -39 107 -110v-1214c0 -71 -38 -110 -107 -110s-107 39 -107 110v1214zM22 1743c-44 46 -42 95 10 110c10 3 20 4 29 4c41 0 75 -27 109 -57l107 -110l107 110c34 30 68 57 109 57c9 0 19 -1 29 -4c52 -15 54 -64 10 -110l-130 -149
c-39 -41 -76 -58 -125 -58s-86 17 -125 58z" />
    <glyph glyph-name="uni0208" unicode="&#x208;" horiz-adv-x="554" 
d="M170 110v1214c0 71 38 110 107 110s107 -39 107 -110v-1214c0 -71 -38 -110 -107 -110s-107 39 -107 110zM-142 1723c-60 60 -30 114 55 114c55 0 98 -15 133 -55l119 -134c50 -57 35 -112 -35 -117c-56 -4 -95 17 -134 54zM197 1723c-60 60 -30 114 56 114
c55 0 98 -15 132 -55l120 -134c49 -57 34 -112 -36 -117c-56 -4 -95 17 -133 54z" />
    <glyph glyph-name="uni020A" unicode="&#x20a;" horiz-adv-x="554" 
d="M170 110v1214c0 71 38 110 107 110s107 -39 107 -110v-1214c0 -71 -38 -110 -107 -110s-107 39 -107 110zM-19 1502c-34 18 -49 69 -7 121c67 91 186 131 303 131c116 0 249 -43 309 -140c34 -49 20 -96 -14 -112c-10 -5 -21 -8 -32 -8c-20 0 -41 9 -58 27
c-34 34 -90 95 -205 95c-118 0 -173 -62 -209 -97c-16 -18 -35 -25 -53 -25c-12 0 -24 3 -34 8z" />
    <glyph glyph-name="IJ" unicode="&#x132;" horiz-adv-x="1685" 
d="M698 131c-67 72 -48 143 13 174c15 7 29 10 42 10c41 0 76 -28 104 -57c37 -43 103 -96 206 -96c175 0 248 105 248 293v870c0 71 38 109 107 109s107 -38 107 -109v-870c0 -337 -185 -479 -458 -479c-197 0 -309 81 -369 155zM170 1325c0 71 38 109 107 109
s107 -38 107 -109v-1215c0 -71 -38 -110 -107 -110s-107 39 -107 110v1215z" />
    <glyph glyph-name="Jcircumflex" unicode="&#x134;" horiz-adv-x="1131" 
d="M144 131c-67 72 -48 143 14 174c15 7 29 10 42 10c40 0 75 -28 103 -57c37 -43 103 -96 206 -96c175 0 248 105 248 293v870c0 71 38 109 107 109s107 -38 107 -109v-870c0 -337 -185 -479 -458 -479c-197 0 -309 81 -369 155zM619 1536c-52 15 -54 64 -10 110l130 149
c39 41 76 58 125 58s86 -17 125 -58l130 -149c44 -46 42 -95 -10 -110c-10 -3 -20 -4 -29 -4c-41 0 -75 27 -109 57l-107 110l-107 -110c-34 -30 -68 -57 -109 -57c-9 0 -19 1 -29 4z" />
    <glyph glyph-name="uni0136" unicode="&#x136;" horiz-adv-x="1388" 
d="M160 110v1214c0 71 38 110 107 110s107 -39 107 -110v-549l691 628c25 22 52 32 78 32s50 -10 67 -28c38 -40 40 -105 -17 -154l-477 -435l518 -654c42 -54 35 -111 -9 -145c-19 -14 -42 -22 -65 -22c-30 0 -61 13 -85 43l-510 646l-191 -178v-398
c0 -71 -38 -110 -107 -110s-107 39 -107 110zM543 -507c-59 5 -82 46 -56 112l85 205c22 56 58 81 120 81h4c74 0 107 -46 76 -109l-105 -211c-23 -48 -58 -82 -124 -78z" />
    <glyph glyph-name="uni01E8" unicode="&#x1e8;" horiz-adv-x="1388" 
d="M160 110v1214c0 71 38 110 107 110s107 -39 107 -110v-549l691 628c25 22 52 32 78 32s50 -10 67 -28c38 -40 40 -105 -17 -154l-477 -435l518 -654c42 -54 35 -111 -9 -145c-19 -14 -42 -22 -65 -22c-30 0 -61 13 -85 43l-510 646l-191 -178v-398
c0 -71 -38 -110 -107 -110s-107 39 -107 110zM376 1743c-44 46 -42 95 10 110c10 3 19 4 28 4c42 0 76 -27 110 -57l107 -110l106 110c34 30 68 57 110 57c9 0 18 -1 28 -4c52 -15 54 -64 11 -110l-131 -149c-38 -41 -75 -58 -124 -58s-86 17 -125 58z" />
    <glyph glyph-name="Lacute" unicode="&#x139;" horiz-adv-x="1210" 
d="M160 1325c0 71 38 109 107 109s107 -38 107 -109v-1139h614c71 0 110 -33 110 -93s-39 -93 -110 -93h-718c-71 0 -110 39 -110 110v1215zM251 1536c-69 6 -84 60 -35 118l120 134c34 40 77 54 132 54c85 0 115 -53 56 -114l-139 -137c-38 -37 -77 -59 -134 -55z" />
    <glyph glyph-name="uni013B" unicode="&#x13b;" horiz-adv-x="1210" 
d="M270 0c-71 0 -110 39 -110 110v1215c0 71 38 109 107 109s107 -38 107 -109v-1139h614c71 0 110 -33 110 -93s-39 -93 -110 -93h-718zM478 -503c-59 4 -82 45 -56 111l84 206c22 56 59 80 121 80h4c74 0 107 -46 76 -109l-105 -211c-24 -47 -58 -82 -124 -77z" />
    <glyph glyph-name="Lcaron" unicode="&#x13d;" horiz-adv-x="1210" 
d="M160 1325c0 71 38 109 107 109s107 -38 107 -109v-1139h614c71 0 110 -33 110 -93s-39 -93 -110 -93h-718c-71 0 -110 39 -110 110v1215zM549 993c-57 3 -82 39 -68 106l56 242c12 58 45 93 116 93c74 0 100 -39 79 -107l-79 -261c-15 -51 -51 -75 -104 -73z" />
    <glyph glyph-name="Ldot" unicode="&#x13f;" horiz-adv-x="1210" 
d="M160 110v1215c0 71 38 109 107 109s107 -38 107 -109v-1139h614c71 0 110 -33 110 -93s-39 -93 -110 -93h-718c-71 0 -110 39 -110 110zM898 669c-67 0 -121 55 -121 121c0 67 54 122 121 122c68 0 122 -55 122 -122c0 -66 -54 -121 -122 -121z" />
    <glyph glyph-name="Lslash" unicode="&#x141;" horiz-adv-x="1350" 
d="M60 540v21c2 57 26 92 88 127l152 85v552c0 71 38 109 107 109s107 -38 107 -109v-433l124 69c28 15 53 23 72 23c33 0 52 -20 52 -61v-16c0 -66 -24 -95 -88 -132l-160 -89v-500h614c71 0 110 -33 110 -93s-39 -93 -110 -93h-718c-71 0 -110 39 -110 110v456l-114 -64
c-28 -15 -52 -22 -72 -22c-34 0 -54 20 -54 60z" />
    <glyph glyph-name="Eng" unicode="&#x14a;" horiz-adv-x="1506" 
d="M160 1278c0 87 41 156 148 156c72 0 124 -38 172 -114l652 -1007v1012c0 71 38 109 107 109s107 -38 107 -109v-1378c0 -337 -185 -479 -458 -479c-197 0 -310 81 -369 155c-63 69 -49 138 8 170c18 10 34 14 49 14c38 0 69 -26 102 -57c38 -44 103 -96 206 -96
c175 0 248 105 248 293v66c-41 17 -75 52 -105 102l-653 1007v-1012c0 -71 -38 -110 -107 -110s-107 39 -107 110v1168z" />
    <glyph glyph-name="uni01F8" unicode="&#x1f8;" horiz-adv-x="1506" 
d="M267 0c-69 0 -107 39 -107 110v1167c0 87 41 157 148 157c72 0 124 -38 172 -114l652 -1007v1011c0 71 38 110 107 110s107 -39 107 -110v-1167c0 -87 -41 -157 -148 -157c-72 0 -124 38 -171 114l-653 1007v-1011c0 -71 -38 -110 -107 -110zM496 1728
c-59 60 -29 114 56 114c55 0 98 -15 132 -55c32 -35 101 -112 120 -134c50 -57 34 -111 -35 -117c-57 -4 -95 17 -134 54c-33 33 -106 105 -139 138z" />
    <glyph glyph-name="Ntilde" unicode="&#xd1;" horiz-adv-x="1506" 
d="M267 0c-69 0 -107 39 -107 110v1167c0 87 41 157 148 157c72 0 124 -38 172 -114l652 -1007v1011c0 71 38 110 107 110s107 -39 107 -110v-1167c0 -87 -41 -157 -148 -157c-72 0 -124 38 -171 114l-653 1007v-1011c0 -71 -38 -110 -107 -110zM508 1580
c-53 2 -88 51 -53 119c26 60 77 126 186 126c81 0 119 -44 154 -78c25 -27 42 -47 67 -47c14 0 25 7 34 18c29 38 47 66 102 64c53 -2 88 -51 53 -119c-26 -61 -78 -127 -186 -127c-82 0 -120 44 -154 79c-26 26 -42 47 -67 47c-16 0 -26 -9 -36 -20
c-29 -38 -47 -64 -100 -62z" />
    <glyph glyph-name="Nacute" unicode="&#x143;" horiz-adv-x="1506" 
d="M267 0c-69 0 -107 39 -107 110v1167c0 87 41 157 148 157c72 0 124 -38 172 -114l652 -1007v1011c0 71 38 110 107 110s107 -39 107 -110v-1167c0 -87 -41 -157 -148 -157c-72 0 -124 38 -171 114l-653 1007v-1011c0 -71 -38 -110 -107 -110zM737 1536
c-69 6 -85 60 -35 117c19 22 88 99 120 134c34 40 77 55 132 55c85 0 115 -54 56 -114c-33 -33 -106 -105 -139 -138c-39 -37 -77 -58 -134 -54z" />
    <glyph glyph-name="uni0145" unicode="&#x145;" horiz-adv-x="1506" 
d="M267 0c-69 0 -107 39 -107 110v1167c0 87 41 157 148 157c72 0 124 -38 172 -114l652 -1007v1011c0 71 38 110 107 110s107 -39 107 -110v-1167c0 -87 -41 -157 -148 -157c-72 0 -124 38 -171 114l-653 1007v-1011c0 -71 -38 -110 -107 -110zM602 -503
c-59 4 -83 45 -56 111l84 206c22 56 59 80 121 80h3c74 0 108 -46 77 -109l-106 -211c-23 -47 -57 -82 -123 -77z" />
    <glyph glyph-name="Ncaron" unicode="&#x147;" horiz-adv-x="1506" 
d="M267 0c-69 0 -107 39 -107 110v1167c0 87 41 157 148 157c72 0 124 -38 172 -114l652 -1007v1011c0 71 38 110 107 110s107 -39 107 -110v-1167c0 -87 -41 -157 -148 -157c-72 0 -124 38 -171 114l-653 1007v-1011c0 -71 -38 -110 -107 -110zM498 1743
c-44 46 -42 95 10 110c10 3 20 4 29 4c41 0 75 -27 109 -57l107 -110l107 110c34 30 68 57 109 57c9 0 19 -1 29 -4c52 -15 54 -64 10 -110l-130 -149c-39 -41 -76 -58 -125 -58s-86 17 -125 58z" />
    <glyph glyph-name="Omacron" unicode="&#x14c;" horiz-adv-x="1684" 
d="M842 -22c-465 0 -722 329 -722 739c0 409 257 739 722 739s722 -330 722 -739c0 -410 -257 -739 -722 -739zM842 1270c-337 0 -505 -241 -505 -553s168 -553 505 -553s505 241 505 553s-168 553 -505 553zM577 1558c-71 0 -110 29 -110 84c0 54 39 83 110 83h532
c71 0 108 -29 108 -83s-37 -84 -108 -84h-532z" />
    <glyph glyph-name="Obreve" unicode="&#x14e;" horiz-adv-x="1684" 
d="M842 -22c-465 0 -722 329 -722 739c0 409 257 739 722 739s722 -330 722 -739c0 -410 -257 -739 -722 -739zM337 717c0 -312 168 -553 505 -553s505 241 505 553s-168 553 -505 553s-505 -241 -505 -553zM539 1689c-42 52 -28 103 7 121c10 5 21 8 33 8
c19 0 38 -7 54 -25c35 -35 91 -97 209 -97c115 0 171 61 205 95c17 18 38 27 58 27c11 0 22 -3 32 -8c34 -16 48 -63 14 -112c-60 -97 -193 -140 -309 -140c-118 0 -236 40 -303 131z" />
    <glyph glyph-name="Ohungarumlaut" unicode="&#x150;" horiz-adv-x="1684" 
d="M842 -22c-465 0 -722 329 -722 739c0 409 257 739 722 739s722 -330 722 -739c0 -410 -257 -739 -722 -739zM337 717c0 -312 168 -553 505 -553s505 241 505 553s-168 553 -505 553s-505 -241 -505 -553zM970 1558c-53 4 -73 41 -52 107l57 158c18 55 58 82 117 82
c70 0 100 -44 70 -110l-74 -160c-25 -53 -63 -81 -118 -77zM692 1558c-53 4 -73 41 -52 107l56 158c19 55 59 82 118 82c70 0 100 -44 69 -110l-74 -160c-24 -53 -63 -81 -117 -77z" />
    <glyph glyph-name="Ohorn" unicode="&#x1a0;" horiz-adv-x="1684" 
d="M842 -22c-465 0 -722 329 -722 739c0 409 257 739 722 739c187 0 341 -53 457 -144c70 35 99 84 99 154c0 52 36 95 96 95c57 0 93 -39 93 -95c0 -116 -54 -216 -174 -269c99 -129 151 -296 151 -480c0 -410 -257 -739 -722 -739zM842 1270c-337 0 -505 -241 -505 -553
s168 -553 505 -553s505 241 505 553s-168 553 -505 553z" />
    <glyph glyph-name="uni01D1" unicode="&#x1d1;" horiz-adv-x="1684" 
d="M120 717c0 409 257 739 722 739s722 -330 722 -739c0 -410 -257 -739 -722 -739s-722 329 -722 739zM842 1270c-337 0 -505 -241 -505 -553s168 -553 505 -553s505 241 505 553s-168 553 -505 553zM587 1764c-44 47 -42 96 10 111c10 3 19 4 28 4c42 0 76 -27 110 -57
l107 -111l106 111c34 30 69 57 110 57c9 0 19 -1 29 -4c51 -15 54 -64 10 -111l-130 -148c-39 -42 -76 -58 -125 -58s-86 16 -125 58z" />
    <glyph glyph-name="uni01EA" unicode="&#x1ea;" horiz-adv-x="1684" 
d="M842 -22c-465 0 -722 329 -722 739c0 409 257 739 722 739s722 -330 722 -739c0 -349 -187 -640 -530 -718c-45 -40 -88 -86 -88 -146c0 -52 33 -74 71 -85c57 -21 93 -38 93 -93c0 -53 -41 -92 -111 -80c-115 16 -215 81 -215 204c0 100 69 154 120 181
c-20 -1 -41 -2 -62 -2zM842 1270c-337 0 -505 -241 -505 -553s168 -553 505 -553s505 241 505 553s-168 553 -505 553z" />
    <glyph glyph-name="uni01EC" unicode="&#x1ec;" horiz-adv-x="1684" 
d="M120 717c0 409 257 739 722 739s722 -330 722 -739c0 -349 -187 -640 -530 -718c-45 -40 -88 -86 -88 -146c0 -52 33 -74 71 -85c57 -21 93 -38 93 -93c0 -53 -41 -92 -111 -80c-115 16 -215 81 -215 204c0 100 69 154 120 181c-20 -1 -41 -2 -62 -2
c-465 0 -722 329 -722 739zM337 717c0 -312 168 -553 505 -553s505 241 505 553s-168 553 -505 553s-505 -241 -505 -553zM467 1642c0 54 39 83 110 83h532c71 0 108 -29 108 -83s-37 -84 -108 -84h-532c-71 0 -110 29 -110 84z" />
    <glyph glyph-name="uni020C" unicode="&#x20c;" horiz-adv-x="1684" 
d="M842 -22c-465 0 -722 329 -722 739c0 409 257 739 722 739s722 -330 722 -739c0 -410 -257 -739 -722 -739zM337 717c0 -312 168 -553 505 -553s505 241 505 553s-168 553 -505 553s-505 -241 -505 -553zM422 1744c-59 61 -29 115 56 115c55 0 98 -15 132 -55l120 -134
c50 -57 34 -112 -35 -117c-57 -4 -95 17 -134 54zM762 1744c-60 61 -30 115 55 115c55 0 98 -15 132 -55l120 -134c50 -57 35 -112 -35 -117c-57 -4 -95 17 -134 54z" />
    <glyph glyph-name="uni020E" unicode="&#x20e;" horiz-adv-x="1684" 
d="M842 -22c-465 0 -722 329 -722 739c0 409 257 739 722 739s722 -330 722 -739c0 -410 -257 -739 -722 -739zM337 717c0 -312 168 -553 505 -553s505 241 505 553s-168 553 -505 553s-505 -241 -505 -553zM546 1524c-35 18 -49 69 -7 121c67 91 185 131 303 131
c116 0 249 -43 309 -140c34 -49 20 -96 -14 -112c-10 -5 -21 -8 -32 -8c-20 0 -41 9 -58 27c-34 34 -90 95 -205 95c-118 0 -174 -62 -209 -97c-16 -18 -35 -25 -54 -25c-12 0 -23 3 -33 8z" />
    <glyph glyph-name="uni022A" unicode="&#x22a;" horiz-adv-x="1684" 
d="M842 -22c-465 0 -722 329 -722 739c0 409 257 739 722 739s722 -330 722 -739c0 -410 -257 -739 -722 -739zM337 717c0 -312 168 -553 505 -553s505 241 505 553s-168 553 -505 553s-505 -241 -505 -553zM591 1804c-63 0 -96 26 -96 75c0 48 33 74 96 74h503
c62 0 95 -26 95 -74s-33 -75 -95 -75h-503zM1024 1529c-60 0 -110 48 -110 109c0 60 50 109 110 109s110 -49 110 -109c0 -61 -50 -109 -110 -109zM549 1638c0 60 50 109 110 109s110 -49 110 -109c0 -61 -50 -109 -110 -109s-110 48 -110 109z" />
    <glyph glyph-name="uni022C" unicode="&#x22c;" horiz-adv-x="1684" 
d="M842 -22c-465 0 -722 329 -722 739c0 409 257 739 722 739s722 -330 722 -739c0 -410 -257 -739 -722 -739zM337 717c0 -312 168 -553 505 -553s505 241 505 553s-168 553 -505 553s-505 -241 -505 -553zM618 1557c-49 2 -80 44 -52 105c23 57 70 120 172 120
c77 0 112 -42 144 -75c24 -25 39 -44 62 -44c13 0 22 6 30 16c27 36 43 62 92 61c49 -2 80 -44 52 -105c-23 -57 -70 -120 -172 -120c-77 0 -112 43 -144 76c-24 24 -39 44 -62 44c-13 0 -23 -8 -31 -18c-27 -36 -43 -61 -91 -60zM495 1896c0 48 34 74 97 74h502
c62 0 95 -26 95 -74s-33 -75 -95 -75h-502c-63 0 -97 26 -97 75z" />
    <glyph glyph-name="uni022E" unicode="&#x22e;" horiz-adv-x="1684" 
d="M842 -22c-465 0 -722 329 -722 739c0 409 257 739 722 739s722 -330 722 -739c0 -410 -257 -739 -722 -739zM337 717c0 -312 168 -553 505 -553s505 241 505 553s-168 553 -505 553s-505 -241 -505 -553zM842 1558c-67 0 -122 54 -122 121s55 121 122 121
c66 0 121 -54 121 -121s-55 -121 -121 -121z" />
    <glyph glyph-name="uni0230" unicode="&#x230;" horiz-adv-x="1684" 
d="M120 717c0 409 257 739 722 739s722 -330 722 -739c0 -410 -257 -739 -722 -739s-722 329 -722 739zM337 717c0 -312 168 -553 505 -553s505 241 505 553s-168 553 -505 553s-505 -241 -505 -553zM495 1877c0 48 34 74 97 74h502c63 0 95 -26 95 -74s-32 -75 -95 -75
h-502c-63 0 -97 26 -97 75zM732 1640c0 60 49 109 110 109c60 0 110 -49 110 -109c0 -61 -50 -110 -110 -110c-61 0 -110 49 -110 110z" />
    <glyph glyph-name="Ograve" unicode="&#xd2;" horiz-adv-x="1684" 
d="M842 -22c-465 0 -722 329 -722 739c0 409 257 739 722 739s722 -330 722 -739c0 -410 -257 -739 -722 -739zM842 1270c-337 0 -505 -241 -505 -553s168 -553 505 -553s505 241 505 553s-168 553 -505 553zM585 1750c-59 60 -29 114 56 114c55 0 98 -15 132 -55l120 -134
c49 -57 34 -112 -35 -117c-57 -4 -96 17 -134 54z" />
    <glyph glyph-name="Oacute" unicode="&#xd3;" horiz-adv-x="1684" 
d="M842 -22c-465 0 -722 329 -722 739c0 409 257 739 722 739s722 -330 722 -739c0 -410 -257 -739 -722 -739zM842 1270c-337 0 -505 -241 -505 -553s168 -553 505 -553s505 241 505 553s-168 553 -505 553zM826 1558c-69 5 -85 60 -35 117l120 134c34 40 77 55 132 55
c85 0 115 -54 56 -114l-139 -138c-39 -37 -78 -58 -134 -54z" />
    <glyph glyph-name="Ocircumflex" unicode="&#xd4;" horiz-adv-x="1684" 
d="M842 -22c-465 0 -722 329 -722 739c0 409 257 739 722 739s722 -330 722 -739c0 -410 -257 -739 -722 -739zM337 717c0 -312 168 -553 505 -553s505 241 505 553s-168 553 -505 553s-505 -241 -505 -553zM597 1557c-52 16 -54 64 -10 111l130 148c39 42 76 59 125 59
s86 -17 125 -59l130 -148c44 -47 42 -95 -10 -111c-10 -3 -19 -4 -27 -4c-42 0 -77 27 -111 58l-107 110l-107 -110c-34 -31 -69 -58 -111 -58c-8 0 -17 1 -27 4z" />
    <glyph glyph-name="Otilde" unicode="&#xd5;" horiz-adv-x="1684" 
d="M842 -22c-465 0 -722 329 -722 739c0 409 257 739 722 739s722 -330 722 -739c0 -410 -257 -739 -722 -739zM337 717c0 -312 168 -553 505 -553s505 241 505 553s-168 553 -505 553s-505 -241 -505 -553zM597 1601c-53 2 -88 51 -53 120c26 60 77 126 186 126
c81 0 119 -44 153 -79c26 -26 42 -46 68 -46c14 0 25 7 34 18c29 38 47 66 102 64c53 -2 88 -51 53 -120c-26 -60 -78 -126 -186 -126c-82 0 -120 44 -154 78c-26 27 -42 47 -67 47c-16 0 -27 -8 -37 -19c-28 -38 -46 -65 -99 -63z" />
    <glyph glyph-name="Odieresis" unicode="&#xd6;" horiz-adv-x="1684" 
d="M842 -22c-465 0 -722 329 -722 739c0 409 257 739 722 739s722 -330 722 -739c0 -410 -257 -739 -722 -739zM337 717c0 -312 168 -553 505 -553s505 241 505 553s-168 553 -505 553s-505 -241 -505 -553zM917 1679c0 66 55 121 122 121c66 0 121 -55 121 -121
c0 -68 -55 -121 -121 -121c-67 0 -122 53 -122 121zM523 1679c0 66 55 121 122 121c66 0 121 -55 121 -121c0 -68 -55 -121 -121 -121c-67 0 -122 53 -122 121z" />
    <glyph glyph-name="Oslash" unicode="&#xd8;" horiz-adv-x="1686" 
d="M120 717c0 408 257 739 723 739c91 0 175 -13 250 -37l14 29c16 33 40 59 81 59c9 0 17 -1 27 -3c45 -11 67 -49 47 -94l-26 -55c214 -128 329 -365 329 -638c0 -408 -257 -739 -722 -739c-94 0 -177 13 -253 38l-14 -30c-17 -33 -40 -59 -81 -59c-8 0 -17 1 -27 3
c-46 11 -67 50 -47 95l26 54c-213 129 -327 366 -327 638zM1150 1178l-478 -991c51 -16 108 -25 171 -25c336 0 504 243 504 555c0 194 -66 362 -197 461zM338 717c0 -193 64 -361 195 -460l478 991c-51 16 -107 24 -168 24c-337 0 -505 -243 -505 -555z" />
    <glyph glyph-name="Oslashacute" unicode="&#x1fe;" horiz-adv-x="1686" 
d="M447 79c-213 129 -327 366 -327 638c0 408 257 739 723 739c91 0 175 -13 250 -37l14 29c16 33 40 59 81 59c9 0 17 -1 27 -3c45 -11 67 -49 47 -94l-26 -55c214 -128 329 -365 329 -638c0 -408 -257 -739 -722 -739c-94 0 -177 13 -253 38l-14 -30
c-17 -33 -40 -59 -81 -59c-8 0 -17 1 -27 3c-46 11 -67 50 -47 95zM1150 1178l-478 -991c51 -16 108 -25 171 -25c336 0 504 243 504 555c0 194 -66 362 -197 461zM338 717c0 -193 64 -361 195 -460l478 991c-51 16 -107 24 -168 24c-337 0 -505 -243 -505 -555zM827 1575
c-70 6 -85 60 -35 117c19 22 88 99 120 134c34 41 77 55 132 55c85 0 115 -53 55 -114c-32 -33 -105 -105 -139 -137c-38 -38 -77 -59 -133 -55z" />
    <glyph glyph-name="OE" unicode="&#x152;" horiz-adv-x="2285" 
d="M120 718c0 404 247 740 723 740c121 0 227 -22 318 -62c7 25 39 38 93 38h771c71 0 110 -33 110 -93s-39 -93 -110 -93h-667v-424h620c71 0 110 -33 110 -92s-39 -92 -110 -92h-620v-454h677c71 0 110 -33 110 -93s-39 -93 -110 -93h-781c-54 0 -86 13 -93 37
c-91 -39 -197 -61 -318 -61c-476 0 -723 336 -723 742zM843 1272c-344 0 -505 -253 -505 -554c0 -302 161 -556 505 -556c126 0 225 36 301 95v920c-76 59 -175 95 -301 95z" />
    <glyph glyph-name="Racute" unicode="&#x154;" horiz-adv-x="1391" 
d="M160 109v1215c0 71 39 110 110 110h517c295 0 485 -159 485 -435c0 -225 -150 -370 -329 -406l258 -440c36 -64 26 -125 -35 -152c-16 -7 -32 -10 -46 -10c-43 0 -77 26 -101 68l-299 511h-346v-461c0 -71 -37 -109 -107 -109c-69 0 -107 38 -107 109zM374 1248v-498h413
c185 0 268 100 268 249s-83 249 -268 249h-413zM598 1653l120 134c34 40 77 55 132 55c85 0 115 -54 56 -114l-139 -138c-39 -37 -77 -58 -134 -54c-69 6 -85 60 -35 117z" />
    <glyph glyph-name="uni0156" unicode="&#x156;" horiz-adv-x="1391" 
d="M270 1434h517c295 0 485 -159 485 -435c0 -225 -150 -370 -329 -406l258 -440c36 -64 26 -125 -35 -152c-16 -7 -32 -10 -46 -10c-43 0 -77 26 -101 68l-299 511h-346v-461c0 -71 -37 -109 -107 -109c-69 0 -107 38 -107 109v1215c0 71 39 110 110 110zM374 750h413
c185 0 268 100 268 249s-83 249 -268 249h-413v-498zM455 -400l84 205c22 56 59 80 121 80h4c73 0 107 -46 76 -108l-106 -211c-23 -48 -57 -82 -123 -78c-59 5 -83 46 -56 112z" />
    <glyph glyph-name="Rcaron" unicode="&#x158;" horiz-adv-x="1391" 
d="M160 109v1215c0 71 39 110 110 110h517c295 0 485 -159 485 -435c0 -225 -150 -370 -329 -406l258 -440c36 -64 26 -125 -35 -152c-16 -7 -32 -10 -46 -10c-43 0 -77 26 -101 68l-299 511h-346v-461c0 -71 -37 -109 -107 -109c-69 0 -107 38 -107 109zM787 1248h-413
v-498h413c185 0 268 100 268 249s-83 249 -268 249zM404 1853c10 3 20 4 29 4c41 0 75 -27 109 -57l107 -111l107 111c34 30 68 57 109 57c9 0 19 -1 29 -4c52 -15 54 -64 10 -110l-130 -149c-39 -41 -76 -58 -125 -58s-86 17 -125 58l-130 149c-44 46 -42 95 10 110z" />
    <glyph glyph-name="uni0210" unicode="&#x210;" horiz-adv-x="1391" 
d="M270 1434h517c295 0 485 -159 485 -435c0 -225 -150 -370 -329 -406l258 -440c36 -64 26 -125 -35 -152c-16 -7 -32 -10 -46 -10c-43 0 -77 26 -101 68l-299 511h-346v-461c0 -71 -37 -109 -107 -109c-69 0 -107 38 -107 109v1215c0 71 39 110 110 110zM374 1248v-498
h413c185 0 268 100 268 249s-83 249 -268 249h-413zM624 1837c55 0 98 -15 133 -55l119 -134c50 -57 35 -112 -35 -117c-56 -4 -95 17 -133 54l-139 138c-60 60 -30 114 55 114zM285 1837c55 0 98 -15 132 -55l120 -134c50 -57 35 -112 -35 -117c-57 -4 -95 17 -134 54
l-139 138c-59 60 -29 114 56 114z" />
    <glyph glyph-name="uni0212" unicode="&#x212;" horiz-adv-x="1391" 
d="M160 109v1215c0 71 39 110 110 110h517c295 0 485 -159 485 -435c0 -225 -150 -370 -329 -406l258 -440c36 -64 26 -125 -35 -152c-16 -7 -32 -10 -46 -10c-43 0 -77 26 -101 68l-299 511h-346v-461c0 -71 -37 -109 -107 -109c-69 0 -107 38 -107 109zM374 750h413
c185 0 268 100 268 249s-83 249 -268 249h-413v-498zM346 1623c67 91 185 131 303 131c116 0 249 -43 309 -140c34 -49 20 -96 -14 -112c-10 -5 -21 -8 -32 -8c-20 0 -41 9 -58 27c-34 34 -90 95 -205 95c-118 0 -173 -62 -209 -97c-16 -18 -35 -25 -54 -25
c-12 0 -23 3 -33 8c-35 18 -49 69 -7 121z" />
    <glyph glyph-name="uni024C" unicode="&#x24c;" horiz-adv-x="1551" 
d="M56 660c0 57 36 90 90 90h174v574c0 71 39 110 110 110h517c294 0 484 -159 484 -435c0 -225 -150 -370 -329 -406l258 -440c36 -64 26 -125 -35 -152c-16 -7 -32 -10 -46 -10c-43 0 -77 26 -101 68l-298 511h-346v-461c0 -71 -37 -109 -107 -109c-69 0 -107 38 -107 109
v461h-174c-54 0 -90 33 -90 90zM534 1248v-498h413c184 0 267 100 267 249s-83 249 -267 249h-413z" />
    <glyph glyph-name="Sacute" unicode="&#x15a;" horiz-adv-x="1322" 
d="M183 78c-66 31 -83 93 -51 143c20 30 46 43 77 43c22 0 47 -7 73 -17c82 -34 229 -83 385 -83c221 0 322 74 322 221c0 131 -95 200 -347 258c-342 77 -509 207 -509 426c0 226 173 387 510 387c189 0 330 -36 414 -69c70 -26 99 -83 68 -138c-18 -33 -48 -45 -83 -45
c-22 0 -46 5 -70 12c-70 23 -195 54 -325 54c-174 0 -297 -61 -297 -201c0 -124 108 -181 331 -233c340 -77 525 -193 525 -451c0 -277 -209 -407 -535 -407c-228 0 -394 55 -488 100zM641 1558c-70 5 -85 60 -35 117l120 134c34 40 77 55 132 55c85 0 115 -54 56 -114
l-139 -138c-39 -37 -77 -58 -134 -54z" />
    <glyph glyph-name="Scircumflex" unicode="&#x15c;" horiz-adv-x="1322" 
d="M183 78c-66 31 -83 93 -51 143c20 30 46 43 77 43c22 0 47 -7 73 -17c82 -34 229 -83 385 -83c221 0 322 74 322 221c0 131 -95 200 -347 258c-342 77 -509 207 -509 426c0 226 173 387 510 387c189 0 330 -36 414 -69c70 -26 99 -83 68 -138c-18 -33 -48 -45 -83 -45
c-22 0 -46 5 -70 12c-70 23 -195 54 -325 54c-174 0 -297 -61 -297 -201c0 -124 108 -181 331 -233c340 -77 525 -193 525 -451c0 -277 -209 -407 -535 -407c-228 0 -394 55 -488 100zM412 1557c-52 16 -54 64 -10 111l130 148c39 42 76 59 125 59s86 -17 125 -59l130 -148
c44 -47 42 -95 -10 -111c-10 -3 -19 -4 -27 -4c-42 0 -77 27 -111 58l-107 110l-107 -110c-34 -31 -69 -58 -111 -58c-8 0 -17 1 -27 4z" />
    <glyph glyph-name="Scedilla" unicode="&#x15e;" horiz-adv-x="1322" 
d="M183 78c-66 31 -83 93 -51 143c20 30 46 43 77 43c22 0 47 -7 73 -17c82 -34 229 -83 385 -83c221 0 322 74 322 221c0 131 -95 200 -347 258c-342 77 -509 207 -509 426c0 226 173 387 510 387c189 0 330 -36 414 -69c70 -26 99 -83 68 -138c-18 -33 -48 -45 -83 -45
c-22 0 -46 5 -70 12c-70 23 -195 54 -325 54c-174 0 -297 -61 -297 -201c0 -124 108 -181 331 -233c340 -77 525 -193 525 -451c0 -263 -188 -394 -487 -406l-28 -81c117 -1 207 -61 195 -179c-13 -140 -126 -190 -248 -190c-34 0 -69 4 -103 11c-68 13 -90 50 -76 88
c9 27 31 36 62 36c15 0 32 -2 51 -5c20 -3 43 -6 65 -6c49 0 96 14 104 69c8 58 -52 71 -113 69c-76 3 -111 30 -88 97l33 93c-178 13 -311 58 -390 97z" />
    <glyph glyph-name="Scaron" unicode="&#x160;" horiz-adv-x="1322" 
d="M183 78c-66 31 -83 93 -51 143c20 30 46 43 77 43c22 0 47 -7 73 -17c82 -34 229 -83 385 -83c221 0 322 74 322 221c0 131 -95 200 -347 258c-342 77 -509 207 -509 426c0 226 173 387 510 387c189 0 330 -36 414 -69c70 -26 99 -83 68 -138c-18 -33 -48 -45 -83 -45
c-22 0 -46 5 -70 12c-70 23 -195 54 -325 54c-174 0 -297 -61 -297 -201c0 -124 108 -181 331 -233c340 -77 525 -193 525 -451c0 -277 -209 -407 -535 -407c-228 0 -394 55 -488 100zM402 1764c-44 47 -42 96 10 111c10 3 19 4 28 4c42 0 76 -27 110 -57l107 -111l107 111
c34 30 68 57 109 57c9 0 19 -1 29 -4c51 -15 54 -64 10 -111l-130 -148c-39 -42 -76 -58 -125 -58s-86 16 -125 58z" />
    <glyph glyph-name="uni0218" unicode="&#x218;" horiz-adv-x="1322" 
d="M183 78c-66 31 -83 93 -51 143c20 30 46 43 77 43c22 0 47 -7 73 -17c82 -34 229 -83 385 -83c221 0 322 74 322 221c0 131 -95 200 -347 258c-342 77 -509 207 -509 426c0 226 173 387 510 387c189 0 330 -36 414 -69c70 -26 99 -83 68 -138c-18 -33 -48 -45 -83 -45
c-22 0 -46 5 -70 12c-70 23 -195 54 -325 54c-174 0 -297 -61 -297 -201c0 -124 108 -181 331 -233c340 -77 525 -193 525 -451c0 -277 -209 -407 -535 -407c-228 0 -394 55 -488 100zM506 -513c-60 4 -83 45 -57 111l85 206c22 56 59 80 121 80h4c74 0 107 -46 76 -109
l-106 -211c-23 -47 -57 -82 -123 -77z" />
    <glyph glyph-name="uni0162" unicode="&#x162;" horiz-adv-x="1366" 
d="M82 1341c0 60 39 93 110 93h982c71 0 110 -33 110 -93s-39 -93 -110 -93h-384v-1139c0 -71 -38 -109 -107 -109s-107 38 -107 109v1139h-384c-71 0 -110 33 -110 93zM532 -504c-59 5 -83 46 -56 112l84 205c22 56 59 81 121 81h4c74 0 107 -46 76 -109l-106 -211
c-23 -48 -57 -82 -123 -78z" />
    <glyph glyph-name="uni021A" unicode="&#x21a;" horiz-adv-x="1366" 
d="M82 1341c0 60 39 93 110 93h982c71 0 110 -33 110 -93s-39 -93 -110 -93h-384v-1139c0 -71 -38 -109 -107 -109s-107 38 -107 109v1139h-384c-71 0 -110 33 -110 93zM532 -504c-59 5 -83 46 -56 112l84 205c22 56 59 81 121 81h4c74 0 107 -46 76 -109l-106 -211
c-23 -48 -57 -82 -123 -78z" />
    <glyph glyph-name="Tcaron" unicode="&#x164;" horiz-adv-x="1366" 
d="M82 1341c0 60 39 93 110 93h982c71 0 110 -33 110 -93s-39 -93 -110 -93h-384v-1139c0 -71 -38 -109 -107 -109s-107 38 -107 109v1139h-384c-71 0 -110 33 -110 93zM428 1742c-44 47 -41 96 10 111c10 3 20 4 29 4c41 0 75 -27 109 -57l107 -111l107 111
c34 30 68 57 110 57c9 0 18 -1 28 -4c52 -15 54 -64 10 -111l-130 -148c-39 -42 -76 -58 -125 -58s-86 16 -125 58z" />
    <glyph glyph-name="Tbar" unicode="&#x166;" horiz-adv-x="1366" 
d="M82 1341c0 60 39 93 110 93h982c71 0 110 -33 110 -93s-39 -93 -110 -93h-384v-329h207c52 0 90 -32 90 -92s-38 -92 -90 -92h-207v-626c0 -71 -38 -109 -107 -109s-107 38 -107 109v626h-207c-52 0 -90 32 -90 92s38 92 90 92h207v329h-384c-71 0 -110 33 -110 93z" />
    <glyph glyph-name="Ugrave" unicode="&#xd9;" horiz-adv-x="1514" 
d="M757 -22c-402 0 -597 234 -597 646v701c0 71 38 109 107 109s107 -38 107 -109v-701c0 -303 114 -460 383 -460s383 157 383 460v701c0 71 38 109 107 109s107 -38 107 -109v-701c0 -412 -195 -646 -597 -646zM500 1728c-59 61 -29 114 56 114c55 0 98 -14 132 -54
l120 -134c50 -58 34 -112 -35 -118c-57 -4 -95 18 -134 55z" />
    <glyph glyph-name="Uacute" unicode="&#xda;" horiz-adv-x="1514" 
d="M757 -22c-402 0 -597 234 -597 646v701c0 71 38 109 107 109s107 -38 107 -109v-701c0 -303 114 -460 383 -460s383 157 383 460v701c0 71 38 109 107 109s107 -38 107 -109v-701c0 -412 -195 -646 -597 -646zM741 1536c-69 6 -85 60 -35 118l120 134c34 40 77 54 132 54
c85 0 115 -53 56 -114l-139 -137c-39 -37 -77 -59 -134 -55z" />
    <glyph glyph-name="Ucircumflex" unicode="&#xdb;" horiz-adv-x="1514" 
d="M160 1325c0 71 38 109 107 109s107 -38 107 -109v-701c0 -303 114 -460 383 -460s383 157 383 460v701c0 71 38 109 107 109s107 -38 107 -109v-701c0 -412 -195 -646 -597 -646s-597 234 -597 646v701zM512 1536c-52 15 -54 64 -10 110l130 149c39 41 76 58 125 58
s86 -17 125 -58l130 -149c44 -46 42 -95 -10 -110c-10 -3 -20 -4 -29 -4c-41 0 -75 27 -109 57l-107 110l-107 -110c-34 -30 -68 -57 -109 -57c-9 0 -19 1 -29 4z" />
    <glyph glyph-name="Utilde" unicode="&#x168;" horiz-adv-x="1514" 
d="M757 -22c-402 0 -597 234 -597 646v701c0 71 38 109 107 109s107 -38 107 -109v-701c0 -303 114 -460 383 -460s383 157 383 460v701c0 71 38 109 107 109s107 -38 107 -109v-701c0 -412 -195 -646 -597 -646zM512 1580c-53 2 -88 51 -53 119c26 61 77 127 186 127
c81 0 119 -44 153 -79c26 -26 43 -47 68 -47c14 0 25 8 34 18c29 38 47 66 102 64c53 -2 88 -51 53 -119c-26 -61 -78 -127 -186 -127c-82 0 -120 45 -154 79c-26 26 -42 47 -67 47c-16 0 -26 -9 -36 -20c-29 -37 -47 -64 -100 -62z" />
    <glyph glyph-name="Umacron" unicode="&#x16a;" horiz-adv-x="1514" 
d="M160 1325c0 71 38 109 107 109s107 -38 107 -109v-701c0 -303 114 -460 383 -460s383 157 383 460v701c0 71 38 109 107 109s107 -38 107 -109v-701c0 -412 -195 -646 -597 -646s-597 234 -597 646v701zM492 1536c-71 0 -110 29 -110 84c0 54 39 83 110 83h532
c71 0 108 -29 108 -83s-37 -84 -108 -84h-532z" />
    <glyph glyph-name="Ubreve" unicode="&#x16c;" horiz-adv-x="1514" 
d="M757 -22c-402 0 -597 234 -597 646v701c0 71 38 109 107 109s107 -38 107 -109v-701c0 -303 114 -460 383 -460s383 157 383 460v701c0 71 38 109 107 109s107 -38 107 -109v-701c0 -412 -195 -646 -597 -646zM454 1668c-42 51 -28 103 7 120c10 5 22 8 33 8
c19 0 38 -7 54 -24c36 -36 91 -97 209 -97c115 0 171 61 205 94c17 19 38 27 58 27c11 0 22 -3 32 -8c34 -16 48 -63 14 -111c-60 -97 -193 -141 -309 -141c-118 0 -236 40 -303 132z" />
    <glyph glyph-name="Uring" unicode="&#x16e;" horiz-adv-x="1514" 
d="M757 -22c-402 0 -597 234 -597 646v701c0 71 38 109 107 109s107 -38 107 -109v-701c0 -303 114 -460 383 -460s383 157 383 460v701c0 71 38 109 107 109s107 -38 107 -109v-701c0 -412 -195 -646 -597 -646zM757 1536c-106 0 -195 90 -195 195c0 107 89 195 195 195
c105 0 195 -88 195 -195c0 -105 -90 -195 -195 -195zM757 1807c-42 0 -76 -34 -76 -76s34 -75 76 -75s75 33 75 75s-33 76 -75 76z" />
    <glyph glyph-name="Uhungarumlaut" unicode="&#x170;" horiz-adv-x="1514" 
d="M160 624v701c0 71 38 109 107 109s107 -38 107 -109v-701c0 -303 114 -460 383 -460s383 157 383 460v701c0 71 38 109 107 109s107 -38 107 -109v-701c0 -412 -195 -646 -597 -646s-597 234 -597 646zM885 1536c-53 4 -73 42 -52 107l57 158c19 55 58 82 117 82
c71 0 100 -43 70 -109l-74 -161c-25 -53 -63 -81 -118 -77zM607 1536c-53 4 -73 42 -52 107l56 158c19 55 59 82 118 82c70 0 100 -43 69 -109l-74 -161c-24 -53 -63 -81 -117 -77z" />
    <glyph glyph-name="Uogonek" unicode="&#x172;" horiz-adv-x="1514" 
d="M160 624v701c0 71 38 109 107 109s107 -38 107 -109v-701c0 -303 114 -460 383 -460s383 157 383 460v701c0 71 38 109 107 109s107 -38 107 -109v-701c0 -341 -133 -559 -406 -625c-45 -40 -89 -86 -89 -146c0 -52 34 -74 72 -85c56 -21 92 -38 92 -93
c0 -53 -40 -92 -110 -80c-115 16 -216 81 -216 204c0 100 69 154 120 181c-19 -1 -39 -2 -60 -2c-402 0 -597 234 -597 646z" />
    <glyph glyph-name="Uhorn" unicode="&#x1af;" horiz-adv-x="1514" 
d="M160 624v701c0 71 38 109 107 109s107 -38 107 -109v-701c0 -303 114 -460 383 -460s383 157 383 460v701c0 71 38 109 107 109s107 -38 107 -109v-145c78 35 111 85 111 160c0 52 36 95 96 95c57 0 93 -39 93 -95c0 -151 -92 -276 -300 -303v-413
c0 -412 -195 -646 -597 -646s-597 234 -597 646z" />
    <glyph glyph-name="uni01D3" unicode="&#x1d3;" horiz-adv-x="1514" 
d="M757 -22c-402 0 -597 234 -597 646v701c0 71 38 109 107 109s107 -38 107 -109v-701c0 -303 114 -460 383 -460s383 157 383 460v701c0 71 38 109 107 109s107 -38 107 -109v-701c0 -412 -195 -646 -597 -646zM502 1743c-44 47 -42 95 10 111c10 3 19 4 27 4
c42 0 77 -27 111 -58l107 -110l107 110c34 31 69 58 111 58c8 0 17 -1 27 -4c52 -16 54 -64 10 -111l-130 -148c-39 -42 -76 -59 -125 -59s-86 17 -125 59z" />
    <glyph glyph-name="Udieresis" unicode="&#xdc;" horiz-adv-x="1514" 
d="M757 -22c-402 0 -597 234 -597 646v701c0 71 38 109 107 109s107 -38 107 -109v-701c0 -303 114 -460 383 -460s383 157 383 460v701c0 71 38 109 107 109s107 -38 107 -109v-701c0 -412 -195 -646 -597 -646zM832 1657c0 67 55 121 122 121c66 0 121 -54 121 -121
s-55 -121 -121 -121c-67 0 -122 54 -122 121zM560 1536c-67 0 -122 54 -122 121s55 121 122 121c66 0 121 -54 121 -121s-55 -121 -121 -121z" />
    <glyph glyph-name="uni01D9" unicode="&#x1d9;" horiz-adv-x="1514" 
d="M757 -22c-402 0 -597 234 -597 646v700c0 71 38 110 107 110s107 -39 107 -110v-700c0 -303 114 -460 383 -460s383 157 383 460v700c0 71 38 110 107 110s107 -39 107 -110v-700c0 -412 -195 -646 -597 -646zM512 1876c-41 44 -39 91 10 106c9 2 17 4 25 4
c38 0 71 -26 102 -55l106 -109l106 109c31 29 64 55 103 55c8 0 16 -2 25 -4c48 -15 50 -62 10 -106l-129 -147c-36 -38 -70 -54 -115 -54s-79 16 -115 54zM530 1483c-61 0 -111 49 -111 110c0 60 50 110 111 110c60 0 110 -50 110 -110c0 -61 -50 -110 -110 -110zM980 1483
c-60 0 -110 49 -110 110c0 60 50 110 110 110c61 0 111 -50 111 -110c0 -61 -50 -110 -111 -110z" />
    <glyph glyph-name="uni01D5" unicode="&#x1d5;" horiz-adv-x="1514" 
d="M757 -22c-402 0 -597 234 -597 646v700c0 71 38 110 107 110s107 -39 107 -110v-700c0 -303 114 -460 383 -460c270 0 383 157 383 460v700c0 71 38 110 107 110s107 -39 107 -110v-700c0 -412 -195 -646 -597 -646zM507 1796c-63 0 -97 26 -97 75c0 48 34 74 97 74h502
c63 0 95 -26 95 -74s-32 -75 -95 -75h-502zM464 1629c0 60 50 109 110 109s110 -49 110 -109c0 -61 -50 -109 -110 -109s-110 48 -110 109zM829 1629c0 60 50 109 110 109s110 -49 110 -109c0 -61 -50 -109 -110 -109s-110 48 -110 109z" />
    <glyph glyph-name="uni01D7" unicode="&#x1d7;" horiz-adv-x="1514" 
d="M160 624v700c0 71 38 110 107 110s107 -39 107 -110v-700c0 -303 114 -460 383 -460s383 157 383 460v700c0 71 38 110 107 110s107 -39 107 -110v-700c0 -412 -195 -646 -597 -646s-597 234 -597 646zM737 1694c-65 5 -78 57 -32 110l119 133c32 37 72 51 123 51
c80 0 107 -51 51 -108l-137 -136c-36 -34 -71 -54 -124 -50zM440 1588c0 60 50 110 111 110c60 0 110 -50 110 -110c0 -61 -50 -110 -110 -110c-61 0 -111 49 -111 110zM964 1478c-60 0 -110 49 -110 110c0 60 50 110 110 110c61 0 111 -50 111 -110
c0 -61 -50 -110 -111 -110z" />
    <glyph glyph-name="uni01DB" unicode="&#x1db;" horiz-adv-x="1514" 
d="M757 -22c-402 0 -597 234 -597 646v700c0 71 38 110 107 110s107 -39 107 -110v-700c0 -303 114 -460 383 -460s383 157 383 460v700c0 71 38 110 107 110s107 -39 107 -110v-700c0 -412 -195 -646 -597 -646zM517 1880c-56 57 -29 108 51 108c51 0 91 -14 123 -51
l119 -133c46 -53 33 -105 -32 -110c-52 -4 -88 16 -124 50zM964 1478c-60 0 -110 49 -110 110c0 60 50 110 110 110c61 0 111 -50 111 -110c0 -61 -50 -110 -111 -110zM551 1478c-61 0 -111 49 -111 110c0 60 50 110 111 110c60 0 110 -50 110 -110
c0 -61 -50 -110 -110 -110z" />
    <glyph glyph-name="uni0214" unicode="&#x214;" horiz-adv-x="1514" 
d="M160 624v701c0 71 38 109 107 109s107 -38 107 -109v-701c0 -303 114 -460 383 -460s383 157 383 460v701c0 71 38 109 107 109s107 -38 107 -109v-701c0 -412 -195 -646 -597 -646s-597 234 -597 646zM677 1723c-60 61 -30 114 55 114c55 0 98 -15 133 -55l119 -134
c50 -57 35 -111 -35 -117c-56 -4 -95 17 -133 55zM337 1723c-59 61 -29 114 56 114c55 0 98 -15 132 -55l120 -134c50 -57 35 -111 -35 -117c-57 -4 -95 17 -134 55z" />
    <glyph glyph-name="uni0216" unicode="&#x216;" horiz-adv-x="1514" 
d="M160 1325c0 71 38 109 107 109s107 -38 107 -109v-701c0 -303 114 -460 383 -460s383 157 383 460v701c0 71 38 109 107 109s107 -38 107 -109v-701c0 -412 -195 -646 -597 -646s-597 234 -597 646v701zM461 1502c-35 17 -49 69 -7 120c67 92 185 132 303 132
c116 0 249 -44 309 -141c34 -48 20 -95 -14 -111c-10 -5 -21 -8 -32 -8c-20 0 -41 8 -58 27c-34 33 -90 94 -205 94c-118 0 -173 -61 -209 -97c-16 -17 -35 -24 -54 -24c-11 0 -23 3 -33 8z" />
    <glyph glyph-name="Wcircumflex" unicode="&#x174;" horiz-adv-x="2003" 
d="M101 1288c-24 71 2 128 66 144c12 3 23 5 33 5c48 0 83 -31 100 -87l305 -975l269 958c18 62 58 101 128 101c69 0 109 -39 127 -101l269 -958l305 975c17 56 52 87 100 87c10 0 21 -2 33 -5c65 -16 90 -73 66 -144l-389 -1198c-20 -60 -58 -90 -117 -90
c-57 0 -94 30 -111 93l-283 1011l-284 -1011c-17 -63 -54 -93 -111 -93c-59 0 -96 30 -117 90zM757 1536c-52 16 -54 64 -11 111l131 148c39 42 76 58 125 58s86 -16 124 -58l131 -148c43 -47 41 -95 -11 -111c-9 -3 -18 -4 -27 -4c-42 0 -77 27 -111 58l-106 110l-107 -110
c-34 -31 -69 -58 -111 -58c-9 0 -18 1 -27 4z" />
    <glyph glyph-name="uni024E" unicode="&#x24e;" horiz-adv-x="1385" 
d="M124 1265c-45 65 -31 125 20 156c16 9 33 14 50 14c38 0 76 -24 106 -66l192 -284h400l192 284c30 42 68 66 106 66c17 0 34 -5 50 -14c51 -31 65 -91 20 -156l-122 -180h60c48 0 81 -28 81 -80s-33 -80 -81 -80h-168l-231 -341v-474c0 -71 -38 -110 -107 -110
s-107 39 -107 110v474l-231 341h-169c-47 0 -81 28 -81 80s34 80 81 80h61zM784 925h-184l92 -136z" />
    <glyph glyph-name="Yacute" unicode="&#xdd;" horiz-adv-x="1383" 
d="M123 1265c-45 65 -31 125 20 156c16 9 33 14 50 14c38 0 76 -24 106 -66l392 -580l392 580c30 42 68 66 106 66c17 0 34 -5 50 -14c51 -31 65 -91 20 -156l-461 -682v-473c0 -71 -38 -110 -107 -110s-107 39 -107 110v473zM675 1537c-69 5 -84 60 -35 117
c20 22 88 98 120 134c34 40 77 55 132 55c85 0 115 -54 56 -114c-33 -33 -106 -105 -139 -138c-38 -37 -77 -58 -134 -54z" />
    <glyph glyph-name="Ycircumflex" unicode="&#x176;" horiz-adv-x="1383" 
d="M123 1265c-45 65 -31 125 20 156c16 9 33 14 50 14c38 0 76 -24 106 -66l392 -580l392 580c30 42 68 66 106 66c17 0 34 -5 50 -14c51 -31 65 -91 20 -156l-461 -682v-473c0 -71 -38 -110 -107 -110s-107 39 -107 110v473zM446 1536c-51 16 -54 64 -10 111l130 148
c39 42 76 58 125 58s86 -16 125 -58l130 -148c44 -47 42 -95 -10 -111c-9 -3 -18 -4 -27 -4c-42 0 -77 27 -111 58l-107 110l-107 -110c-34 -31 -69 -58 -111 -58c-8 0 -17 1 -27 4z" />
    <glyph glyph-name="Ydieresis" unicode="&#x178;" horiz-adv-x="1383" 
d="M124 1265c-46 65 -32 125 20 156c16 9 33 14 50 14c38 0 76 -24 105 -66l393 -580l392 580c30 42 68 66 106 66c16 0 33 -5 49 -14c52 -31 66 -91 20 -156l-461 -682v-473c0 -71 -37 -110 -106 -110s-108 39 -108 110v473zM767 1658c0 66 55 120 122 120
c66 0 121 -54 121 -120c0 -68 -55 -121 -121 -121c-67 0 -122 53 -122 121zM373 1658c0 66 55 120 122 120c66 0 121 -54 121 -120c0 -68 -55 -121 -121 -121c-67 0 -122 53 -122 121z" />
    <glyph glyph-name="uni0232" unicode="&#x232;" horiz-adv-x="1383" 
d="M123 1265c-45 65 -31 125 20 156c16 9 33 14 50 14c38 0 76 -24 106 -66l392 -580l392 580c30 42 68 66 106 66c17 0 34 -5 50 -14c51 -31 65 -91 20 -156l-461 -682v-473c0 -71 -38 -110 -107 -110s-107 39 -107 110v473zM317 1621c0 54 38 83 109 83h532
c71 0 107 -29 107 -83s-36 -84 -107 -84h-532c-71 0 -109 29 -109 84z" />
    <glyph glyph-name="yen" unicode="&#xa5;" horiz-adv-x="1383" 
d="M123 1265c-45 66 -31 126 20 156c17 10 34 15 51 15c38 0 75 -24 105 -66l392 -580l392 580c30 42 67 66 105 66c17 0 34 -5 51 -15c51 -30 65 -90 20 -156l-446 -659h199c60 0 91 -29 91 -76s-31 -76 -91 -76h-214v-87h214c60 0 91 -28 91 -76c0 -47 -31 -76 -91 -76
h-214v-105c0 -71 -38 -110 -107 -110s-107 39 -107 110v105h-214c-60 0 -91 29 -91 76c0 48 31 76 91 76h214v87h-214c-60 0 -91 29 -91 76s31 76 91 76h199z" />
    <glyph glyph-name="Zacute" unicode="&#x179;" horiz-adv-x="1391" 
d="M140 78c0 33 16 72 45 112l762 1058h-684c-71 0 -109 33 -109 93s38 93 109 93h877c73 0 106 -32 106 -78c0 -33 -16 -72 -45 -112l-763 -1058h704c71 0 109 -33 109 -93s-38 -93 -109 -93h-896c-74 0 -106 32 -106 78zM680 1536c-69 5 -84 60 -35 117
c20 22 88 98 120 134c34 40 77 55 132 55c85 0 115 -54 56 -114c-33 -33 -106 -105 -139 -138c-38 -37 -77 -58 -134 -54z" />
    <glyph glyph-name="Zdotaccent" unicode="&#x17b;" horiz-adv-x="1391" 
d="M140 78c0 33 16 72 45 112l763 1058h-684c-71 0 -110 33 -110 93s39 93 110 93h876c74 0 106 -32 106 -78c0 -33 -15 -72 -45 -112l-762 -1058h703c71 0 110 -33 110 -93s-39 -93 -110 -93h-896c-73 0 -106 32 -106 78zM697 1536c-68 0 -122 54 -122 121s54 121 122 121
c66 0 121 -54 121 -121s-55 -121 -121 -121z" />
    <glyph glyph-name="Zcaron" unicode="&#x17d;" horiz-adv-x="1391" 
d="M140 78c0 33 16 72 45 112l762 1058h-684c-71 0 -109 33 -109 93s38 93 109 93h877c73 0 106 -32 106 -78c0 -33 -16 -72 -45 -112l-763 -1058h704c71 0 109 -33 109 -93s-38 -93 -109 -93h-896c-74 0 -106 32 -106 78zM441 1742c-44 47 -41 96 10 111c10 3 20 4 29 4
c41 0 75 -27 109 -57l107 -111l107 111c34 30 68 57 110 57c9 0 18 -1 28 -4c52 -15 54 -64 10 -111l-130 -148c-39 -42 -76 -58 -125 -58s-86 16 -125 58z" />
    <glyph glyph-name="Thorn" unicode="&#xde;" horiz-adv-x="1148" 
d="M160 1325c0 71 38 109 107 109s107 -38 107 -109v-190h230c287 0 423 -176 423 -418c0 -240 -136 -418 -423 -418h-230v-190c0 -71 -38 -109 -107 -109s-107 38 -107 109v1216zM604 949h-230v-464h230c139 0 209 90 209 232c0 144 -70 232 -209 232z" />
    <glyph glyph-name="germandbls" unicode="&#xdf;" horiz-adv-x="1359" 
d="M265 0c-68 0 -105 39 -105 110v769c0 540 339 577 513 577c324 0 513 -171 513 -404c0 -151 -98 -263 -208 -301c141 -43 261 -156 261 -355c0 -274 -174 -418 -474 -418c-93 0 -155 10 -192 20c-67 14 -127 52 -112 121c10 48 44 62 87 62c19 0 39 -3 60 -7
c39 -11 93 -20 157 -20c185 0 262 90 262 248c0 177 -108 256 -281 256h-109c-63 0 -97 32 -97 88s34 88 96 88h108c157 0 230 86 230 214c0 135 -79 232 -301 232c-149 0 -303 -48 -303 -401v-769c0 -71 -36 -110 -105 -110z" />
    <glyph glyph-name="agrave" unicode="&#xe0;" horiz-adv-x="1164" 
d="M100 311c0 283 294 353 557 353c57 0 113 -4 163 -8c-3 134 -27 218 -234 218c-96 0 -206 -33 -262 -51c-21 -6 -40 -9 -57 -9c-35 0 -61 14 -75 44c-21 46 1 93 70 117c69 25 190 61 332 61c361 0 430 -168 430 -438v-489c0 -71 -36 -109 -102 -109s-97 33 -102 89v80
c-17 -38 -82 -190 -330 -190c-235 0 -390 113 -390 332zM307 315c0 -100 64 -174 209 -174c212 0 304 142 304 284v90c-36 3 -76 4 -116 4c-189 0 -397 -36 -397 -204zM327 1362c-59 60 -29 114 56 114c55 0 98 -15 132 -55c32 -35 101 -112 120 -134
c50 -57 34 -111 -35 -117c-57 -4 -95 17 -134 54c-33 33 -106 105 -139 138z" />
    <glyph glyph-name="aacute" unicode="&#xe1;" horiz-adv-x="1164" 
d="M490 -21c-235 0 -390 113 -390 332c0 283 294 353 557 353c57 0 113 -4 163 -8c-3 134 -27 218 -234 218c-96 0 -206 -33 -262 -51c-21 -6 -40 -9 -57 -9c-35 0 -61 14 -75 44c-21 46 1 93 70 117c69 25 190 61 332 61c361 0 430 -168 430 -438v-489
c0 -71 -36 -109 -102 -109s-97 33 -102 89v80c-17 -38 -82 -190 -330 -190zM307 315c0 -100 64 -174 209 -174c212 0 304 142 304 284v90c-36 3 -76 4 -116 4c-189 0 -397 -36 -397 -204zM568 1170c-69 6 -85 60 -35 117c19 22 88 99 120 134c34 40 77 55 132 55
c85 0 115 -54 56 -114c-33 -33 -106 -105 -139 -138c-39 -37 -77 -58 -134 -54z" />
    <glyph glyph-name="acircumflex" unicode="&#xe2;" horiz-adv-x="1164" 
d="M100 311c0 283 294 353 557 353c57 0 113 -4 163 -8c-3 134 -27 218 -234 218c-96 0 -206 -33 -262 -51c-21 -6 -40 -9 -57 -9c-35 0 -61 14 -75 44c-21 46 1 93 70 117c69 25 190 61 332 61c361 0 430 -168 430 -438v-489c0 -71 -36 -109 -102 -109s-97 33 -102 89v80
c-17 -38 -82 -190 -330 -190c-235 0 -390 113 -390 332zM307 315c0 -100 64 -174 209 -174c212 0 304 142 304 284v90c-36 3 -76 4 -116 4c-189 0 -397 -36 -397 -204zM339 1169c-52 16 -54 64 -10 111l130 148c39 42 76 59 125 59s86 -17 125 -59l130 -148
c44 -47 41 -95 -10 -111c-10 -3 -19 -4 -27 -4c-42 0 -77 27 -111 58l-107 110l-107 -110c-34 -31 -69 -58 -111 -58c-8 0 -17 1 -27 4z" />
    <glyph glyph-name="atilde" unicode="&#xe3;" horiz-adv-x="1164" 
d="M100 311c0 283 294 353 557 353c57 0 113 -4 163 -8c-3 134 -27 218 -234 218c-96 0 -206 -33 -262 -51c-21 -6 -40 -9 -57 -9c-35 0 -61 14 -75 44c-21 46 1 93 70 117c69 25 190 61 332 61c361 0 430 -168 430 -438v-489c0 -71 -36 -109 -102 -109s-97 33 -102 89v80
c-17 -38 -82 -190 -330 -190c-235 0 -390 113 -390 332zM704 519c-189 0 -397 -36 -397 -204c0 -100 64 -174 209 -174c212 0 304 142 304 284v90c-36 3 -76 4 -116 4zM339 1214c-53 2 -88 51 -53 119c26 60 77 126 186 126c82 0 120 -44 154 -78c25 -27 42 -47 67 -47
c14 0 25 7 34 18c29 38 47 66 101 64s89 -51 54 -119c-26 -61 -78 -127 -186 -127c-82 0 -120 44 -154 79c-25 26 -42 47 -67 47c-16 0 -26 -9 -36 -20c-29 -38 -47 -64 -100 -62z" />
    <glyph glyph-name="adieresis" unicode="&#xe4;" horiz-adv-x="1164" 
d="M100 311c0 283 294 353 556 353c58 0 114 -4 164 -8c-3 134 -27 218 -234 218c-96 0 -206 -33 -262 -51c-21 -6 -40 -9 -57 -9c-35 0 -61 14 -75 44c-21 46 1 93 70 117c69 25 190 61 332 61c361 0 430 -168 430 -438v-489c0 -71 -36 -109 -102 -109s-97 33 -102 89v80
c-17 -38 -82 -190 -330 -190c-235 0 -390 113 -390 332zM307 315c0 -100 64 -174 209 -174c211 0 304 142 304 284v90c-36 3 -76 4 -116 4c-189 0 -397 -36 -397 -204zM781 1170c-67 0 -122 54 -122 121c0 66 55 121 122 121c66 0 121 -55 121 -121
c0 -67 -55 -121 -121 -121zM387 1170c-67 0 -122 54 -122 121c0 66 55 121 122 121c66 0 121 -55 121 -121c0 -67 -55 -121 -121 -121z" />
    <glyph glyph-name="aring" unicode="&#xe5;" horiz-adv-x="1164" 
d="M100 311c0 283 294 353 557 353c58 0 114 -4 163 -8c-3 134 -27 218 -234 218c-96 0 -206 -33 -262 -51c-21 -6 -40 -9 -57 -9c-35 0 -61 14 -75 44c-21 46 1 93 70 117c69 25 190 61 332 61c361 0 430 -168 430 -438v-489c0 -71 -36 -109 -102 -109s-97 33 -102 89v80
c-17 -38 -82 -190 -330 -190c-235 0 -390 113 -390 332zM307 315c0 -100 64 -174 209 -174c212 0 304 142 304 284v90c-36 3 -75 4 -115 4c-190 0 -398 -36 -398 -204zM584 1170c-106 0 -195 89 -195 195s89 195 195 195c105 0 194 -89 194 -195s-89 -195 -194 -195z
M584 1441c-42 0 -76 -35 -76 -76c0 -43 34 -76 76 -76s75 33 75 76c0 41 -33 76 -75 76z" />
    <glyph glyph-name="amacron" unicode="&#x101;" horiz-adv-x="1164" 
d="M100 311c0 283 294 353 557 353c57 0 113 -4 163 -8c-3 134 -27 218 -234 218c-96 0 -206 -33 -262 -51c-21 -6 -40 -9 -57 -9c-35 0 -61 14 -75 44c-21 46 1 93 70 117c69 25 190 61 332 61c361 0 430 -168 430 -438v-489c0 -71 -36 -109 -102 -109s-97 33 -102 89v80
c-17 -38 -82 -190 -330 -190c-235 0 -390 113 -390 332zM307 315c0 -100 64 -174 209 -174c212 0 304 142 304 284v90c-36 3 -76 4 -116 4c-189 0 -397 -36 -397 -204zM319 1170c-71 0 -110 29 -110 84c0 54 39 83 110 83h532c71 0 107 -29 107 -83s-36 -84 -107 -84h-532z
" />
    <glyph glyph-name="abreve" unicode="&#x103;" horiz-adv-x="1164" 
d="M490 -21c-235 0 -390 113 -390 332c0 283 294 353 557 353c57 0 113 -4 163 -8c-3 134 -27 218 -234 218c-96 0 -206 -33 -262 -51c-21 -6 -40 -9 -57 -9c-35 0 -61 14 -75 44c-21 46 1 93 70 117c69 25 190 61 332 61c361 0 430 -168 430 -438v-489
c0 -71 -36 -109 -102 -109s-97 33 -102 89v80c-17 -38 -82 -190 -330 -190zM307 315c0 -100 64 -174 209 -174c212 0 304 142 304 284v90c-36 3 -76 4 -116 4c-189 0 -397 -36 -397 -204zM281 1301c-42 52 -28 103 7 121c10 5 21 8 33 8c19 0 38 -7 54 -25
c36 -35 91 -97 209 -97c115 0 171 61 205 95c17 18 38 27 58 27c11 0 22 -3 32 -8c34 -16 48 -63 14 -112c-61 -97 -193 -140 -309 -140c-118 0 -236 40 -303 131z" />
    <glyph glyph-name="aogonek" unicode="&#x105;" horiz-adv-x="1164" 
d="M490 -21c-235 0 -390 113 -390 332c0 283 294 353 557 353c58 0 114 -4 163 -8c-3 134 -27 218 -233 218c-97 0 -207 -33 -263 -51c-21 -6 -40 -9 -57 -9c-35 0 -61 14 -75 44c-21 46 1 93 70 117c69 25 191 61 332 61c361 0 430 -168 430 -438v-489
c0 -53 -20 -88 -59 -102c-42 -39 -82 -83 -82 -141c0 -51 34 -73 72 -85c56 -20 92 -37 92 -92c0 -54 -40 -93 -111 -81c-114 17 -215 81 -215 204c0 124 105 177 152 196c-33 13 -50 41 -53 81v80c-17 -38 -82 -190 -330 -190zM307 315c0 -100 64 -174 210 -174
c211 0 303 142 303 284v90c-36 3 -75 4 -116 4c-189 0 -397 -36 -397 -204z" />
    <glyph glyph-name="uni01CE" unicode="&#x1ce;" horiz-adv-x="1164" 
d="M100 311c0 283 294 353 557 353c57 0 113 -4 163 -8c-3 134 -27 218 -234 218c-96 0 -206 -33 -262 -51c-21 -6 -40 -9 -57 -9c-35 0 -61 14 -75 44c-21 46 1 93 70 117c69 25 190 61 332 61c361 0 430 -168 430 -438v-489c0 -71 -36 -109 -102 -109s-97 33 -102 89v80
c-17 -38 -82 -190 -330 -190c-235 0 -390 113 -390 332zM307 315c0 -100 64 -174 209 -174c212 0 304 142 304 284v90c-36 3 -76 4 -116 4c-189 0 -397 -36 -397 -204zM329 1377c-44 46 -42 95 10 110c10 3 20 4 29 4c41 0 75 -27 109 -57l107 -110l107 110
c34 30 68 57 109 57c9 0 19 -1 29 -4c51 -15 53 -64 10 -110l-130 -149c-39 -41 -76 -58 -125 -58s-86 17 -125 58z" />
    <glyph glyph-name="uni01DF" unicode="&#x1df;" horiz-adv-x="1164" 
d="M100 311c0 283 294 353 556 353c58 0 114 -4 164 -8c-3 134 -27 218 -234 218c-96 0 -206 -33 -262 -51c-21 -6 -40 -9 -57 -9c-35 0 -61 14 -75 44c-21 46 1 93 70 117c69 25 190 61 332 61c361 0 430 -168 430 -438v-489c0 -71 -36 -109 -102 -109s-97 33 -102 89v80
c-17 -38 -82 -190 -330 -190c-235 0 -390 113 -390 332zM307 315c0 -100 64 -174 209 -174c211 0 304 142 304 284v90c-36 3 -76 4 -116 4c-189 0 -397 -36 -397 -204zM326 1477c-71 0 -110 29 -110 84c0 54 39 83 110 83h531c71 0 108 -29 108 -83s-37 -84 -108 -84h-531z
M666 1291c0 67 55 121 122 121c66 0 121 -54 121 -121s-55 -121 -121 -121c-67 0 -122 54 -122 121zM272 1291c0 67 55 121 122 121c66 0 121 -54 121 -121s-55 -121 -121 -121c-67 0 -122 54 -122 121z" />
    <glyph glyph-name="uni01E1" unicode="&#x1e1;" horiz-adv-x="1164" 
d="M100 311c0 283 294 353 556 353c58 0 114 -4 164 -8c-3 134 -27 218 -234 218c-96 0 -206 -33 -262 -51c-21 -6 -40 -9 -57 -9c-35 0 -61 14 -75 44c-21 46 1 93 70 117c69 25 190 61 332 61c361 0 430 -168 430 -438v-489c0 -71 -36 -109 -102 -109s-97 33 -102 89v80
c-17 -38 -82 -190 -330 -190c-235 0 -390 113 -390 332zM704 519c-189 0 -397 -36 -397 -204c0 -100 64 -174 209 -174c211 0 304 142 304 284v90c-36 3 -76 4 -116 4zM216 1561c0 54 39 83 110 83h532c71 0 107 -29 107 -83s-36 -84 -107 -84h-532c-71 0 -110 29 -110 84z
M591 1169c-68 0 -122 54 -122 121s54 121 122 121c66 0 121 -54 121 -121s-55 -121 -121 -121z" />
    <glyph glyph-name="aringacute" unicode="&#x1fb;" horiz-adv-x="1164" 
d="M490 -21c-235 0 -390 113 -390 332c0 283 294 353 557 353c57 0 113 -4 163 -8c-3 134 -27 218 -234 218c-96 0 -206 -33 -262 -51c-21 -6 -40 -9 -57 -9c-35 0 -61 14 -75 44c-21 46 1 93 70 117c70 25 191 61 332 61c361 0 430 -168 430 -438v-489
c0 -71 -36 -109 -102 -109s-97 33 -102 89v80c-17 -38 -82 -190 -330 -190zM704 519c-189 0 -397 -36 -397 -204c0 -100 64 -174 210 -174c210 0 303 142 303 284v90c-36 3 -76 4 -116 4zM423 1287c0 46 19 87 47 119l119 136c37 42 68 60 131 60c64 0 75 -38 41 -70
l-89 -86c60 -27 104 -88 104 -159c0 -96 -80 -177 -176 -177s-177 81 -177 177zM600 1356c-38 0 -69 -31 -69 -69s31 -68 69 -68s68 30 68 68s-30 69 -68 69z" />
    <glyph glyph-name="uni0201" unicode="&#x201;" horiz-adv-x="1164" 
d="M100 311c0 283 294 353 557 353c57 0 113 -4 163 -8c-3 134 -27 218 -234 218c-96 0 -206 -33 -262 -51c-21 -6 -40 -9 -57 -9c-35 0 -61 14 -75 44c-21 46 1 93 70 117c69 25 190 61 332 61c361 0 430 -168 430 -438v-489c0 -71 -36 -109 -102 -109s-97 33 -102 89v80
c-17 -38 -82 -190 -330 -190c-235 0 -390 113 -390 332zM704 519c-189 0 -397 -36 -397 -204c0 -100 64 -174 209 -174c212 0 304 142 304 284v90c-36 3 -76 4 -116 4zM164 1357c-59 60 -29 114 56 114c55 0 98 -15 132 -55c32 -36 101 -112 120 -134
c50 -57 35 -112 -35 -117c-56 -4 -95 17 -134 54c-33 33 -106 105 -139 138zM504 1357c-60 60 -30 114 55 114c55 0 98 -15 133 -55c31 -36 100 -112 120 -134c49 -57 34 -112 -36 -117c-56 -4 -95 17 -133 54c-34 33 -107 105 -139 138z" />
    <glyph glyph-name="uni0203" unicode="&#x203;" horiz-adv-x="1164" 
d="M100 311c0 283 294 353 557 353c57 0 113 -4 163 -8c-3 134 -27 218 -234 218c-96 0 -206 -33 -262 -51c-21 -6 -40 -9 -57 -9c-35 0 -61 14 -75 44c-21 46 1 93 70 117c69 25 190 61 332 61c361 0 430 -168 430 -438v-489c0 -71 -36 -109 -102 -109s-97 33 -102 89v80
c-17 -38 -82 -190 -330 -190c-235 0 -390 113 -390 332zM704 519c-189 0 -397 -36 -397 -204c0 -100 64 -174 209 -174c212 0 304 142 304 284v90c-36 3 -76 4 -116 4zM288 1136c-35 18 -49 69 -7 121c67 91 185 131 303 131c116 0 248 -43 309 -140c34 -49 20 -96 -14 -112
c-10 -5 -21 -8 -32 -8c-20 0 -41 9 -58 27c-34 34 -90 95 -205 95c-118 0 -173 -62 -209 -97c-16 -18 -35 -25 -54 -25c-12 0 -23 3 -33 8z" />
    <glyph glyph-name="uni0227" unicode="&#x227;" horiz-adv-x="1164" 
d="M100 311c0 283 294 353 556 353c58 0 114 -4 164 -8c-3 134 -27 218 -234 218c-96 0 -206 -33 -262 -51c-21 -6 -40 -9 -57 -9c-35 0 -61 14 -75 44c-21 46 1 93 70 117c69 25 190 61 332 61c361 0 430 -168 430 -438v-489c0 -71 -36 -109 -102 -109s-97 33 -102 89v80
c-17 -38 -82 -190 -330 -190c-235 0 -390 113 -390 332zM307 315c0 -100 64 -174 209 -174c211 0 304 142 304 284v90c-36 3 -76 4 -116 4c-189 0 -397 -36 -397 -204zM584 1170c-67 0 -122 54 -122 122c0 66 55 120 122 120c66 0 122 -54 122 -120
c0 -68 -56 -122 -122 -122z" />
    <glyph glyph-name="ae" unicode="&#xe6;" horiz-adv-x="1922" 
d="M510 -21c-255 0 -410 113 -410 332c0 283 294 353 557 353c57 0 113 -4 163 -8c-3 134 -27 218 -234 218c-94 0 -185 -25 -242 -44c-22 -7 -41 -10 -58 -10c-34 0 -58 13 -73 44c-22 47 -2 94 67 118c69 25 180 54 314 54c203 0 311 -56 367 -150c84 94 208 150 364 150
c274 0 475 -170 497 -497c3 -74 -36 -114 -108 -114h-682c6 -157 114 -283 303 -283c105 0 192 28 253 62c26 11 49 18 70 18c25 0 46 -10 61 -33c37 -54 8 -103 -54 -135c-76 -41 -188 -76 -340 -76c-178 0 -312 69 -396 183c-73 -87 -206 -182 -419 -182zM307 315
c0 -100 64 -174 209 -174c212 0 304 142 304 284v90c-36 3 -76 4 -116 4c-189 0 -397 -36 -397 -204zM1032 581h587c-13 162 -113 291 -294 291c-180 0 -279 -130 -293 -291z" />
    <glyph glyph-name="aeacute" unicode="&#x1fd;" horiz-adv-x="1922" 
d="M100 311c0 283 294 353 557 353c57 0 113 -4 163 -8c-3 134 -27 218 -234 218c-94 0 -185 -25 -242 -44c-22 -7 -41 -10 -58 -10c-34 0 -58 13 -73 44c-22 47 -2 94 67 118c69 25 180 54 314 54c203 0 311 -56 367 -150c84 94 208 150 364 150c274 0 475 -170 497 -497
c3 -74 -36 -114 -108 -114h-682c6 -157 114 -283 303 -283c105 0 192 28 253 62c26 11 49 18 70 18c25 0 46 -10 61 -33c37 -54 8 -103 -54 -135c-76 -41 -188 -76 -340 -76c-178 0 -312 69 -396 183c-73 -87 -206 -182 -419 -182c-255 0 -410 113 -410 332zM307 315
c0 -100 64 -174 209 -174c212 0 304 142 304 284v90c-36 3 -76 4 -116 4c-189 0 -397 -36 -397 -204zM1325 872c-180 0 -279 -130 -293 -291h587c-13 162 -113 291 -294 291zM949 1170c-70 6 -85 60 -35 117c19 22 88 99 120 134c34 40 77 55 132 55c85 0 115 -54 56 -114
c-33 -33 -106 -105 -139 -138c-39 -37 -78 -58 -134 -54z" />
    <glyph glyph-name="uni01E3" unicode="&#x1e3;" horiz-adv-x="1922" 
d="M100 311c0 283 294 353 557 353c57 0 113 -4 163 -8c-3 134 -27 218 -234 218c-94 0 -185 -25 -242 -44c-22 -7 -41 -10 -58 -10c-34 0 -58 13 -73 44c-22 47 -2 94 67 118c69 25 180 54 314 54c203 0 311 -56 367 -150c84 94 208 150 364 150c274 0 475 -170 497 -497
c3 -74 -36 -114 -108 -114h-682c6 -157 114 -283 303 -283c105 0 192 28 253 62c26 11 49 18 70 18c25 0 46 -10 61 -33c37 -54 8 -103 -54 -135c-76 -41 -188 -76 -340 -76c-178 0 -312 69 -396 183c-73 -87 -206 -182 -419 -182c-255 0 -410 113 -410 332zM307 315
c0 -100 64 -174 209 -174c212 0 304 142 304 284v90c-36 3 -76 4 -116 4c-189 0 -397 -36 -397 -204zM1032 581h587c-13 162 -113 291 -294 291c-180 0 -279 -130 -293 -291zM700 1170c-71 0 -110 29 -110 84c0 54 39 83 110 83h532c71 0 107 -29 107 -83s-36 -84 -107 -84
h-532z" />
    <glyph glyph-name="ccaron" unicode="&#x10d;" horiz-adv-x="1111" 
d="M650 -22c-339 0 -550 216 -550 529s211 529 550 529c137 0 236 -37 300 -71c65 -32 73 -84 43 -126c-18 -25 -40 -35 -67 -35c-21 0 -45 6 -73 17c-49 23 -121 49 -203 49c-222 0 -341 -155 -341 -363s119 -363 341 -363c82 0 154 26 203 49c28 11 52 17 73 17
c27 0 49 -10 67 -35c30 -42 22 -94 -43 -126c-64 -34 -163 -71 -300 -71zM366 1377c-44 46 -41 95 10 110c10 3 20 4 29 4c42 0 76 -27 110 -57l107 -110l106 110c34 30 68 57 110 57c9 0 18 -1 28 -4c52 -15 54 -64 11 -110l-131 -149c-38 -41 -75 -58 -124 -58
s-86 17 -125 58z" />
    <glyph glyph-name="ccircumflex" unicode="&#x109;" horiz-adv-x="1111" 
d="M650 -22c-339 0 -550 216 -550 529s211 529 550 529c137 0 236 -37 300 -71c65 -32 73 -84 43 -126c-18 -25 -40 -35 -67 -35c-21 0 -45 6 -73 17c-49 23 -121 49 -203 49c-222 0 -341 -155 -341 -363s119 -363 341 -363c82 0 154 26 203 49c28 11 52 17 73 17
c27 0 49 -10 67 -35c30 -42 22 -94 -43 -126c-64 -34 -163 -71 -300 -71zM377 1169c-52 16 -55 64 -11 111l131 148c39 42 76 59 125 59s86 -17 124 -59l131 -148c43 -47 41 -95 -11 -111c-9 -3 -18 -4 -27 -4c-42 0 -77 27 -111 58l-106 110l-107 -110
c-34 -31 -69 -58 -111 -58c-9 0 -18 1 -27 4z" />
    <glyph glyph-name="ccedilla" unicode="&#xe7;" horiz-adv-x="1111" 
d="M544 -15c-276 41 -444 243 -444 522c0 313 211 529 550 529c137 0 236 -37 300 -71c65 -32 73 -84 43 -126c-18 -25 -40 -35 -67 -35c-21 0 -45 6 -73 17c-49 23 -121 49 -203 49c-222 0 -341 -155 -341 -363s119 -363 341 -363c82 0 154 26 203 49c28 11 52 17 73 17
c27 0 49 -10 67 -35c30 -42 22 -94 -43 -126c-58 -30 -144 -64 -261 -70l-28 -81c117 -1 207 -61 195 -179c-13 -140 -126 -190 -248 -190c-34 0 -69 4 -103 11c-68 13 -90 50 -76 88c9 27 31 36 62 36c15 0 32 -2 51 -5c20 -3 43 -6 65 -6c49 0 96 14 104 69
c8 58 -52 71 -113 69c-76 3 -111 30 -88 97z" />
    <glyph glyph-name="cacute" unicode="&#x107;" horiz-adv-x="1111" 
d="M650 -22c-339 0 -550 216 -550 529s211 529 550 529c137 0 236 -37 300 -71c65 -32 73 -84 43 -126c-18 -25 -40 -35 -67 -35c-21 0 -45 6 -73 17c-49 23 -121 49 -203 49c-222 0 -341 -155 -341 -363s119 -363 341 -363c82 0 154 26 203 49c28 11 52 17 73 17
c27 0 49 -10 67 -35c30 -42 22 -94 -43 -126c-64 -34 -163 -71 -300 -71zM605 1170c-69 6 -84 60 -35 117l120 134c35 40 78 55 133 55c85 0 115 -54 55 -114l-139 -138c-38 -37 -77 -58 -134 -54z" />
    <glyph glyph-name="cdotaccent" unicode="&#x10b;" horiz-adv-x="1111" 
d="M100 507c0 313 211 529 550 529c137 0 236 -37 300 -71c65 -32 73 -84 43 -126c-18 -25 -40 -35 -67 -35c-21 0 -46 6 -74 17c-48 23 -120 49 -202 49c-222 0 -341 -155 -341 -363s119 -363 341 -363c82 0 154 26 202 49c28 11 53 17 74 17c27 0 49 -10 67 -35
c30 -42 22 -94 -43 -126c-64 -34 -163 -71 -300 -71c-339 0 -550 216 -550 529zM622 1170c-68 0 -122 54 -122 122c0 66 54 120 122 120c66 0 121 -54 121 -120c0 -68 -55 -122 -121 -122z" />
    <glyph glyph-name="cent" unicode="&#xa2;" horiz-adv-x="1112" 
d="M100 507c0 276 164 478 435 519v121c0 62 34 99 93 99s93 -37 93 -99v-115c102 -8 178 -39 230 -67c65 -32 73 -83 42 -126c-18 -25 -40 -35 -67 -35c-21 0 -46 6 -74 17c-48 23 -120 49 -203 49c-221 0 -340 -155 -340 -363s119 -363 340 -363c83 0 155 26 203 49
c28 11 53 17 74 17c27 0 49 -10 67 -35c31 -43 23 -94 -42 -126c-52 -28 -128 -59 -230 -67v-112c0 -62 -34 -98 -93 -98s-93 36 -93 98v118c-271 41 -435 243 -435 519z" />
    <glyph glyph-name="dcaron" unicode="&#x10f;" horiz-adv-x="1444" 
d="M617 -22c-341 0 -517 236 -517 529s176 529 517 529c230 0 321 -167 345 -208v578c0 71 36 110 102 110s102 -39 102 -110v-1297c0 -70 -36 -109 -102 -109c-61 0 -91 31 -96 83c-2 25 -4 96 -4 105c-23 -42 -117 -210 -347 -210zM636 870c-213 0 -327 -166 -327 -363
s114 -363 327 -363c212 0 326 166 326 363s-114 363 -326 363zM1294 1075c-56 2 -83 39 -67 105l55 243c12 57 46 93 116 93c74 0 99 -40 80 -107l-80 -262c-16 -49 -50 -75 -104 -72z" />
    <glyph glyph-name="dcroat" unicode="&#x111;" horiz-adv-x="1391" 
d="M100 507c0 293 176 529 517 529c230 0 321 -167 345 -208v318h-191c-63 0 -96 28 -96 79s33 79 96 79h191v102c0 71 36 109 102 109s102 -38 102 -109v-102h97c62 0 96 -28 96 -79s-34 -79 -96 -79h-97v-1037c0 -70 -36 -109 -102 -109c-61 0 -91 31 -96 83
c-2 25 -4 96 -4 105c-23 -42 -117 -210 -347 -210c-341 0 -517 236 -517 529zM636 870c-213 0 -327 -166 -327 -363s114 -363 327 -363c212 0 326 166 326 363s-114 363 -326 363z" />
    <glyph glyph-name="eth" unicode="&#xf0;" horiz-adv-x="1309" 
d="M631 -22c-350 0 -531 236 -531 529s181 529 517 529c224 0 324 -176 345 -208c-13 167 -91 307 -194 390l-85 -63c-24 -21 -48 -32 -70 -32c-21 0 -40 9 -57 27c-35 35 -29 76 8 109l54 41c-45 23 -92 38 -137 50c-52 12 -96 53 -78 122c13 52 48 72 91 72
c72 0 219 -66 280 -103l84 64c23 20 46 31 69 31c19 0 38 -8 56 -25c37 -35 32 -81 -10 -118l-61 -46c189 -174 257 -429 257 -735c0 -386 -193 -634 -538 -634zM309 507c0 -197 114 -363 327 -363c212 0 326 166 326 363s-114 363 -326 363c-213 0 -327 -166 -327 -363z
" />
    <glyph glyph-name="egrave" unicode="&#xe8;" horiz-adv-x="1201" 
d="M605 -22c-327 0 -505 232 -505 529c0 299 184 529 505 529c274 0 475 -170 497 -498c3 -73 -36 -113 -108 -113h-682c6 -157 114 -283 303 -283c105 0 192 28 253 62c26 11 50 18 71 18c25 0 45 -10 60 -33c34 -51 8 -103 -54 -135c-76 -41 -188 -76 -340 -76zM605 872
c-180 0 -279 -130 -293 -291h587c-13 161 -113 291 -294 291zM344 1362c-59 60 -29 114 56 114c55 0 98 -15 132 -55c32 -35 101 -112 120 -134c50 -57 34 -111 -35 -117c-57 -4 -95 17 -134 54c-33 33 -106 105 -139 138z" />
    <glyph glyph-name="eacute" unicode="&#xe9;" horiz-adv-x="1201" 
d="M100 507c0 299 184 529 505 529c274 0 475 -170 497 -498c3 -73 -36 -113 -108 -113h-682c6 -157 114 -283 303 -283c105 0 192 28 253 62c26 11 50 18 71 18c25 0 45 -10 60 -33c34 -51 8 -103 -54 -135c-76 -41 -188 -76 -340 -76c-327 0 -505 232 -505 529zM605 872
c-180 0 -279 -130 -293 -291h587c-13 161 -113 291 -294 291zM585 1170c-70 6 -85 60 -35 117c19 22 88 99 120 134c34 40 77 55 132 55c85 0 115 -54 56 -114c-33 -33 -106 -105 -139 -138c-39 -37 -77 -58 -134 -54z" />
    <glyph glyph-name="ecircumflex" unicode="&#xea;" horiz-adv-x="1201" 
d="M605 -22c-327 0 -505 232 -505 529c0 299 184 529 505 529c274 0 475 -170 497 -498c3 -73 -36 -113 -108 -113h-682c6 -157 114 -283 303 -283c105 0 192 28 253 62c26 11 50 18 71 18c25 0 45 -10 60 -33c34 -51 8 -103 -54 -135c-76 -41 -188 -76 -340 -76zM312 581
h587c-13 161 -113 291 -294 291c-180 0 -279 -130 -293 -291zM356 1169c-52 16 -54 64 -10 111l130 148c39 42 76 59 125 59s86 -17 125 -59l130 -148c44 -47 42 -95 -10 -111c-10 -3 -19 -4 -27 -4c-42 0 -77 27 -111 58l-107 110l-107 -110c-34 -31 -69 -58 -111 -58
c-8 0 -17 1 -27 4z" />
    <glyph glyph-name="edieresis" unicode="&#xeb;" horiz-adv-x="1201" 
d="M605 -22c-327 0 -505 232 -505 529c0 299 184 529 505 529c274 0 474 -170 496 -498c3 -73 -35 -113 -107 -113h-682c6 -157 114 -283 303 -283c105 0 191 28 253 62c26 11 49 18 70 18c25 0 46 -10 61 -33c34 -51 8 -103 -54 -135c-77 -41 -189 -76 -340 -76zM605 872
c-180 0 -279 -130 -293 -291h587c-13 161 -113 291 -294 291zM282 1291c0 66 55 121 122 121c66 0 121 -55 121 -121c0 -67 -55 -121 -121 -121c-67 0 -122 54 -122 121zM798 1170c-67 0 -122 54 -122 121c0 66 55 121 122 121c66 0 121 -55 121 -121
c0 -67 -55 -121 -121 -121z" />
    <glyph glyph-name="emacron" unicode="&#x113;" horiz-adv-x="1201" 
d="M605 -22c-327 0 -505 232 -505 529c0 299 184 529 505 529c274 0 475 -170 497 -498c3 -73 -36 -113 -108 -113h-682c6 -157 114 -283 303 -283c105 0 192 28 253 62c26 11 50 18 71 18c25 0 45 -10 60 -33c34 -51 8 -103 -54 -135c-76 -41 -188 -76 -340 -76zM312 581
h587c-13 161 -113 291 -294 291c-180 0 -279 -130 -293 -291zM336 1170c-71 0 -110 29 -110 84c0 54 39 83 110 83h532c71 0 108 -29 108 -83s-37 -84 -108 -84h-532z" />
    <glyph glyph-name="ebreve" unicode="&#x115;" horiz-adv-x="1201" 
d="M605 -22c-327 0 -505 232 -505 529c0 299 184 529 505 529c274 0 475 -170 497 -498c3 -73 -36 -113 -108 -113h-682c6 -157 114 -283 303 -283c105 0 192 28 253 62c26 11 50 18 71 18c25 0 45 -10 60 -33c34 -51 8 -103 -54 -135c-76 -41 -188 -76 -340 -76zM605 872
c-180 0 -279 -130 -293 -291h587c-13 161 -113 291 -294 291zM298 1301c-42 52 -28 103 7 121c10 5 21 8 33 8c19 0 38 -7 54 -25c36 -35 91 -97 209 -97c115 0 171 61 205 95c17 18 38 27 58 27c11 0 22 -3 32 -8c34 -16 48 -63 14 -112c-60 -97 -193 -140 -309 -140
c-118 0 -236 40 -303 131z" />
    <glyph glyph-name="edotaccent" unicode="&#x117;" horiz-adv-x="1201" 
d="M100 507c0 299 184 529 505 529c274 0 474 -170 496 -498c3 -73 -35 -113 -107 -113h-682c6 -157 114 -283 303 -283c104 0 191 28 253 62c26 11 49 18 70 18c25 0 46 -10 61 -33c34 -51 8 -103 -54 -135c-77 -41 -189 -76 -340 -76c-327 0 -505 232 -505 529zM605 872
c-180 0 -279 -130 -293 -291h587c-13 161 -113 291 -294 291zM479 1292c0 66 55 120 122 120c66 0 122 -54 122 -120c0 -68 -56 -122 -122 -122c-67 0 -122 54 -122 122z" />
    <glyph glyph-name="eogonek" unicode="&#x119;" horiz-adv-x="1201" 
d="M100 507c0 299 184 529 505 529c274 0 474 -170 496 -498c3 -73 -35 -113 -108 -113h-681c6 -157 114 -283 302 -283c105 0 192 28 253 62c26 11 50 18 71 18c25 0 46 -10 61 -33c33 -51 7 -103 -54 -135c-41 -21 -91 -41 -152 -55c-44 -40 -88 -86 -88 -146
c0 -52 33 -74 72 -85c56 -21 92 -38 92 -93c0 -53 -41 -92 -111 -80c-115 16 -216 81 -216 204c0 100 69 154 121 181c-19 -1 -38 -2 -58 -2c-327 0 -505 232 -505 529zM605 872c-180 0 -279 -130 -293 -291h586c-12 161 -113 291 -293 291z" />
    <glyph glyph-name="ecaron" unicode="&#x11b;" horiz-adv-x="1201" 
d="M605 -22c-327 0 -505 232 -505 529c0 299 184 529 505 529c274 0 475 -170 497 -498c3 -73 -36 -113 -108 -113h-682c6 -157 114 -283 303 -283c105 0 192 28 253 62c26 11 50 18 71 18c25 0 45 -10 60 -33c34 -51 8 -103 -54 -135c-76 -41 -188 -76 -340 -76zM605 872
c-180 0 -279 -130 -293 -291h587c-13 161 -113 291 -294 291zM346 1377c-44 46 -42 95 10 110c10 3 19 4 28 4c42 0 76 -27 110 -57l107 -110l107 110c34 30 68 57 109 57c9 0 19 -1 29 -4c52 -15 54 -64 10 -110l-130 -149c-39 -41 -76 -58 -125 -58s-86 17 -125 58z" />
    <glyph glyph-name="uni0205" unicode="&#x205;" horiz-adv-x="1201" 
d="M100 507c0 299 184 529 505 529c274 0 475 -170 497 -498c3 -73 -36 -113 -108 -113h-682c6 -157 114 -283 303 -283c105 0 192 28 253 62c26 11 50 18 71 18c25 0 45 -10 60 -33c34 -51 8 -103 -54 -135c-76 -41 -188 -76 -340 -76c-327 0 -505 232 -505 529zM605 872
c-180 0 -279 -130 -293 -291h587c-13 161 -113 291 -294 291zM520 1357c-59 60 -29 114 56 114c55 0 98 -15 133 -55c32 -36 100 -112 120 -134c49 -57 34 -112 -36 -117c-56 -4 -95 17 -133 54c-34 33 -107 105 -140 138zM181 1357c-59 60 -29 114 56 114
c55 0 98 -15 132 -55c32 -36 101 -112 120 -134c50 -57 35 -112 -35 -117c-56 -4 -95 17 -134 54c-33 33 -106 105 -139 138z" />
    <glyph glyph-name="uni0207" unicode="&#x207;" horiz-adv-x="1201" 
d="M605 -22c-327 0 -505 232 -505 529c0 299 184 529 505 529c274 0 475 -170 497 -498c3 -73 -36 -113 -108 -113h-682c6 -157 114 -283 303 -283c105 0 192 28 253 62c26 11 50 18 71 18c25 0 45 -10 60 -33c34 -51 8 -103 -54 -135c-76 -41 -188 -76 -340 -76zM605 872
c-180 0 -279 -130 -293 -291h587c-13 161 -113 291 -294 291zM305 1136c-35 18 -49 69 -7 121c67 91 185 131 303 131c116 0 249 -43 309 -140c34 -49 20 -96 -14 -112c-10 -5 -21 -8 -32 -8c-20 0 -41 9 -58 27c-34 34 -90 95 -205 95c-118 0 -173 -62 -209 -97
c-16 -18 -35 -25 -54 -25c-12 0 -23 3 -33 8z" />
    <glyph glyph-name="uni0229" unicode="&#x229;" horiz-adv-x="1201" 
d="M100 507c0 299 184 529 505 529c274 0 475 -170 497 -498c3 -73 -36 -113 -108 -113h-682c6 -157 114 -283 303 -283c105 0 192 28 253 62c26 11 50 18 71 18c25 0 45 -10 60 -33c34 -51 8 -103 -54 -135c-67 -36 -161 -67 -286 -74l-28 -82c117 -1 207 -61 195 -179
c-13 -140 -126 -190 -248 -190c-34 0 -69 4 -103 11c-68 13 -90 50 -76 88c9 27 31 36 62 36c15 0 32 -2 51 -5c20 -3 43 -6 65 -6c49 0 96 14 104 69c8 58 -52 71 -113 69c-76 3 -111 30 -88 97l34 96c-269 40 -414 255 -414 523zM605 872c-180 0 -279 -130 -293 -291h587
c-13 161 -113 291 -294 291z" />
    <glyph glyph-name="gcircumflex" unicode="&#x11d;" horiz-adv-x="1306" 
d="M100 507c0 293 176 529 517 529c230 0 321 -167 345 -208c1 22 4 89 6 107c8 52 42 79 96 79c66 0 102 -38 102 -109v-905c0 -420 -277 -532 -535 -532c-152 0 -271 38 -348 71c-69 27 -83 79 -55 127c16 28 39 38 67 38c22 0 46 -6 73 -16c61 -25 152 -54 255 -54
c206 0 339 115 339 366v185c-20 -31 -121 -207 -345 -207c-341 0 -517 236 -517 529zM636 870c-213 0 -327 -166 -327 -363s114 -363 327 -363c212 0 326 166 326 363s-114 363 -326 363zM388 1169c-52 16 -54 64 -10 111l131 148c38 42 75 59 124 59s86 -17 125 -59
l130 -148c44 -47 42 -95 -10 -111c-9 -3 -18 -4 -27 -4c-42 0 -77 27 -111 58l-107 110l-106 -110c-34 -31 -69 -58 -111 -58c-9 0 -18 1 -28 4z" />
    <glyph glyph-name="gbreve" unicode="&#x11f;" horiz-adv-x="1306" 
d="M100 507c0 293 176 529 517 529c230 0 321 -167 345 -208c1 22 4 89 6 107c8 52 42 79 96 79c66 0 102 -38 102 -109v-905c0 -420 -277 -532 -535 -532c-152 0 -271 38 -348 71c-69 27 -83 79 -55 127c16 28 39 38 67 38c22 0 46 -6 73 -16c61 -25 152 -54 255 -54
c206 0 339 115 339 366v185c-20 -31 -121 -207 -345 -207c-341 0 -517 236 -517 529zM636 870c-213 0 -327 -166 -327 -363s114 -363 327 -363c212 0 326 166 326 363s-114 363 -326 363zM330 1301c-42 52 -28 103 7 121c10 5 22 8 34 8c18 0 37 -7 53 -25
c36 -35 92 -97 209 -97c115 0 172 61 205 95c17 18 38 27 58 27c11 0 22 -3 32 -8c34 -16 48 -63 14 -112c-60 -97 -192 -140 -309 -140s-236 40 -303 131z" />
    <glyph glyph-name="gdotaccent" unicode="&#x121;" horiz-adv-x="1306" 
d="M617 -22c-341 0 -517 236 -517 529s176 529 517 529c229 0 321 -167 345 -208c1 22 4 89 6 107c8 52 42 79 96 79c66 0 102 -38 102 -109v-905c0 -420 -277 -532 -535 -532c-153 0 -271 38 -348 71c-69 27 -83 79 -55 127c16 28 39 38 67 38c22 0 46 -6 73 -16
c60 -25 151 -54 255 -54c206 0 339 115 339 366v185c-20 -31 -121 -207 -345 -207zM635 870c-212 0 -326 -166 -326 -363s114 -363 326 -363c213 0 327 166 327 363s-114 363 -327 363zM633 1170c-67 0 -122 54 -122 122c0 66 55 120 122 120s122 -54 122 -120
c0 -68 -55 -122 -122 -122z" />
    <glyph glyph-name="uni0123" unicode="&#x123;" horiz-adv-x="1306" 
d="M100 507c0 293 176 529 517 529c230 0 321 -167 345 -208c1 22 4 89 6 107c8 52 42 79 96 79c66 0 102 -38 102 -109v-905c0 -420 -277 -532 -535 -532c-152 0 -271 38 -348 71c-69 27 -83 79 -55 127c16 28 39 38 67 38c22 0 46 -6 73 -16c61 -25 152 -54 255 -54
c206 0 339 115 339 366v185c-20 -31 -121 -207 -345 -207c-341 0 -517 236 -517 529zM309 507c0 -197 114 -363 327 -363c212 0 326 166 326 363s-114 363 -326 363c-213 0 -327 -166 -327 -363zM630 1170c-78 0 -113 49 -76 124l118 254c25 54 63 83 125 79
c61 -4 86 -47 57 -124l-95 -246c-23 -60 -63 -87 -126 -87h-3z" />
    <glyph glyph-name="uni01E5" unicode="&#x1e5;" horiz-adv-x="1350" 
d="M100 507c0 293 176 529 517 529c230 0 321 -167 345 -208c1 22 4 89 6 107c8 52 42 79 96 79c66 0 102 -38 102 -109v-905c0 -40 -3 -78 -7 -113h61c60 0 90 -25 90 -70c0 -46 -30 -70 -90 -70h-98c-88 -215 -295 -279 -491 -279c-152 0 -271 38 -348 71
c-69 27 -83 79 -55 127c16 28 39 38 67 38c22 0 46 -6 73 -16c61 -25 152 -54 255 -54c116 0 209 36 268 113h-168c-59 0 -90 24 -90 70c0 45 31 70 90 70h228c7 34 11 72 11 113v185c-20 -31 -121 -207 -345 -207c-341 0 -517 236 -517 529zM309 507
c0 -197 114 -363 327 -363c212 0 326 166 326 363s-114 363 -326 363c-213 0 -327 -166 -327 -363z" />
    <glyph glyph-name="gcaron" unicode="&#x1e7;" horiz-adv-x="1306" 
d="M100 507c0 293 176 529 517 529c230 0 321 -167 345 -208c1 22 4 89 6 107c8 52 42 79 96 79c66 0 102 -38 102 -109v-905c0 -420 -277 -532 -535 -532c-152 0 -271 38 -348 71c-69 27 -83 79 -55 127c16 28 39 38 67 38c22 0 46 -6 73 -16c61 -25 152 -54 255 -54
c206 0 339 115 339 366v185c-20 -31 -121 -207 -345 -207c-341 0 -517 236 -517 529zM636 870c-213 0 -327 -166 -327 -363s114 -363 327 -363c212 0 326 166 326 363s-114 363 -326 363zM378 1377c-44 46 -42 95 10 110c10 3 20 4 29 4c41 0 76 -27 110 -57l106 -110
l107 110c34 30 68 57 110 57c9 0 18 -1 28 -4c52 -15 54 -64 10 -110l-130 -149c-39 -41 -76 -58 -125 -58s-86 17 -125 58z" />
    <glyph glyph-name="uni01F5" unicode="&#x1f5;" horiz-adv-x="1306" 
d="M617 -22c-341 0 -517 236 -517 529s176 529 517 529c230 0 321 -167 345 -208c1 22 4 89 6 107c8 52 42 79 96 79c66 0 102 -38 102 -109v-905c0 -420 -277 -532 -535 -532c-152 0 -271 38 -348 71c-69 27 -83 79 -55 127c16 28 39 38 67 38c22 0 46 -6 73 -16
c61 -25 152 -54 255 -54c206 0 339 115 339 366v185c-20 -31 -121 -207 -345 -207zM309 507c0 -197 114 -363 327 -363c212 0 326 166 326 363s-114 363 -326 363c-213 0 -327 -166 -327 -363zM617 1170c-69 6 -85 60 -35 117c19 22 88 99 120 134c34 40 77 55 132 55
c86 0 115 -54 56 -114c-33 -33 -106 -105 -139 -138c-38 -37 -77 -58 -134 -54z" />
    <glyph glyph-name="hcircumflex" unicode="&#x125;" 
d="M140 1406c0 71 36 110 102 110s102 -39 102 -110v-552c15 34 79 182 289 182c294 0 450 -178 450 -473v-453c0 -71 -36 -110 -102 -110s-102 39 -102 110v453c0 183 -79 307 -268 307c-188 0 -267 -124 -267 -307v-453c0 -71 -36 -110 -102 -110s-102 39 -102 110v1296z
M367 1569c-52 16 -54 64 -11 111l131 148c39 42 76 59 125 59s86 -17 125 -59l130 -148c43 -47 41 -95 -11 -111c-9 -3 -18 -4 -27 -4c-41 0 -76 27 -110 58l-107 110l-107 -110c-34 -31 -69 -58 -111 -58c-9 0 -18 1 -27 4z" />
    <glyph glyph-name="hbar" unicode="&#x127;" horiz-adv-x="1366" 
d="M80 1225c0 51 34 79 96 79h107v102c0 71 36 109 102 109s102 -38 102 -109v-102h182c62 0 96 -28 96 -79s-34 -79 -96 -79h-182v-292c15 34 79 182 289 182c294 0 450 -178 450 -473v-453c0 -71 -36 -110 -102 -110s-102 39 -102 110v453c0 183 -79 307 -268 307
c-188 0 -267 -124 -267 -307v-453c0 -71 -36 -110 -102 -110s-102 39 -102 110v1036h-107c-62 0 -96 28 -96 79z" />
    <glyph glyph-name="uni021F" unicode="&#x21f;" 
d="M242 0c-66 0 -102 39 -102 110v1296c0 71 36 110 102 110s102 -39 102 -110v-552c15 34 79 182 289 182c294 0 450 -178 450 -473v-453c0 -71 -36 -110 -102 -110s-102 39 -102 110v453c0 183 -79 307 -268 307c-188 0 -267 -124 -267 -307v-453
c0 -71 -36 -110 -102 -110zM356 1777c-43 46 -41 95 11 110c10 3 19 4 28 4c42 0 76 -27 110 -57l107 -110l106 110c34 30 68 57 110 57c9 0 18 -1 28 -4c52 -15 54 -64 11 -110l-131 -149c-38 -41 -75 -58 -124 -58s-86 17 -125 58z" />
    <glyph glyph-name="dotlessi" unicode="&#x131;" horiz-adv-x="484" 
d="M140 110v794c0 71 36 110 102 110s102 -39 102 -110v-794c0 -71 -36 -110 -102 -110s-102 39 -102 110z" />
    <glyph glyph-name="igrave" unicode="&#xec;" horiz-adv-x="484" 
d="M140 904c0 71 36 110 102 110s102 -39 102 -110v-794c0 -71 -36 -110 -102 -110s-102 39 -102 110v794zM-15 1360c-59 60 -29 114 56 114c55 0 98 -15 132 -55l120 -134c50 -57 34 -111 -35 -117c-57 -4 -95 17 -134 54z" />
    <glyph glyph-name="iacute" unicode="&#xed;" horiz-adv-x="484" 
d="M140 904c0 71 36 110 102 110s102 -39 102 -110v-794c0 -71 -36 -110 -102 -110s-102 39 -102 110v794zM226 1168c-70 6 -85 60 -35 117l120 134c34 40 77 55 132 55c85 0 115 -54 56 -114l-139 -138c-39 -37 -77 -58 -134 -54z" />
    <glyph glyph-name="icircumflex" unicode="&#xee;" horiz-adv-x="484" 
d="M140 110v794c0 71 36 110 102 110s102 -39 102 -110v-794c0 -71 -36 -110 -102 -110s-102 39 -102 110zM-3 1167c-52 16 -54 64 -10 111l130 148c39 42 76 59 125 59s86 -17 125 -59l130 -148c44 -47 42 -95 -10 -111c-10 -3 -19 -4 -27 -4c-42 0 -77 27 -111 58
l-107 110l-107 -110c-34 -31 -69 -58 -111 -58c-8 0 -17 1 -27 4z" />
    <glyph glyph-name="idieresis" unicode="&#xef;" horiz-adv-x="484" 
d="M140 110v794c0 71 36 110 102 110s102 -39 102 -110v-794c0 -71 -36 -110 -102 -110s-102 39 -102 110zM44 1168c-66 0 -121 54 -121 121c0 66 55 121 121 121c67 0 122 -55 122 -121c0 -67 -55 -121 -122 -121zM317 1289c0 66 55 121 121 121c67 0 122 -55 122 -121
c0 -67 -55 -121 -122 -121c-66 0 -121 54 -121 121z" />
    <glyph glyph-name="itilde" unicode="&#x129;" horiz-adv-x="484" 
d="M140 904c0 71 36 110 102 110s102 -39 102 -110v-794c0 -71 -36 -110 -102 -110s-102 39 -102 110v794zM-3 1212c-53 2 -88 51 -54 119c26 60 78 126 187 126c82 0 120 -44 154 -78c25 -27 42 -47 67 -47c14 0 25 7 34 18c29 38 47 66 102 64c53 -2 88 -51 53 -119
c-26 -61 -78 -127 -186 -127c-82 0 -120 44 -154 79c-25 26 -42 47 -67 47c-16 0 -26 -9 -36 -20c-29 -38 -47 -64 -100 -62z" />
    <glyph glyph-name="imacron" unicode="&#x12b;" horiz-adv-x="484" 
d="M140 110v794c0 71 36 110 102 110s102 -39 102 -110v-794c0 -71 -36 -110 -102 -110s-102 39 -102 110zM-23 1168c-71 0 -110 29 -110 84c0 54 39 83 110 83h532c71 0 108 -29 108 -83s-37 -84 -108 -84h-532z" />
    <glyph glyph-name="ibreve" unicode="&#x12d;" horiz-adv-x="484" 
d="M140 904c0 71 36 110 102 110s102 -39 102 -110v-794c0 -71 -36 -110 -102 -110s-102 39 -102 110v794zM-61 1299c-42 52 -28 103 7 121c10 5 21 8 33 8c19 0 38 -7 54 -25c36 -35 91 -97 209 -97c115 0 171 61 205 95c17 18 38 27 58 27c11 0 22 -3 32 -8
c34 -16 48 -63 14 -112c-60 -97 -193 -140 -309 -140c-118 0 -236 40 -303 131z" />
    <glyph glyph-name="iogonek" unicode="&#x12f;" horiz-adv-x="525" 
d="M59 -190c0 129 114 181 158 198c-37 15 -56 49 -56 102v794c0 71 36 110 102 110s102 -39 102 -110v-794c0 -54 -20 -89 -58 -103c-44 -39 -86 -84 -86 -143c0 -51 34 -74 72 -85c56 -20 92 -38 92 -93c0 -53 -40 -92 -110 -80c-115 17 -216 81 -216 204zM141 1297
c0 67 55 121 122 121c66 0 121 -54 121 -121s-55 -121 -121 -121c-67 0 -122 54 -122 121z" />
    <glyph glyph-name="uni01D0" unicode="&#x1d0;" horiz-adv-x="484" 
d="M140 110v794c0 71 36 110 102 110s102 -39 102 -110v-794c0 -71 -36 -110 -102 -110s-102 39 -102 110zM-14 1375c-43 46 -41 95 11 110c10 3 19 4 28 4c42 0 76 -27 110 -57l107 -110l107 110c34 30 68 57 109 57c9 0 19 -1 29 -4c52 -15 54 -64 10 -110l-130 -149
c-39 -41 -76 -58 -125 -58s-86 17 -125 58z" />
    <glyph glyph-name="uni0209" unicode="&#x209;" horiz-adv-x="484" 
d="M140 110v794c0 71 36 110 102 110s102 -39 102 -110v-794c0 -71 -36 -110 -102 -110s-102 39 -102 110zM-178 1355c-59 60 -29 114 56 114c55 0 98 -15 132 -55l120 -134c50 -57 35 -112 -35 -117c-56 -4 -95 17 -134 54zM161 1355c-59 60 -29 114 56 114
c55 0 98 -15 133 -55l120 -134c49 -57 34 -112 -36 -117c-56 -4 -95 17 -133 54z" />
    <glyph glyph-name="uni020B" unicode="&#x20b;" horiz-adv-x="484" 
d="M140 110v794c0 71 36 110 102 110s102 -39 102 -110v-794c0 -71 -36 -110 -102 -110s-102 39 -102 110zM-54 1134c-35 18 -49 69 -7 121c67 91 185 131 303 131c116 0 249 -43 309 -140c34 -49 20 -96 -14 -112c-10 -5 -21 -8 -32 -8c-20 0 -41 9 -58 27
c-34 34 -90 95 -205 95c-118 0 -173 -62 -209 -97c-16 -18 -35 -25 -54 -25c-12 0 -23 3 -33 8z" />
    <glyph glyph-name="ij" unicode="&#x133;" horiz-adv-x="1047" 
d="M462 -521c-71 12 -107 60 -87 115c14 38 42 50 77 50c13 0 26 -2 40 -4c19 -3 41 -6 64 -5c120 5 126 147 126 310v959c0 71 36 110 102 110s102 -39 102 -110v-959c0 -299 -60 -477 -321 -477c-41 0 -76 5 -103 11zM161 110v794c0 71 36 110 102 110s102 -39 102 -110
v-794c0 -71 -36 -110 -102 -110s-102 39 -102 110zM662 1297c0 67 56 121 122 121c67 0 121 -54 121 -121s-54 -121 -121 -121c-66 0 -122 54 -122 121zM141 1297c0 67 55 121 122 121c66 0 121 -54 121 -121s-55 -121 -121 -121c-67 0 -122 54 -122 121z" />
    <glyph glyph-name="uni01F0" unicode="&#x1f0;" horiz-adv-x="557" 
d="M-57 -521c-71 11 -107 60 -87 115c14 38 42 50 77 50c13 0 26 -2 40 -4c19 -3 41 -6 64 -5c120 5 126 147 126 310v959c0 71 36 110 102 110s102 -39 102 -110v-959c0 -299 -60 -477 -321 -477c-41 0 -76 5 -103 11zM16 1324c-43 46 -41 95 11 110c10 3 19 4 28 4
c42 0 76 -27 110 -57l107 -110l106 110c34 30 68 57 110 57c9 0 18 -1 28 -4c52 -15 54 -64 11 -110l-131 -149c-38 -41 -75 -58 -124 -58s-87 17 -125 58z" />
    <glyph glyph-name="jcircumflex" unicode="&#x135;" horiz-adv-x="557" 
d="M-57 -521c-71 11 -107 60 -87 115c14 38 42 50 77 50c13 0 26 -2 40 -4c19 -4 41 -6 64 -5c120 5 126 147 126 310v959c0 71 36 110 102 110s102 -39 102 -110v-959c0 -299 -60 -477 -321 -477c-41 0 -76 5 -103 11zM27 1116c-52 16 -54 65 -11 111l131 149
c39 41 76 58 125 58s86 -17 125 -58l130 -149c44 -46 41 -95 -10 -111c-10 -3 -19 -4 -27 -4c-42 0 -77 27 -111 58l-107 110l-107 -110c-34 -31 -69 -58 -111 -58c-9 0 -18 1 -27 4z" />
    <glyph glyph-name="uni01E9" unicode="&#x1e9;" horiz-adv-x="1099" 
d="M140 110v1296c0 71 36 110 102 110s102 -39 102 -110v-801l472 384c22 18 47 27 71 27c25 0 48 -10 64 -28c34 -39 32 -98 -24 -143l-306 -250l341 -433c44 -55 40 -115 -5 -147c-17 -12 -36 -18 -55 -18c-32 0 -63 17 -86 46l-342 436l-130 -107v-262
c0 -71 -36 -110 -102 -110s-102 39 -102 110zM287 1773c-44 46 -42 95 10 110c10 3 20 4 29 4c41 0 75 -27 109 -57l107 -110l107 110c34 30 68 57 110 57c9 0 18 -1 28 -4c52 -15 54 -64 10 -110l-130 -149c-39 -41 -76 -58 -125 -58s-86 17 -125 58z" />
    <glyph glyph-name="uni0137" unicode="&#x137;" horiz-adv-x="1099" 
d="M140 110v1296c0 71 36 110 102 110s102 -39 102 -110v-801l472 384c22 18 47 27 71 27c25 0 48 -10 64 -28c34 -39 32 -98 -24 -143l-306 -250l341 -433c44 -55 40 -115 -5 -147c-17 -12 -36 -18 -55 -18c-32 0 -63 17 -86 46l-342 436l-130 -107v-262
c0 -71 -36 -110 -102 -110s-102 39 -102 110zM415 -507c-59 4 -83 45 -56 111l84 206c22 56 59 80 121 80h4c74 0 107 -46 76 -109l-106 -211c-23 -47 -57 -82 -123 -77z" />
    <glyph glyph-name="kgreenlandic" unicode="&#x138;" horiz-adv-x="1099" 
d="M140 110v794c0 71 36 110 102 110s102 -39 102 -110v-299l472 384c22 18 47 27 71 27c25 0 48 -10 64 -28c34 -39 32 -98 -24 -143l-306 -250l341 -433c44 -55 40 -115 -5 -147c-17 -12 -36 -18 -55 -18c-32 0 -63 17 -86 46l-342 436l-130 -107v-262
c0 -71 -36 -110 -102 -110s-102 39 -102 110z" />
    <glyph glyph-name="lcaron" unicode="&#x13e;" horiz-adv-x="689" 
d="M140 1406c0 71 36 110 102 110s102 -39 102 -110v-1149c0 -54 3 -91 45 -91c43 0 77 -25 77 -79s-43 -87 -104 -87c-197 0 -222 139 -222 262v1144zM495 1075c-56 2 -83 39 -67 105l55 243c12 57 46 93 117 93c73 0 98 -40 79 -107l-80 -262c-16 -49 -50 -75 -104 -72z
" />
    <glyph glyph-name="ldot" unicode="&#x140;" horiz-adv-x="710" 
d="M140 262v1144c0 71 36 110 102 110s102 -39 102 -110v-1149c0 -54 3 -91 45 -91c43 0 77 -25 77 -79s-43 -87 -104 -87c-197 0 -222 139 -222 262zM590 669c-67 0 -121 55 -121 121c0 67 54 122 121 122c68 0 122 -55 122 -122c0 -66 -54 -121 -122 -121z" />
    <glyph glyph-name="lslash" unicode="&#x142;" horiz-adv-x="782" 
d="M81 574c-18 60 5 103 87 161l112 81v590c0 71 36 110 102 110s102 -39 102 -110v-441l77 56c30 21 57 32 79 32c28 0 49 -17 60 -51c20 -60 -4 -103 -88 -160l-128 -94v-491c0 -54 3 -91 45 -91c43 0 77 -25 77 -79s-43 -87 -104 -87c-197 0 -222 139 -222 262v336
l-59 -43c-30 -20 -57 -31 -80 -31c-28 0 -49 17 -60 50z" />
    <glyph glyph-name="lacute" unicode="&#x13a;" horiz-adv-x="566" 
d="M362 0c-197 0 -222 139 -222 262v1144c0 71 36 110 102 110s102 -39 102 -110v-1149c0 -54 3 -91 45 -91c43 0 77 -25 77 -79s-43 -87 -104 -87zM226 1614c-69 6 -85 60 -35 117l120 134c34 40 77 55 132 55c85 0 115 -54 56 -114l-139 -138c-38 -37 -77 -58 -134 -54z
" />
    <glyph glyph-name="uni013C" unicode="&#x13c;" horiz-adv-x="566" 
d="M140 262v1144c0 71 36 110 102 110s102 -39 102 -110v-1149c0 -54 3 -91 45 -91c43 0 77 -25 77 -79s-43 -87 -104 -87c-197 0 -222 139 -222 262zM144 -505c-59 4 -83 45 -56 111l84 206c22 56 59 80 121 80h4c74 0 107 -46 76 -109l-105 -211c-24 -47 -58 -82 -124 -77
z" />
    <glyph glyph-name="nacute" unicode="&#x144;" 
d="M242 0c-66 0 -102 39 -102 110v795c0 71 36 109 102 109c56 0 88 -28 95 -81c2 -31 3 -51 4 -82c17 37 82 185 292 185c294 0 450 -178 450 -473v-453c0 -71 -36 -110 -102 -110s-102 39 -102 110v453c0 183 -79 307 -268 307c-188 0 -267 -124 -267 -307v-453
c0 -71 -36 -110 -102 -110zM596 1170c-70 6 -85 60 -36 117c20 22 89 99 121 134c34 40 77 55 132 55c85 0 115 -54 56 -114c-33 -33 -106 -105 -139 -138c-39 -37 -78 -58 -134 -54z" />
    <glyph glyph-name="ntilde" unicode="&#xf1;" 
d="M140 905c0 71 36 109 102 109c56 0 88 -28 95 -81c2 -31 3 -51 4 -82c17 37 82 185 292 185c294 0 450 -178 450 -473v-453c0 -71 -36 -110 -102 -110s-102 39 -102 110v453c0 183 -79 307 -268 307c-188 0 -267 -124 -267 -307v-453c0 -71 -36 -110 -102 -110
s-102 39 -102 110v795zM367 1214c-54 2 -88 51 -54 119c26 60 78 126 187 126c81 0 119 -44 153 -78c26 -27 42 -47 68 -47c14 0 25 7 34 18c29 38 47 66 101 64s88 -51 54 -119c-26 -61 -78 -127 -186 -127c-82 0 -120 44 -154 79c-26 26 -42 47 -67 47
c-16 0 -27 -9 -37 -20c-28 -38 -46 -64 -99 -62z" />
    <glyph glyph-name="uni0146" unicode="&#x146;" 
d="M140 110v795c0 71 36 109 102 109c56 0 88 -28 95 -81c2 -31 3 -51 4 -82c17 37 82 185 292 185c294 0 450 -178 450 -473v-453c0 -71 -36 -110 -102 -110s-102 39 -102 110v453c0 183 -79 307 -268 307c-188 0 -267 -124 -267 -307v-453c0 -71 -36 -110 -102 -110
s-102 39 -102 110zM460 -505c-59 4 -82 45 -56 111l85 206c22 56 58 80 120 80h4c74 0 108 -46 77 -109l-106 -211c-23 -47 -58 -82 -124 -77z" />
    <glyph glyph-name="ncaron" unicode="&#x148;" 
d="M140 110v795c0 71 36 109 102 109c56 0 88 -28 95 -81c2 -31 3 -51 4 -82c17 37 82 185 292 185c294 0 450 -178 450 -473v-453c0 -71 -36 -110 -102 -110s-102 39 -102 110v453c0 183 -79 307 -268 307c-188 0 -267 -124 -267 -307v-453c0 -71 -36 -110 -102 -110
s-102 39 -102 110zM356 1377c-43 46 -41 95 11 110c10 3 19 4 28 4c42 0 76 -27 110 -57l107 -110l106 110c34 30 68 57 110 57c9 0 18 -1 28 -4c52 -15 54 -64 11 -110l-131 -149c-38 -41 -75 -58 -124 -58s-86 17 -125 58z" />
    <glyph glyph-name="napostrophe" unicode="&#x149;" horiz-adv-x="1316" 
d="M335 0c-66 0 -102 39 -102 110v795c0 71 36 109 102 109c56 0 88 -28 95 -81c2 -31 3 -51 4 -82c17 37 82 185 292 185c294 0 450 -178 450 -473v-453c0 -71 -36 -110 -102 -110s-102 39 -102 110v453c0 183 -79 307 -267 307c-189 0 -268 -124 -268 -307v-453
c0 -71 -36 -110 -102 -110zM124 1000c-53 4 -80 39 -54 109l94 246c21 55 63 79 122 79c70 0 103 -41 72 -110l-113 -249c-23 -52 -63 -78 -121 -75z" />
    <glyph glyph-name="uni01F9" unicode="&#x1f9;" 
d="M242 0c-66 0 -102 39 -102 110v795c0 71 36 109 102 109c56 0 88 -28 95 -81c2 -31 3 -51 4 -82c17 37 82 185 292 185c294 0 450 -178 450 -473v-453c0 -71 -36 -110 -102 -110s-102 39 -102 110v453c0 183 -79 307 -268 307c-188 0 -267 -124 -267 -307v-453
c0 -71 -36 -110 -102 -110zM355 1362c-60 60 -30 114 56 114c55 0 98 -15 132 -55c32 -35 100 -112 120 -134c49 -57 34 -111 -35 -117c-57 -4 -96 17 -134 54c-33 33 -106 105 -139 138z" />
    <glyph glyph-name="eng" unicode="&#x14b;" 
d="M140 905c0 71 36 109 102 109c56 0 88 -28 95 -81c2 -31 3 -51 4 -82c14 29 87 185 292 185c294 0 450 -178 450 -473v-618c0 -299 -60 -477 -321 -477c-41 0 -76 5 -103 11c-71 12 -106 60 -87 115c14 38 43 50 78 50c12 0 25 -2 39 -4c19 -4 41 -6 64 -5
c120 5 126 147 126 310v618c0 183 -79 307 -268 307c-188 0 -267 -124 -267 -307v-453c0 -71 -36 -110 -102 -110s-102 39 -102 110v795z" />
    <glyph glyph-name="omacron" unicode="&#x14d;" horiz-adv-x="1298" 
d="M100 507c0 313 215 529 550 529c334 0 549 -216 549 -529s-215 -529 -549 -529c-335 0 -550 216 -550 529zM309 507c0 -207 117 -363 341 -363c221 0 340 156 340 363s-119 363 -340 363c-224 0 -341 -156 -341 -363zM275 1254c0 54 38 83 109 83h533
c70 0 107 -29 107 -83s-37 -84 -107 -84h-533c-71 0 -109 29 -109 84z" />
    <glyph glyph-name="obreve" unicode="&#x14f;" horiz-adv-x="1298" 
d="M100 507c0 313 215 529 550 529c334 0 549 -216 549 -529s-215 -529 -549 -529c-335 0 -550 216 -550 529zM309 507c0 -207 117 -363 341 -363c221 0 340 156 340 363s-119 363 -340 363c-224 0 -341 -156 -341 -363zM346 1301c-42 52 -27 103 7 121c10 5 22 8 34 8
c18 0 37 -7 53 -25c36 -35 92 -97 210 -97c115 0 171 61 204 95c17 18 39 27 59 27c11 0 22 -3 32 -8c34 -16 48 -63 14 -112c-61 -97 -193 -140 -309 -140c-118 0 -237 40 -304 131z" />
    <glyph glyph-name="ohungarumlaut" unicode="&#x151;" horiz-adv-x="1298" 
d="M100 507c0 313 215 529 550 529c334 0 549 -216 549 -529s-215 -529 -549 -529c-335 0 -550 216 -550 529zM309 507c0 -207 117 -363 341 -363c221 0 340 156 340 363s-119 363 -340 363c-224 0 -341 -156 -341 -363zM499 1170c-53 4 -73 42 -52 107l57 158
c19 55 58 82 118 82c70 0 100 -44 69 -109l-74 -161c-24 -53 -63 -81 -118 -77zM778 1170c-53 4 -73 42 -52 107l56 158c19 55 59 82 118 82c70 0 100 -44 70 -109l-75 -161c-24 -53 -63 -81 -117 -77z" />
    <glyph glyph-name="ohorn" unicode="&#x1a1;" horiz-adv-x="1298" 
d="M100 507c0 313 215 529 550 529c144 0 266 -40 358 -111c73 35 104 84 104 157c0 52 36 95 96 95c57 0 93 -39 93 -95c0 -120 -58 -223 -185 -274c54 -83 83 -185 83 -301c0 -313 -215 -529 -549 -529c-335 0 -550 216 -550 529zM309 507c0 -207 117 -363 341 -363
c221 0 340 156 340 363s-119 363 -340 363c-224 0 -341 -156 -341 -363z" />
    <glyph glyph-name="uni01D2" unicode="&#x1d2;" horiz-adv-x="1298" 
d="M100 507c0 313 215 529 550 529c334 0 549 -216 549 -529s-215 -529 -549 -529c-335 0 -550 216 -550 529zM309 507c0 -207 117 -363 341 -363c221 0 340 156 340 363s-119 363 -340 363c-224 0 -341 -156 -341 -363zM394 1377c-44 46 -41 95 10 110c10 3 20 4 29 4
c42 0 76 -27 110 -57l107 -110l106 110c34 30 68 57 110 57c9 0 18 -1 28 -4c52 -15 54 -64 11 -110l-131 -149c-38 -41 -75 -58 -124 -58s-86 17 -125 58z" />
    <glyph glyph-name="uni01EB" unicode="&#x1eb;" horiz-adv-x="1298" 
d="M100 507c0 313 215 529 549 529c335 0 550 -216 550 -529c0 -260 -148 -453 -390 -511c-44 -39 -86 -84 -86 -143c0 -52 34 -74 72 -85c57 -21 92 -38 92 -93c0 -53 -40 -92 -110 -80c-115 16 -216 81 -216 204c0 99 67 152 118 180c-10 -1 -20 -1 -30 -1
c-334 0 -549 216 -549 529zM649 870c-223 0 -340 -156 -340 -363s117 -363 340 -363c222 0 341 156 341 363s-119 363 -341 363z" />
    <glyph glyph-name="ograve" unicode="&#xf2;" horiz-adv-x="1298" 
d="M100 507c0 313 215 529 550 529c334 0 549 -216 549 -529s-215 -529 -549 -529c-335 0 -550 216 -550 529zM650 870c-224 0 -341 -156 -341 -363s117 -363 341 -363c221 0 340 156 340 363s-119 363 -340 363zM393 1362c-60 60 -30 114 55 114c56 0 99 -15 133 -55
l120 -134c49 -57 34 -111 -35 -117c-57 -4 -96 17 -134 54z" />
    <glyph glyph-name="oacute" unicode="&#xf3;" horiz-adv-x="1298" 
d="M100 507c0 313 215 529 550 529c334 0 549 -216 549 -529s-215 -529 -549 -529c-335 0 -550 216 -550 529zM650 870c-224 0 -341 -156 -341 -363s117 -363 341 -363c221 0 340 156 340 363s-119 363 -340 363zM633 1170c-69 6 -84 60 -35 117l120 134c35 40 78 55 133 55
c85 0 115 -54 55 -114l-139 -138c-38 -37 -77 -58 -134 -54z" />
    <glyph glyph-name="ocircumflex" unicode="&#xf4;" horiz-adv-x="1298" 
d="M100 507c0 313 215 529 550 529c334 0 549 -216 549 -529s-215 -529 -549 -529c-335 0 -550 216 -550 529zM309 507c0 -207 117 -363 341 -363c221 0 340 156 340 363s-119 363 -340 363c-224 0 -341 -156 -341 -363zM405 1169c-52 16 -55 64 -11 111l131 148
c39 42 76 59 125 59s86 -17 124 -59l131 -148c43 -47 41 -95 -11 -111c-9 -3 -18 -4 -27 -4c-42 0 -77 27 -111 58l-106 110l-107 -110c-34 -31 -69 -58 -111 -58c-9 0 -18 1 -27 4z" />
    <glyph glyph-name="otilde" unicode="&#xf5;" horiz-adv-x="1298" 
d="M100 507c0 313 215 529 550 529c334 0 549 -216 549 -529s-215 -529 -549 -529c-335 0 -550 216 -550 529zM309 507c0 -207 117 -363 341 -363c221 0 340 156 340 363s-119 363 -340 363c-224 0 -341 -156 -341 -363zM405 1214c-54 2 -89 51 -54 119
c26 60 78 126 186 126c82 0 120 -44 154 -78c26 -27 42 -47 68 -47c14 0 25 7 34 18c29 38 47 66 101 64s88 -51 54 -119c-26 -61 -78 -127 -186 -127c-82 0 -120 44 -154 79c-26 26 -42 47 -68 47c-15 0 -26 -9 -36 -20c-29 -38 -47 -64 -99 -62z" />
    <glyph glyph-name="odieresis" unicode="&#xf6;" horiz-adv-x="1298" 
d="M100 507c0 313 215 529 549 529c335 0 550 -216 550 -529s-215 -529 -550 -529c-334 0 -549 216 -549 529zM309 507c0 -207 116 -363 340 -363c222 0 341 156 341 363s-119 363 -341 363c-224 0 -340 -156 -340 -363zM724 1291c0 66 55 121 122 121s122 -55 122 -121
c0 -67 -55 -121 -122 -121s-122 54 -122 121zM330 1291c0 66 56 121 122 121c67 0 121 -55 121 -121c0 -67 -54 -121 -121 -121c-66 0 -122 54 -122 121z" />
    <glyph glyph-name="uni01ED" unicode="&#x1ed;" horiz-adv-x="1298" 
d="M100 507c0 313 215 529 549 529c335 0 550 -216 550 -529c0 -260 -148 -453 -390 -511c-44 -39 -86 -84 -86 -143c0 -52 34 -74 72 -85c57 -21 92 -38 92 -93c0 -53 -40 -92 -110 -80c-115 16 -216 81 -216 204c0 99 67 152 118 180c-10 -1 -20 -1 -30 -1
c-334 0 -549 216 -549 529zM649 870c-223 0 -340 -156 -340 -363s117 -363 340 -363c222 0 341 156 341 363s-119 363 -341 363zM384 1170c-71 0 -109 29 -109 84c0 54 38 83 109 83h532c71 0 108 -29 108 -83s-37 -84 -108 -84h-532z" />
    <glyph glyph-name="uni020D" unicode="&#x20d;" horiz-adv-x="1298" 
d="M100 507c0 313 215 529 550 529c334 0 549 -216 549 -529s-215 -529 -549 -529c-335 0 -550 216 -550 529zM309 507c0 -207 117 -363 341 -363c221 0 340 156 340 363s-119 363 -340 363c-224 0 -341 -156 -341 -363zM230 1357c-60 60 -30 114 56 114
c55 0 98 -15 132 -55l120 -134c49 -57 34 -112 -35 -117c-57 -4 -96 17 -134 54zM569 1357c-60 60 -30 114 56 114c55 0 98 -15 132 -55l120 -134c50 -57 34 -112 -35 -117c-57 -4 -95 17 -134 54z" />
    <glyph glyph-name="uni020F" unicode="&#x20f;" horiz-adv-x="1298" 
d="M100 507c0 313 215 529 550 529c334 0 549 -216 549 -529s-215 -529 -549 -529c-335 0 -550 216 -550 529zM309 507c0 -207 117 -363 341 -363c221 0 340 156 340 363s-119 363 -340 363c-224 0 -341 -156 -341 -363zM353 1136c-34 18 -49 69 -7 121
c67 91 186 131 304 131c116 0 248 -43 309 -140c34 -49 20 -96 -14 -112c-10 -5 -21 -8 -32 -8c-20 0 -42 9 -59 27c-33 34 -89 95 -204 95c-118 0 -174 -62 -210 -97c-16 -18 -35 -25 -53 -25c-12 0 -24 3 -34 8z" />
    <glyph glyph-name="uni022B" unicode="&#x22b;" horiz-adv-x="1298" 
d="M100 507c0 313 215 529 549 529c335 0 550 -216 550 -529s-215 -529 -550 -529c-334 0 -549 216 -549 529zM309 507c0 -207 117 -363 340 -363c222 0 341 156 341 363s-119 363 -341 363c-223 0 -340 -156 -340 -363zM385 1423c-71 0 -110 29 -110 84c0 54 39 83 110 83
h531c71 0 108 -29 108 -83s-37 -84 -108 -84h-531zM725 1243c0 67 55 121 122 121c66 0 121 -54 121 -121s-55 -121 -121 -121c-67 0 -122 54 -122 121zM453 1122c-67 0 -122 54 -122 121s55 121 122 121c66 0 121 -54 121 -121s-55 -121 -121 -121z" />
    <glyph glyph-name="uni022D" unicode="&#x22d;" horiz-adv-x="1298" 
d="M100 507c0 313 215 529 550 529c334 0 549 -216 549 -529s-215 -529 -549 -529c-335 0 -550 216 -550 529zM309 507c0 -207 117 -363 341 -363c221 0 340 156 340 363s-119 363 -340 363c-224 0 -341 -156 -341 -363zM275 1547c0 54 39 83 110 83h532
c71 0 107 -29 107 -83s-36 -84 -107 -84h-532c-71 0 -110 29 -110 84zM405 1159c-54 2 -88 51 -54 119c26 61 78 127 186 127c82 0 120 -45 154 -79c26 -26 42 -47 68 -47c14 0 25 8 34 18c29 38 47 66 101 64c53 -2 88 -51 54 -119c-26 -61 -78 -127 -186 -127
c-82 0 -120 45 -154 79c-26 26 -42 47 -68 47c-15 0 -26 -9 -36 -20c-29 -37 -47 -64 -99 -62z" />
    <glyph glyph-name="uni022F" unicode="&#x22f;" horiz-adv-x="1298" 
d="M100 507c0 313 215 529 550 529c334 0 549 -216 549 -529s-215 -529 -549 -529c-335 0 -550 216 -550 529zM309 507c0 -207 117 -363 341 -363c221 0 340 156 340 363s-119 363 -340 363c-224 0 -341 -156 -341 -363zM650 1170c-68 0 -122 54 -122 122
c0 66 54 120 122 120c66 0 121 -54 121 -120c0 -68 -55 -122 -121 -122z" />
    <glyph glyph-name="uni0231" unicode="&#x231;" horiz-adv-x="1298" 
d="M100 507c0 313 215 529 550 529c334 0 549 -216 549 -529s-215 -529 -549 -529c-335 0 -550 216 -550 529zM650 870c-224 0 -341 -156 -341 -363s117 -363 341 -363c221 0 340 156 340 363s-119 363 -340 363zM385 1423c-71 0 -110 29 -110 84c0 54 39 83 110 83h531
c71 0 108 -29 108 -83s-37 -84 -108 -84h-531zM528 1243c0 67 54 121 122 121c66 0 121 -54 121 -121s-55 -121 -121 -121c-68 0 -122 54 -122 121z" />
    <glyph glyph-name="oslash" unicode="&#xf8;" horiz-adv-x="1298" 
d="M100 507c0 313 215 529 550 529c61 0 118 -7 171 -22l7 15c16 34 40 52 68 52c9 0 18 -2 28 -6c38 -16 46 -55 24 -99l-5 -10c162 -87 256 -252 256 -459c0 -313 -215 -529 -549 -529c-61 0 -118 7 -170 21l-9 -20c-17 -34 -42 -51 -69 -51c-9 0 -18 2 -28 6
c-38 16 -46 55 -24 100l7 13c-162 87 -257 253 -257 460zM650 870c-224 0 -341 -156 -341 -363c0 -125 43 -232 126 -297l311 648c-30 8 -62 12 -96 12zM555 155c29 -7 60 -11 95 -11c221 0 340 156 340 363c0 124 -43 230 -125 295z" />
    <glyph glyph-name="oslashacute" unicode="&#x1ff;" horiz-adv-x="1298" 
d="M100 507c0 313 215 529 550 529c61 0 118 -7 171 -22l7 15c16 34 40 52 68 52c9 0 18 -2 28 -6c38 -16 46 -55 24 -99l-5 -10c162 -87 256 -252 256 -459c0 -313 -215 -529 -549 -529c-61 0 -118 7 -170 21l-9 -20c-17 -34 -42 -51 -69 -51c-9 0 -18 2 -28 6
c-38 16 -46 55 -24 100l7 13c-162 87 -257 253 -257 460zM309 507c0 -125 43 -232 126 -297l311 648c-30 8 -62 12 -96 12c-224 0 -341 -156 -341 -363zM555 155c29 -7 60 -11 95 -11c221 0 340 156 340 363c0 124 -43 230 -125 295zM633 1180c-69 6 -84 60 -35 117l120 134
c35 40 78 55 133 55c85 0 115 -53 55 -114l-139 -137c-38 -38 -77 -59 -134 -55z" />
    <glyph glyph-name="oe" unicode="&#x153;" horiz-adv-x="2091" 
d="M650 -22c-339 0 -550 216 -550 529s211 529 550 529c195 0 348 -76 440 -201c83 124 222 201 405 201c274 0 475 -170 497 -498c3 -73 -36 -113 -108 -113h-682c6 -157 114 -283 303 -283c105 0 192 28 253 62c26 11 49 18 70 18c25 0 46 -10 61 -33
c37 -54 8 -103 -54 -135c-76 -41 -188 -76 -340 -76c-185 0 -323 76 -405 199c-92 -123 -245 -199 -440 -199zM309 507c0 -208 119 -363 341 -363c221 0 340 155 340 363s-119 363 -340 363c-222 0 -341 -155 -341 -363zM1495 872c-180 0 -279 -130 -293 -291h587
c-13 161 -113 291 -294 291z" />
    <glyph glyph-name="racute" unicode="&#x155;" horiz-adv-x="910" 
d="M242 0c-66 0 -102 39 -102 110v795c0 71 36 109 102 109c55 0 88 -29 95 -82c2 -19 2 -69 3 -78c15 34 79 182 289 182c52 0 94 -7 128 -15c74 -13 93 -72 66 -120c-20 -36 -48 -46 -82 -46c-17 0 -37 3 -58 6c-21 5 -44 9 -71 9c-190 0 -268 -126 -268 -309v-451
c0 -71 -36 -110 -102 -110zM474 1170c-70 6 -85 60 -35 117c19 22 88 99 120 134c34 40 77 55 132 55c85 0 115 -54 55 -114c-32 -33 -105 -105 -139 -138c-38 -37 -77 -58 -133 -54z" />
    <glyph glyph-name="uni0157" unicode="&#x157;" horiz-adv-x="910" 
d="M242 0c-66 0 -102 39 -102 110v795c0 71 36 109 102 109c55 0 88 -29 95 -82c2 -19 2 -69 3 -78c15 34 79 182 289 182c52 0 94 -7 128 -15c74 -13 93 -72 66 -120c-20 -36 -48 -46 -82 -46c-17 0 -37 3 -58 6c-21 5 -44 9 -71 9c-190 0 -268 -126 -268 -309v-451
c0 -71 -36 -110 -102 -110zM90 -505c-59 4 -82 45 -56 111l84 206c22 56 59 80 121 80h4c74 0 107 -46 76 -109l-106 -211c-23 -47 -57 -82 -123 -77z" />
    <glyph glyph-name="rcaron" unicode="&#x159;" horiz-adv-x="910" 
d="M140 905c0 71 36 109 102 109c55 0 88 -29 95 -82c2 -19 2 -69 3 -78c15 34 79 182 289 182c52 0 94 -7 128 -15c74 -13 93 -72 66 -120c-20 -36 -48 -46 -82 -46c-17 0 -37 3 -58 6c-21 5 -44 9 -71 9c-190 0 -268 -126 -268 -309v-451c0 -71 -36 -110 -102 -110
s-102 39 -102 110v795zM235 1377c-44 46 -42 95 10 110c10 3 19 4 28 4c42 0 76 -27 110 -57l107 -110l106 110c34 30 68 57 110 57c9 0 18 -1 28 -4c52 -15 54 -64 11 -110l-131 -149c-38 -41 -75 -58 -124 -58s-86 17 -125 58z" />
    <glyph glyph-name="uni0211" unicode="&#x211;" horiz-adv-x="910" 
d="M242 0c-66 0 -102 39 -102 110v795c0 71 36 109 102 109c55 0 88 -29 95 -82c2 -19 2 -69 3 -78c15 34 79 182 289 182c52 0 94 -7 128 -15c74 -13 93 -72 66 -120c-20 -36 -48 -46 -82 -46c-17 0 -37 3 -58 6c-21 5 -44 9 -71 9c-190 0 -268 -126 -268 -309v-451
c0 -71 -36 -110 -102 -110zM409 1357c-59 60 -29 114 56 114c55 0 98 -15 132 -55c32 -36 101 -112 120 -134c50 -57 34 -112 -35 -117c-57 -4 -95 17 -134 54c-33 33 -106 105 -139 138zM70 1357c-59 60 -29 114 56 114c55 0 98 -15 132 -55c32 -36 101 -112 120 -134
c49 -57 34 -112 -35 -117c-57 -4 -96 17 -134 54c-33 33 -106 105 -139 138z" />
    <glyph glyph-name="uni0213" unicode="&#x213;" horiz-adv-x="910" 
d="M140 905c0 71 36 109 102 109c55 0 88 -29 95 -82c2 -19 2 -69 3 -78c15 34 79 182 289 182c52 0 94 -7 128 -15c74 -13 93 -72 66 -120c-20 -36 -48 -46 -82 -46c-17 0 -37 3 -58 6c-21 5 -44 9 -71 9c-190 0 -268 -126 -268 -309v-451c0 -71 -36 -110 -102 -110
s-102 39 -102 110v795zM194 1136c-35 18 -49 69 -7 121c67 91 185 131 303 131c116 0 248 -43 309 -140c34 -49 20 -96 -14 -112c-10 -5 -21 -8 -32 -8c-20 0 -42 9 -59 27c-33 34 -89 95 -204 95c-118 0 -174 -62 -209 -97c-16 -18 -35 -25 -54 -25c-12 0 -23 3 -33 8z" />
    <glyph glyph-name="uni024D" unicode="&#x24d;" horiz-adv-x="1012" 
d="M132 384c-60 0 -92 26 -92 74s32 73 92 73h110v374c0 71 36 109 102 109c55 0 88 -29 95 -82c2 -19 2 -69 3 -78c15 34 79 182 289 182c52 0 94 -7 128 -15c74 -13 93 -72 66 -120c-20 -36 -48 -46 -82 -46c-17 0 -37 3 -58 6c-21 5 -44 9 -71 9
c-190 0 -268 -126 -268 -309v-30h143c60 0 93 -25 93 -73s-33 -74 -93 -74h-143v-275c0 -71 -36 -109 -102 -109s-102 38 -102 109v275h-110z" />
    <glyph glyph-name="sacute" unicode="&#x15b;" horiz-adv-x="1034" 
d="M162 41c-67 27 -85 81 -57 127c16 29 40 40 70 40c19 0 41 -5 65 -12c62 -21 161 -52 271 -52c137 0 224 48 224 141c0 90 -71 125 -245 158c-282 53 -396 144 -396 306c0 161 131 287 400 287c139 0 247 -23 315 -46c70 -23 93 -76 67 -122c-18 -32 -45 -44 -78 -44
c-17 0 -36 4 -56 9c-54 15 -143 37 -240 37c-148 0 -201 -49 -201 -124c0 -74 70 -111 226 -141c268 -52 415 -124 415 -326c0 -207 -186 -301 -429 -301c-159 0 -278 32 -351 63zM499 1170c-69 6 -84 60 -35 117l120 134c34 40 77 55 132 55c85 0 115 -54 56 -114
l-139 -138c-38 -37 -77 -58 -134 -54z" />
    <glyph glyph-name="scircumflex" unicode="&#x15d;" horiz-adv-x="1034" 
d="M162 41c-67 27 -85 81 -57 127c16 29 40 40 70 40c19 0 41 -5 65 -12c62 -21 161 -52 271 -52c137 0 224 48 224 141c0 90 -71 125 -245 158c-282 53 -396 144 -396 306c0 161 131 287 400 287c139 0 247 -23 315 -46c70 -23 93 -76 67 -122c-18 -32 -45 -44 -78 -44
c-17 0 -36 4 -56 9c-54 15 -143 37 -240 37c-148 0 -201 -49 -201 -124c0 -74 70 -111 226 -141c268 -52 415 -124 415 -326c0 -207 -186 -301 -429 -301c-159 0 -278 32 -351 63zM270 1169c-51 16 -54 64 -10 111l130 148c39 42 76 59 125 59s86 -17 125 -59l130 -148
c43 -47 41 -95 -11 -111c-9 -3 -18 -4 -27 -4c-41 0 -76 27 -110 58l-107 110l-107 -110c-34 -31 -69 -58 -111 -58c-8 0 -17 1 -27 4z" />
    <glyph glyph-name="scedilla" unicode="&#x15f;" horiz-adv-x="1034" 
d="M162 41c-67 27 -85 81 -57 127c16 29 40 40 70 40c19 0 41 -5 65 -12c62 -21 161 -52 271 -52c137 0 224 48 224 141c0 90 -71 125 -245 158c-282 53 -396 144 -396 306c0 161 131 287 400 287c139 0 247 -23 315 -46c70 -23 93 -76 67 -122c-18 -32 -45 -44 -78 -44
c-17 0 -36 4 -56 9c-54 15 -143 37 -240 37c-148 0 -201 -49 -201 -124c0 -74 70 -111 226 -141c268 -52 415 -124 415 -326c0 -187 -150 -281 -358 -298l-28 -83c117 -1 207 -61 195 -179c-13 -140 -126 -190 -248 -190c-34 0 -69 4 -103 11c-67 13 -89 50 -76 88
c10 27 31 36 62 36c15 0 32 -2 51 -5c20 -3 43 -6 65 -6c49 0 96 14 104 69c8 58 -52 71 -113 69c-76 3 -111 30 -88 97l33 92c-122 8 -215 35 -276 61z" />
    <glyph glyph-name="scaron" unicode="&#x161;" horiz-adv-x="1034" 
d="M162 41c-67 27 -85 81 -57 127c16 29 40 40 70 40c19 0 41 -5 65 -12c62 -21 161 -52 271 -52c137 0 224 48 224 141c0 90 -71 125 -245 158c-282 53 -396 144 -396 306c0 161 131 287 400 287c139 0 247 -23 315 -46c70 -23 93 -76 67 -122c-18 -32 -45 -44 -78 -44
c-17 0 -36 4 -56 9c-54 15 -143 37 -240 37c-148 0 -201 -49 -201 -124c0 -74 70 -111 226 -141c268 -52 415 -124 415 -326c0 -207 -186 -301 -429 -301c-159 0 -278 32 -351 63zM260 1377c-44 46 -41 95 10 110c10 3 20 4 29 4c41 0 75 -27 109 -57l107 -110l107 110
c34 30 68 57 109 57c9 0 18 -1 28 -4c52 -15 54 -64 11 -110l-130 -149c-39 -41 -76 -58 -125 -58s-86 17 -125 58z" />
    <glyph glyph-name="uni0219" unicode="&#x219;" horiz-adv-x="1034" 
d="M162 41c-67 27 -85 81 -57 127c16 29 40 40 70 40c19 0 41 -5 65 -12c62 -21 161 -52 271 -52c137 0 224 48 224 141c0 90 -71 125 -245 158c-282 53 -396 144 -396 306c0 161 131 287 400 287c139 0 247 -23 315 -46c70 -23 93 -76 67 -122c-18 -32 -45 -44 -78 -44
c-17 0 -36 4 -56 9c-54 15 -143 37 -240 37c-148 0 -201 -49 -201 -124c0 -74 70 -111 226 -141c268 -52 415 -124 415 -326c0 -207 -186 -301 -429 -301c-159 0 -278 32 -351 63zM366 -521c-59 4 -83 45 -56 111l84 206c22 56 59 80 121 80h4c73 0 107 -46 76 -109
l-106 -211c-23 -47 -57 -82 -123 -77z" />
    <glyph glyph-name="uni0163" unicode="&#x163;" horiz-adv-x="884" 
d="M80 931c0 54 35 83 96 83h105v185c0 71 36 110 102 110s102 -39 102 -110v-185h199c60 0 95 -29 95 -83s-35 -83 -95 -83h-199v-405c0 -204 12 -301 155 -301c17 0 34 1 50 3c54 3 90 -10 100 -56c11 -52 -23 -86 -85 -101c-25 -6 -49 -10 -80 -10
c-294 0 -344 156 -344 467v403h-105c-61 0 -96 29 -96 83zM389 -521c-59 4 -82 45 -56 111l84 206c22 56 59 80 121 80h4c74 0 107 -46 76 -109l-105 -211c-24 -47 -58 -82 -124 -77z" />
    <glyph glyph-name="uni021B" unicode="&#x21b;" horiz-adv-x="884" 
d="M80 931c0 54 35 83 96 83h105v185c0 71 36 110 102 110s102 -39 102 -110v-185h199c60 0 95 -29 95 -83s-35 -83 -95 -83h-199v-405c0 -204 12 -301 155 -301c17 0 34 1 50 3c54 3 90 -10 100 -56c11 -52 -23 -86 -85 -101c-25 -6 -49 -10 -80 -10
c-294 0 -344 156 -344 467v403h-105c-61 0 -96 29 -96 83zM389 -521c-59 4 -82 45 -56 111l84 206c22 56 59 80 121 80h4c74 0 107 -46 76 -109l-105 -211c-24 -47 -58 -82 -124 -77z" />
    <glyph glyph-name="tcaron" unicode="&#x165;" horiz-adv-x="1101" 
d="M176 848c-61 0 -96 29 -96 83s35 83 96 83h105v185c0 71 36 110 102 110s102 -39 102 -110v-185h199c60 0 95 -29 95 -83s-35 -83 -95 -83h-199v-405c0 -204 12 -301 155 -301c17 0 34 1 50 3c54 3 90 -10 100 -56c11 -52 -23 -86 -85 -101c-25 -6 -49 -10 -80 -10
c-294 0 -344 156 -344 467v403h-105zM819 1075c-56 2 -82 39 -67 105l55 243c13 57 45 93 116 93c74 0 100 -40 79 -107l-79 -262c-15 -50 -50 -75 -104 -72z" />
    <glyph glyph-name="tbar" unicode="&#x167;" horiz-adv-x="884" 
d="M173 519c-60 0 -93 28 -93 76s33 75 93 75h108v178h-105c-61 0 -96 29 -96 83s35 83 96 83h105v185c0 71 36 110 102 110s102 -39 102 -110v-185h199c60 0 95 -29 95 -83s-35 -83 -95 -83h-199v-178h201c60 0 93 -27 93 -75s-33 -76 -93 -76h-201v-77
c0 -204 12 -300 155 -300c17 0 34 1 50 3c54 3 90 -10 100 -56c11 -52 -23 -86 -85 -101c-25 -6 -49 -10 -80 -10c-294 0 -344 156 -344 466v75h-108z" />
    <glyph glyph-name="utilde" unicode="&#x169;" 
d="M590 -22c-294 0 -450 178 -450 473v453c0 71 36 110 102 110s102 -39 102 -110v-453c0 -183 79 -307 268 -307c188 0 267 124 267 307v453c0 71 36 110 102 110s102 -39 102 -110v-795c0 -70 -36 -109 -102 -109c-53 0 -85 27 -92 77c-3 31 -6 53 -8 86
c-16 -37 -81 -185 -291 -185zM367 1191c-54 3 -88 51 -54 120c26 60 78 126 187 126c81 0 119 -44 153 -79c26 -26 42 -46 68 -46c14 0 25 7 34 18c29 38 47 66 101 64c53 -3 88 -51 54 -120c-26 -60 -78 -126 -186 -126c-82 0 -120 44 -154 79c-26 26 -42 46 -67 46
c-16 0 -27 -8 -37 -19c-28 -38 -46 -64 -99 -63z" />
    <glyph glyph-name="umacron" unicode="&#x16b;" 
d="M140 451v453c0 71 36 110 102 110s102 -39 102 -110v-453c0 -183 79 -307 268 -307c188 0 267 124 267 307v453c0 71 36 110 102 110s102 -39 102 -110v-795c0 -70 -36 -109 -102 -109c-53 0 -85 27 -92 77c-3 31 -6 53 -8 86c-16 -37 -81 -185 -291 -185
c-294 0 -450 178 -450 473zM237 1232c0 54 39 83 110 83h531c71 0 108 -29 108 -83s-37 -84 -108 -84h-531c-71 0 -110 29 -110 84z" />
    <glyph glyph-name="ubreve" unicode="&#x16d;" 
d="M590 -22c-294 0 -450 178 -450 473v453c0 71 36 110 102 110s102 -39 102 -110v-453c0 -183 79 -307 268 -307c188 0 267 124 267 307v453c0 71 36 110 102 110s102 -39 102 -110v-795c0 -70 -36 -109 -102 -109c-53 0 -85 27 -92 77c-3 31 -6 53 -8 86
c-16 -37 -81 -185 -291 -185zM308 1279c-41 52 -27 103 8 120c10 6 21 9 33 9c19 0 38 -8 54 -25c35 -35 91 -97 209 -97c115 0 171 61 204 95c17 18 38 26 58 26c11 0 23 -3 33 -8c33 -15 47 -62 14 -111c-61 -97 -193 -140 -309 -140c-118 0 -236 40 -304 131z" />
    <glyph glyph-name="uring" unicode="&#x16f;" 
d="M590 -22c-294 0 -450 178 -450 473v453c0 71 36 110 102 110s102 -39 102 -110v-453c0 -183 79 -307 268 -307c188 0 267 124 267 307v453c0 71 36 110 102 110s102 -39 102 -110v-795c0 -70 -36 -109 -102 -109c-53 0 -85 27 -92 77c-3 31 -6 53 -8 86
c-16 -37 -82 -185 -291 -185zM417 1343c0 106 89 195 195 195c105 0 195 -89 195 -195s-90 -195 -195 -195c-106 0 -195 89 -195 195zM612 1418c-43 0 -76 -34 -76 -75c0 -43 33 -76 76 -76c42 0 75 33 75 76c0 41 -33 75 -75 75z" />
    <glyph glyph-name="uhungarumlaut" unicode="&#x171;" 
d="M140 904c0 71 36 110 102 110s102 -39 102 -110v-453c0 -183 79 -307 268 -307c188 0 267 124 267 307v453c0 71 36 110 102 110s102 -39 102 -110v-795c0 -70 -36 -109 -102 -109c-53 0 -85 27 -92 77c-3 31 -6 53 -8 86c-16 -37 -81 -185 -291 -185
c-294 0 -450 178 -450 473v453zM461 1148c-52 4 -73 41 -52 107l57 158c19 55 59 82 118 82c70 0 100 -44 69 -110l-74 -160c-24 -53 -63 -81 -118 -77zM740 1148c-53 4 -73 41 -52 107l57 158c18 55 58 82 117 82c70 0 100 -44 70 -110l-75 -160c-24 -53 -63 -81 -117 -77z
" />
    <glyph glyph-name="uogonek" unicode="&#x173;" 
d="M140 451v453c0 71 36 110 102 110s102 -39 102 -110v-453c0 -183 79 -307 268 -307s267 124 267 307v453c0 71 36 110 102 110s102 -39 102 -110v-795c0 -55 -22 -90 -63 -103c-41 -38 -80 -82 -80 -139c0 -51 34 -73 72 -85c57 -20 92 -37 92 -92
c0 -54 -40 -93 -110 -81c-115 17 -216 81 -216 204c0 126 109 179 155 197c-25 12 -40 35 -44 67c-3 31 -6 53 -8 86c-16 -37 -81 -185 -291 -185c-294 0 -450 178 -450 473z" />
    <glyph glyph-name="uni01D4" unicode="&#x1d4;" 
d="M590 -22c-294 0 -450 178 -450 473v453c0 71 36 110 102 110s102 -39 102 -110v-453c0 -183 79 -307 268 -307c188 0 267 124 267 307v453c0 71 36 110 102 110s102 -39 102 -110v-795c0 -70 -36 -109 -102 -109c-53 0 -85 27 -92 77c-3 31 -6 53 -8 86
c-16 -37 -81 -185 -291 -185zM356 1354c-43 47 -41 96 11 111c10 3 19 4 28 4c42 0 76 -27 110 -57l107 -111l106 111c34 30 68 57 110 57c9 0 18 -1 28 -4c52 -15 54 -64 11 -111l-131 -148c-38 -42 -75 -58 -124 -58s-86 16 -125 58z" />
    <glyph glyph-name="uni0215" unicode="&#x215;" 
d="M590 -22c-294 0 -450 178 -450 473v453c0 71 36 110 102 110s102 -39 102 -110v-453c0 -183 79 -307 268 -307c188 0 267 124 267 307v453c0 71 36 110 102 110s102 -39 102 -110v-795c0 -70 -36 -109 -102 -109c-53 0 -85 27 -92 77c-3 31 -6 53 -8 86
c-16 -37 -81 -185 -291 -185zM192 1334c-59 61 -29 115 56 115c55 0 98 -15 132 -55c32 -36 101 -112 120 -134c49 -57 34 -112 -35 -117c-57 -4 -95 17 -134 54c-33 33 -106 105 -139 137zM531 1334c-59 61 -29 115 56 115c55 0 98 -15 132 -55c32 -36 101 -112 120 -134
c50 -57 35 -112 -35 -117c-56 -4 -95 17 -134 54c-33 33 -106 105 -139 137z" />
    <glyph glyph-name="uni0217" unicode="&#x217;" 
d="M590 -22c-294 0 -450 178 -450 473v453c0 71 36 110 102 110s102 -39 102 -110v-453c0 -183 79 -307 268 -307c188 0 267 124 267 307v453c0 71 36 110 102 110s102 -39 102 -110v-795c0 -70 -36 -109 -102 -109c-53 0 -85 27 -92 77c-3 31 -6 53 -8 86
c-16 -37 -81 -185 -291 -185zM316 1115c-35 17 -49 68 -8 120c68 91 186 131 304 131c116 0 248 -43 309 -140c33 -49 19 -96 -14 -111c-10 -5 -22 -8 -33 -8c-20 0 -41 8 -58 26c-33 34 -89 95 -204 95c-118 0 -174 -62 -209 -97c-16 -17 -35 -25 -54 -25
c-12 0 -23 3 -33 9z" />
    <glyph glyph-name="uhorn" unicode="&#x1b0;" 
d="M140 451v453c0 71 36 110 102 110s102 -39 102 -110v-453c0 -183 79 -307 268 -307c188 0 267 124 267 307v453c0 71 36 110 102 110s102 -39 102 -110v-144c78 35 111 85 111 160c0 52 36 95 96 95c57 0 93 -39 93 -95c0 -151 -92 -276 -300 -302v-509
c0 -70 -36 -109 -102 -109c-53 0 -85 27 -92 77c-3 31 -6 53 -8 86c-16 -37 -81 -185 -291 -185c-294 0 -450 178 -450 473z" />
    <glyph glyph-name="uni01D8" unicode="&#x1d8;" 
d="M589 -22c-293 0 -449 178 -449 473v454c0 71 36 109 102 109s102 -38 102 -109v-454c0 -183 79 -307 267 -307c189 0 268 124 268 307v454c0 71 35 109 102 109c66 0 102 -38 102 -109v-796c0 -70 -36 -109 -102 -109c-53 0 -85 27 -92 77c-3 31 -6 53 -8 86
c-16 -37 -82 -185 -292 -185zM588 1383c-70 6 -85 60 -35 117c19 22 88 99 120 134c34 40 77 55 132 55c85 0 115 -53 56 -114c-33 -32 -106 -105 -139 -137c-39 -38 -78 -59 -134 -55zM710 1268c0 67 55 121 122 121c66 0 121 -54 121 -121s-55 -121 -121 -121
c-67 0 -122 54 -122 121zM268 1268c0 67 56 121 122 121s121 -54 121 -121s-55 -121 -121 -121s-122 54 -122 121z" />
    <glyph glyph-name="uni01DA" unicode="&#x1da;" 
d="M140 451v454c0 71 36 109 102 109s102 -38 102 -109v-454c0 -183 79 -307 267 -307c189 0 268 124 268 307v454c0 71 35 109 102 109c66 0 102 -38 102 -109v-796c0 -70 -36 -109 -102 -109c-53 0 -85 27 -92 77c-3 31 -6 53 -8 86c-16 -37 -82 -185 -292 -185
c-293 0 -449 178 -449 473zM356 1528c-43 47 -41 96 11 111c10 3 19 4 28 4c41 0 75 -27 109 -57l107 -111l107 111c34 30 68 57 109 57c9 0 19 -1 29 -4c52 -15 54 -64 10 -111l-130 -148c-39 -42 -76 -58 -125 -58s-86 16 -125 58zM718 1228c0 67 55 121 122 121
c66 0 121 -54 121 -121s-55 -121 -121 -121c-67 0 -122 54 -122 121zM382 1107c-66 0 -122 54 -122 121s56 121 122 121s121 -54 121 -121s-55 -121 -121 -121z" />
    <glyph glyph-name="udieresis" unicode="&#xfc;" 
d="M140 451v453c0 71 36 110 102 110s102 -39 102 -110v-453c0 -183 79 -307 268 -307c188 0 267 124 267 307v453c0 71 36 110 102 110s102 -39 102 -110v-795c0 -70 -36 -109 -102 -109c-53 0 -85 27 -92 77c-3 31 -6 53 -8 86c-16 -37 -81 -185 -291 -185
c-294 0 -450 178 -450 473zM415 1148c-67 0 -122 53 -122 121c0 66 55 120 122 120c66 0 121 -54 121 -120c0 -68 -55 -121 -121 -121zM809 1148c-67 0 -122 53 -122 121c0 66 55 120 122 120c66 0 121 -54 121 -120c0 -68 -55 -121 -121 -121z" />
    <glyph glyph-name="uni01DC" unicode="&#x1dc;" 
d="M140 905c0 71 36 109 102 109s102 -38 102 -109v-454c0 -183 79 -307 267 -307c189 0 268 124 268 307v454c0 71 35 109 102 109c66 0 102 -38 102 -109v-796c0 -70 -36 -109 -102 -109c-53 0 -85 27 -92 77c-3 31 -6 53 -8 86c-16 -37 -82 -185 -292 -185
c-293 0 -449 178 -449 473v454zM355 1575c-60 61 -29 114 56 114c54 0 97 -15 131 -55c32 -35 101 -112 120 -134c50 -57 35 -111 -35 -117c-56 -4 -95 17 -133 55c-34 32 -106 105 -139 137zM832 1147c-67 0 -122 54 -122 121s55 121 122 121c66 0 121 -54 121 -121
s-55 -121 -121 -121zM390 1147c-66 0 -122 54 -122 121s56 121 122 121s121 -54 121 -121s-55 -121 -121 -121z" />
    <glyph glyph-name="uni01D6" unicode="&#x1d6;" 
d="M140 451v453c0 71 36 110 102 110s102 -39 102 -110v-453c0 -183 79 -307 268 -307c188 0 267 124 267 307v453c0 71 36 110 102 110s102 -39 102 -110v-795c0 -70 -36 -109 -102 -109c-53 0 -85 27 -92 77c-3 31 -6 53 -8 86c-16 -37 -81 -185 -291 -185
c-294 0 -450 178 -450 473zM237 1534c0 54 39 83 110 83h531c71 0 108 -29 108 -83s-37 -84 -108 -84h-531c-71 0 -110 29 -110 84zM415 1148c-67 0 -122 54 -122 121s55 121 122 121c66 0 121 -54 121 -121s-55 -121 -121 -121zM808 1148c-66 0 -121 54 -121 121
s55 121 121 121c67 0 122 -54 122 -121s-55 -121 -122 -121z" />
    <glyph glyph-name="ugrave" unicode="&#xf9;" 
d="M140 904c0 71 36 110 102 110s102 -39 102 -110v-453c0 -183 79 -307 268 -307c188 0 267 124 267 307v453c0 71 36 110 102 110s102 -39 102 -110v-795c0 -70 -36 -109 -102 -109c-53 0 -85 27 -92 77c-3 31 -6 53 -8 86c-16 -37 -81 -185 -291 -185
c-294 0 -450 178 -450 473v453zM355 1340c-60 60 -30 114 56 114c55 0 98 -15 132 -55c32 -36 100 -112 120 -134c49 -57 34 -112 -35 -117c-57 -4 -96 17 -134 54c-33 33 -106 105 -139 138z" />
    <glyph glyph-name="uacute" unicode="&#xfa;" 
d="M590 -22c-294 0 -450 178 -450 473v453c0 71 36 110 102 110s102 -39 102 -110v-453c0 -183 79 -307 268 -307c188 0 267 124 267 307v453c0 71 36 110 102 110s102 -39 102 -110v-795c0 -70 -36 -109 -102 -109c-53 0 -85 27 -92 77c-3 31 -6 53 -8 86
c-16 -37 -81 -185 -291 -185zM596 1148c-70 5 -85 60 -36 117c20 22 89 98 121 134c34 40 77 55 132 55c85 0 115 -54 56 -114c-33 -33 -106 -105 -139 -138c-39 -37 -78 -58 -134 -54z" />
    <glyph glyph-name="ucircumflex" unicode="&#xfb;" 
d="M590 -22c-294 0 -450 178 -450 473v453c0 71 36 110 102 110s102 -39 102 -110v-453c0 -183 79 -307 268 -307c188 0 267 124 267 307v453c0 71 36 110 102 110s102 -39 102 -110v-795c0 -70 -36 -109 -102 -109c-53 0 -85 27 -92 77c-3 31 -6 53 -8 86
c-16 -37 -81 -185 -291 -185zM367 1147c-52 16 -54 64 -11 111l131 148c39 42 76 58 125 58s86 -16 124 -58l131 -148c43 -47 41 -95 -11 -111c-9 -3 -18 -4 -27 -4c-42 0 -77 27 -111 58l-106 110l-107 -110c-34 -31 -69 -58 -111 -58c-9 0 -18 1 -27 4z" />
    <glyph glyph-name="wcircumflex" unicode="&#x175;" horiz-adv-x="1589" 
d="M93 868c-23 74 3 129 64 143c10 2 20 4 30 4c47 0 83 -29 100 -85l196 -647l198 638c19 62 56 93 113 93c58 0 95 -31 114 -93l197 -638l197 647c17 56 53 85 100 85c10 0 20 -2 30 -4c61 -14 87 -69 64 -143l-259 -779c-20 -60 -60 -89 -124 -89c-68 0 -107 29 -126 91
l-193 621l-192 -621c-19 -62 -59 -91 -126 -91c-64 0 -104 29 -124 89zM550 1148c-52 16 -54 64 -11 111l131 148c38 42 75 58 124 58s86 -16 125 -58l131 -148c43 -47 41 -95 -11 -111c-9 -3 -18 -4 -27 -4c-42 0 -77 27 -111 58l-107 110l-106 -110
c-34 -31 -69 -58 -111 -58c-9 0 -18 1 -27 4z" />
    <glyph glyph-name="ycircumflex" unicode="&#x177;" horiz-adv-x="1124" 
d="M148 1012c13 4 25 6 36 6c51 0 84 -40 103 -88l275 -695l276 695c18 48 51 88 102 88c11 0 23 -2 36 -6c71 -23 77 -92 47 -161l-486 -1154c-46 -109 -105 -224 -271 -228c-37 -1 -56 1 -84 6c-67 11 -111 57 -89 115c19 48 58 55 103 48c14 -2 27 -4 43 -3
c76 3 99 62 134 148l87 214l-359 854c-30 69 -24 138 47 161zM307 1262l130 148c39 42 76 58 125 58s86 -16 125 -58l130 -148c44 -47 42 -96 -10 -111c-10 -3 -19 -4 -28 -4c-42 0 -76 27 -110 57l-107 111l-107 -111c-34 -30 -68 -57 -109 -57c-9 0 -19 1 -29 4
c-51 15 -54 64 -10 111z" />
    <glyph glyph-name="ydieresis" unicode="&#xff;" horiz-adv-x="1124" 
d="M92 -410c20 48 59 55 104 48c13 -2 27 -4 43 -3c75 3 99 62 133 148l88 214l-359 854c-30 69 -24 138 47 161c13 4 25 6 36 6c51 0 84 -40 102 -88l276 -695l276 695c19 48 51 88 102 88c11 0 23 -2 36 -6c71 -23 77 -92 48 -161l-487 -1154
c-47 -109 -106 -224 -272 -228c-36 -1 -56 1 -84 6c-66 11 -110 57 -89 115zM637 1272c0 67 56 121 123 121c66 0 121 -54 121 -121s-55 -120 -121 -120c-67 0 -123 53 -123 120zM365 1393c66 0 121 -54 121 -121s-55 -120 -121 -120c-67 0 -122 53 -122 120s55 121 122 121
z" />
    <glyph glyph-name="uni0233" unicode="&#x233;" horiz-adv-x="1124" 
d="M93 -410c19 48 58 55 103 48c14 -2 27 -4 43 -3c76 3 99 62 134 148l87 214l-359 854c-30 69 -24 138 47 161c13 4 25 6 36 6c51 0 84 -40 103 -88l275 -695l276 695c18 48 51 88 102 88c11 0 23 -2 36 -6c71 -23 77 -92 47 -161l-486 -1154
c-46 -109 -105 -224 -271 -228c-37 -1 -56 1 -84 6c-67 11 -111 57 -89 115zM188 1236c0 54 38 83 109 83h532c71 0 108 -29 108 -83s-37 -84 -108 -84h-532c-71 0 -109 29 -109 84z" />
    <glyph glyph-name="uni024F" unicode="&#x24f;" horiz-adv-x="1226" 
d="M84 555c0 48 33 73 93 73h70l-94 222c-30 69 -24 138 47 161c13 4 25 6 37 6c50 0 83 -40 102 -88l119 -301h312l120 301c18 48 51 88 101 88c12 0 24 -2 37 -6c71 -23 77 -92 47 -161l-93 -222h67c60 0 93 -25 93 -73s-33 -74 -93 -74h-129l-331 -784
c-46 -109 -105 -224 -271 -228c-37 -1 -56 1 -84 6c-67 11 -111 57 -89 115c19 48 58 55 103 48c14 -2 27 -3 43 -3c76 3 99 62 134 148l87 214l-204 484h-131c-60 0 -93 26 -93 74zM712 481h-195l97 -246z" />
    <glyph glyph-name="yacute" unicode="&#xfd;" horiz-adv-x="1124" 
d="M93 -410c19 48 58 55 103 48c14 -2 27 -4 43 -3c76 3 99 62 134 148l87 214l-359 854c-30 69 -24 138 47 161c13 4 25 6 36 6c51 0 84 -40 103 -88l275 -695l276 695c18 48 51 88 102 88c11 0 23 -2 36 -6c71 -23 77 -92 47 -161l-486 -1154
c-46 -109 -105 -224 -271 -228c-37 -1 -56 1 -84 6c-67 11 -111 57 -89 115zM511 1269c20 22 88 98 120 134c34 40 77 55 132 55c85 0 115 -54 56 -115c-33 -32 -106 -104 -139 -137c-38 -37 -77 -58 -134 -54c-69 5 -84 60 -35 117z" />
    <glyph glyph-name="zacute" unicode="&#x17a;" horiz-adv-x="1090" 
d="M188 0c-55 0 -84 26 -84 65c0 30 16 59 48 99l542 684h-462c-71 0 -110 29 -110 83s39 83 110 83h665c55 0 84 -26 84 -65c0 -30 -16 -59 -48 -99l-542 -684h486c71 0 109 -29 109 -83s-38 -83 -109 -83h-689zM528 1148c-70 6 -85 60 -36 117l120 134c35 40 78 55 133 55
c85 0 115 -54 55 -114l-139 -138c-38 -37 -77 -58 -133 -54z" />
    <glyph glyph-name="zdotaccent" unicode="&#x17c;" horiz-adv-x="1090" 
d="M104 65c0 30 16 59 48 99l541 684h-461c-71 0 -110 29 -110 83s39 83 110 83h664c56 0 85 -26 85 -65c0 -30 -17 -59 -49 -99l-541 -684h485c71 0 110 -29 110 -83s-39 -83 -110 -83h-688c-55 0 -84 26 -84 65zM422 1270c0 66 54 120 122 120c66 0 121 -54 121 -120
c0 -68 -55 -122 -121 -122c-68 0 -122 54 -122 122z" />
    <glyph glyph-name="zcaron" unicode="&#x17e;" horiz-adv-x="1090" 
d="M188 0c-55 0 -84 26 -84 65c0 30 16 59 48 99l542 684h-462c-71 0 -110 29 -110 83s39 83 110 83h665c55 0 84 -26 84 -65c0 -30 -16 -59 -48 -99l-542 -684h486c71 0 109 -29 109 -83s-38 -83 -109 -83h-689zM288 1355c-43 46 -41 95 11 110c10 3 19 4 28 4
c42 0 76 -27 110 -57l107 -110l106 110c34 30 68 57 110 57c9 0 18 -1 28 -4c52 -15 54 -64 11 -110l-131 -149c-38 -41 -75 -58 -124 -58s-86 17 -125 58z" />
    <glyph glyph-name="longs" unicode="&#x17f;" horiz-adv-x="751" 
d="M242 0c-66 0 -102 39 -102 110v956c0 300 83 472 352 472c44 0 82 -5 112 -11c73 -11 101 -53 84 -104c-16 -52 -58 -65 -112 -57c-19 4 -40 6 -60 6c-138 0 -172 -77 -172 -307v-955c0 -71 -36 -110 -102 -110z" />
    <glyph glyph-name="florin" unicode="&#x192;" horiz-adv-x="1127" 
d="M1 -532c-76 0 -120 35 -110 93c12 63 55 93 120 93h54c139 0 160 90 173 160l183 1014h-148c-76 0 -115 36 -104 93c12 63 55 93 113 93h172l21 111c18 101 71 329 384 329h69c75 0 118 -34 108 -92c-11 -62 -54 -93 -119 -93h-55c-136 0 -159 -92 -173 -162l-18 -93h151
c76 0 115 -34 104 -93c-13 -61 -56 -93 -113 -93h-174l-186 -1032c-18 -100 -71 -328 -384 -328h-68z" />
    <glyph glyph-name="thorn" unicode="&#xfe;" horiz-adv-x="1306" 
d="M140 -422v1828c0 71 36 110 102 110s102 -39 102 -110v-578c20 32 120 208 345 208c341 0 517 -236 517 -529s-176 -529 -517 -529c-225 0 -325 176 -345 207v-607c0 -71 -36 -110 -102 -110s-102 39 -102 110zM671 870c-213 0 -327 -166 -327 -363s114 -363 327 -363
c212 0 326 166 326 363s-114 363 -326 363z" />
    <glyph glyph-name="uni0238" unicode="&#x238;" horiz-adv-x="2128" 
d="M100 507c0 293 176 529 517 529c230 0 322 -167 345 -208v578c0 71 36 110 102 110s102 -39 102 -110v-578c20 32 120 208 345 208c342 0 518 -236 518 -529s-176 -529 -518 -529c-225 0 -328 176 -347 209c-1 -39 -1 -62 -2 -100c-6 -57 -40 -87 -98 -87
c-57 0 -91 30 -97 85c-1 39 -2 63 -3 102c-20 -33 -123 -209 -347 -209c-341 0 -517 236 -517 529zM1166 507c0 -197 114 -363 327 -363s327 166 327 363s-114 363 -327 363s-327 -166 -327 -363zM636 870c-213 0 -327 -166 -327 -363s114 -363 327 -363
c212 0 326 166 326 363s-114 363 -326 363z" />
    <glyph glyph-name="uni0239" unicode="&#x239;" horiz-adv-x="2128" 
d="M100 507c0 293 176 529 517 529c224 0 327 -176 347 -209c1 42 3 67 6 107c6 52 39 80 94 80s87 -28 94 -79c2 -41 5 -66 6 -108c19 33 122 209 347 209c342 0 518 -236 518 -529s-176 -529 -518 -529c-225 0 -325 176 -345 208v-608c0 -71 -36 -110 -102 -110
s-102 39 -102 110v608c-24 -41 -115 -208 -345 -208c-341 0 -517 236 -517 529zM1493 870c-213 0 -327 -166 -327 -363s114 -363 327 -363s327 166 327 363s-114 363 -327 363zM309 507c0 -197 114 -363 327 -363c212 0 326 166 326 363s-114 363 -326 363
c-213 0 -327 -166 -327 -363z" />
    <glyph glyph-name="Alphatonos" unicode="&#x386;" horiz-adv-x="1464" 
d="M157 0c-69 13 -92 74 -61 146l503 1195c27 67 73 93 134 93c60 0 105 -26 133 -93l502 -1195c30 -72 8 -133 -62 -146c-10 -2 -20 -3 -30 -3c-50 0 -86 29 -110 90l-128 308h-611l-130 -308c-25 -61 -60 -90 -110 -90c-9 0 -19 1 -30 3zM733 1142l-234 -567h467z
M315 1075c-56 5 -81 39 -63 106l48 170c17 60 60 83 121 83c72 0 105 -39 79 -108l-66 -169c-21 -54 -58 -86 -119 -82z" />
    <glyph glyph-name="Epsilontonos" unicode="&#x388;" horiz-adv-x="1379" 
d="M238 110v1214c0 71 39 110 110 110h771c71 0 110 -33 110 -93s-39 -93 -110 -93h-667v-424h620c71 0 110 -33 110 -92s-39 -92 -110 -92h-620v-454h677c71 0 110 -33 110 -93s-39 -93 -110 -93h-781c-71 0 -110 39 -110 110zM-13 1075c-56 5 -81 39 -63 106l48 169
c17 60 60 84 121 84c72 0 105 -39 79 -108l-66 -169c-21 -55 -58 -86 -119 -82z" />
    <glyph glyph-name="Etatonos" unicode="&#x389;" horiz-adv-x="1575" 
d="M243 110v1215c0 71 38 110 107 110s107 -39 107 -110v-499h744v499c0 71 38 110 107 110s107 -39 107 -110v-1215c0 -71 -38 -110 -107 -110s-107 39 -107 110v530h-744v-530c0 -71 -38 -110 -107 -110s-107 39 -107 110zM-13 1076c-57 5 -81 39 -64 106l49 169
c16 60 60 84 121 84c71 0 105 -39 79 -108l-67 -169c-20 -55 -57 -87 -118 -82z" />
    <glyph glyph-name="Iotatonos" unicode="&#x38a;" horiz-adv-x="627" 
d="M350 0c-69 0 -107 39 -107 110v1214c0 71 38 110 107 110s107 -39 107 -110v-1214c0 -71 -38 -110 -107 -110zM-13 1075c-57 5 -81 39 -64 106l49 169c16 60 60 84 121 84c71 0 105 -39 79 -108l-67 -169c-20 -55 -57 -86 -118 -82z" />
    <glyph glyph-name="Omicrontonos" unicode="&#x38c;" horiz-adv-x="1693" 
d="M851 -22c-465 0 -722 329 -722 739c0 409 257 739 722 739s722 -330 722 -739c0 -410 -257 -739 -722 -739zM851 1270c-337 0 -505 -241 -505 -553s168 -553 505 -553s505 241 505 553s-168 553 -505 553zM51 1075c-57 5 -81 39 -64 106l49 169c16 60 60 84 121 84
c71 0 105 -39 79 -108l-67 -169c-20 -55 -57 -87 -118 -82z" />
    <glyph glyph-name="Upsilontonos" unicode="&#x38e;" horiz-adv-x="1499" 
d="M239 1265c-45 65 -31 125 20 156c16 9 33 14 50 14c38 0 76 -24 106 -66l392 -580l392 580c30 42 68 66 106 66c17 0 34 -5 50 -14c51 -31 65 -91 20 -156l-461 -682v-473c0 -71 -38 -110 -107 -110s-107 39 -107 110v473zM-13 1075c-56 5 -80 39 -63 106l49 169
c16 60 59 84 120 84c72 0 105 -39 80 -108l-67 -169c-20 -55 -58 -86 -119 -82z" />
    <glyph glyph-name="Omegatonos" unicode="&#x38f;" horiz-adv-x="1688" 
d="M152 789c0 383 270 669 708 669c437 0 707 -286 707 -669c0 -427 -354 -590 -393 -603h232c71 0 110 -33 110 -93s-39 -93 -110 -93h-370c-71 0 -110 30 -110 84c0 57 26 93 76 126c180 106 348 288 348 569c0 279 -176 493 -490 493c-315 0 -491 -214 -491 -493
c0 -281 168 -463 348 -569c51 -33 76 -69 76 -126c0 -55 -39 -84 -110 -84h-370c-71 0 -110 33 -110 93s39 93 110 93h232c-39 13 -393 176 -393 603zM51 1075c-57 5 -81 39 -64 106l49 169c16 60 60 84 121 84c71 0 105 -39 79 -108l-67 -169c-20 -55 -57 -87 -118 -82z
" />
    <glyph glyph-name="iotadieresistonos" unicode="&#x390;" horiz-adv-x="566" 
d="M140 904c0 71 35 110 102 110c66 0 102 -39 102 -110v-647c0 -54 3 -91 45 -91c43 0 76 -25 76 -79s-43 -87 -103 -87c-197 0 -222 139 -222 262v642zM242 1426c-58 4 -84 43 -65 109l47 161c18 61 59 89 122 89h6c74 0 107 -45 79 -114l-65 -162
c-23 -58 -63 -87 -124 -83zM44 1142c-66 0 -121 54 -121 121s55 121 121 121c67 0 122 -54 122 -121s-55 -121 -122 -121zM317 1263c0 67 55 121 121 121c67 0 122 -54 122 -121s-55 -121 -122 -121c-66 0 -121 54 -121 121z" />
    <glyph glyph-name="Alpha" unicode="&#x391;" horiz-adv-x="1464" 
d="M96 146l503 1195c27 67 73 93 134 93c60 0 105 -26 133 -93l502 -1195c30 -72 8 -133 -62 -146c-10 -2 -20 -3 -30 -3c-50 0 -86 29 -110 90l-128 308h-611l-130 -308c-25 -61 -60 -90 -110 -90c-9 0 -19 1 -30 3c-69 13 -92 74 -61 146zM499 575h467l-233 567z" />
    <glyph glyph-name="Beta" unicode="&#x392;" horiz-adv-x="1442" 
d="M270 0c-71 0 -110 39 -110 109v1215c0 71 39 110 110 110h496c400 0 500 -198 500 -384c0 -140 -80 -256 -203 -295c178 -53 259 -183 259 -340c0 -201 -130 -415 -537 -415h-515zM374 653v-468h411c244 0 318 112 318 236c0 127 -79 232 -251 232h-478zM374 832h475
c132 0 199 88 199 206c0 114 -47 210 -282 210h-392v-416z" />
    <glyph glyph-name="Gamma" unicode="&#x393;" horiz-adv-x="1255" 
d="M267 0c-69 0 -107 38 -107 109v1215c0 71 39 110 110 110h793c71 0 110 -33 110 -93s-39 -93 -110 -93h-689v-1139c0 -71 -38 -109 -107 -109z" />
    <glyph glyph-name="uni0394" unicode="&#x394;" horiz-adv-x="1474" 
d="M179 0c-82 0 -117 51 -85 128l509 1213c28 67 74 93 134 93s106 -26 134 -93l509 -1213c32 -77 -3 -128 -85 -128h-1116zM343 186h787l-393 956z" />
    <glyph glyph-name="Epsilon" unicode="&#x395;" horiz-adv-x="1301" 
d="M160 110v1214c0 71 39 110 110 110h771c71 0 110 -33 110 -93s-39 -93 -110 -93h-667v-424h620c71 0 110 -33 110 -92s-39 -92 -110 -92h-620v-454h677c71 0 110 -33 110 -93s-39 -93 -110 -93h-781c-71 0 -110 39 -110 110z" />
    <glyph glyph-name="Zeta" unicode="&#x396;" horiz-adv-x="1391" 
d="M140 78c0 33 16 72 45 112l762 1058h-684c-71 0 -109 33 -109 93s38 93 109 93h877c73 0 106 -32 106 -78c0 -33 -16 -72 -45 -112l-763 -1058h704c71 0 109 -33 109 -93s-38 -93 -109 -93h-896c-74 0 -106 32 -106 78z" />
    </font>
</defs>
</svg>
