<?xml version="1.0" encoding="utf-8"?>
<!-- Generator: Adobe Illustrator 24.3.0, SVG Export Plug-In . SVG Version: 6.00 Build 0)  -->
<svg version="1.1" id="Слой_1" xmlns="http://www.w3.org/2000/svg" xmlns:xlink="http://www.w3.org/1999/xlink" x="0px" y="0px"
	 viewBox="0 0 66 66" style="enable-background:new 0 0 66 66;" xml:space="preserve">
<style type="text/css">
	.st0{fill:#CEE1F2;}
	.st1{fill:#3A3535;}
	.st2{fill:url(#SVGID_1_);}
</style>
<path class="st0" d="M29.9,63.3C14.6,61.7,2.6,48.8,2.6,33C2.6,16.2,16.2,2.6,33,2.6c1.3,0,2.6,0.1,3.9,0.2
	C21.9,4.7,10.3,17.5,10.3,33c0,13.2,8.4,24.4,20.1,28.6C30.2,62.2,30.1,62.7,29.9,63.3z"/>
<path class="st1" d="M55.7,33c0,1.4-1.2,2.6-2.6,2.6H24.4c0.3,6.6,1.9,12.4,3.2,16.4c0.4,1.4-0.3,2.8-1.7,3.2
	c-0.3,0.1-0.5,0.1-0.8,0.1c-1.1,0-2.1-0.7-2.5-1.8c-1.3-4.3-3.1-10.6-3.4-17.9h-6.4c-1.4,0-2.6-1.2-2.6-2.6s1.2-2.6,2.6-2.6h6.4
	c0.4-7.2,2.1-13.4,3.4-17.7c0.4-1.4,1.9-2.1,3.2-1.7c1.4,0.4,2.1,1.9,1.7,3.2c-1.2,3.9-2.8,9.7-3.2,16.1h17.2
	c-0.4-6.5-1.9-12.2-3.2-16.1c-0.4-1.4,0.3-2.8,1.7-3.2c1.4-0.4,2.8,0.3,3.2,1.7c1.3,4.3,3.1,10.5,3.4,17.7h6.3
	C54.5,30.4,55.7,31.6,55.7,33z M56.3,9.7C50.1,3.4,41.8,0,33,0S15.9,3.4,9.7,9.7C3.4,15.9,0,24.2,0,33s3.4,17.1,9.7,23.3
	C15.9,62.6,24.2,66,33,66c1.3,0,2.5-0.1,3.8-0.2c1.4-0.2,2.4-1.4,2.3-2.9c-0.2-1.4-1.4-2.4-2.9-2.3c-1.1,0.1-2.1,0.2-3.2,0.2
	C17.6,60.8,5.2,48.4,5.2,33S17.6,5.2,33,5.2S60.8,17.6,60.8,33c0,1-0.1,2-0.2,3c-0.1,1.4,0.9,2.7,2.3,2.8c1.4,0.1,2.7-0.9,2.8-2.3
	c0.1-1.2,0.2-2.3,0.2-3.5C66,24.2,62.6,15.9,56.3,9.7z"/>
<linearGradient id="SVGID_1_" gradientUnits="userSpaceOnUse" x1="53.4317" y1="26.2656" x2="53.4317" y2="1" gradientTransform="matrix(1 0 0 -1 0 67)">
	<stop  offset="0" style="stop-color:#FF4E50"/>
	<stop  offset="1" style="stop-color:#F9D423"/>
</linearGradient>
<path class="st2" d="M43.4,58.3c-1.4,0-2.6-1.2-2.6-2.6v-7.2c0-4.3,3.5-7.7,7.7-7.7h7.3c1.4,0,2.6,1.2,2.6,2.6s-1.2,2.6-2.6,2.6
	h-7.3c-1.4,0-2.6,1.2-2.6,2.6v7.2C46,57.1,44.9,58.3,43.4,58.3z M65.2,65.2c1-1,1-2.6,0-3.6L54.2,50.5c-1-1-2.6-1-3.6,0
	c-1,1-1,2.6,0,3.6l11.1,11.1c0.5,0.5,1.2,0.8,1.8,0.8C64.1,66,64.7,65.7,65.2,65.2z"/>
</svg>
