<?xml version="1.0" encoding="utf-8"?>
<!-- Generator: Adobe Illustrator 24.3.0, SVG Export Plug-In . SVG Version: 6.00 Build 0)  -->
<svg version="1.1" id="Слой_1" xmlns="http://www.w3.org/2000/svg" xmlns:xlink="http://www.w3.org/1999/xlink" x="0px" y="0px"
	 viewBox="0 0 66 66" style="enable-background:new 0 0 66 66;" xml:space="preserve">
<style type="text/css">
	.st0{fill:#CEE1F2;}
	.st1{fill:#3A3535;}
	.st2{fill:url(#SVGID_1_);}
</style>
<path class="st0" d="M10.3,33c0-15.8,11.4-28.3,26.6-30.2c-1.3-0.2-2.6-0.2-3.9-0.2C15.9,2.6,2.6,15.9,2.6,33S15.9,63.4,33,63.4
	c1.3,0,2.6-0.1,3.9-0.2C21.7,61.3,10.3,48.8,10.3,33z"/>
<path class="st1" d="M33,15c1.4,0,2.6-1.2,2.6-2.6S34.4,9.8,33,9.8s-2.6,1.2-2.6,2.6S31.6,15,33,15z"/>
<path class="st1" d="M33,56.2c1.4,0,2.6-1.2,2.6-2.6S34.4,51,33,51s-2.6,1.2-2.6,2.6S31.6,56.2,33,56.2z"/>
<path class="st1" d="M12.9,35.6c1.4,0,2.6-1.2,2.6-2.6s-1.2-2.6-2.6-2.6c-1.4,0-2.6,1.2-2.6,2.6S11.5,35.6,12.9,35.6z"/>
<path class="st1" d="M53.1,35.6c1.4,0,2.6-1.2,2.6-2.6s-1.2-2.6-2.6-2.6c-1.4,0-2.6,1.2-2.6,2.6S51.7,35.6,53.1,35.6z"/>
<path class="st1" d="M18.4,50.2c1.4,0,2.6-1.2,2.6-2.6c0-1.4-1.2-2.6-2.6-2.6c-1.4,0-2.6,1.2-2.6,2.6C15.8,49,17,50.2,18.4,50.2z"/>
<path class="st1" d="M47.6,21c1.4,0,2.6-1.2,2.6-2.6c0-1.4-1.2-2.6-2.6-2.6c-1.4,0-2.6,1.2-2.6,2.6C45,19.8,46.2,21,47.6,21z"/>
<path class="st1" d="M47.6,50.2c1.4,0,2.6-1.2,2.6-2.6c0-1.4-1.2-2.6-2.6-2.6c-1.4,0-2.6,1.2-2.6,2.6C45,49,46.2,50.2,47.6,50.2z"/>
<path class="st1" d="M18.4,21c1.4,0,2.6-1.2,2.6-2.6c0-1.4-1.2-2.6-2.6-2.6c-1.4,0-2.6,1.2-2.6,2.6C15.8,19.8,17,21,18.4,21z"/>
<path class="st1" d="M33,0C14.5,0,0,14.5,0,33c0,18.5,14.5,33,33,33s33-14.5,33-33C66,14.5,51.5,0,33,0z M33,60.8
	C17.4,60.8,5.2,48.6,5.2,33S17.4,5.2,33,5.2S60.8,17.4,60.8,33S48.6,60.8,33,60.8z"/>
<linearGradient id="SVGID_1_" gradientUnits="userSpaceOnUse" x1="36.8672" y1="46.8906" x2="36.8672" y2="23.6875" gradientTransform="matrix(1 0 0 -1 0 67)">
	<stop  offset="0" style="stop-color:#FF4E50"/>
	<stop  offset="1" style="stop-color:#F9D423"/>
</linearGradient>
<path class="st2" d="M33,20.1c-1.4,0-2.6,1.2-2.6,2.6v8.2c0,2.1,0.8,4,2.3,5.5l6.2,6.2c0.5,0.5,1.2,0.8,1.8,0.8
	c0.7,0,1.3-0.3,1.8-0.8c1-1,1-2.6,0-3.6l-6.2-6.2c-0.5-0.5-0.8-1.1-0.8-1.8v-8.2C35.6,21.3,34.4,20.1,33,20.1z"/>
</svg>
