<?xml version="1.0" encoding="utf-8"?>
<!-- Generator: Adobe Illustrator 24.3.0, SVG Export Plug-In . SVG Version: 6.00 Build 0)  -->
<svg version="1.1" id="Слой_1" xmlns="http://www.w3.org/2000/svg" xmlns:xlink="http://www.w3.org/1999/xlink" x="0px" y="0px"
	 viewBox="0 0 58 66" style="enable-background:new 0 0 58 66;" xml:space="preserve">
<style type="text/css">
	.st0{fill:#CEE1F2;}
	.st1{fill:#3A3535;}
	.st2{fill:url(#SVGID_1_);}
</style>
<path class="st0" d="M11,58.3c0-2.8,2.3-5.2,5.2-5.2H8.4c-2.8,0-5.2,2.3-5.2,5.2c0,2.8,2.3,5.2,5.2,5.2h7.7
	C13.3,63.4,11,61.1,11,58.3z"/>
<path class="st1" d="M8.4,66h41.2c4.3,0,7.7-3.5,7.7-7.7V37.6c0-4.3-3.5-7.7-7.7-7.7H39.3c-4.3,0-7.7,3.5-7.7,7.7v2.6h-7.7
	c-4.3,0-7.7,3.5-7.7,7.7v2.6H8.4c-4.3,0-7.7,3.5-7.7,7.7C0.6,62.5,4.1,66,8.4,66z M8.4,55.7h10.3c1.4,0,2.6-1.2,2.6-2.6V48
	c0-1.4,1.2-2.6,2.6-2.6h10.3c1.4,0,2.6-1.2,2.6-2.6v-5.2c0-1.4,1.2-2.6,2.6-2.6h10.3c1.4,0,2.6,1.2,2.6,2.6v20.6
	c0,1.4-1.2,2.6-2.6,2.6H8.4c-1.4,0-2.6-1.2-2.6-2.6C5.8,56.8,7,55.7,8.4,55.7z"/>
<path class="st1" d="M44.5,25.8c1.4,0,2.6-1.2,2.6-2.6V2.6C47,1.2,45.9,0,44.5,0c-1.4,0-2.6,1.2-2.6,2.6v20.6
	C41.9,24.6,43,25.8,44.5,25.8z"/>
<linearGradient id="SVGID_1_" gradientUnits="userSpaceOnUse" x1="29.0003" y1="63.7329" x2="29.0003" y2="46.3752" gradientTransform="matrix(1 0 0 -1 0 67)">
	<stop  offset="0" style="stop-color:#FF4E50"/>
	<stop  offset="1" style="stop-color:#F9D423"/>
</linearGradient>
<path class="st2" d="M29,20.6h5.2c1.4,0,2.6-1.2,2.6-2.6c0-1.4-1.2-2.6-2.6-2.6H29c-1.4,0-2.6-1.2-2.6-2.6c0-1.1,0.7-2.1,1.8-2.5
	l6.7-2.1c1.4-0.4,2.1-1.9,1.7-3.2c-0.4-1.4-1.9-2.1-3.2-1.7l-6.7,2.1c-3.2,1-5.4,4-5.4,7.4C21.3,17.2,24.7,20.6,29,20.6z"/>
</svg>
