<?xml version="1.0" encoding="utf-8"?>
<!-- Generator: Adobe Illustrator 24.3.0, SVG Export Plug-In . SVG Version: 6.00 Build 0)  -->
<svg version="1.1" id="Слой_1" xmlns="http://www.w3.org/2000/svg" xmlns:xlink="http://www.w3.org/1999/xlink" x="0px" y="0px"
	 viewBox="0 0 66 66" style="enable-background:new 0 0 66 66;" xml:space="preserve">
<style type="text/css">
	.st0{fill:#CEE1F2;}
	.st1{fill:#3A3535;}
	.st2{fill:url(#SVGID_1_);}
</style>
<path class="st0" d="M21.5,53.9h-6.1c-2.8,0-5.2-2.3-5.2-5.2c0-2.8,2.3-5.2,5.2-5.2h7.7c-2.8,0-5.2,2.3-5.2,5.2
	c0,2.2,1.4,4.1,3.4,4.9C21.5,53.7,21.5,53.8,21.5,53.9C21.5,53.9,21.5,53.9,21.5,53.9z M18.1,23.2c-0.5,1.1-2,1.4-3,0.5L11.4,20
	c-1.4-1.4-1.4-3.7,0-5.1l3.7-3.7c1-1,2.7-0.5,3.1,0.7H20V6.6C20,3,15.6,1.2,13,3.8l-8.1,8.1c-3.1,3.1-3.1,8.1,0,11.2L13,31
	c2.6,2.5,6.9,0.7,6.9-2.9v-5H18.1z"/>
<path class="st1" d="M50.2,66c-0.9,0-1.7-0.2-2.5-0.5c-2.5-1-4.1-3.4-4.1-6.1v-5.5c0-1.4,1.2-2.6,2.6-2.6s2.6,1.2,2.6,2.6v5.5
	c0,0.9,0.6,1.3,0.9,1.4c0.3,0.1,0.9,0.3,1.5-0.3l8.1-8.1c1-1,1.6-2.3,1.6-3.8c0-1.4-0.6-2.8-1.6-3.8l-8.1-8.1
	c-0.6-0.6-1.3-0.4-1.5-0.3c-0.3,0.1-0.9,0.5-0.9,1.4v5.7c0,1.4-1.2,2.6-2.6,2.6H15.5c-1.4,0-2.6,1.2-2.6,2.6s1.2,2.6,2.6,2.6h4.1
	c1.4,0,2.6,1.2,2.6,2.6c0,1.4-1.2,2.6-2.6,2.6h-4.1c-4.3,0-7.7-3.5-7.7-7.7c0-4.3,3.5-7.7,7.7-7.7h28.1v-3.2c0-2.7,1.6-5.1,4.1-6.1
	c2.5-1,5.2-0.5,7.1,1.4l8.1,8.1c2,2,3.1,4.6,3.1,7.4c0,2.8-1.1,5.4-3.1,7.4l-8.1,8.1C53.5,65.3,51.9,66,50.2,66z M18.5,34.3
	c2.5-1.1,4.1-3.4,4.1-6.1v-2.9h28c4.3,0,7.7-3.5,7.7-7.7c0-4.3-3.5-7.7-7.7-7.7h-28V6.6c0-2.7-1.6-5.1-4.1-6.1
	c-2.5-1-5.3-0.5-7.2,1.4L3.1,10c-2,2-3.1,4.6-3.1,7.4c0,2.8,1.1,5.4,3.1,7.4l8.1,8.1c1.3,1.3,2.9,1.9,4.7,1.9
	C16.8,34.8,17.6,34.6,18.5,34.3z M16.5,5.3c0.3,0.1,0.9,0.5,0.9,1.4v5.7c0,1.4,1.2,2.6,2.6,2.6h30.5c1.4,0,2.6,1.2,2.6,2.6
	c0,1.4-1.2,2.6-2.6,2.6H20c-1.4,0-2.6,1.2-2.6,2.6v5.5c0,0.9-0.6,1.2-0.9,1.4c-0.3,0.1-1,0.3-1.6-0.3l-8.1-8.1c-1-1-1.6-2.3-1.6-3.8
	s0.6-2.8,1.6-3.8l8.1-8.1c0.3-0.3,0.7-0.4,1-0.4C16.1,5.2,16.4,5.2,16.5,5.3z M4.9,11.8L4.9,11.8L4.9,11.8z"/>
<linearGradient id="SVGID_1_" gradientUnits="userSpaceOnUse" x1="32.8708" y1="15.7021" x2="32.8708" y2="10.5461" gradientTransform="matrix(1 0 0 -1 0 67)">
	<stop  offset="0" style="stop-color:#FF4E50"/>
	<stop  offset="1" style="stop-color:#F9D423"/>
</linearGradient>
<path class="st2" d="M36.4,56.5h-7c-1.4,0-2.6-1.2-2.6-2.6c0-1.4,1.2-2.6,2.6-2.6h7c1.4,0,2.6,1.2,2.6,2.6
	C38.9,55.3,37.8,56.5,36.4,56.5z"/>
</svg>
