<?xml version="1.0" encoding="utf-8"?>
<!-- Generator: Adobe Illustrator 24.3.0, SVG Export Plug-In . SVG Version: 6.00 Build 0)  -->
<svg version="1.1" id="Слой_1" xmlns="http://www.w3.org/2000/svg" xmlns:xlink="http://www.w3.org/1999/xlink" x="0px" y="0px"
	 viewBox="0 0 66 66" style="enable-background:new 0 0 66 66;" xml:space="preserve">
<style type="text/css">
	.st0{fill:#E7E7E7;}
	.st1{fill:#3A3535;}
	.st2{fill:url(#SVGID_1_);}
</style>
<path class="st0" d="M17.3,16.5H9.5c-3.8,0-7-3.1-7-7c0-3.8,3.1-7,7-7h7.7c-3.8,0-7,3.1-7,7C10.3,13.4,13.4,16.5,17.3,16.5z
	 M10.3,33c0-3.8,3.1-7,7-7H9.5c-3.8,0-7,3.1-7,7c0,3.8,3.1,7,7,7h7.7C13.4,40,10.3,36.8,10.3,33z M10.3,56.5c0-3.8,3.1-7,7-7H9.5
	c-3.8,0-7,3.1-7,7c0,3.8,3.1,7,7,7h7.7C13.4,63.4,10.3,60.3,10.3,56.5z"/>
<path class="st1" d="M20.3,19.1H9.5C4.3,19.1,0,14.8,0,9.5C0,4.3,4.3,0,9.5,0h10.8c1.4,0,2.6,1.2,2.6,2.6c0,1.4-1.2,2.6-2.6,2.6H9.5
	c-2.4,0-4.4,2-4.4,4.4c0,2.4,2,4.4,4.4,4.4h10.7c1.4,0,2.6,1.2,2.6,2.6S21.7,19.1,20.3,19.1z M66,9.5C66,4.3,61.7,0,56.5,0H30.7
	c-1.4,0-2.6,1.2-2.6,2.6c0,1.4,1.2,2.6,2.6,2.6h25.8c2.4,0,4.4,2,4.4,4.4c0,2.4-2,4.4-4.4,4.4H30.6c-1.4,0-2.6,1.2-2.6,2.6
	s1.2,2.6,2.6,2.6h25.9C61.7,19.1,66,14.8,66,9.5z M45,40c0-1.4-1.2-2.6-2.6-2.6H9.5c-2.4,0-4.4-2-4.4-4.4c0-2.4,2-4.4,4.4-4.4h32.9
	c1.4,0,2.6-1.2,2.6-2.6c0-1.4-1.2-2.6-2.6-2.6H9.5C4.3,23.5,0,27.7,0,33s4.3,9.5,9.5,9.5h32.9C43.8,42.5,45,41.4,45,40z M65.9,56.5
	c0-5.3-4.3-9.5-9.5-9.5H37c-1.4,0-2.6,1.2-2.6,2.6s1.2,2.6,2.6,2.6h19.3c2.4,0,4.4,2,4.4,4.4c0,2.4-2,4.4-4.4,4.4H37
	c-1.4,0-2.6,1.2-2.6,2.6c0,1.4,1.2,2.6,2.6,2.6h19.3C61.6,66,65.9,61.7,65.9,56.5z M29.3,63.4c0-1.4-1.2-2.6-2.6-2.6H9.5
	c-2.4,0-4.4-2-4.4-4.4c0-2.4,2-4.4,4.4-4.4h17.1c1.4,0,2.6-1.2,2.6-2.6s-1.2-2.6-2.6-2.6H9.5c-5.3,0-9.5,4.3-9.5,9.5S4.3,66,9.5,66
	h17.1C28.1,66,29.3,64.8,29.3,63.4z"/>
<linearGradient id="SVGID_1_" gradientUnits="userSpaceOnUse" x1="58.0078" y1="43.3265" x2="58.0078" y2="24.2483" gradientTransform="matrix(1 0 0 -1 0 66.7875)">
	<stop  offset="0" style="stop-color:#FF4E50"/>
	<stop  offset="1" style="stop-color:#F9D423"/>
</linearGradient>
<path class="st2" d="M56.3,42.5h-3.6c-1.4,0-2.6-1.2-2.6-2.6s1.2-2.6,2.6-2.6h3.6c2.4,0,4.4-2,4.4-4.4c0-2.4-2-4.4-4.4-4.4h-3.6
	c-1.4,0-2.6-1.2-2.6-2.6c0-1.4,1.2-2.6,2.6-2.6h3.6c5.3,0,9.5,4.3,9.5,9.5S61.6,42.5,56.3,42.5z"/>
</svg>
