<?xml version="1.0" encoding="utf-8"?>
<!-- Generator: Adobe Illustrator 24.3.0, SVG Export Plug-In . SVG Version: 6.00 Build 0)  -->
<svg version="1.1" id="Слой_1" xmlns="http://www.w3.org/2000/svg" xmlns:xlink="http://www.w3.org/1999/xlink" x="0px" y="0px"
	 viewBox="0 0 66 66" style="enable-background:new 0 0 66 66;" xml:space="preserve">
<style type="text/css">
	.st0{fill:#E7E7E7;}
	.st1{fill:#3A3535;}
	.st2{fill:url(#SVGID_1_);}
</style>
<path class="st0" d="M15,60.4c0-10.9-4.6-16.6-4.6-16.6V33c0-3.8,2.4-7.1,5.8-8.3c-1-0.3-2-0.5-3-0.5h-1.6c-4.9,0-8.8,4-8.8,8.8
	v10.9c0,0,4.6,5.7,4.6,16.6c0,1.7,1.6,3,3.3,3H14c0.8,0,1.5-0.3,2.1-0.7C15.4,62.1,15,61.3,15,60.4z"/>
<path class="st1" d="M14,66h-3.5c-3.2,0-5.8-2.6-5.9-5.8c-0.1-9.4-3.9-14.5-4.1-14.7C0.2,45,0,44.4,0,43.8V33
	c0-6.3,5.1-11.4,11.4-11.4h22.1c1.4,0,2.6,1.2,2.6,2.6c0,1.4-1.2,2.6-2.6,2.6H11.4c-3.5,0-6.3,2.8-6.3,6.3v10
	c1.4,2,4.6,7.9,4.6,17.2c0,0.4,0.3,0.7,0.7,0.7H14c0.4,0,0.7-0.3,0.7-0.7C14.7,50.9,18,45,19.3,43v-8.6c0-1.4,1.2-2.6,2.6-2.6
	c1.4,0,2.6,1.2,2.6,2.6v9.4c0,0.6-0.2,1.2-0.6,1.6c-0.2,0.2-4,5.3-4.1,14.7C19.8,63.4,17.2,66,14,66z M20.9,8.8
	C20.9,3.9,17,0,12.1,0C7.3,0,3.4,3.9,3.4,8.8c0,4.8,3.9,8.8,8.8,8.8C17,17.5,20.9,13.6,20.9,8.8z M15.7,8.8c0,2-1.6,3.6-3.6,3.6
	s-3.6-1.6-3.6-3.6s1.6-3.6,3.6-3.6S15.7,6.8,15.7,8.8z M66,36.4V15.5C66,6.9,59.1,0,50.5,0h-4.1C42.5,0,38.8,1.4,36,4
	c-2.8,2.6-4.6,6.1-5,9.9c-0.1,1.4,0.9,2.7,2.3,2.8c1.4,0.1,2.7-0.9,2.8-2.3c0.5-5.3,4.9-9.3,10.3-9.3h4.1c5.7,0,10.3,4.6,10.3,10.3
	v20.9c0,5.7-4.6,10.3-10.3,10.3h-4.1c-5.7,0-10.3-4.6-10.3-10.3v-1.9c0-1.4-1.2-2.6-2.6-2.6c-1.4,0-2.6,1.2-2.6,2.6v1.9
	c0,8.5,6.9,15.5,15.5,15.5h4.1C59.1,51.8,66,44.9,66,36.4z"/>
<linearGradient id="SVGID_1_" gradientUnits="userSpaceOnUse" x1="48.5332" y1="50.4163" x2="48.5332" y2="0.7874" gradientTransform="matrix(1 0 0 -1 0 66.7875)">
	<stop  offset="0" style="stop-color:#FF4E50"/>
	<stop  offset="1" style="stop-color:#F9D423"/>
</linearGradient>
<path class="st2" d="M40.6,18.9c0-1.4,1.2-2.6,2.6-2.6h10.6c1.4,0,2.6,1.2,2.6,2.6s-1.2,2.6-2.6,2.6H43.2
	C41.8,21.5,40.6,20.4,40.6,18.9z M43.2,31.8h5.4c1.4,0,2.6-1.2,2.6-2.6s-1.2-2.6-2.6-2.6h-5.4c-1.4,0-2.6,1.2-2.6,2.6
	S41.8,31.8,43.2,31.8z M60.1,60.8h-9.2v-2.6c0-1.4-1.2-2.6-2.6-2.6c-1.4,0-2.6,1.2-2.6,2.6v2.6H37c-1.4,0-2.6,1.2-2.6,2.6
	c0,1.4,1.2,2.6,2.6,2.6h23.1c1.4,0,2.6-1.2,2.6-2.6C62.6,62,61.5,60.8,60.1,60.8z"/>
</svg>
