<?xml version="1.0" encoding="utf-8"?>
<!-- Generator: Adobe Illustrator 24.3.0, SVG Export Plug-In . SVG Version: 6.00 Build 0)  -->
<svg version="1.1" id="Слой_1" xmlns="http://www.w3.org/2000/svg" xmlns:xlink="http://www.w3.org/1999/xlink" x="0px" y="0px"
	 viewBox="0 0 66 66" style="enable-background:new 0 0 66 66;" xml:space="preserve">
<style type="text/css">
	.st0{fill:#E7E7E7;}
	.st1{fill:#3A3535;}
	.st2{fill:url(#SVGID_1_);}
</style>
<path class="st0" d="M60.5,14.8c-1.1,0.7-2.4,1.1-3.7,1.1C53,16,50,13,50,9.3c0-3.7,3-6.7,6.7-6.7c1.4,0,2.7,0.4,3.7,1.1
	c-1.8,1.2-3,3.2-3,5.6C57.5,11.6,58.7,13.6,60.5,14.8z M57.5,32.6c0-2.3,1.2-4.4,3-5.6c-1.1-0.7-2.4-1.1-3.7-1.1
	c-3.7,0-6.7,3-6.7,6.7c0,3.7,3,6.7,6.7,6.7c1.4,0,2.7-0.4,3.7-1.1C58.7,37,57.5,34.9,57.5,32.6z M57.5,56.7c0-2.3,1.2-4.4,3-5.6
	c-1.1-0.7-2.4-1.1-3.7-1.1C53,50,50,53,50,56.7c0,3.7,3,6.7,6.7,6.7c1.4,0,2.7-0.4,3.7-1.1C58.7,61.1,57.5,59,57.5,56.7z M15,60.4
	c0-10.9-4.6-16.6-4.6-16.6V33c0-3.8,2.4-7.1,5.8-8.3c-1-0.3-2-0.5-3-0.5h-1.6c-4.9,0-8.8,4-8.8,8.8v10.9c0,0,4.6,5.7,4.6,16.6
	c0,1.7,1.6,3,3.3,3H14c0.8,0,1.5-0.3,2.1-0.7C15.4,62.1,15,61.3,15,60.4z"/>
<path class="st1" d="M56.7,42c-5.1,0-9.3-4.2-9.3-9.3s4.2-9.3,9.3-9.3c5.1,0,9.3,4.2,9.3,9.3S61.8,42,56.7,42z M56.7,28.6
	c-2.3,0-4.1,1.9-4.1,4.1c0,2.3,1.9,4.1,4.1,4.1c2.3,0,4.1-1.9,4.1-4.1C60.8,30.5,59,28.6,56.7,28.6z M56.7,18.6
	c-5.1,0-9.3-4.2-9.3-9.3c0-5.1,4.2-9.3,9.3-9.3C61.8,0,66,4.2,66,9.3C66,14.4,61.8,18.6,56.7,18.6z M56.7,5.2
	c-2.3,0-4.1,1.9-4.1,4.1s1.9,4.1,4.1,4.1c2.3,0,4.1-1.9,4.1-4.1S59,5.2,56.7,5.2z M14,66h-3.5c-3.2,0-5.9-2.5-5.9-5.6
	c0-9.7-4-14.9-4.1-14.9C0.2,45,0,44.4,0,43.8V33c0-6.3,5.1-11.4,11.4-11.4h1.6c6.3,0,11.4,5.1,11.4,11.4v10.9c0,0.6-0.2,1.2-0.6,1.6
	c-0.2,0.2-4.1,5.4-4.1,14.9C19.8,63.5,17.2,66,14,66z M5.2,43c1.4,2.1,4.6,8,4.6,17.4c0,0.2,0.3,0.4,0.7,0.4H14
	c0.4,0,0.7-0.3,0.7-0.4c0-9.4,3.3-15.3,4.6-17.4V33c0-3.5-2.8-6.3-6.3-6.3h-1.6c-3.5,0-6.3,2.8-6.3,6.3V43z M21.9,43.8L21.9,43.8
	L21.9,43.8z M12.1,17.5c-4.8,0-8.8-3.9-8.8-8.8C3.4,3.9,7.3,0,12.1,0c4.8,0,8.8,3.9,8.8,8.8C20.9,13.6,17,17.5,12.1,17.5z M12.1,5.2
	c-2,0-3.6,1.6-3.6,3.6s1.6,3.6,3.6,3.6s3.6-1.6,3.6-3.6S14.1,5.2,12.1,5.2z M56.7,66c-5.1,0-9.3-4.2-9.3-9.3c0-5.1,4.2-9.3,9.3-9.3
	c5.1,0,9.3,4.2,9.3,9.3C66,61.8,61.8,66,56.7,66z M56.7,52.6c-2.3,0-4.1,1.9-4.1,4.1c0,2.3,1.9,4.1,4.1,4.1c2.3,0,4.1-1.9,4.1-4.1
	C60.8,54.4,59,52.6,56.7,52.6z"/>
<linearGradient id="SVGID_1_" gradientUnits="userSpaceOnUse" x1="36.4434" y1="60.3421" x2="36.4434" y2="7.3616" gradientTransform="matrix(1 0 0 -1 0 66.7875)">
	<stop  offset="0" style="stop-color:#FF4E50"/>
	<stop  offset="1" style="stop-color:#F9D423"/>
</linearGradient>
<path class="st2" d="M40.3,54.3c-2.9,0-5.2-2.3-5.2-5.2V35.3h5c1.4,0,2.6-1.2,2.6-2.6s-1.2-2.6-2.6-2.6h-5V16.8
	c0-2.9,2.3-5.2,5.2-5.2c1.4,0,2.6-1.2,2.6-2.6c0-1.4-1.2-2.6-2.6-2.6C34.6,6.4,30,11.1,30,16.8V49c0,5.7,4.7,10.4,10.4,10.4
	c1.4,0,2.6-1.2,2.6-2.6C42.9,55.4,41.8,54.3,40.3,54.3z"/>
</svg>
