<?xml version="1.0" encoding="utf-8"?>
<!-- Generator: Adobe Illustrator 24.3.0, SVG Export Plug-In . SVG Version: 6.00 Build 0)  -->
<svg version="1.1" id="Слой_1" xmlns="http://www.w3.org/2000/svg" xmlns:xlink="http://www.w3.org/1999/xlink" x="0px" y="0px"
	 viewBox="0 0 66 64" style="enable-background:new 0 0 66 64;" xml:space="preserve">
<style type="text/css">
	.st0{fill:#E7E7E7;}
	.st1{fill:#3A3535;}
	.st2{fill:url(#SVGID_1_);}
</style>
<path class="st0" d="M10.6,37.4V16.3c0-7.1,5.8-12.9,12.9-12.9h-7.8C8.5,3.4,2.7,9.2,2.7,16.3v21.1c0,7.1,5.8,12.9,12.9,12.9h7.8
	C16.3,50.3,10.6,44.5,10.6,37.4z"/>
<path class="st1" d="M50.5,52.9H15.5C6.9,52.9,0,45.9,0,37.4V16.3C0,7.7,6.9,0.8,15.5,0.8h35.1C59.1,0.8,66,7.7,66,16.3v21.1
	C66,45.9,59.1,52.9,50.5,52.9z M15.5,6C9.8,6,5.2,10.6,5.2,16.3v21.1c0,5.7,4.6,10.3,10.3,10.3h35.1c5.7,0,10.3-4.6,10.3-10.3V16.3
	C60.8,10.6,56.2,6,50.5,6H15.5z M48,60.6c0-1.4-1.2-2.6-2.6-2.6H20.6c-1.4,0-2.6,1.2-2.6,2.6s1.2,2.6,2.6,2.6h24.8
	C46.8,63.2,48,62,48,60.6z"/>
<linearGradient id="SVGID_1_" gradientUnits="userSpaceOnUse" x1="33.1288" y1="53.0257" x2="33.1288" y2="22.0882" gradientTransform="matrix(1 0 0 -1 0 64.7875)">
	<stop  offset="0" style="stop-color:#FF4E50"/>
	<stop  offset="1" style="stop-color:#F9D423"/>
</linearGradient>
<path class="st2" d="M45.4,31.6l-1.7-1c0.3-1.1,0.5-2.2,0.5-3.3c0-1.2-0.2-2.3-0.5-3.3l1.7-1c1.2-0.7,1.6-2.3,0.9-3.5
	c-0.7-1.2-2.3-1.6-3.5-0.9l-1.7,1c-1.4-1.4-3.2-2.4-5.2-2.9v-2.2c0-1.4-1.2-2.6-2.6-2.6c-1.4,0-2.6,1.2-2.6,2.6v2.2
	c-2,0.5-3.9,1.6-5.3,3l-1.9-1.1c-1.2-0.7-2.8-0.3-3.5,0.9c-0.7,1.2-0.3,2.8,0.9,3.5l1.9,1.2c-0.3,1-0.5,2.1-0.5,3.2
	c0,1.1,0.2,2.2,0.5,3.2l-1.9,1.2c-1.2,0.7-1.6,2.3-0.9,3.5c0.5,0.8,1.3,1.3,2.2,1.3c0.5,0,0.9-0.1,1.3-0.4l1.9-1.1
	c1.4,1.5,3.2,2.5,5.3,3v2.2c0,1.4,1.2,2.6,2.6,2.6c1.4,0,2.6-1.2,2.6-2.6v-2.2c2-0.5,3.8-1.5,5.2-2.9l1.7,1c0.4,0.2,0.9,0.4,1.3,0.4
	c0.9,0,1.7-0.4,2.2-1.3C47,33.9,46.6,32.3,45.4,31.6z M33.3,33c-3.2,0-5.8-2.6-5.8-5.8c0-3.2,2.6-5.8,5.8-5.8c3.2,0,5.8,2.6,5.8,5.8
	C39.1,30.4,36.5,33,33.3,33z"/>
</svg>
