<svg width="152" height="44" viewBox="0 0 152 44" fill="none" xmlns="http://www.w3.org/2000/svg">
<path opacity="0.95" d="M144.907 37.2262C136.447 45.9677 122.536 46.2499 113.825 37.8216C105.115 29.3933 104.927 15.4822 113.386 6.74062C121.846 -2.00097 135.758 -2.28308 144.468 6.14519C153.147 14.5735 153.366 28.4846 144.907 37.2262Z" fill="url(#paint0_linear)"/>
<path opacity="0.34" d="M110.191 20.807C110.191 20.807 108.186 20.337 108.343 16.8905C108.499 13.444 112.353 1.06837 128.207 0.47306C128.207 0.47306 134.474 0.159252 138.86 2.79113C138.86 2.79113 126.045 -1.40722 117.617 6.83306C115.58 8.8383 114.421 10.5933 113.168 14.4157C112.009 18.1129 112.322 21.0263 110.191 20.807Z" fill="url(#paint1_linear)"/>
<path d="M12.4701 43.8708C5.60841 43.8708 0 38.2624 0 31.4007C0 24.5391 5.60841 18.9307 12.4701 18.9307C19.3318 18.9307 24.9402 24.5391 24.9402 31.4007C24.9402 38.3564 19.3318 43.8708 12.4701 43.8708ZM12.4701 21.0926C6.76768 21.0926 2.0679 25.6983 2.0679 31.4947C2.0679 37.1971 6.67369 41.8969 12.4701 41.8969C18.1725 41.8969 22.8723 37.2911 22.8723 31.4947C22.8723 25.6983 18.1725 21.0926 12.4701 21.0926Z" fill="#EB6D00"/>
<path d="M48.8606 43.9106C44.0668 43.9106 40.1816 40.0254 40.1816 35.2317C40.1816 30.4379 44.0668 26.5527 48.8606 26.5527C50.4898 26.5527 52.1191 26.9914 53.4664 27.9C53.905 28.182 54.093 28.9026 53.8423 29.3413C53.5603 29.7799 52.8397 29.9679 52.4011 29.7173C49.3305 27.806 45.2574 28.7146 43.3462 31.7852C41.4349 34.8557 42.3435 38.9288 45.4141 40.8401C47.482 42.1873 50.2078 42.1873 52.3697 40.8401C52.8084 40.4641 53.5603 40.6521 53.811 41.1221C54.187 41.5607 53.999 42.3127 53.529 42.5633C52.0877 43.4406 50.4898 43.9106 48.8606 43.9106Z" fill="#3A3535"/>
<path d="M80.9934 43.9106C76.1996 43.9106 72.3145 40.0254 72.3145 35.2317C72.3145 30.4379 76.1996 26.5527 80.9934 26.5527C82.6226 26.5527 84.2519 26.9914 85.5992 27.9C86.1318 28.182 86.2258 28.8086 85.9751 29.3413C85.6932 29.8739 85.0665 29.9679 84.5339 29.7173C84.5339 29.7173 84.5339 29.7173 84.4399 29.7173C81.3694 27.806 77.2962 28.7146 75.385 31.7852C73.4737 34.8557 74.3824 38.9288 77.4529 40.8401C79.5208 42.1873 82.2467 42.1873 84.4086 40.8401C84.8472 40.4641 85.5992 40.6521 85.8498 41.1221C86.2258 41.5607 86.0378 42.3127 85.5678 42.5633C85.5678 42.5633 85.5678 42.5633 85.4738 42.5633C84.2519 43.4406 82.6226 43.9106 80.9934 43.9106Z" fill="#3A3535"/>
<path d="M34.9093 26.5052C35.4419 26.5052 36.0059 27.0378 35.9119 27.6018C35.9119 28.1344 35.4732 28.6044 34.9093 28.6044H32.1834V38.5366C32.1834 39.4452 32.622 40.3539 33.28 41.0745C34.3766 41.7951 35.6299 42.0771 36.8832 41.7951C37.4158 41.7011 37.9798 42.0771 38.0738 42.7038C38.1678 43.2364 37.7918 43.8004 37.1651 43.8944C36.7265 43.9884 36.2565 43.9884 35.7239 43.9884C34.2826 44.0824 32.9353 43.6124 31.8387 42.7351C30.6481 41.6385 30.0215 40.1972 30.0215 38.662V23.748C30.0215 23.2153 30.4601 22.6514 31.0241 22.6514C31.5567 22.6514 32.1207 23.09 32.1207 23.654C32.1207 23.654 32.1207 23.654 32.1207 23.748V26.5365H34.9093V26.5052Z" fill="#EB6D00"/>
<path d="M59.8535 43.8719C59.3208 43.8719 58.7568 43.4332 58.7568 42.7753V19.997C58.7568 19.4644 59.1955 18.9004 59.7595 18.9004C60.2921 18.9004 60.8561 19.339 60.8561 19.903C60.8561 19.903 60.8561 19.903 60.8561 19.997V42.8693C60.9501 43.4332 60.4174 43.8719 59.8535 43.8719Z" fill="#3A3535"/>
<path d="M92.0185 43.8719C91.4858 43.8719 90.9219 43.4332 90.9219 42.7753V19.997C90.9219 19.4644 91.3605 18.9004 91.9245 18.9004C92.4885 18.9004 93.0211 19.339 93.0211 19.903C93.0211 19.903 93.0211 19.903 93.0211 19.997V42.8693C93.0838 43.4332 92.5511 43.8719 92.0185 43.8719Z" fill="#3A3535"/>
<path d="M101.953 43.9588C101.671 43.9588 101.42 43.8648 101.138 43.5828L93.7127 35.3425C93.3367 34.9665 93.3367 34.3399 93.7127 33.9952L99.6657 26.8516C100.042 26.4129 100.762 26.4129 101.201 26.7576C101.64 27.1335 101.64 27.7602 101.295 28.1988L95.9685 34.6219L102.736 42.2042C103.112 42.6428 103.112 43.3008 102.642 43.7394C102.423 43.8648 102.235 43.9588 101.953 43.9588Z" fill="#3A3535"/>
<path d="M66.6171 43.9105C66.0845 43.9105 65.5205 43.4719 65.5205 42.8139V27.6179C65.5205 27.0853 66.0531 26.5213 66.6171 26.6153C67.1498 26.6153 67.6197 27.054 67.6197 27.6179V42.8139C67.7137 43.4405 67.1811 43.9105 66.6171 43.9105Z" fill="#3A3535"/>
<path d="M66.6171 24.0629C67.2228 24.0629 67.7137 23.5719 67.7137 22.9662C67.7137 22.3606 67.2228 21.8696 66.6171 21.8696C66.0115 21.8696 65.5205 22.3606 65.5205 22.9662C65.5205 23.5719 66.0115 24.0629 66.6171 24.0629Z" fill="#3A3535"/>
<path opacity="0.64" d="M141.774 6.48871C146.537 10.7185 147.571 17.4234 144.03 21.4026C140.49 25.3817 133.753 25.1624 128.991 20.9326C124.228 16.7028 123.195 9.99788 126.735 6.01873C130.276 2.00825 137.012 2.22758 141.774 6.48871Z" fill="url(#paint2_linear)"/>
<path opacity="0.19" d="M147.79 22.9706C147.79 22.9706 149.795 23.4406 149.638 26.8871C149.482 30.3336 145.628 42.7098 129.774 43.3051C129.774 43.3051 123.508 43.6183 119.121 40.9864C119.121 40.9864 131.936 45.1848 140.364 36.9445C142.401 34.9393 143.56 33.1849 144.813 29.3624C145.973 25.6339 145.659 22.72 147.79 22.9706Z" fill="url(#paint3_linear)"/>
<path d="M114.17 19.9942C114.42 19.3675 114.859 19.1484 115.36 19.1484C115.862 19.1484 116.301 19.3675 116.551 19.9942L118.995 25.8848C119.246 26.5114 118.995 26.9812 118.431 27.0438C117.93 27.1065 117.585 26.8875 117.366 26.3236L116.958 25.3206H113.825L113.418 26.3236C113.199 26.8875 112.854 27.1065 112.353 27.0438C111.757 26.9812 111.507 26.5114 111.789 25.8848L114.17 19.9942ZM114.358 23.9418H116.426L115.392 21.4041L114.358 23.9418Z" fill="white"/>
<path d="M121.157 19.1465H123.319C126.233 19.1465 127.329 20.8383 127.329 23.0942C127.329 25.3501 126.233 27.0419 123.319 27.0419H121.157C120.561 27.0419 120.248 26.7284 120.248 26.1331V20.0552C120.248 19.4599 120.593 19.1465 121.157 19.1465ZM122.003 20.6188V25.5383H123.319C124.948 25.5383 125.574 24.5669 125.574 23.063C125.574 21.559 124.948 20.5876 123.319 20.5876H122.003V20.6188Z" fill="white"/>
<path d="M128.363 19.1474C128.457 19.1161 128.552 19.1162 128.646 19.1162C129.053 19.1162 129.335 19.3977 129.491 19.8677L131.371 24.8184L133.251 19.8677C133.408 19.3977 133.69 19.1162 134.097 19.1162C134.191 19.1162 134.254 19.1161 134.348 19.1474C134.974 19.3041 135.037 19.8677 134.818 20.4943L132.562 26.1659C132.311 26.8239 131.872 27.0428 131.371 27.0428C130.839 27.0428 130.432 26.8239 130.181 26.1659L127.893 20.4943C127.643 19.8677 127.737 19.3041 128.363 19.1474Z" fill="white"/>
<defs>
<linearGradient id="paint0_linear" x1="146.58" y1="12.4099" x2="85.2407" y2="45.7887" gradientUnits="userSpaceOnUse">
<stop stop-color="#F45E64"/>
<stop offset="0.201" stop-color="#E84542"/>
<stop offset="0.554" stop-color="#B80F0C"/>
<stop offset="1" stop-color="#8161ED" stop-opacity="0"/>
</linearGradient>
<linearGradient id="paint1_linear" x1="138.436" y1="11.5845" x2="108.721" y2="10.0534" gradientUnits="userSpaceOnUse">
<stop offset="0.1034" stop-color="white" stop-opacity="0"/>
<stop offset="0.363" stop-color="white" stop-opacity="0.6"/>
<stop offset="1" stop-color="white" stop-opacity="0"/>
</linearGradient>
<linearGradient id="paint2_linear" x1="128.915" y1="20.9622" x2="141.73" y2="6.54714" gradientUnits="userSpaceOnUse">
<stop offset="0.103" stop-color="white" stop-opacity="0"/>
<stop offset="0.363" stop-color="white" stop-opacity="0.1"/>
<stop offset="1" stop-color="white" stop-opacity="0.965"/>
</linearGradient>
<linearGradient id="paint3_linear" x1="119.531" y1="32.1626" x2="149.245" y2="33.6937" gradientUnits="userSpaceOnUse">
<stop offset="0.1034" stop-color="white" stop-opacity="0"/>
<stop offset="0.363" stop-color="white" stop-opacity="0.6"/>
<stop offset="1" stop-color="white" stop-opacity="0"/>
</linearGradient>
</defs>
</svg>
