<svg width="524" height="397" viewBox="0 0 524 397" fill="none" xmlns="http://www.w3.org/2000/svg">
<g filter="url(#filter0_f_504_400)">
<path d="M151 392L31 272H151V392Z" fill="url(#paint0_linear_504_400)"/>
</g>
<g filter="url(#filter1_f_504_400)">
<path d="M519 162L399 42V162H519Z" fill="url(#paint1_linear_504_400)"/>
</g>
<g filter="url(#filter2_dd_504_400)">
<path d="M31 35C31 32.7909 32.7909 31 35 31H395C397.209 31 399 32.7909 399 35V272H31V35Z" fill="#F9F9F9"/>
<path d="M399 272.5H399.5V272V35C399.5 32.5147 397.485 30.5 395 30.5H35C32.5147 30.5 30.5 32.5147 30.5 35V272V272.5H31H399Z" stroke="url(#paint2_linear_504_400)"/>
</g>
<path d="M399 43.5H399.5V43V35C399.5 32.5147 397.485 30.5 395 30.5H35C32.5147 30.5 30.5 32.5147 30.5 35V43V43.5H31H399Z" fill="#3A3535" stroke="url(#paint3_linear_504_400)"/>
<path d="M122 59H47C45.8954 59 45 59.8954 45 61V63C45 64.1046 45.8954 65 47 65H122C123.105 65 124 64.1046 124 63V61C124 59.8954 123.105 59 122 59Z" fill="#ECE8E8"/>
<path d="M118 69H47C45.8954 69 45 69.8954 45 71V73C45 74.1046 45.8954 75 47 75H118C119.105 75 120 74.1046 120 73V71C120 69.8954 119.105 69 118 69Z" fill="#ECE8E8"/>
<path d="M110 79H47C45.8954 79 45 79.8954 45 81V83C45 84.1046 45.8954 85 47 85H110C111.105 85 112 84.1046 112 83V81C112 79.8954 111.105 79 110 79Z" fill="#ECE8E8"/>
<path d="M120 89H47C45.8954 89 45 89.8954 45 91V93C45 94.1046 45.8954 95 47 95H120C121.105 95 122 94.1046 122 93V91C122 89.8954 121.105 89 120 89Z" fill="#ECE8E8"/>
<path d="M122 99H47C45.8954 99 45 99.8954 45 101V103C45 104.105 45.8954 105 47 105H122C123.105 105 124 104.105 124 103V101C124 99.8954 123.105 99 122 99Z" fill="#ECE8E8"/>
<path d="M118 109H47C45.8954 109 45 109.895 45 111V113C45 114.105 45.8954 115 47 115H118C119.105 115 120 114.105 120 113V111C120 109.895 119.105 109 118 109Z" fill="#ECE8E8"/>
<path d="M120 119H47C45.8954 119 45 119.895 45 121V123C45 124.105 45.8954 125 47 125H120C121.105 125 122 124.105 122 123V121C122 119.895 121.105 119 120 119Z" fill="#ECE8E8"/>
<path d="M110 129H47C45.8954 129 45 129.895 45 131V133C45 134.105 45.8954 135 47 135H110C111.105 135 112 134.105 112 133V131C112 129.895 111.105 129 110 129Z" fill="#ECE8E8"/>
<path d="M122 139H47C45.8954 139 45 139.895 45 141V143C45 144.105 45.8954 145 47 145H122C123.105 145 124 144.105 124 143V141C124 139.895 123.105 139 122 139Z" fill="#ECE8E8"/>
<path d="M118 149H47C45.8954 149 45 149.895 45 151V153C45 154.105 45.8954 155 47 155H118C119.105 155 120 154.105 120 153V151C120 149.895 119.105 149 118 149Z" fill="#ECE8E8"/>
<path d="M110 159H47C45.8954 159 45 159.895 45 161V163C45 164.105 45.8954 165 47 165H110C111.105 165 112 164.105 112 163V161C112 159.895 111.105 159 110 159Z" fill="#ECE8E8"/>
<path d="M120 169H47C45.8954 169 45 169.895 45 171V173C45 174.105 45.8954 175 47 175H120C121.105 175 122 174.105 122 173V171C122 169.895 121.105 169 120 169Z" fill="#ECE8E8"/>
<path d="M122 179H47C45.8954 179 45 179.895 45 181V183C45 184.105 45.8954 185 47 185H122C123.105 185 124 184.105 124 183V181C124 179.895 123.105 179 122 179Z" fill="#ECE8E8"/>
<path d="M118 189H47C45.8954 189 45 189.895 45 191V193C45 194.105 45.8954 195 47 195H118C119.105 195 120 194.105 120 193V191C120 189.895 119.105 189 118 189Z" fill="#ECE8E8"/>
<path d="M122 219H47C45.8954 219 45 219.895 45 221V223C45 224.105 45.8954 225 47 225H122C123.105 225 124 224.105 124 223V221C124 219.895 123.105 219 122 219Z" fill="#ECE8E8"/>
<path d="M118 229H47C45.8954 229 45 229.895 45 231V233C45 234.105 45.8954 235 47 235H118C119.105 235 120 234.105 120 233V231C120 229.895 119.105 229 118 229Z" fill="#ECE8E8"/>
<path d="M110 239H47C45.8954 239 45 239.895 45 241V243C45 244.105 45.8954 245 47 245H110C111.105 245 112 244.105 112 243V241C112 239.895 111.105 239 110 239Z" fill="#ECE8E8"/>
<path d="M120 249H47C45.8954 249 45 249.895 45 251V253C45 254.105 45.8954 255 47 255H120C121.105 255 122 254.105 122 253V251C122 249.895 121.105 249 120 249Z" fill="#ECE8E8"/>
<path d="M120 199H47C45.8954 199 45 199.895 45 201V203C45 204.105 45.8954 205 47 205H120C121.105 205 122 204.105 122 203V201C122 199.895 121.105 199 120 199Z" fill="#ECE8E8"/>
<path d="M110 209H47C45.8954 209 45 209.895 45 211V213C45 214.105 45.8954 215 47 215H110C111.105 215 112 214.105 112 213V211C112 209.895 111.105 209 110 209Z" fill="#ECE8E8"/>
<path d="M211 59H136C134.895 59 134 59.8954 134 61V103C134 104.105 134.895 105 136 105H211C212.105 105 213 104.105 213 103V61C213 59.8954 212.105 59 211 59Z" fill="#DFDFDF"/>
<path d="M211 109H136C134.895 109 134 109.895 134 111V113C134 114.105 134.895 115 136 115H211C212.105 115 213 114.105 213 113V111C213 109.895 212.105 109 211 109Z" fill="#ECE8E8"/>
<path d="M206.73 119H136C134.895 119 134 119.895 134 121V123C134 124.105 134.895 125 136 125H206.73C207.834 125 208.73 124.105 208.73 123V121C208.73 119.895 207.834 119 206.73 119Z" fill="#ECE8E8"/>
<path d="M300 59H225C223.895 59 223 59.8954 223 61V103C223 104.105 223.895 105 225 105H300C301.105 105 302 104.105 302 103V61C302 59.8954 301.105 59 300 59Z" fill="#DFDFDF"/>
<path d="M300 109H225C223.895 109 223 109.895 223 111V113C223 114.105 223.895 115 225 115H300C301.105 115 302 114.105 302 113V111C302 109.895 301.105 109 300 109Z" fill="#ECE8E8"/>
<path d="M295.73 119H225C223.895 119 223 119.895 223 121V123C223 124.105 223.895 125 225 125H295.73C296.834 125 297.73 124.105 297.73 123V121C297.73 119.895 296.834 119 295.73 119Z" fill="#ECE8E8"/>
<path d="M211 139H136C134.895 139 134 139.895 134 141V183C134 184.105 134.895 185 136 185H211C212.105 185 213 184.105 213 183V141C213 139.895 212.105 139 211 139Z" fill="#DFDFDF"/>
<path d="M211 189H136C134.895 189 134 189.895 134 191V193C134 194.105 134.895 195 136 195H211C212.105 195 213 194.105 213 193V191C213 189.895 212.105 189 211 189Z" fill="#ECE8E8"/>
<path d="M206.73 199H136C134.895 199 134 199.895 134 201V203C134 204.105 134.895 205 136 205H206.73C207.834 205 208.73 204.105 208.73 203V201C208.73 199.895 207.834 199 206.73 199Z" fill="#ECE8E8"/>
<path d="M300 139H225C223.895 139 223 139.895 223 141V183C223 184.105 223.895 185 225 185H300C301.105 185 302 184.105 302 183V141C302 139.895 301.105 139 300 139Z" fill="#DFDFDF"/>
<path d="M300 189H225C223.895 189 223 189.895 223 191V193C223 194.105 223.895 195 225 195H300C301.105 195 302 194.105 302 193V191C302 189.895 301.105 189 300 189Z" fill="#ECE8E8"/>
<path d="M295.73 199H225C223.895 199 223 199.895 223 201V203C223 204.105 223.895 205 225 205H295.73C296.834 205 297.73 204.105 297.73 203V201C297.73 199.895 296.834 199 295.73 199Z" fill="#ECE8E8"/>
<path d="M300 219H136C134.895 219 134 219.895 134 221V253C134 254.105 134.895 255 136 255H300C301.105 255 302 254.105 302 253V221C302 219.895 301.105 219 300 219Z" fill="#DFDFDF"/>
<path d="M384 59H314C312.895 59 312 59.8954 312 61V87C312 88.1046 312.895 89 314 89H384C385.105 89 386 88.1046 386 87V61C386 59.8954 385.105 59 384 59Z" fill="#DFDFDF"/>
<path d="M384 219H314C312.895 219 312 219.895 312 221V253C312 254.105 312.895 255 314 255H384C385.105 255 386 254.105 386 253V221C386 219.895 385.105 219 384 219Z" fill="#DFDFDF"/>
<path d="M384 99H314C312.895 99 312 99.8954 312 101V207C312 208.105 312.895 209 314 209H384C385.105 209 386 208.105 386 207V101C386 99.8954 385.105 99 384 99Z" fill="url(#paint4_linear_504_400)"/>
<path d="M378.473 115.955L378.484 105.367L367.896 105.377" stroke="white"/>
<path d="M319.299 190.998L319.289 201.586L329.876 201.576" stroke="white"/>
<path d="M37 39C38.1046 39 39 38.1046 39 37C39 35.8954 38.1046 35 37 35C35.8954 35 35 35.8954 35 37C35 38.1046 35.8954 39 37 39Z" fill="#C4C4C4"/>
<path d="M42 39C43.1046 39 44 38.1046 44 37C44 35.8954 43.1046 35 42 35C40.8954 35 40 35.8954 40 37C40 38.1046 40.8954 39 42 39Z" fill="#C4C4C4"/>
<path d="M47 39C48.1046 39 49 38.1046 49 37C49 35.8954 48.1046 35 47 35C45.8954 35 45 35.8954 45 37C45 38.1046 45.8954 39 47 39Z" fill="#C4C4C4"/>
<defs>
<filter id="filter0_f_504_400" x="26" y="267" width="130" height="130" filterUnits="userSpaceOnUse" color-interpolation-filters="sRGB">
<feFlood flood-opacity="0" result="BackgroundImageFix"/>
<feBlend mode="normal" in="SourceGraphic" in2="BackgroundImageFix" result="shape"/>
<feGaussianBlur stdDeviation="2.5" result="effect1_foregroundBlur_504_400"/>
</filter>
<filter id="filter1_f_504_400" x="394" y="37" width="130" height="130" filterUnits="userSpaceOnUse" color-interpolation-filters="sRGB">
<feFlood flood-opacity="0" result="BackgroundImageFix"/>
<feBlend mode="normal" in="SourceGraphic" in2="BackgroundImageFix" result="shape"/>
<feGaussianBlur stdDeviation="2.5" result="effect1_foregroundBlur_504_400"/>
</filter>
<filter id="filter2_dd_504_400" x="0" y="0" width="470" height="343" filterUnits="userSpaceOnUse" color-interpolation-filters="sRGB">
<feFlood flood-opacity="0" result="BackgroundImageFix"/>
<feColorMatrix in="SourceAlpha" type="matrix" values="0 0 0 0 0 0 0 0 0 0 0 0 0 0 0 0 0 0 127 0" result="hardAlpha"/>
<feOffset dx="20" dy="20"/>
<feGaussianBlur stdDeviation="25"/>
<feColorMatrix type="matrix" values="0 0 0 0 0 0 0 0 0 0 0 0 0 0 0 0 0 0 0.25 0"/>
<feBlend mode="normal" in2="BackgroundImageFix" result="effect1_dropShadow_504_400"/>
<feColorMatrix in="SourceAlpha" type="matrix" values="0 0 0 0 0 0 0 0 0 0 0 0 0 0 0 0 0 0 127 0" result="hardAlpha"/>
<feOffset dx="10" dy="10"/>
<feGaussianBlur stdDeviation="6"/>
<feColorMatrix type="matrix" values="0 0 0 0 0 0 0 0 0 0 0 0 0 0 0 0 0 0 0.21 0"/>
<feBlend mode="normal" in2="effect1_dropShadow_504_400" result="effect2_dropShadow_504_400"/>
<feBlend mode="normal" in="SourceGraphic" in2="effect2_dropShadow_504_400" result="shape"/>
</filter>
<linearGradient id="paint0_linear_504_400" x1="36.1099" y1="252.232" x2="99.2415" y2="327.542" gradientUnits="userSpaceOnUse">
<stop stop-opacity="0.35"/>
<stop offset="1" stop-opacity="0"/>
</linearGradient>
<linearGradient id="paint1_linear_504_400" x1="401.148" y1="44.9791" x2="465.119" y2="109.149" gradientUnits="userSpaceOnUse">
<stop stop-opacity="0.35"/>
<stop offset="0.796875" stop-opacity="0"/>
</linearGradient>
<linearGradient id="paint2_linear_504_400" x1="31" y1="31" x2="96.9399" y2="38.1256" gradientUnits="userSpaceOnUse">
<stop stop-color="white" stop-opacity="0.13"/>
<stop offset="1" stop-color="white" stop-opacity="0"/>
</linearGradient>
<linearGradient id="paint3_linear_504_400" x1="31" y1="31" x2="42.6831" y2="56.3552" gradientUnits="userSpaceOnUse">
<stop stop-color="white" stop-opacity="0.13"/>
<stop offset="1" stop-color="white" stop-opacity="0"/>
</linearGradient>
<linearGradient id="paint4_linear_504_400" x1="312" y1="154" x2="386" y2="154" gradientUnits="userSpaceOnUse">
<stop stop-color="#CE302D"/>
<stop offset="1" stop-color="#EB6D00"/>
</linearGradient>
</defs>
</svg>
