<svg width="524" height="397" viewBox="0 0 524 397" fill="none" xmlns="http://www.w3.org/2000/svg">
<g filter="url(#filter0_f_504_450)">
<path d="M151 392L31 272H151V392Z" fill="url(#paint0_linear_504_450)"/>
</g>
<g filter="url(#filter1_f_504_450)">
<path d="M519 162L399 42V162H519Z" fill="url(#paint1_linear_504_450)"/>
</g>
<g filter="url(#filter2_dd_504_450)">
<path d="M31 35C31 32.7909 32.7909 31 35 31H395C397.209 31 399 32.7909 399 35V272H31V35Z" fill="#F9F9F9"/>
<path d="M399 272.5H399.5V272V35C399.5 32.5147 397.485 30.5 395 30.5H35C32.5147 30.5 30.5 32.5147 30.5 35V272V272.5H31H399Z" stroke="url(#paint2_linear_504_450)"/>
</g>
<path d="M399 43.5H399.5V43V35C399.5 32.5147 397.485 30.5 395 30.5H35C32.5147 30.5 30.5 32.5147 30.5 35V43V43.5H31H399Z" fill="#3A3535" stroke="url(#paint3_linear_504_450)"/>
<path d="M206 206H127C125.895 206 125 206.895 125 208V210C125 211.105 125.895 212 127 212H206C207.105 212 208 211.105 208 210V208C208 206.895 207.105 206 206 206Z" fill="#ECE8E8"/>
<path d="M206 236H127C125.895 236 125 236.895 125 238V240C125 241.105 125.895 242 127 242H206C207.105 242 208 241.105 208 240V238C208 236.895 207.105 236 206 236Z" fill="#ECE8E8"/>
<path d="M199 216H127C125.895 216 125 216.895 125 218V220C125 221.105 125.895 222 127 222H199C200.105 222 201 221.105 201 220V218C201 216.895 200.105 216 199 216Z" fill="#ECE8E8"/>
<path d="M182 246H127C125.895 246 125 246.895 125 248V250C125 251.105 125.895 252 127 252H182C183.105 252 184 251.105 184 250V248C184 246.895 183.105 246 182 246Z" fill="#ECE8E8"/>
<path d="M191 226H127C125.895 226 125 226.895 125 228V230C125 231.105 125.895 232 127 232H191C192.105 232 193 231.105 193 230V228C193 226.895 192.105 226 191 226Z" fill="#ECE8E8"/>
<path d="M119 206H44C42.8954 206 42 206.895 42 208V250C42 251.105 42.8954 252 44 252H119C120.105 252 121 251.105 121 250V208C121 206.895 120.105 206 119 206Z" fill="#DFDFDF"/>
<path d="M382 206H303C301.895 206 301 206.895 301 208V210C301 211.105 301.895 212 303 212H382C383.105 212 384 211.105 384 210V208C384 206.895 383.105 206 382 206Z" fill="#ECE8E8"/>
<path d="M382 236H303C301.895 236 301 236.895 301 238V240C301 241.105 301.895 242 303 242H382C383.105 242 384 241.105 384 240V238C384 236.895 383.105 236 382 236Z" fill="#ECE8E8"/>
<path d="M375 216H303C301.895 216 301 216.895 301 218V220C301 221.105 301.895 222 303 222H375C376.105 222 377 221.105 377 220V218C377 216.895 376.105 216 375 216Z" fill="#ECE8E8"/>
<path d="M358 246H303C301.895 246 301 246.895 301 248V250C301 251.105 301.895 252 303 252H358C359.105 252 360 251.105 360 250V248C360 246.895 359.105 246 358 246Z" fill="#ECE8E8"/>
<path d="M367 226H303C301.895 226 301 226.895 301 228V230C301 231.105 301.895 232 303 232H367C368.105 232 369 231.105 369 230V228C369 226.895 368.105 226 367 226Z" fill="#ECE8E8"/>
<path d="M295 206H220C218.895 206 218 206.895 218 208V250C218 251.105 218.895 252 220 252H295C296.105 252 297 251.105 297 250V208C297 206.895 296.105 206 295 206Z" fill="#DFDFDF"/>
<path d="M208 58H133C131.895 58 131 58.8954 131 60V102C131 103.105 131.895 104 133 104H208C209.105 104 210 103.105 210 102V60C210 58.8954 209.105 58 208 58Z" fill="#DFDFDF"/>
<path d="M119 58H44C42.8954 58 42 58.8954 42 60V102C42 103.105 42.8954 104 44 104H119C120.105 104 121 103.105 121 102V60C121 58.8954 120.105 58 119 58Z" fill="#DFDFDF"/>
<path d="M297 58H222C220.895 58 220 58.8954 220 60V102C220 103.105 220.895 104 222 104H297C298.105 104 299 103.105 299 102V60C299 58.8954 298.105 58 297 58Z" fill="#DFDFDF"/>
<path d="M386 58H311C309.895 58 309 58.8954 309 60V102C309 103.105 309.895 104 311 104H386C387.105 104 388 103.105 388 102V60C388 58.8954 387.105 58 386 58Z" fill="#DFDFDF"/>
<path d="M386 112H44C42.8954 112 42 112.895 42 114V196C42 197.105 42.8954 198 44 198H386C387.105 198 388 197.105 388 196V114C388 112.895 387.105 112 386 112Z" fill="url(#paint4_linear_504_450)"/>
<path d="M220.5 154.634C221.167 155.019 221.167 155.981 220.5 156.366L213.75 160.263C213.083 160.648 212.25 160.167 212.25 159.397V151.603C212.25 150.833 213.083 150.352 213.75 150.737L220.5 154.634Z" fill="white"/>
<path d="M37 38C38.1046 38 39 37.1046 39 36C39 34.8954 38.1046 34 37 34C35.8954 34 35 34.8954 35 36C35 37.1046 35.8954 38 37 38Z" fill="#C4C4C4"/>
<path d="M42 38C43.1046 38 44 37.1046 44 36C44 34.8954 43.1046 34 42 34C40.8954 34 40 34.8954 40 36C40 37.1046 40.8954 38 42 38Z" fill="#C4C4C4"/>
<path d="M47 38C48.1046 38 49 37.1046 49 36C49 34.8954 48.1046 34 47 34C45.8954 34 45 34.8954 45 36C45 37.1046 45.8954 38 47 38Z" fill="#C4C4C4"/>
<defs>
<filter id="filter0_f_504_450" x="26" y="267" width="130" height="130" filterUnits="userSpaceOnUse" color-interpolation-filters="sRGB">
<feFlood flood-opacity="0" result="BackgroundImageFix"/>
<feBlend mode="normal" in="SourceGraphic" in2="BackgroundImageFix" result="shape"/>
<feGaussianBlur stdDeviation="2.5" result="effect1_foregroundBlur_504_450"/>
</filter>
<filter id="filter1_f_504_450" x="394" y="37" width="130" height="130" filterUnits="userSpaceOnUse" color-interpolation-filters="sRGB">
<feFlood flood-opacity="0" result="BackgroundImageFix"/>
<feBlend mode="normal" in="SourceGraphic" in2="BackgroundImageFix" result="shape"/>
<feGaussianBlur stdDeviation="2.5" result="effect1_foregroundBlur_504_450"/>
</filter>
<filter id="filter2_dd_504_450" x="0" y="0" width="470" height="343" filterUnits="userSpaceOnUse" color-interpolation-filters="sRGB">
<feFlood flood-opacity="0" result="BackgroundImageFix"/>
<feColorMatrix in="SourceAlpha" type="matrix" values="0 0 0 0 0 0 0 0 0 0 0 0 0 0 0 0 0 0 127 0" result="hardAlpha"/>
<feOffset dx="20" dy="20"/>
<feGaussianBlur stdDeviation="25"/>
<feColorMatrix type="matrix" values="0 0 0 0 0 0 0 0 0 0 0 0 0 0 0 0 0 0 0.25 0"/>
<feBlend mode="normal" in2="BackgroundImageFix" result="effect1_dropShadow_504_450"/>
<feColorMatrix in="SourceAlpha" type="matrix" values="0 0 0 0 0 0 0 0 0 0 0 0 0 0 0 0 0 0 127 0" result="hardAlpha"/>
<feOffset dx="10" dy="10"/>
<feGaussianBlur stdDeviation="6"/>
<feColorMatrix type="matrix" values="0 0 0 0 0 0 0 0 0 0 0 0 0 0 0 0 0 0 0.21 0"/>
<feBlend mode="normal" in2="effect1_dropShadow_504_450" result="effect2_dropShadow_504_450"/>
<feBlend mode="normal" in="SourceGraphic" in2="effect2_dropShadow_504_450" result="shape"/>
</filter>
<linearGradient id="paint0_linear_504_450" x1="36.1099" y1="252.232" x2="99.2415" y2="327.542" gradientUnits="userSpaceOnUse">
<stop stop-opacity="0.35"/>
<stop offset="1" stop-opacity="0"/>
</linearGradient>
<linearGradient id="paint1_linear_504_450" x1="401.148" y1="44.9791" x2="465.119" y2="109.149" gradientUnits="userSpaceOnUse">
<stop stop-opacity="0.35"/>
<stop offset="0.796875" stop-opacity="0"/>
</linearGradient>
<linearGradient id="paint2_linear_504_450" x1="31" y1="31" x2="96.9399" y2="38.1256" gradientUnits="userSpaceOnUse">
<stop stop-color="white" stop-opacity="0.13"/>
<stop offset="1" stop-color="white" stop-opacity="0"/>
</linearGradient>
<linearGradient id="paint3_linear_504_450" x1="31" y1="31" x2="42.6831" y2="56.3552" gradientUnits="userSpaceOnUse">
<stop stop-color="white" stop-opacity="0.13"/>
<stop offset="1" stop-color="white" stop-opacity="0"/>
</linearGradient>
<linearGradient id="paint4_linear_504_450" x1="42" y1="155" x2="388" y2="155" gradientUnits="userSpaceOnUse">
<stop stop-color="#CE302D"/>
<stop offset="1" stop-color="#EB6D00"/>
</linearGradient>
</defs>
</svg>
