<?xml version="1.0" encoding="utf-8"?>
<!-- Generator: Adobe Illustrator 24.3.0, SVG Export Plug-In . SVG Version: 6.00 Build 0)  -->
<svg version="1.1" id="Слой_1" xmlns="http://www.w3.org/2000/svg" xmlns:xlink="http://www.w3.org/1999/xlink" x="0px" y="0px"
	 viewBox="0 0 66 66" style="enable-background:new 0 0 66 66;" xml:space="preserve">
<style type="text/css">
	.st0{fill:#CEE1F2;}
	.st1{fill:url(#SVGID_1_);}
	.st2{fill:#3A3535;}
</style>
<path class="st0" d="M10.3,33c0-15.5,11.6-28.3,26.6-30.2c-1.3-0.2-2.6-0.2-3.9-0.2C16.2,2.6,2.6,16.2,2.6,33S16.2,63.4,33,63.4
	c1.3,0,2.6-0.1,3.9-0.2C21.9,61.3,10.3,48.5,10.3,33z"/>
<linearGradient id="SVGID_1_" gradientUnits="userSpaceOnUse" x1="42.2168" y1="67" x2="42.2168" y2="19.5625" gradientTransform="matrix(1 0 0 -1 0 67)">
	<stop  offset="0" style="stop-color:#FF4E50"/>
	<stop  offset="1" style="stop-color:#F9D423"/>
</linearGradient>
<path class="st1" d="M63.4,17.7c-1.4,0-2.6-1.2-2.6-2.6V7.7c0-1.4-1.2-2.6-2.6-2.6H51c-1.4,0-2.6-1.2-2.6-2.6C48.5,1.2,49.6,0,51,0
	h7.2C62.5,0,66,3.5,66,7.7v7.3C66,16.5,64.8,17.7,63.4,17.7z M22.8,46.7l33.4-33.4c1-1,1-2.6,0-3.6c-1-1-2.6-1-3.6,0L19.2,43
	c-1,1-1,2.6,0,3.6c0.5,0.5,1.2,0.8,1.8,0.8C21.7,47.4,22.3,47.2,22.8,46.7z"/>
<path class="st2" d="M43.3,51.7c-4.3,0-7.7-3.5-7.7-7.7c0-4.3,3.5-7.7,7.7-7.7S51,39.7,51,44C51,48.2,47.6,51.7,43.3,51.7z
	 M43.3,41.4c-1.4,0-2.6,1.2-2.6,2.6c0,1.4,1.2,2.6,2.6,2.6s2.6-1.2,2.6-2.6C45.9,42.5,44.7,41.4,43.3,41.4z M22.7,29.8
	c-4.3,0-7.7-3.5-7.7-7.7c0-4.3,3.5-7.7,7.7-7.7s7.7,3.5,7.7,7.7C30.4,26.3,27,29.8,22.7,29.8z M22.7,19.5c-1.4,0-2.6,1.2-2.6,2.6
	c0,1.4,1.2,2.6,2.6,2.6s2.6-1.2,2.6-2.6C25.3,20.6,24.1,19.5,22.7,19.5z M56.3,56.3C62.6,50.1,66,41.8,66,33c0-2.8-0.3-5.6-1-8.2
	c-0.4-1.4-1.8-2.2-3.1-1.9c-1.4,0.4-2.2,1.8-1.9,3.1c0.6,2.3,0.9,4.6,0.9,7c0,15.4-12.5,27.8-27.8,27.8S5.2,48.4,5.2,33
	S17.6,5.2,33,5.2c2.4,0,4.8,0.3,7.1,0.9c1.4,0.4,2.8-0.5,3.1-1.8s-0.5-2.8-1.8-3.1C38.7,0.4,35.8,0,33,0C24.2,0,15.9,3.4,9.7,9.7
	C3.4,15.9,0,24.2,0,33s3.4,17.1,9.7,23.3C15.9,62.6,24.2,66,33,66S50.1,62.6,56.3,56.3z"/>
</svg>
