<?xml version="1.0" encoding="utf-8"?>
<!-- Generator: Adobe Illustrator 24.3.0, SVG Export Plug-In . SVG Version: 6.00 Build 0)  -->
<svg version="1.1" id="Слой_1" xmlns="http://www.w3.org/2000/svg" xmlns:xlink="http://www.w3.org/1999/xlink" x="0px" y="0px"
	 viewBox="0 0 66 66" style="enable-background:new 0 0 66 66;" xml:space="preserve">
<style type="text/css">
	.st0{fill:#CEE1F2;}
	.st1{fill:#3A3535;}
	.st2{fill:url(#SVGID_1_);}
</style>
<path class="st0" d="M10.5,35.6c0-11.9,7.5-22.1,18-26.1c-1.2-1-2.8-1.4-4.4-1.1C11.8,11.3,2.6,22.4,2.6,35.6
	C2.6,51,15,63.4,30.4,63.4c1.3,0,2.7-0.1,4-0.3C20.9,61.2,10.5,49.7,10.5,35.6z"/>
<path class="st1" d="M30.4,66c-8.1,0-15.8-3.2-21.5-8.9C3.2,51.4,0,43.7,0,35.6c0-6.9,2.4-13.7,6.7-19.1C11,11.2,16.9,7.5,23.5,5.9
	c2.3-0.5,4.7,0,6.5,1.5c1.9,1.5,2.9,3.7,2.9,6.1v16.9c0,1.4,1.2,2.6,2.6,2.6h16.9c2.4,0,4.6,1.1,6.1,2.9c1.5,1.9,2,4.2,1.5,6.5
	c-1.5,6.6-5.3,12.6-10.6,16.8C44.1,63.6,37.3,66,30.4,66z M25.3,10.9c-0.2,0-0.4,0-0.6,0.1C13.2,13.6,5.2,23.8,5.2,35.6
	c0,6.8,2.6,13.1,7.4,17.9c4.8,4.8,11.1,7.4,17.9,7.4c11.8,0,22-8,24.6-19.5c0.2-0.8,0-1.6-0.5-2.2c-0.5-0.6-1.2-1-2-1H35.6
	c-4.3,0-7.7-3.5-7.7-7.7V13.5c0-0.8-0.4-1.5-1-2C26.4,11.1,25.8,10.9,25.3,10.9z M24.1,8.5L24.1,8.5L24.1,8.5z"/>
<linearGradient id="SVGID_1_" gradientUnits="userSpaceOnUse" x1="52.0772" y1="67" x2="52.0772" y2="39.1543" gradientTransform="matrix(1 0 0 -1 0 67)">
	<stop  offset="0" style="stop-color:#FF4E50"/>
	<stop  offset="1" style="stop-color:#F9D423"/>
</linearGradient>
<path class="st2" d="M58.1,27.8h-12c-4.4,0-7.9-3.6-7.9-7.9v-12c0-2.5,1.2-4.9,3.2-6.4C43.4,0,46-0.4,48.4,0.4
	c4,1.2,7.7,3.5,10.7,6.5c3,3,5.2,6.7,6.5,10.7c0.8,2.4,0.3,5-1.2,7.1C62.9,26.7,60.6,27.8,58.1,27.8z M46.1,5.2
	c-0.6,0-1.2,0.2-1.6,0.5c-0.7,0.5-1.1,1.3-1.1,2.2v12c0,1.5,1.2,2.8,2.8,2.8h12c0.9,0,1.7-0.4,2.2-1.1c0.5-0.7,0.7-1.6,0.4-2.5
	c-1-3.2-2.8-6.2-5.2-8.6c-2.4-2.4-5.4-4.2-8.6-5.2C46.6,5.2,46.4,5.2,46.1,5.2z"/>
</svg>
