<?xml version="1.0" encoding="utf-8"?>
<!-- Generator: Adobe Illustrator 24.3.0, SVG Export Plug-In . SVG Version: 6.00 Build 0)  -->
<svg version="1.1" id="Слой_1" xmlns="http://www.w3.org/2000/svg" xmlns:xlink="http://www.w3.org/1999/xlink" x="0px" y="0px"
	 viewBox="0 0 66 66" style="enable-background:new 0 0 66 66;" xml:space="preserve">
<style type="text/css">
	.st0{fill:#CEE1F2;}
	.st1{fill:#3A3535;}
	.st2{fill:url(#SVGID_1_);}
</style>
<path class="st0" d="M36.6,62.2c-1.1,0.7-2.2,1.2-3.6,1.2c-3.8,0-7-3.1-7-7V45.9c0-3.8,3.1-7,7-7c1.4,0,2.5,0.4,3.6,1.2
	c-1.9,1.2-3.1,3.4-3.1,5.8v10.6C33.5,58.9,34.7,61,36.6,62.2z M57,56.5V33.9c0-2.4,1.2-4.5,3.1-5.8c-1.1-0.7-2.2-1.2-3.6-1.2
	c-3.8,0-7,3.1-7,7v22.6c0,3.8,3.1,7,7,7c1.4,0,2.5-0.4,3.6-1.2C58.2,61,57,58.9,57,56.5z M10.1,56.5V32c0-2.4,1.2-4.5,3.1-5.8
	C12,25.4,11,25,9.5,25c-3.8,0-7,3.1-7,7v24.5c0,3.8,3.1,7,7,7c1.4,0,2.5-0.4,3.6-1.2C11.3,61,10.1,58.9,10.1,56.5z"/>
<path class="st1" d="M9.5,66C4.3,66,0,61.7,0,56.5V32c0-5.3,4.3-9.5,9.5-9.5c5.3,0,9.5,4.3,9.5,9.5v24.5C19.1,61.7,14.8,66,9.5,66z
	 M9.5,27.6c-2.4,0-4.4,2-4.4,4.4v24.5c0,2.4,2,4.4,4.4,4.4c2.4,0,4.4-2,4.4-4.4V32C13.9,29.6,12,27.6,9.5,27.6z M33,66
	c-5.3,0-9.5-4.3-9.5-9.5V45.9c0-5.3,4.3-9.5,9.5-9.5s9.5,4.3,9.5,9.5v10.6C42.5,61.7,38.3,66,33,66z M33,41.5c-2.4,0-4.4,2-4.4,4.4
	v10.6c0,2.4,2,4.4,4.4,4.4s4.4-2,4.4-4.4V45.9C37.4,43.5,35.4,41.5,33,41.5z M56.5,66c-5.3,0-9.5-4.3-9.5-9.5V33.9
	c0-5.3,4.3-9.5,9.5-9.5s9.5,4.3,9.5,9.5v22.6C66,61.7,61.7,66,56.5,66z M56.5,29.5c-2.4,0-4.4,2-4.4,4.4v22.6c0,2.4,2,4.4,4.4,4.4
	c2.4,0,4.4-2,4.4-4.4V33.9C60.8,31.5,58.9,29.5,56.5,29.5z"/>
<linearGradient id="SVGID_1_" gradientUnits="userSpaceOnUse" x1="33" y1="67" x2="33" y2="35.5533" gradientTransform="matrix(1 0 0 -1 0 67)">
	<stop  offset="0" style="stop-color:#FF4E50"/>
	<stop  offset="1" style="stop-color:#F9D423"/>
</linearGradient>
<path class="st2" d="M35.4,31.4c-2,0-3.9-0.6-5.6-1.9c0,0-16.5-15-16.5-15c-1.5-1.1-3.5-1-4.9,0.2l-4.1,4c-1,1-2.6,1-3.6,0
	c-1-1-1-2.6,0-3.6c0,0,4.2-4.1,4.2-4.2c3.3-2.9,8.2-3.1,11.6-0.4c0,0,16.5,15,16.5,15c1.6,1.2,3.9,1,5.2-0.5c0,0,0,0,0-0.1l14.3-15
	c1-1,2.6-1.1,3.6-0.1c1,1,1.1,2.6,0.1,3.6l-14.3,15C40.4,30.4,37.9,31.4,35.4,31.4L35.4,31.4z M66,14.7v-7C66,3.5,62.5,0,58.3,0h-7
	c-1.4,0-2.6,1.2-2.6,2.6c0,1.4,1.2,2.6,2.6,2.6h7c1.4,0,2.6,1.2,2.6,2.6v7c0,1.4,1.2,2.6,2.6,2.6C64.8,17.3,66,16.1,66,14.7z"/>
</svg>
